<?xml version="1.0" encoding="utf-8"?>
<!-- Generator: Adobe Illustrator 18.1.0, SVG Export Plug-In . SVG Version: 6.00 Build 0)  -->
<svg version="1.1" id="Layer_1" xmlns="http://www.w3.org/2000/svg" xmlns:xlink="http://www.w3.org/1999/xlink" x="0px" y="0px"
	 viewBox="0 0 204.5 81" enable-background="new 0 0 204.5 81" xml:space="preserve">
<g>
	<path fill="#414042" d="M59.4,47.4c0-4.7,1.9-9.1,4.4-11.9c2.5-2.8,5.9-4.6,9.8-4.6c2.5,0,4.7,0.7,6.9,1.9
		c-0.8,4.1-1.7,10.2-1.7,14.5c0,4,0.8,7.2,2.8,7.2c2.2,0,5.3-4.4,7.5-16.6l1.2,0.1C87.7,53,84,57,80.4,57c-4.1,0-6.2-5-6.1-10.1
		h-0.1c-2.2,6.8-4.9,10.1-8.3,10.1C62.4,56.9,59.4,53.4,59.4,47.4z M72.4,47.1c1.3-3.8,2.4-8.6,3.2-12.4c-1.2-0.8-2.7-1.3-4.1-1.3
		c-1.7,0-3.4,0.6-4.7,1.9c-1.6,2.6-2.7,7-2.7,11.2c0,4.3,1.3,7.9,3.3,7.9C69,54.3,70.7,52.2,72.4,47.1z"/>
	<path fill="#414042" d="M87.5,52.6c0-4.9,1.9-13.4,1.9-20.2c1-0.6,2.8-1.4,3.7-1.4c1,0,1.2,1,1.2,1.9c0,2.7-1.4,7.4-1.9,12.5h0.2
		c1.7-7.4,4.6-14.5,9.3-14.5c2.2,0,3.6,1.6,3.6,3.4s-1.4,2.9-3.1,3.4c-0.3-1.5-1.1-2.3-2.2-2.3c-1.9,0-3.7,2.3-5.3,7
		c-1.4,4-2.3,8.8-2.7,13.7c-1,0.5-2.1,0.9-2.8,0.9C88,56.9,87.5,55.2,87.5,52.6z"/>
	<path fill="#414042" d="M107.5,32.4c1-0.7,2.8-1.4,3.8-1.4c0.7,0,1.1,0.4,1.1,1.3c0,0.8-0.4,2.8-0.8,5.2c-0.7,3.3-1.4,7.4-1.4,10.7
		c0,3.7,0.9,6.3,2.8,6.3c2.4,0,3-1.5,3.4-3l0.7,0.1c0.5,0.1,0.8,0.5,0.7,1c-0.4,1.8-2.8,4.3-6.2,4.3c-3.3,0-6.1-2.6-6.1-8.8
		C105.5,43.7,106.9,37.9,107.5,32.4z M109.3,22.1c0-1.7,1.4-3.1,3.1-3.1c1.7,0,3.1,1.4,3.1,3.1c0,1.7-1.4,3.2-3.1,3.2
		C110.7,25.3,109.3,23.9,109.3,22.1z"/>
	<path fill="#414042" d="M121.4,50.6c0,2.6,1.2,4.3,3.7,4.3c2.3,0,4.3-1.4,4.3-3.5c0-1.9-1.6-3.4-4.7-5.8c-3.4-2.6-5.6-4.3-5.6-7.2
		c0-4.9,5.9-7.6,10.1-7.6c3.4,0,5.9,1.9,5.9,4.6c0,2.1-1.4,3.4-3.6,3.4c0.1-0.4,0.1-0.6,0.1-0.9c0-2.9-1.6-4.9-4.4-4.9
		c-2.4,0-4.4,1.4-4.4,3.4c0,1.7,1.6,3.2,5.2,6.1c3.1,2.4,5.3,3.9,5.3,6.7c0,4.5-5.4,7.7-9.7,7.7c-2.5,0-5.1-1.1-5.1-3.5
		C118.5,51.9,119.4,50.7,121.4,50.6z"/>
	<path fill="#414042" d="M135.5,49c0-7.8,1.6-17.1,3.8-25.3c1.1-4.2,2.4-7.9,3.7-10.9c1.4-1.1,3.7-2.4,4.7-2.4
		c0.6,0,1.2,0.5,1.8,1.1c1.4,1.4,2.9,3.8,2.9,7.5c0,6.4-4.7,13.4-11,15.2c-0.7,4-1.3,9-1.3,12.3c0,1,0,1.6,0.1,2.4h0.2
		c0.5-3.1,1.3-5.9,2.2-8.1c2-4.9,5-8.3,8.8-8.8c2.5,0.4,3.3,1.6,3.5,3.7c0.3,3.2-0.7,5.7-0.5,10c0.1,4.3,0.5,6.1,3,5.7
		c3.2-0.4,3.7-4,10-6.8l0.2,1.8c-6.8,3.8-5.7,7.6-11.2,7.9c-5.1,0.3-5.3-5.9-5.3-8.5c0-4.3,0.6-7,0.6-8.8c0-1.1-0.5-1.9-1.6-1.9
		c-0.8,0-1.7,0.4-2.6,1.1c-1.4,1.3-2.8,3.7-4,6.8c-1.7,4.7-2.2,9.5-2.2,12.8c-1.3,0.7-2.5,1.1-3.1,1.1
		C135.7,57.1,135.5,51.7,135.5,49z M149.3,21c0-2.7-0.9-5.5-2.8-7.3c-2,5.6-3.6,11.9-4.7,18.8C146.3,31.1,149.3,25.9,149.3,21z"/>
	<path fill="#414042" d="M167,34.5c1.9-2,4.4-3.5,6.8-3.8c2.7-0.3,4.6,1.3,4.9,3.9c0.2,2.4-1.1,4.8-3,6.7c-2.3,2.3-5.4,3.6-8.3,5.2
		c0.7,3.7,2.3,7.9,6.1,7.7c3.4-0.2,5.6-2.7,6.7-5.6c0.3-0.8,1.1-1.3,1.9-1.2l0.5,0c-0.1,3.3-2.6,8.3-9.3,9c-5.4,0.5-10-2.5-10.6-9.3
		C162.3,42.9,163.7,38.1,167,34.5z M175,36.1c-0.2-1.9-1.1-2.8-2.6-2.7c-1.7,0.2-3.1,1.6-4.1,4.1c-0.8,2.1-1.2,5-1.1,7.3
		C170.2,43,175.4,40.7,175,36.1z"/>
	<path fill="#414042" d="M186.2,50.6c0,2.6,1.2,4.3,3.7,4.3c2.3,0,4.3-1.4,4.3-3.5c0-1.9-1.6-3.4-4.7-5.8c-3.4-2.6-5.6-4.3-5.6-7.2
		c0-4.9,5.9-7.6,10.1-7.6c3.4,0,5.9,1.9,5.9,4.6c0,2.1-1.4,3.4-3.6,3.4c0.1-0.4,0.1-0.6,0.1-0.9c0-2.9-1.6-4.9-4.4-4.9
		c-2.4,0-4.4,1.4-4.4,3.4c0,1.7,1.6,3.2,5.2,6.1c3.1,2.4,5.3,3.9,5.3,6.7c0,4.5-5.4,7.7-9.7,7.7c-2.5,0-5.1-1.1-5.1-3.5
		C183.3,51.9,184.1,50.7,186.2,50.6z"/>
</g>
<g>
	<path fill="#414042" d="M138.9,65l0.2,0.4c-0.8,0.6-1.2,2.2-1.2,3.6c0,2.2,1,4.2,2.6,4.2c1.2,0,1.9-1.1,2.3-2.3
		c-1.9-0.5-3.4-2.2-3.4-4.3c0-1.8,1.1-3,2.4-3c1.3,0,2.9,1.2,2.9,4c0,0.9-0.1,1.7-0.4,2.5c1.5-0.1,2.8-1.1,3.2-3.6l0.6,0.1
		c-0.4,3.5-2.4,4.4-4.1,4.4c-0.7,1.6-2.2,3.1-4.1,3.1c-2,0-3.7-1.7-3.7-4.4C136.1,67.7,137.1,65.8,138.9,65z M143.2,68.8
		c0-2.1-1-4-2-4c-0.7,0-1,0.9-1,1.7c0,1.6,1.2,3.1,2.9,3.6C143.1,69.7,143.2,69.3,143.2,68.8z"/>
	<path fill="#414042" d="M146.8,71.3c0-2.2,0.6-4.6,0.8-6.9c0.4-0.3,1.2-0.6,1.5-0.6c0.3,0,0.4,0.2,0.4,0.5c0,0.5-0.4,2-0.6,3.6
		c-0.1,0.9-0.3,2.1-0.3,3h0.1c0.2-0.9,0.4-2.1,0.9-3.1c0.9-2.2,2.2-3.9,3.8-4.1c0.9,0.2,1.7,0.7,2.2,1.4c-0.3,1.6-0.9,3.5-0.9,5.4
		c0,1.6,0.4,2.8,1.2,2.8c0.9,0,2-1.6,2.9-6.6l0.6,0.1c-1.1,6.1-2.6,7.5-4.1,7.5c-1.3,0-2.5-1.1-2.5-3.7c0-2,0.6-4,0.6-4.8
		c0-0.4-0.2-0.7-0.6-0.7c-1.1,0-2.2,2.1-2.7,3.5c-0.6,1.7-1,3.6-1.1,5.3c-0.5,0.3-1,0.4-1.2,0.4C146.9,74.2,146.8,72.4,146.8,71.3z"
		/>
	<path fill="#414042" d="M158.3,69.6c0-2.3,0.6-5.8,1.5-8.8c0.2-0.7,0.8-3,1.5-4.4c0.6-0.5,1.5-0.9,1.8-0.9c0.1,0,0.2,0,0.3,0.1
		c0.9,0.6,1.4,2.4,1.4,3.9c0,2.8-1.7,6.4-4.4,7.2c-0.1,1-0.2,1.9-0.2,2.8c0,2.7,0.8,3.8,1.6,3.8c1,0,2.4-1.5,3.4-6.7l0.6,0.1
		c-0.8,4.7-2.3,7.5-4.5,7.5C160,74.2,158.3,73.2,158.3,69.6z M163.5,60.3c0-1.2-0.3-2.5-1-3.3c-0.5,1.4-0.9,2.8-1.1,3.7
		c-0.3,1.4-0.8,3.5-1,5.4C162.4,65.3,163.5,62.7,163.5,60.3z"/>
	<path fill="#414042" d="M165.5,64.4c0.4-0.3,1.1-0.6,1.5-0.6c0.3,0,0.4,0.2,0.4,0.5c0,0.3-0.1,1.1-0.3,2.1c-0.3,1.3-0.6,3-0.6,4.3
		c0,1.5,0.4,2.5,1.1,2.5c1,0,2.1-1.7,3-6.6l0.6,0.1c-1.1,6-2.5,7.5-4.1,7.5c-1.3,0-2.4-1.1-2.4-3.5
		C164.7,68.9,165.3,66.6,165.5,64.4z M166.2,60.3c0-0.7,0.6-1.2,1.2-1.2c0.7,0,1.2,0.6,1.2,1.2c0,0.7-0.6,1.3-1.2,1.3
		C166.8,61.6,166.2,61,166.2,60.3z"/>
	<path fill="#414042" d="M170.2,71.3c0-2.2,0.6-4.6,0.8-6.9c0.4-0.3,1.2-0.6,1.5-0.6c0.3,0,0.4,0.2,0.4,0.5c0,0.5-0.4,2-0.6,3.6
		c-0.1,0.9-0.3,2.1-0.3,3h0.1c0.2-0.9,0.4-2.1,0.9-3.1c0.9-2.2,2.2-3.9,3.8-4.1c0.9,0.2,1.7,0.7,2.2,1.4c-0.3,1.6-0.9,3.5-0.9,5.4
		c0,1.6,0.4,2.8,1.2,2.8c0.9,0,2-1.6,2.9-6.6l0.6,0.1c-1.1,6.1-2.6,7.5-4.1,7.5c-1.3,0-2.5-1.1-2.5-3.7c0-2,0.6-4,0.6-4.8
		c0-0.4-0.2-0.7-0.6-0.7c-1.1,0-2.2,2.1-2.7,3.5c-0.6,1.7-1,3.6-1.1,5.3c-0.5,0.3-1,0.4-1.2,0.4C170.3,74.2,170.2,72.4,170.2,71.3z"
		/>
	<path fill="#414042" d="M183.3,65c0.8-0.7,1.9-1.2,2.8-1.2c1.1,0,1.8,0.7,1.8,1.8c0,1-0.6,1.8-1.4,2.5c-1,0.8-2.5,1.4-3.6,1.6
		c0.1,2.2,1.3,3.6,2.9,3.6c1.4,0,2.6-1.1,3.4-2.6l0.5,0.2c-0.9,2.2-2.7,3.3-4.5,3.3c-2.1,0-4.1-1.6-4.1-4.4
		C181.1,68.2,181.8,66.3,183.3,65z M186.4,66c0-0.7-0.3-1.2-1-1.2c-0.7,0-1.2,0.5-1.7,1.5c-0.5,0.9-0.7,1.9-0.7,2.8
		C184.3,68.8,186.4,67.9,186.4,66z"/>
</g>
<g>
	<path fill="#414042" d="M28.1,41.5c1.3-8.5,2.1-13.4,2.6-17.7c0-0.2,0.2-0.5,0.4-0.6c1.6-1.1,3.9-2,5.1-2c0.8,0,1.3,0.4,1.3,1.3
		c0,0.7-0.4,2.9-1,6c-1.4,8.2-2.2,13.1-3,19.7c-0.1,0.5,0.4,1,0.9,1c7.1-0.6,12.1-3.4,15.2-6.1c4.3-3.8,6.9-9.7,6.9-15.9
		C56.5,16.4,49.2,10,38,10c-6.4,0-13,2.1-17.9,6.2c-4.5,3.8-7.8,9.5-7.8,16.1c0,6,2.7,12.7,9.6,13.3c0.4,0,0.8,0.3,0.8,0.8l0,0
		c0,0.4-0.2,0.8-0.6,0.9c-1,0.3-2,0.4-2.9,0.4c-7.2,0-12.6-5.9-12.6-14c0-7.8,5-15.2,11.6-20C24.8,9,32.5,6.8,39.8,6.8
		c11.7,0,23.8,5.6,23.8,18.8c0,8.4-5,15.6-11.6,20.2c-5.1,3.6-11.3,5.9-18.3,6.3c-0.4,0-0.8,0.4-0.8,0.8c-0.4,4-1.7,12.9-1.7,17.2
		c0,0.3-0.2,0.6-0.4,0.8c-1.5,0.9-4,2-5.3,2c-1.2,0-1.6-0.9-1.6-2.4C23.9,66.2,26.6,50.7,28.1,41.5z"/>
</g>
<g>
	<path fill="#414042" d="M49.2,68.7c0,0,0.2-0.3,0.6-0.8c0.5-0.5,1.2-1.2,2.4-1.8c1.1-0.7,2.6-1.3,4.3-1.8c1.7-0.5,3.7-0.9,5.9-1.1
		c4.4-0.5,9.6-0.2,15,0.5c2.7,0.4,5.5,0.9,8.3,1.6c2.8,0.6,5.7,1.4,8.4,2.2l2.1,0.6l2.1,0.5c0.7,0.2,1.4,0.3,2.1,0.5
		c0.7,0.2,1.4,0.3,2.1,0.4c2.7,0.5,5.5,0.8,8.1,1c2.7,0.2,5.2,0.1,7.7,0c2.4-0.1,4.7-0.4,6.8-0.8c4.2-0.7,7.6-1.8,10-2.8
		c2.3-0.9,3.6-1.6,3.6-1.6s-0.3,0.2-0.8,0.6c-0.6,0.4-1.4,1-2.5,1.6c-2.2,1.3-5.6,2.8-9.9,4c-4.3,1.2-9.5,1.9-15,1.7
		c-2.8,0-5.6-0.3-8.5-0.8c-0.7-0.1-1.4-0.2-2.2-0.4c-0.7-0.1-1.4-0.3-2.2-0.4c-1.5-0.3-2.9-0.7-4.2-1.1c-2.8-0.8-5.5-1.6-8.3-2.3
		c-2.7-0.7-5.4-1.3-8.1-1.8c-2.6-0.5-5.2-0.9-7.6-1.1c-2.4-0.2-4.8-0.4-6.9-0.3c-2.1,0.1-4.1,0.2-5.8,0.6c-1.7,0.3-3.2,0.8-4.3,1.3
		c-1.1,0.5-2,1-2.5,1.5C49.5,68.4,49.2,68.7,49.2,68.7z"/>
</g>
</svg>
