<?xml version="1.0" encoding="utf-8"?>
<!-- Generator: Adobe Illustrator 21.0.0, SVG Export Plug-In . SVG Version: 6.00 Build 0)  -->
<svg version="1.1" id="Layer_1" xmlns="http://www.w3.org/2000/svg" xmlns:xlink="http://www.w3.org/1999/xlink" x="0px" y="0px"
	 viewBox="0 0 350 350" style="enable-background:new 0 0 350 350;" xml:space="preserve">
<style type="text/css">
	.st0{fill:#383838;}
	.st1{fill:#F2F2F2;}
	.st2{fill:#007397;}
</style>
<g id="Layer_4">
	<circle class="st0" cx="175" cy="175" r="167.8"/>
</g>
<g id="Layer_1_1_">
	<g id="Layer_2_4_">
		<path class="st1" d="M89,73.7c0,0,8.2,4.1,8.2,23s9.2-22.3,9.2-22.3L89,73.7z"/>
		<path class="st1" d="M89.1,277.4c0,0,8.2-4.1,8.2-23c0-19,9.2,22.3,9.2,22.3L89.1,277.4z"/>
	</g>
	<g id="Layer_1_2_">
	</g>
	<g>
		<rect x="97.1" y="69.1" class="st1" width="38.8" height="211.8"/>
	</g>
	<g>
		<path class="st1" d="M248.2,273.6l5.2-4.2c0,0,2.5-3.7,2.7-4.4c0.1-0.7-12.5,7.2-12.4,8C243.8,273.8,246.7,274.8,248.2,273.6z"/>
	</g>
	<path class="st1" d="M152.9,173.1l23.4,0.2c0,0,30.1-0.5,31.7,0.5s-2.1-6.8-16.6-6.5s-39.4,1.5-38.9,3.6
		C152.9,173.1,152.9,173.1,152.9,173.1z"/>
</g>
<g id="Layer_3">
	<g id="Layer_1_3_">
		<g id="Layer_2_1_">
			<g>
				<path class="st2" d="M273,221c0,19.6-6.6,35.3-19.7,47.1s-30.5,17.7-52.2,17.7c-7.1,0-17.1-0.3-30.2-1c-12.4-0.6-21.8-1-28.2-1
					c-6.5,0-15.1,0.3-26.1,1c-11.3,0.6-20.5,1-27.6,1c-1.7,0-2.5-1.5-2.5-4.5c0-2.7,0.8-4.1,2.5-4.3c12.8-1.5,21.5-3.9,26.1-7.2
					c4.6-3.3,6.9-9.9,6.9-19.7V100.7c0-7.4-0.9-12.6-2.8-15.7c-1.9-3-5.1-5.4-9.8-7.2c-4.7-1.8-11.5-3.1-20.5-4.2
					c-1.7,0-2.5-1.4-2.5-4.4c0-2.9,0.8-4.4,2.5-4.4c7.1,0,15.8,0.3,26.1,1c9.8,0.6,18,1,24.4,1c6.4,0,14.9-0.3,25.4-1
					c11.1-0.6,20.2-1,27.3-1c19.7,0,35.7,4.7,47.9,14.1s18.3,21.9,18.3,37.3c0,10.8-4.5,20.9-13.5,30.3c-9,9.3-20.1,15.6-33.3,18.5
					c18.7,3.7,33.7,10.5,44.9,20.5C267.4,195.6,273,207.3,273,221z M223.1,116.3c0-14-3.5-24.3-10.3-30.8
					c-6.9-6.6-17.6-9.9-32.1-9.9h-6.4c-13.3,0-20,5.7-20,17.2V162h22.9c16.1,0,27.8-3.6,35-10.7
					C219.6,144.1,223.1,132.4,223.1,116.3z M238,221.1c0-15.3-4.4-27.2-13-35.9c-8.7-8.7-20.7-13.1-36-13.1h-34.6v78.2
					c0,9.7,2.8,16.2,8.3,19.8s14.9,5.3,28.2,5.3c13.9,0,25.2-5,34-15C233.7,250.5,238,237.3,238,221.1z"/>
			</g>
		</g>
	</g>
</g>
<g id="Layer_2_2_">
	<g>
		<g>
			<path class="st1" d="M118.4,218.7l13.9-10.9c12.6-9.9,40.5-34,22.1-34v-1.6c0,0,27.7-0.5,36.9,0c8.4,0.4,10.4,1.1,10.4,1.1
				c-18.6,0-49.2,21.5-68,35.8l-12.1,9.2c10.4-4.4,19.2-6.3,26.1-6.3c38.2,0,79.9,61.4,95.7,61.4c0.1,0,0.3,0,0.4,0
				c1.4-0.1,1.7,0,3.2-0.9c4.1-2.4,3.3-1.9,5.5-3.7l3-3.4c-6.7,15.2-17.3,18-31.4,18c-52,0-76.9-63.9-98.7-63.9
				c-2,0-4.7,0.6-7.3,1.9"/>
		</g>
	</g>
</g>
<g id="Layer_5">
</g>
</svg>
