<?xml version="1.0" encoding="utf-8"?>
<!-- Generator: Adobe Illustrator 21.0.0, SVG Export Plug-In . SVG Version: 6.00 Build 0)  -->
<svg version="1.1" id="Layer_1" xmlns="http://www.w3.org/2000/svg" xmlns:xlink="http://www.w3.org/1999/xlink" x="0px" y="0px"
	 viewBox="0 0 409.5 460" style="enable-background:new 0 0 409.5 460;" xml:space="preserve">
<style type="text/css">
	.st0{fill:#FFFFFF;}
	.st1{fill:#007397;}
</style>
<g id="Layer_2_1_">
	<path class="st0" d="M41.6,39.6c0,0,15.4,7.7,15.4,43.4s17.3-42,17.3-42L41.6,39.6z"/>
	<path class="st0" d="M41.7,423.4c0,0,15.4-7.7,15.4-43.4s17.3,42,17.3,42L41.7,423.4z"/>
	<path class="st0" d="M157.9,227.6h14.5c0,0,88.1-1,93.2,0s-39.1-11.8-72.5-9.5s-39,4.6-39,4.6l3.1,4.9H157.9z"/>
</g>
<g id="Layer_1_1_">
</g>
<g id="Layer_2">
	<g>
		<rect x="57" y="31" class="st0" width="73" height="399"/>
	</g>
	<g>
		<path class="st0" d="M341.5,416.2l9.8-8c0,0,4.8-6.9,5-8.2c0.2-1.3-23.5,13.6-23.3,15.1C333.1,416.6,338.6,418.5,341.5,416.2z"/>
	</g>
	<g>
		<path class="st1" d="M388.2,317.2c0,36.9-12.4,66.5-37.1,88.7s-57.5,33.4-98.4,33.4c-13.4,0-32.3-0.6-56.8-1.8
			c-23.3-1.2-41.1-1.8-53.2-1.8c-12.2,0-28.5,0.6-49.1,1.8c-21.3,1.2-38.7,1.8-52,1.8c-3.2,0-4.8-2.8-4.8-8.4c0-5,1.6-7.7,4.8-8.1
			c24.1-2.8,40.5-7.3,49.2-13.5s13-18.6,13-37.1V90.5c0-14-1.7-23.8-5.2-29.5S89,50.8,80.2,47.5s-21.6-5.9-38.6-7.9
			c-3.2,0-4.8-2.7-4.8-8.2s1.6-8.2,4.8-8.2c13.4,0,29.7,0.6,49.1,1.8c18.5,1.2,33.9,1.8,46,1.8s28.1-0.6,47.8-1.8
			c20.9-1.2,38-1.8,51.4-1.8c37.2,0,67.3,8.9,90.2,26.6c22.9,17.8,34.4,41.2,34.4,70.3c0,20.3-8.5,39.3-25.4,57
			c-17,17.6-37.9,29.3-62.8,34.8c35.3,7,63.5,19.8,84.5,38.6C377.7,269.2,388.2,291.4,388.2,317.2z M294.3,119.9
			c0-26.4-6.5-45.7-19.4-58.1c-13-12.4-33.1-18.6-60.4-18.6h-12c-25.1,0-37.7,10.8-37.7,32.4V206h43.1c30.3,0,52.3-6.7,66-20.2
			C287.5,172.2,294.3,150.2,294.3,119.9z M322.4,317.3c0-28.8-8.2-51.3-24.5-67.7c-16.4-16.4-39-24.6-67.9-24.6h-65.2v147.4
			c0,18.2,5.2,30.6,15.6,37.3c10.4,6.7,28.1,10,53.2,10c26.1,0,47.5-9.4,64-28.3C314.1,372.6,322.4,347.9,322.4,317.3z"/>
	</g>
	<g>
		<g>
			<path class="st0" d="M97,312.7l26.1-20.5c23.8-18.7,76.3-64.1,41.7-64.1v-3c0,0,52.1-0.9,69.5,0c15.9,0.8,19.6,2.1,19.6,2.1
				c-35,0-92.7,40.5-128.1,67.4L103.1,312c19.6-8.3,36.1-11.8,49.2-11.8c71.9,0,150.6,115.6,180.2,115.6c0.1,0,2.6-0.1,2.7-0.1
				c1.9-0.3,2-0.3,2.4-0.5c1.5-0.5,2.9-1.1,4.2-2c2.6-1.7,4.5-3.1,7.6-5.9c3.6-3.2,6.9-6.5,6.9-6.5c-12.7,28.6-33.7,33.9-60.2,33.9
				c-98,0-144.8-120.3-185.9-120.3c-3.8,0-8.8,1.1-13.8,3.6"/>
		</g>
	</g>
</g>
</svg>
