<?xml version="1.0" encoding="utf-8"?>
<!-- Generator: Adobe Illustrator 21.0.0, SVG Export Plug-In . SVG Version: 6.00 Build 0)  -->
<svg version="1.1" id="Layer_1" xmlns="http://www.w3.org/2000/svg" xmlns:xlink="http://www.w3.org/1999/xlink" x="0px" y="0px"
	 viewBox="0 0 424 424" style="enable-background:new 0 0 424 424;" xml:space="preserve">
<style type="text/css">
	.st0{fill:#F4F4F4;}
	.st1{fill:#289C6A;}
</style>
<g id="Layer_2_1_">
	<path class="st0" d="M38.8,19.6c0,0,15.4,7.7,15.4,43.4s17.3-42,17.3-42L38.8,19.6z"/>
	<path class="st0" d="M39,403.4c0,0,15.4-7.7,15.4-43.4s17.3,42,17.3,42L39,403.4z"/>
</g>
<path class="st0" d="M159.2,206.8l44,0.4c0,0,56.7-1,59.8,1s-4-12.8-31.3-12.2s-74.2,2.9-73.3,6.8
	C159.2,206.8,159.2,206.8,159.2,206.8z"/>
<g id="Layer_1_2_">
	<g id="Layer_1_1_">
	</g>
	<g id="Layer_2">
		<g>
			<rect x="54.2" y="11" class="st0" width="73" height="399"/>
		</g>
		<g>
			<path class="st0" d="M338.8,396.2l9.8-8c0,0,4.8-6.9,5-8.2c0.2-1.3-23.5,13.6-23.3,15.1C330.4,396.6,335.9,398.5,338.8,396.2z"/>
		</g>
		<g>
			<path class="st1" d="M385.5,297.2c0,36.9-12.4,66.5-37.1,88.7s-57.5,33.4-98.4,33.4c-13.4,0-32.3-0.6-56.8-1.8
				c-23.3-1.2-41.1-1.8-53.2-1.8c-12.2,0-28.5,0.6-49.1,1.8c-21.3,1.2-38.7,1.8-52,1.8c-3.2,0-4.8-2.8-4.8-8.4c0-5,1.6-7.7,4.8-8.1
				c24.1-2.8,40.5-7.3,49.2-13.5s13-18.6,13-37.1V70.5c0-14-1.7-23.8-5.2-29.5s-9.6-10.2-18.4-13.5s-21.6-5.9-38.6-7.9
				c-3.2,0-4.8-2.7-4.8-8.2s1.6-8.2,4.8-8.2c13.4,0,29.7,0.6,49.1,1.8c18.5,1.2,33.9,1.8,46,1.8s28.1-0.6,47.8-1.8
				c20.9-1.2,38-1.8,51.4-1.8c37.2,0,67.3,8.9,90.2,26.6c22.9,17.8,34.4,41.2,34.4,70.3c0,20.3-8.5,39.3-25.4,57
				c-17,17.6-37.9,29.3-62.8,34.8c35.3,7,63.5,19.8,84.5,38.6C375,249.2,385.5,271.4,385.5,297.2z M291.5,99.9
				c0-26.4-6.5-45.7-19.4-58.1c-13-12.4-33.1-18.6-60.4-18.6h-12c-25.1,0-37.7,10.8-37.7,32.4V186h43.1c30.3,0,52.3-6.7,66-20.2
				C284.8,152.2,291.5,130.2,291.5,99.9z M319.6,297.3c0-28.8-8.2-51.3-24.5-67.7c-16.4-16.4-39-24.6-67.9-24.6h-65.2v147.4
				c0,18.2,5.2,30.6,15.6,37.3c10.4,6.7,28.1,10,53.2,10c26.1,0,47.5-9.4,64-28.3C311.4,352.6,319.6,327.9,319.6,297.3z"/>
		</g>
		<g>
			<g>
				<path class="st0" d="M94.2,292.7l26.1-20.5c23.8-18.7,76.3-64.1,41.7-64.1v-3c0,0,52.1-0.9,69.5,0c15.9,0.8,19.6,2.1,19.6,2.1
					c-35,0-92.7,40.5-128.1,67.4L100.3,292c19.6-8.3,36.1-11.8,49.2-11.8c71.9,0,150.6,115.6,180.2,115.6c0.1,0,0.6,0,0.7,0
					c2.6-0.1,3.2,0,6.1-1.7c7.8-4.6,6.3-3.5,10.3-6.9l5.6-6.4c-12.7,28.6-32.6,34-59.1,34c-98,0-144.8-120.3-185.9-120.3
					c-3.8,0-8.8,1.1-13.8,3.6"/>
			</g>
		</g>
	</g>
</g>
</svg>
