<?xml version="1.0" encoding="utf-8"?>
<!-- Generator: Adobe Illustrator 19.2.1, SVG Export Plug-In . SVG Version: 6.00 Build 0)  -->
<svg version="1.1" xmlns="http://www.w3.org/2000/svg" xmlns:xlink="http://www.w3.org/1999/xlink" x="0px" y="0px"
	 viewBox="0 0 103 123" style="enable-background:new 0 0 103 123;" xml:space="preserve">
<style type="text/css">
	.st0{fill:#EF4C81;}
	.st1{fill:#414042;}
</style>
<g id="Layer_1">
</g>
<g id="Layer_2">
	<g>
		<path class="st0" d="M85.4,105.6l2.4-1.9c0,0,1.2-1.7,1.2-2c0-0.3-5.7,3.3-5.7,3.7C83.4,105.7,84.7,106.2,85.4,105.6z"/>
	</g>
	<path class="st0" d="M39.8,57l2.2,2.5l12,0.4l10.6-0.3C64.7,59.6,40.1,55.7,39.8,57z"/>
	<g>
		<rect x="11.3" y="11.8" class="st0" width="17.8" height="97.1"/>
	</g>
	<g>
		<path class="st1" d="M96.8,81.5c0,9-3,16.2-9,21.6c-6,5.4-14,8.1-24,8.1c-3.3,0-7.9-0.1-13.8-0.4c-5.7-0.3-10-0.4-13-0.4
			c-3,0-6.9,0.1-11.9,0.4c-5.2,0.3-9.4,0.4-12.7,0.4c-0.8,0-1.2-0.7-1.2-2c0-1.2,0.4-1.9,1.2-2c5.9-0.7,9.9-1.8,12-3.3
			c2.1-1.5,3.2-4.5,3.2-9V26.3c0-3.4-0.4-5.8-1.3-7.2c-0.8-1.4-2.3-2.5-4.5-3.3c-2.1-0.8-5.3-1.4-9.4-1.9c-0.8,0-1.2-0.7-1.2-2
			c0-1.3,0.4-2,1.2-2c3.3,0,7.2,0.1,11.9,0.4c4.5,0.3,8.2,0.4,11.2,0.4c3,0,6.8-0.1,11.6-0.4c5.1-0.3,9.3-0.4,12.5-0.4
			c9.1,0,16.4,2.2,22,6.5c5.6,4.3,8.4,10,8.4,17.1c0,5-2.1,9.6-6.2,13.9c-4.1,4.3-9.2,7.1-15.3,8.5c8.6,1.7,15.4,4.8,20.6,9.4
			C94.3,69.8,96.8,75.2,96.8,81.5z M74,33.5c0-6.4-1.6-11.1-4.7-14.1c-3.2-3-8.1-4.5-14.7-4.5h-2.9c-6.1,0-9.2,2.6-9.2,7.9v31.7
			h10.5c7.4,0,12.7-1.6,16.1-4.9C72.3,46.2,74,40.9,74,33.5z M80.8,81.5c0-7-2-12.5-6-16.5c-4-4-9.5-6-16.5-6H42.4v35.9
			c0,4.4,1.3,7.5,3.8,9.1c2.5,1.6,6.8,2.4,13,2.4c6.4,0,11.6-2.3,15.6-6.9C78.8,95,80.8,89,80.8,81.5z"/>
	</g>
	<g>
		<g>
			<path class="st0" d="M25.9,80.4l6.4-5c5.8-4.5,18.6-15.6,10.2-15.6l0-0.7c0,0,12.7-0.2,16.9,0c3.9,0.2,4.8,0.5,4.8,0.5
				c-8.5,0-22.6,9.9-31.2,16.4l-5.5,4.2c4.8-2,8.8-2.9,12-2.9c17.5,0,36.7,28.1,43.9,28.1c0,0,0.1,0,0.2,0c0.6,0,0.8,0,1.5-0.4
				c1.9-1.1,1.5-0.9,2.5-1.7l1.4-1.6c-3.1,7-7.9,8.3-14.4,8.3c-23.9,0-35.2-29.3-45.3-29.3c-0.9,0-2.2,0.3-3.4,0.9"/>
		</g>
	</g>
</g>
</svg>
