<?xml version="1.0" encoding="utf-8"?>
<!-- Generator: Adobe Illustrator 19.2.0, SVG Export Plug-In . SVG Version: 6.00 Build 0)  -->
<svg version="1.1" xmlns="http://www.w3.org/2000/svg" xmlns:xlink="http://www.w3.org/1999/xlink" x="0px" y="0px"
	 viewBox="0 0 2072 1168.9" style="enable-background:new 0 0 2072 1168.9;" xml:space="preserve">
<style type="text/css">
	.st0{display:none;}
	.st1{display:inline;}
	.st2{fill:#D6D6D6;}
	.st3{fill:#484748;}
	.st4{fill:#50979B;}
	.st5{fill:#FFFFFF;}
	.st6{fill:none;stroke:#FFFFFF;stroke-width:6;stroke-miterlimit:10;}
	.st7{display:none;fill:#FFFFFF;}
	.st8{font-family:'AzoSansUber-Regular';}
	.st9{font-size:90px;}
	.st10{fill:#727373;stroke:#565656;stroke-width:3;stroke-miterlimit:10;}
	.st11{stroke:#5E5F5F;stroke-width:3;stroke-miterlimit:10;}
	.st12{fill:#F7F7F7;stroke:#B7B7B7;stroke-miterlimit:10;}
	.st13{fill:#CBEAEF;}
	.st14{fill:#282828;}
	.st15{fill:#828282;}
	.st16{fill:none;stroke:#BCBCBC;stroke-miterlimit:10;}
	.st17{fill:#F7F7F7;}
	.st18{fill:#FFFFFF;stroke:#828282;stroke-width:4;stroke-miterlimit:10;}
	.st19{fill:none;stroke:#DCDBDB;stroke-width:2;stroke-miterlimit:10;}
	.st20{fill:none;stroke:#DCDBDB;stroke-miterlimit:10;}
	.st21{fill:#DCDBDB;}
	.st22{fill:#F4F4F4;}
	.st23{fill:none;stroke:#353535;stroke-miterlimit:10;}
	.st24{fill:none;stroke:#EA9C23;stroke-width:3;stroke-miterlimit:10;}
	.st25{fill:none;stroke:#0D8296;stroke-width:3;stroke-miterlimit:10;}
	.st26{fill:#FFF0B3;}
	.st27{fill:#F4D7E8;}
	.st28{fill:#58595B;}
	.st29{fill:#3D3D3D;}
	.st30{fill:#231612;}
	.st31{fill:#301C11;}
	.st32{fill:#3F2A1C;}
	.st33{fill:#563C2B;}
	.st34{fill:#171617;stroke:#121212;stroke-width:3;stroke-miterlimit:10;}
	.st35{fill:#35241D;}
	.st36{fill:#28572A;}
	.st37{fill:#366994;}
	.st38{fill:#41111B;}
	.st39{fill:#16763B;stroke:#1D351A;stroke-miterlimit:10;}
	.st40{fill:#342556;}
	.st41{fill:#C07C2A;}
	.st42{fill:#761113;stroke:#41111B;stroke-miterlimit:10;}
	.st43{fill:none;stroke:#213A1B;stroke-miterlimit:10;}
	.st44{fill:none;stroke:#FFFFFF;stroke-miterlimit:10;}
	.st45{fill:#1B1B1C;}
	.st46{fill:#8C8C8C;}
	.st47{fill:#FCB141;}
	.st48{fill:#FDD5B9;}
	.st49{fill:#421313;}
	.st50{fill:#1B6734;}
	.st51{fill:#9D9D9D;}
	.st52{fill:#1E1E1E;}
	.st53{fill:#3F403F;}
	.st54{fill:#EA496B;}
	.st55{fill:#EF558F;}
	.st56{fill:#34111A;}
	.st57{fill:none;stroke:#000000;stroke-miterlimit:10;}
	.st58{fill:none;stroke:#787878;stroke-miterlimit:10;}
	.st59{fill:#333333;}
	.st60{fill:#1B1B1C;stroke:#000000;stroke-miterlimit:10;}
</style>
<g id="Layer_1" class="st0">
	<g id="bNdmsu.tif" class="st1">
		
			<image style="overflow:visible;" width="1080" height="1080" id="Layer_0_1_" xlink:href="BCAB67E500EEB0B6.png"  transform="matrix(1 0 0 1 447 -12.1168)">
		</image>
	</g>
</g>
<g id="Layer_25">
	<rect class="st2" width="2072" height="838.5"/>
	<rect y="705.2" class="st3" width="2072" height="463.7"/>
	<g id="Layer_26">
		<rect class="st4" width="2072" height="434.3"/>
	</g>
	<rect y="705.2" class="st5" width="2072" height="29.7"/>
	<rect y="428.2" class="st5" width="2072" height="12.2"/>
	<rect x="632.5" y="460.3" class="st6" width="174.6" height="223.9"/>
	<rect x="421.6" y="460.3" class="st6" width="174.6" height="223.9"/>
	<rect x="210.8" y="460.3" class="st6" width="174.6" height="223.9"/>
	<rect y="460.3" class="st6" width="174.6" height="223.9"/>
	<rect x="843.3" y="460.3" class="st6" width="174.6" height="223.9"/>
	<rect x="1054.1" y="460.3" class="st6" width="174.6" height="223.9"/>
	<rect x="1264.9" y="460.3" class="st6" width="174.6" height="223.9"/>
	<rect x="1475.7" y="460.3" class="st6" width="174.6" height="223.9"/>
	<rect x="1686.6" y="460.3" class="st6" width="174.6" height="223.9"/>
	<rect x="1897.4" y="460.3" class="st6" width="174.6" height="223.9"/>
	<text transform="matrix(1 0 0 1 473.7215 1122.8832)" class="st7 st8 st9">CODEMASTERKAROL</text>
</g>
<g id="Background">
	<g id="iMac">
		<path class="st10" d="M944,563c0,0-3,31,20,36.9c23,5.9-93.3,2.9-93.3,2.9s18.8-16.9,16-42.9C884,533.9,944,563,944,563z"/>
		<path class="st11" d="M1008.5,566.8H756.9c-6.6,0-12-5.4-12-12V416.5c0-6.6,5.4-12,12-12h251.7c6.6,0,12,5.4,12,12v138.3
			C1020.5,561.4,1015.1,566.8,1008.5,566.8z"/>
	</g>
	<g id="Layer_19">
		<path class="st12" d="M1097.5,603.6h-12.8c-6.6,0-12-5.4-12-12V535c0-6.6,5.4-12,12-12h12.8c6.6,0,12,5.4,12,12v56.7
			C1109.5,598.2,1104.1,603.6,1097.5,603.6z"/>
		<rect x="1081.2" y="504.4" class="st12" width="19.9" height="26.6"/>
		<g id="Layer_23">
			<path class="st13" d="M1073.5,540.5c0,0,3,1.6,6.5,0.3c0,0,5.7,1.9,8.8,0c0,0,5.5,2.1,8.3,0c0,0,4.8,2,7.5,0c0,0,4.3,0.7,4.3-0.3
				l-0.1,50.7c0,0,1.1,11.9-14.2,12.4c-15.3,0.5-21-4.9-21-12.7S1073.5,540.5,1073.5,540.5z"/>
		</g>
		<path class="st14" d="M1081.2,512.1v-7.7h19.9v7.7C1101.1,512.1,1092,514.8,1081.2,512.1z"/>
		<ellipse class="st15" cx="1091.1" cy="504.4" rx="10" ry="1.5"/>
		<path class="st16" d="M1081.5,525"/>
		<path class="st16" d="M1101.1,524.2"/>
		<path class="st16" d="M1101.1,512.1"/>
		<g id="Layer_24">
			<path class="st17" d="M1080,525.8c0,0-0.3-0.6,2.6-1.5c2.9-0.9,18.7-1.8,20.1,2s-1.6,7-1.6,7l-22.2-0.5L1080,525.8z"/>
		</g>
	</g>
	<g id="Whiteboard">
		<path class="st18" d="M1313.4,368.6h-334c-6.6,0-12-5.4-12-12V146.7c0-6.6,5.4-12,12-12h334c6.6,0,12,5.4,12,12v209.9
			C1325.4,363.2,1320,368.6,1313.4,368.6z"/>
		<g id="Layer_6">
			<polyline class="st19" points="1087.5,220.6 1119.8,231.8 1131,199.5 			"/>
			<polyline class="st20" points="1014.7,211.8 1051,209.8 1049.1,175.2 			"/>
			<rect x="996" y="248.2" class="st21" width="78.7" height="91.2"/>
		</g>
		<g id="Layer_7">
			<rect x="995" y="247.2" class="st22" width="78.7" height="91.2"/>
		</g>
		<g id="Layer_8">
			<polyline class="st23" points="1006,272.9 1006,312.3 1060.5,312.3 			"/>
		</g>
		<g id="Layer_9">
			<polyline class="st24" points="1006,293.8 1020.5,285.5 1034.3,292.8 1057.2,279.2 			"/>
			<polyline class="st25" points="1006,285.5 1020.5,300.4 1026,293.8 1047,300.7 1060.5,296.9 			"/>
		</g>
		
			<rect x="1012" y="172.9" transform="matrix(0.9986 -5.338489e-02 5.338489e-02 0.9986 -8.7735 55.3134)" class="st26" width="38" height="38"/>
		
			<rect x="1090.7" y="190.9" transform="matrix(0.9445 0.3284 -0.3284 0.9445 130.1002 -352.5377)" class="st27" width="36" height="36"/>
		<g>
			<path d="M1010.3,261.2c-0.3,0.2-0.6,0.3-1,0.3c-0.3,0-0.6-0.1-0.9-0.2s-0.5-0.3-0.6-0.5s-0.3-0.4-0.4-0.7
				c-0.1-0.3-0.1-0.6-0.1-0.8s0-0.6,0.1-0.8c0.1-0.3,0.2-0.5,0.4-0.7s0.4-0.4,0.6-0.5c0.3-0.1,0.6-0.2,0.9-0.2s0.6,0.1,0.9,0.2
				c0.3,0.1,0.5,0.3,0.6,0.5c0.2,0.2,0.3,0.4,0.4,0.7s0.1,0.6,0.1,0.8c0,0.3-0.1,0.6-0.2,0.9s-0.3,0.6-0.5,0.8l0.6,0.4l-0.3,0.4
				L1010.3,261.2z M1010.3,260.6c0.2-0.2,0.3-0.4,0.4-0.6c0.1-0.2,0.1-0.5,0.1-0.8c0-0.2,0-0.4-0.1-0.6c-0.1-0.2-0.1-0.4-0.3-0.6
				s-0.3-0.3-0.5-0.4c-0.2-0.1-0.4-0.2-0.7-0.2c-0.3,0-0.5,0.1-0.7,0.2c-0.2,0.1-0.3,0.2-0.5,0.4c-0.1,0.2-0.2,0.4-0.3,0.6
				c-0.1,0.2-0.1,0.4-0.1,0.6c0,0.2,0,0.4,0.1,0.6s0.1,0.4,0.3,0.6c0.1,0.2,0.3,0.3,0.5,0.4c0.2,0.1,0.4,0.2,0.7,0.2
				c0.2,0,0.4,0,0.6-0.1l-0.5-0.4l0.3-0.3L1010.3,260.6z"/>
			<path d="M1014,261.4v-0.5h0c-0.1,0.2-0.2,0.3-0.4,0.4c-0.2,0.1-0.4,0.1-0.6,0.1c-0.2,0-0.4,0-0.5-0.1c-0.1-0.1-0.2-0.1-0.3-0.2
				c-0.1-0.1-0.1-0.2-0.2-0.4c0-0.1-0.1-0.3-0.1-0.5v-2h0.5v2.1c0,0.2,0.1,0.3,0.2,0.5c0.1,0.1,0.3,0.2,0.5,0.2c0.2,0,0.3,0,0.4-0.1
				c0.1,0,0.2-0.1,0.3-0.2s0.1-0.2,0.2-0.3s0.1-0.2,0.1-0.4v-1.8h0.5v3.1H1014z"/>
			<path d="M1018,261.4c-0.1,0.1-0.2,0.1-0.4,0.1c-0.1,0-0.2,0-0.3-0.1c-0.1-0.1-0.1-0.2-0.1-0.4c-0.1,0.2-0.3,0.3-0.5,0.4
				c-0.2,0.1-0.4,0.1-0.6,0.1c-0.1,0-0.3,0-0.4,0c-0.1,0-0.2-0.1-0.3-0.1c-0.1-0.1-0.2-0.2-0.2-0.3s-0.1-0.2-0.1-0.4
				c0-0.2,0-0.3,0.1-0.4c0.1-0.1,0.1-0.2,0.2-0.3s0.2-0.1,0.3-0.2s0.3-0.1,0.4-0.1c0.1,0,0.3,0,0.4-0.1s0.2,0,0.3-0.1
				s0.2-0.1,0.2-0.1c0.1-0.1,0.1-0.1,0.1-0.2c0-0.1,0-0.2-0.1-0.3s-0.1-0.1-0.2-0.2c-0.1,0-0.1-0.1-0.2-0.1c-0.1,0-0.2,0-0.2,0
				c-0.2,0-0.4,0-0.5,0.1c-0.1,0.1-0.2,0.2-0.2,0.5h-0.5c0-0.2,0-0.4,0.1-0.5s0.2-0.2,0.3-0.3s0.3-0.1,0.4-0.2
				c0.2,0,0.3-0.1,0.5-0.1c0.1,0,0.3,0,0.4,0c0.1,0,0.3,0.1,0.4,0.1c0.1,0.1,0.2,0.1,0.3,0.3s0.1,0.3,0.1,0.4v1.6c0,0.1,0,0.2,0,0.3
				c0,0.1,0.1,0.1,0.1,0.1c0,0,0.1,0,0.2,0V261.4z M1017.2,259.8c-0.1,0-0.1,0.1-0.3,0.1c-0.1,0-0.2,0-0.3,0.1c-0.1,0-0.2,0-0.3,0
				s-0.2,0-0.3,0.1c-0.1,0-0.2,0.1-0.2,0.2c-0.1,0.1-0.1,0.2-0.1,0.3c0,0.1,0,0.2,0.1,0.2c0,0.1,0.1,0.1,0.1,0.1
				c0.1,0,0.1,0.1,0.2,0.1c0.1,0,0.1,0,0.2,0c0.2,0,0.3,0,0.4-0.1s0.2-0.1,0.3-0.2c0.1-0.1,0.1-0.1,0.2-0.2s0.1-0.2,0.1-0.2V259.8z"
				/>
			<path d="M1019,258.3v0.7h0c0.1-0.3,0.3-0.4,0.5-0.6c0.2-0.1,0.4-0.2,0.7-0.2v0.5c-0.2,0-0.4,0-0.5,0.1c-0.1,0.1-0.3,0.1-0.3,0.2
				c-0.1,0.1-0.2,0.2-0.2,0.4c0,0.2-0.1,0.3-0.1,0.5v1.4h-0.5v-3.1H1019z"/>
			<path d="M1021.8,258.3v0.5h-0.6v1.9c0,0.1,0,0.1,0,0.1c0,0,0,0.1,0.1,0.1s0.1,0,0.1,0c0,0,0.1,0,0.2,0h0.2v0.5h-0.4
				c-0.1,0-0.2,0-0.3,0c-0.1,0-0.2-0.1-0.2-0.1s-0.1-0.1-0.1-0.2s0-0.2,0-0.3v-2h-0.5v-0.5h0.5v-0.9h0.5v0.9H1021.8z"/>
			<path d="M1024.6,261.2c-0.2,0.2-0.5,0.3-0.9,0.3c-0.2,0-0.5,0-0.6-0.1c-0.2-0.1-0.3-0.2-0.5-0.3s-0.2-0.3-0.3-0.5
				c-0.1-0.2-0.1-0.4-0.1-0.7c0-0.2,0-0.5,0.1-0.6s0.2-0.4,0.3-0.5c0.1-0.1,0.3-0.3,0.5-0.3c0.2-0.1,0.4-0.1,0.6-0.1
				c0.3,0,0.5,0.1,0.7,0.2c0.2,0.1,0.3,0.3,0.4,0.4c0.1,0.2,0.2,0.4,0.2,0.6c0,0.2,0.1,0.4,0.1,0.6h-2.3c0,0.1,0,0.3,0,0.4
				c0,0.1,0.1,0.2,0.2,0.3c0.1,0.1,0.2,0.2,0.3,0.2s0.3,0.1,0.4,0.1c0.2,0,0.4,0,0.5-0.1s0.2-0.3,0.3-0.5h0.5
				C1025,260.7,1024.8,261,1024.6,261.2z M1024.5,259.2c0-0.1-0.1-0.2-0.2-0.3c-0.1-0.1-0.2-0.1-0.3-0.2c-0.1,0-0.2-0.1-0.4-0.1
				c-0.1,0-0.3,0-0.4,0.1c-0.1,0-0.2,0.1-0.3,0.2s-0.1,0.2-0.2,0.3s-0.1,0.2-0.1,0.3h1.8C1024.5,259.4,1024.5,259.3,1024.5,259.2z"
				/>
			<path d="M1026.1,258.3v0.7h0c0.1-0.3,0.3-0.4,0.5-0.6c0.2-0.1,0.4-0.2,0.7-0.2v0.5c-0.2,0-0.4,0-0.5,0.1
				c-0.1,0.1-0.3,0.1-0.3,0.2c-0.1,0.1-0.2,0.2-0.2,0.4c0,0.2-0.1,0.3-0.1,0.5v1.4h-0.5v-3.1H1026.1z"/>
			<path d="M1028.1,257.1v4.3h-0.5v-4.3H1028.1z"/>
			<path d="M1030.2,261.8c-0.1,0.2-0.1,0.3-0.2,0.4c-0.1,0.1-0.1,0.2-0.2,0.3c-0.1,0.1-0.1,0.1-0.2,0.1c-0.1,0-0.2,0-0.3,0
				c-0.1,0-0.1,0-0.2,0c-0.1,0-0.1,0-0.2,0v-0.5c0,0,0.1,0,0.2,0.1s0.1,0,0.1,0c0.1,0,0.2,0,0.3-0.1c0.1,0,0.1-0.1,0.2-0.2l0.2-0.5
				l-1.2-3.1h0.6l0.9,2.5h0l0.9-2.5h0.5L1030.2,261.8z"/>
			<path d="M1035.7,257.1c0.4,0,0.7,0.1,1,0.3c0.2,0.2,0.3,0.5,0.3,0.8c0,0.3-0.1,0.5-0.2,0.7c-0.1,0.2-0.3,0.3-0.6,0.4v0
				c0.1,0,0.2,0.1,0.3,0.1s0.1,0.1,0.2,0.2c0,0.1,0.1,0.2,0.1,0.3c0,0.1,0,0.2,0.1,0.3c0,0.1,0,0.2,0,0.3c0,0.1,0,0.2,0,0.3
				c0,0.1,0,0.2,0.1,0.3c0,0.1,0.1,0.2,0.1,0.2h-0.6c0,0-0.1-0.1-0.1-0.2c0-0.1,0-0.2,0-0.3c0-0.1,0-0.2,0-0.3c0-0.1,0-0.2,0-0.3
				c0-0.1,0-0.2-0.1-0.3c0-0.1-0.1-0.2-0.1-0.2c-0.1-0.1-0.1-0.1-0.2-0.2s-0.2-0.1-0.3-0.1h-1.4v1.8h-0.6v-4.3H1035.7z M1035.8,259
				c0.1,0,0.2-0.1,0.3-0.1s0.2-0.1,0.2-0.2c0.1-0.1,0.1-0.2,0.1-0.4c0-0.2-0.1-0.4-0.2-0.5c-0.1-0.1-0.3-0.2-0.6-0.2h-1.4v1.5h1.2
				C1035.6,259.1,1035.7,259.1,1035.8,259z"/>
			<path d="M1039.9,261.2c-0.2,0.2-0.5,0.3-0.9,0.3c-0.2,0-0.5,0-0.6-0.1c-0.2-0.1-0.3-0.2-0.5-0.3s-0.2-0.3-0.3-0.5
				c-0.1-0.2-0.1-0.4-0.1-0.7c0-0.2,0-0.5,0.1-0.6s0.2-0.4,0.3-0.5c0.1-0.1,0.3-0.3,0.5-0.3c0.2-0.1,0.4-0.1,0.6-0.1
				c0.3,0,0.5,0.1,0.7,0.2c0.2,0.1,0.3,0.3,0.4,0.4c0.1,0.2,0.2,0.4,0.2,0.6c0,0.2,0.1,0.4,0.1,0.6h-2.3c0,0.1,0,0.3,0,0.4
				c0,0.1,0.1,0.2,0.2,0.3c0.1,0.1,0.2,0.2,0.3,0.2s0.3,0.1,0.4,0.1c0.2,0,0.4,0,0.5-0.1s0.2-0.3,0.3-0.5h0.5
				C1040.3,260.7,1040.1,261,1039.9,261.2z M1039.8,259.2c0-0.1-0.1-0.2-0.2-0.3c-0.1-0.1-0.2-0.1-0.3-0.2c-0.1,0-0.2-0.1-0.4-0.1
				c-0.1,0-0.3,0-0.4,0.1c-0.1,0-0.2,0.1-0.3,0.2s-0.1,0.2-0.2,0.3s-0.1,0.2-0.1,0.3h1.8C1039.9,259.4,1039.8,259.3,1039.8,259.2z"
				/>
			<path d="M1041.5,258.3v0.4h0c0.1-0.2,0.2-0.3,0.4-0.4c0.2-0.1,0.4-0.1,0.6-0.1c0.2,0,0.4,0,0.6,0.1s0.3,0.2,0.4,0.4
				c0.1,0.1,0.2,0.3,0.3,0.5c0.1,0.2,0.1,0.4,0.1,0.6c0,0.2,0,0.4-0.1,0.6s-0.1,0.4-0.3,0.5s-0.3,0.3-0.4,0.3s-0.4,0.1-0.6,0.1
				c-0.1,0-0.2,0-0.3,0s-0.2,0-0.3-0.1c-0.1,0-0.2-0.1-0.3-0.1s-0.2-0.1-0.2-0.2h0v1.6h-0.5v-4.3H1041.5z M1043.3,259.4
				c0-0.1-0.1-0.3-0.2-0.4s-0.2-0.2-0.3-0.3c-0.1-0.1-0.3-0.1-0.4-0.1c-0.2,0-0.3,0-0.4,0.1c-0.1,0.1-0.2,0.2-0.3,0.3
				c-0.1,0.1-0.1,0.2-0.2,0.4c0,0.1-0.1,0.3-0.1,0.4c0,0.2,0,0.3,0.1,0.4c0,0.1,0.1,0.3,0.2,0.4c0.1,0.1,0.2,0.2,0.3,0.3
				s0.3,0.1,0.5,0.1s0.3,0,0.4-0.1c0.1-0.1,0.2-0.2,0.3-0.3c0.1-0.1,0.1-0.2,0.2-0.4c0-0.1,0-0.3,0-0.4
				C1043.4,259.7,1043.3,259.5,1043.3,259.4z"/>
			<path d="M1044.4,259.2c0.1-0.2,0.2-0.4,0.3-0.5s0.3-0.3,0.5-0.3c0.2-0.1,0.4-0.1,0.6-0.1c0.2,0,0.5,0,0.7,0.1
				c0.2,0.1,0.3,0.2,0.5,0.3s0.2,0.3,0.3,0.5c0.1,0.2,0.1,0.4,0.1,0.6s0,0.4-0.1,0.6c-0.1,0.2-0.2,0.4-0.3,0.5s-0.3,0.3-0.5,0.3
				c-0.2,0.1-0.4,0.1-0.7,0.1c-0.2,0-0.5,0-0.6-0.1c-0.2-0.1-0.3-0.2-0.5-0.3s-0.2-0.3-0.3-0.5c-0.1-0.2-0.1-0.4-0.1-0.6
				S1044.4,259.4,1044.4,259.2z M1044.9,260.3c0,0.1,0.1,0.3,0.2,0.4c0.1,0.1,0.2,0.2,0.3,0.2c0.1,0.1,0.2,0.1,0.4,0.1
				s0.3,0,0.4-0.1c0.1-0.1,0.2-0.1,0.3-0.2c0.1-0.1,0.2-0.2,0.2-0.4c0-0.1,0.1-0.3,0.1-0.5s0-0.4-0.1-0.5c-0.1-0.1-0.1-0.3-0.2-0.4
				s-0.2-0.2-0.3-0.2c-0.1-0.1-0.2-0.1-0.4-0.1s-0.3,0-0.4,0.1c-0.1,0.1-0.2,0.1-0.3,0.2s-0.2,0.2-0.2,0.4s-0.1,0.3-0.1,0.5
				S1044.9,260.2,1044.9,260.3z"/>
			<path d="M1048.4,258.3v0.7h0c0.1-0.3,0.3-0.4,0.5-0.6c0.2-0.1,0.4-0.2,0.7-0.2v0.5c-0.2,0-0.4,0-0.5,0.1
				c-0.1,0.1-0.3,0.1-0.3,0.2c-0.1,0.1-0.2,0.2-0.2,0.4c0,0.2-0.1,0.3-0.1,0.5v1.4h-0.5v-3.1H1048.4z"/>
			<path d="M1051.3,258.3v0.5h-0.6v1.9c0,0.1,0,0.1,0,0.1c0,0,0,0.1,0.1,0.1s0.1,0,0.1,0c0,0,0.1,0,0.2,0h0.2v0.5h-0.4
				c-0.1,0-0.2,0-0.3,0c-0.1,0-0.2-0.1-0.2-0.1s-0.1-0.1-0.1-0.2s0-0.2,0-0.3v-2h-0.5v-0.5h0.5v-0.9h0.5v0.9H1051.3z"/>
		</g>
		<g>
			<path d="M1016.2,319.5l1.5,2.3h0v-2.3h0.4v2.9h-0.4l-1.5-2.3h0v2.3h-0.4v-2.9H1016.2z"/>
			<path d="M1020,322.4v-0.3h0c-0.1,0.1-0.2,0.2-0.3,0.3c-0.1,0.1-0.2,0.1-0.4,0.1c-0.1,0-0.2,0-0.3-0.1c-0.1,0-0.2-0.1-0.2-0.2
				c-0.1-0.1-0.1-0.1-0.1-0.2c0-0.1,0-0.2,0-0.3v-1.4h0.3v1.4c0,0.1,0,0.2,0.1,0.3c0.1,0.1,0.2,0.1,0.3,0.1c0.1,0,0.2,0,0.3,0
				c0.1,0,0.1-0.1,0.2-0.1c0.1-0.1,0.1-0.1,0.1-0.2s0-0.2,0-0.3v-1.2h0.3v2.1H1020z"/>
			<path d="M1021.2,320.3v0.3h0c0.2-0.2,0.4-0.4,0.7-0.4c0.1,0,0.2,0,0.3,0.1c0.1,0.1,0.2,0.1,0.2,0.3c0.1-0.1,0.2-0.2,0.3-0.3
				s0.2-0.1,0.4-0.1c0.1,0,0.2,0,0.3,0c0.1,0,0.2,0.1,0.2,0.1c0.1,0,0.1,0.1,0.1,0.2c0,0.1,0,0.2,0,0.3v1.5h-0.3V321
				c0-0.1,0-0.1,0-0.2c0-0.1,0-0.1-0.1-0.1c0,0-0.1-0.1-0.1-0.1c-0.1,0-0.1,0-0.2,0c-0.2,0-0.3,0-0.4,0.1c-0.1,0.1-0.1,0.2-0.1,0.4
				v1.3h-0.3V321c0-0.1,0-0.1,0-0.2c0-0.1,0-0.1-0.1-0.1s-0.1-0.1-0.1-0.1c0,0-0.1,0-0.2,0c-0.1,0-0.2,0-0.3,0.1
				c-0.1,0-0.1,0.1-0.2,0.1c0,0.1-0.1,0.1-0.1,0.2c0,0.1,0,0.1,0,0.1v1.3h-0.3v-2.1H1021.2z"/>
			<path d="M1024.6,319.5v1.1h0c0.1-0.1,0.1-0.2,0.3-0.2c0.1-0.1,0.3-0.1,0.4-0.1c0.2,0,0.3,0,0.4,0.1c0.1,0.1,0.2,0.1,0.3,0.2
				c0.1,0.1,0.1,0.2,0.2,0.3c0,0.1,0.1,0.3,0.1,0.4c0,0.1,0,0.3-0.1,0.4c0,0.1-0.1,0.2-0.2,0.3c-0.1,0.1-0.2,0.2-0.3,0.2
				c-0.1,0.1-0.3,0.1-0.4,0.1c-0.1,0-0.1,0-0.2,0s-0.1,0-0.2-0.1s-0.1-0.1-0.2-0.1c-0.1,0-0.1-0.1-0.1-0.2h0v0.3h-0.3v-2.9H1024.6z
				 M1025.9,321c0-0.1-0.1-0.2-0.1-0.2c-0.1-0.1-0.1-0.1-0.2-0.2c-0.1,0-0.2-0.1-0.3-0.1c-0.1,0-0.2,0-0.3,0.1
				c-0.1,0-0.1,0.1-0.2,0.2c-0.1,0.1-0.1,0.2-0.1,0.2s0,0.2,0,0.3c0,0.1,0,0.2,0,0.3c0,0.1,0.1,0.2,0.1,0.2c0.1,0.1,0.1,0.1,0.2,0.2
				c0.1,0,0.2,0.1,0.3,0.1s0.2,0,0.3-0.1s0.1-0.1,0.2-0.2c0-0.1,0.1-0.2,0.1-0.3c0-0.1,0-0.2,0-0.3
				C1025.9,321.2,1025.9,321.1,1025.9,321z"/>
			<path d="M1028.1,322.3c-0.2,0.1-0.3,0.2-0.6,0.2c-0.2,0-0.3,0-0.4-0.1s-0.2-0.1-0.3-0.2c-0.1-0.1-0.1-0.2-0.2-0.3
				s-0.1-0.3-0.1-0.4c0-0.2,0-0.3,0.1-0.4c0-0.1,0.1-0.2,0.2-0.3s0.2-0.2,0.3-0.2c0.1-0.1,0.2-0.1,0.4-0.1c0.2,0,0.3,0,0.5,0.1
				c0.1,0.1,0.2,0.2,0.3,0.3s0.1,0.2,0.2,0.4c0,0.1,0,0.3,0,0.4h-1.5c0,0.1,0,0.2,0,0.3c0,0.1,0.1,0.2,0.1,0.2
				c0.1,0.1,0.1,0.1,0.2,0.1c0.1,0,0.2,0.1,0.3,0.1c0.1,0,0.3,0,0.4-0.1c0.1-0.1,0.2-0.2,0.2-0.3h0.3
				C1028.4,322,1028.3,322.1,1028.1,322.3z M1028,320.9c0-0.1-0.1-0.1-0.1-0.2c-0.1-0.1-0.1-0.1-0.2-0.1s-0.1,0-0.2,0
				c-0.1,0-0.2,0-0.2,0c-0.1,0-0.1,0.1-0.2,0.1s-0.1,0.1-0.1,0.2s0,0.1-0.1,0.2h1.2C1028.1,321.1,1028.1,321,1028,320.9z"/>
			<path d="M1029.1,320.3v0.4h0c0.1-0.2,0.2-0.3,0.3-0.4s0.3-0.1,0.5-0.1v0.4c-0.1,0-0.3,0-0.3,0.1c-0.1,0-0.2,0.1-0.2,0.2
				c-0.1,0.1-0.1,0.2-0.1,0.3s0,0.2,0,0.4v0.9h-0.3v-2.1H1029.1z"/>
			<path d="M1030.4,321.9c0,0.1,0.1,0.1,0.1,0.1c0.1,0,0.1,0.1,0.2,0.1s0.1,0,0.2,0c0.1,0,0.1,0,0.2,0c0.1,0,0.1,0,0.2,0
				c0,0,0.1-0.1,0.1-0.1c0,0,0-0.1,0-0.2c0-0.1,0-0.2-0.1-0.2c-0.1,0-0.2-0.1-0.2-0.1c-0.1,0-0.2-0.1-0.3-0.1
				c-0.1,0-0.2-0.1-0.3-0.1c-0.1,0-0.2-0.1-0.2-0.2c-0.1-0.1-0.1-0.2-0.1-0.3c0-0.1,0-0.2,0.1-0.3c0-0.1,0.1-0.1,0.2-0.2
				c0.1,0,0.2-0.1,0.2-0.1c0.1,0,0.2,0,0.3,0c0.1,0,0.2,0,0.3,0s0.2,0.1,0.3,0.1c0.1,0,0.1,0.1,0.2,0.2s0.1,0.2,0.1,0.3h-0.3
				c0-0.1,0-0.1-0.1-0.2c0,0-0.1-0.1-0.1-0.1c0,0-0.1,0-0.2-0.1c-0.1,0-0.1,0-0.2,0c-0.1,0-0.1,0-0.2,0c-0.1,0-0.1,0-0.1,0
				s-0.1,0-0.1,0.1c0,0,0,0.1,0,0.1c0,0.1,0,0.1,0.1,0.1c0,0,0.1,0.1,0.2,0.1c0.1,0,0.1,0,0.2,0.1c0.1,0,0.2,0,0.2,0.1
				c0.1,0,0.2,0,0.2,0.1c0.1,0,0.2,0.1,0.2,0.1s0.1,0.1,0.2,0.2c0,0.1,0.1,0.1,0.1,0.2c0,0.1,0,0.2-0.1,0.3s-0.1,0.1-0.2,0.2
				c-0.1,0.1-0.2,0.1-0.3,0.1c-0.1,0-0.2,0-0.3,0c-0.1,0-0.2,0-0.3,0c-0.1,0-0.2-0.1-0.3-0.1c-0.1-0.1-0.1-0.1-0.2-0.2
				s-0.1-0.2-0.1-0.3h0.3C1030.3,321.8,1030.4,321.9,1030.4,321.9z"/>
			<path d="M1033.2,320.4c0.1-0.2,0.1-0.3,0.3-0.5c0.1-0.1,0.3-0.2,0.4-0.3c0.2-0.1,0.4-0.1,0.6-0.1c0.2,0,0.4,0,0.6,0.1
				c0.2,0.1,0.3,0.2,0.4,0.3s0.2,0.3,0.3,0.5c0.1,0.2,0.1,0.4,0.1,0.6c0,0.2,0,0.4-0.1,0.6c-0.1,0.2-0.1,0.3-0.3,0.5
				s-0.3,0.2-0.4,0.3c-0.2,0.1-0.4,0.1-0.6,0.1c-0.2,0-0.4,0-0.6-0.1c-0.2-0.1-0.3-0.2-0.4-0.3c-0.1-0.1-0.2-0.3-0.3-0.5
				c-0.1-0.2-0.1-0.4-0.1-0.6C1033.1,320.8,1033.2,320.6,1033.2,320.4z M1033.6,321.4c0,0.1,0.1,0.3,0.2,0.4s0.2,0.2,0.3,0.3
				c0.1,0.1,0.3,0.1,0.4,0.1c0.2,0,0.3,0,0.4-0.1c0.1-0.1,0.2-0.2,0.3-0.3s0.1-0.2,0.2-0.4s0.1-0.3,0.1-0.4c0-0.1,0-0.3-0.1-0.4
				s-0.1-0.3-0.2-0.4c-0.1-0.1-0.2-0.2-0.3-0.3c-0.1-0.1-0.3-0.1-0.4-0.1c-0.2,0-0.3,0-0.4,0.1c-0.1,0.1-0.2,0.2-0.3,0.3
				c-0.1,0.1-0.1,0.2-0.2,0.4s-0.1,0.3-0.1,0.4C1033.5,321.1,1033.5,321.2,1033.6,321.4z"/>
			<path d="M1036.9,322.4l-0.8-2.1h0.4l0.6,1.7h0l0.6-1.7h0.4l-0.8,2.1H1036.9z"/>
			<path d="M1039.7,322.3c-0.2,0.1-0.3,0.2-0.6,0.2c-0.2,0-0.3,0-0.4-0.1s-0.2-0.1-0.3-0.2c-0.1-0.1-0.1-0.2-0.2-0.3
				s-0.1-0.3-0.1-0.4c0-0.2,0-0.3,0.1-0.4c0-0.1,0.1-0.2,0.2-0.3s0.2-0.2,0.3-0.2c0.1-0.1,0.2-0.1,0.4-0.1c0.2,0,0.3,0,0.5,0.1
				c0.1,0.1,0.2,0.2,0.3,0.3s0.1,0.2,0.2,0.4c0,0.1,0,0.3,0,0.4h-1.5c0,0.1,0,0.2,0,0.3c0,0.1,0.1,0.2,0.1,0.2
				c0.1,0.1,0.1,0.1,0.2,0.1c0.1,0,0.2,0.1,0.3,0.1c0.1,0,0.3,0,0.4-0.1c0.1-0.1,0.2-0.2,0.2-0.3h0.3
				C1040,322,1039.9,322.1,1039.7,322.3z M1039.7,320.9c0-0.1-0.1-0.1-0.1-0.2c-0.1-0.1-0.1-0.1-0.2-0.1s-0.1,0-0.2,0
				c-0.1,0-0.2,0-0.2,0c-0.1,0-0.1,0.1-0.2,0.1s-0.1,0.1-0.1,0.2s0,0.1-0.1,0.2h1.2C1039.7,321.1,1039.7,321,1039.7,320.9z"/>
			<path d="M1040.7,320.3v0.4h0c0.1-0.2,0.2-0.3,0.3-0.4s0.3-0.1,0.5-0.1v0.4c-0.1,0-0.3,0-0.3,0.1c-0.1,0-0.2,0.1-0.2,0.2
				c-0.1,0.1-0.1,0.2-0.1,0.3s0,0.2,0,0.4v0.9h-0.3v-2.1H1040.7z"/>
			<path d="M1042.6,319.8v-0.3h2.3v0.3h-1v2.5h-0.4v-2.5H1042.6z"/>
			<path d="M1045.2,319.9v-0.4h0.3v0.4H1045.2z M1045.5,320.3v2.1h-0.3v-2.1H1045.5z"/>
			<path d="M1046.4,320.3v0.3h0c0.2-0.2,0.4-0.4,0.7-0.4c0.1,0,0.2,0,0.3,0.1c0.1,0.1,0.2,0.1,0.2,0.3c0.1-0.1,0.2-0.2,0.3-0.3
				s0.2-0.1,0.4-0.1c0.1,0,0.2,0,0.3,0c0.1,0,0.2,0.1,0.2,0.1c0.1,0,0.1,0.1,0.1,0.2c0,0.1,0,0.2,0,0.3v1.5h-0.3V321
				c0-0.1,0-0.1,0-0.2c0-0.1,0-0.1-0.1-0.1c0,0-0.1-0.1-0.1-0.1c-0.1,0-0.1,0-0.2,0c-0.2,0-0.3,0-0.4,0.1c-0.1,0.1-0.1,0.2-0.1,0.4
				v1.3h-0.3V321c0-0.1,0-0.1,0-0.2c0-0.1,0-0.1-0.1-0.1s-0.1-0.1-0.1-0.1c0,0-0.1,0-0.2,0c-0.1,0-0.2,0-0.3,0.1
				c-0.1,0-0.1,0.1-0.2,0.1c0,0.1-0.1,0.1-0.1,0.2c0,0.1,0,0.1,0,0.1v1.3h-0.3v-2.1H1046.4z"/>
			<path d="M1050.9,322.3c-0.2,0.1-0.3,0.2-0.6,0.2c-0.2,0-0.3,0-0.4-0.1s-0.2-0.1-0.3-0.2c-0.1-0.1-0.1-0.2-0.2-0.3
				s-0.1-0.3-0.1-0.4c0-0.2,0-0.3,0.1-0.4c0-0.1,0.1-0.2,0.2-0.3s0.2-0.2,0.3-0.2c0.1-0.1,0.2-0.1,0.4-0.1c0.2,0,0.3,0,0.5,0.1
				c0.1,0.1,0.2,0.2,0.3,0.3s0.1,0.2,0.2,0.4c0,0.1,0,0.3,0,0.4h-1.5c0,0.1,0,0.2,0,0.3c0,0.1,0.1,0.2,0.1,0.2
				c0.1,0.1,0.1,0.1,0.2,0.1c0.1,0,0.2,0.1,0.3,0.1c0.1,0,0.3,0,0.4-0.1c0.1-0.1,0.2-0.2,0.2-0.3h0.3
				C1051.2,322,1051.1,322.1,1050.9,322.3z M1050.9,320.9c0-0.1-0.1-0.1-0.1-0.2c-0.1-0.1-0.1-0.1-0.2-0.1s-0.1,0-0.2,0
				c-0.1,0-0.2,0-0.2,0c-0.1,0-0.1,0.1-0.2,0.1s-0.1,0.1-0.1,0.2s0,0.1-0.1,0.2h1.2C1050.9,321.1,1050.9,321,1050.9,320.9z"/>
		</g>
		<g>
			<path class="st28" d="M1025.1,185.5c-0.2-0.1-0.4-0.1-0.6,0c-0.1,0-0.2,0.1-0.3,0.1s-0.2,0.1-0.2,0.2s-0.1,0.1-0.1,0.2
				s0,0.2,0,0.3c0,0.1,0.1,0.2,0.2,0.2s0.2,0.1,0.3,0.1c0.1,0,0.2,0,0.4,0c0.1,0,0.3,0,0.4,0c0.1,0,0.3,0,0.4,0c0.1,0,0.3,0,0.4,0.1
				c0.1,0,0.2,0.1,0.3,0.2c0.1,0.1,0.2,0.2,0.2,0.4c0.1,0.2,0.1,0.3,0,0.5c0,0.2-0.1,0.3-0.2,0.4c-0.1,0.1-0.2,0.2-0.4,0.3
				c-0.1,0.1-0.3,0.2-0.5,0.2c-0.2,0.1-0.4,0.1-0.6,0.1c-0.2,0-0.4,0-0.5-0.1s-0.3-0.2-0.4-0.3c-0.1-0.1-0.2-0.3-0.3-0.5l0.4-0.1
				c0,0.1,0.1,0.3,0.2,0.3c0.1,0.1,0.2,0.2,0.3,0.2c0.1,0,0.2,0.1,0.4,0.1c0.1,0,0.3,0,0.4-0.1c0.1,0,0.2-0.1,0.3-0.1
				c0.1,0,0.2-0.1,0.3-0.2s0.1-0.2,0.1-0.2c0-0.1,0-0.2,0-0.3c0-0.1-0.1-0.2-0.2-0.3s-0.2-0.1-0.3-0.1c-0.1,0-0.2,0-0.4,0
				c-0.1,0-0.3,0-0.4,0c-0.1,0-0.3,0-0.4,0c-0.1,0-0.3,0-0.4-0.1c-0.1,0-0.2-0.1-0.3-0.2c-0.1-0.1-0.2-0.2-0.2-0.4
				c-0.1-0.2-0.1-0.3,0-0.5c0-0.1,0.1-0.3,0.2-0.4c0.1-0.1,0.2-0.2,0.3-0.3c0.1-0.1,0.3-0.2,0.4-0.2c0.2-0.1,0.3-0.1,0.5-0.1
				c0.2,0,0.3,0,0.5,0.1c0.1,0.1,0.3,0.1,0.4,0.3c0.1,0.1,0.2,0.3,0.3,0.5l-0.4,0.1C1025.4,185.7,1025.2,185.6,1025.1,185.5z"/>
			<path class="st28" d="M1027.6,185.3l0.1,0.4l-0.5,0.1l0.5,1.5c0,0,0,0.1,0,0.1c0,0,0,0,0.1,0.1c0,0,0.1,0,0.1,0c0,0,0.1,0,0.2,0
				l0.2-0.1l0.1,0.4l-0.3,0.1c-0.1,0-0.2,0.1-0.3,0.1c-0.1,0-0.1,0-0.2,0c-0.1,0-0.1-0.1-0.2-0.1c0-0.1-0.1-0.2-0.1-0.3l-0.5-1.6
				l-0.4,0.1l-0.1-0.4l0.4-0.1l-0.2-0.7l0.4-0.1l0.2,0.7L1027.6,185.3z"/>
			<path class="st28" d="M1030.5,187.1l-0.1-0.4l0,0c0,0.2-0.1,0.3-0.2,0.4c-0.1,0.1-0.3,0.2-0.4,0.3c-0.2,0-0.3,0.1-0.4,0.1
				c-0.1,0-0.2,0-0.3-0.1s-0.2-0.1-0.2-0.2c-0.1-0.1-0.1-0.2-0.2-0.4l-0.5-1.6l0.4-0.1l0.5,1.7c0,0.2,0.1,0.3,0.2,0.3s0.3,0.1,0.4,0
				c0.1,0,0.2-0.1,0.3-0.2s0.1-0.1,0.2-0.2c0-0.1,0.1-0.2,0.1-0.3s0-0.2,0-0.3l-0.4-1.4l0.4-0.1l0.7,2.5L1030.5,187.1z"/>
			<path class="st28" d="M1030.6,184.8l-0.1-0.4l0.4-0.1l-0.1-0.4c-0.1-0.2,0-0.4,0-0.5c0.1-0.1,0.2-0.2,0.5-0.3c0,0,0.1,0,0.1,0
				c0.1,0,0.1,0,0.1,0l0.1,0.4c0,0-0.1,0-0.1,0c0,0-0.1,0-0.1,0c-0.1,0-0.2,0.1-0.2,0.1c0,0.1,0,0.1,0,0.2l0.1,0.3l0.5-0.1l0.1,0.4
				l-0.5,0.1l0.6,2.1l-0.4,0.1l-0.6-2.1L1030.6,184.8z"/>
			<path class="st28" d="M1031.9,184.4l-0.1-0.4l0.4-0.1l-0.1-0.4c-0.1-0.2,0-0.4,0-0.5c0.1-0.1,0.2-0.2,0.5-0.3c0,0,0.1,0,0.1,0
				c0.1,0,0.1,0,0.1,0l0.1,0.4c0,0-0.1,0-0.1,0c0,0-0.1,0-0.1,0c-0.1,0-0.2,0.1-0.2,0.1s0,0.1,0,0.2l0.1,0.3l0.5-0.1l0.1,0.4
				l-0.5,0.1l0.6,2.1l-0.4,0.1l-0.6-2.1L1031.9,184.4z"/>
			<path class="st28" d="M1029.1,193.8c-0.1,0.1-0.2,0.1-0.3,0.1c-0.1,0-0.2,0-0.3,0c-0.1,0-0.1-0.1-0.2-0.3
				c-0.1,0.2-0.2,0.3-0.3,0.4c-0.1,0.1-0.3,0.2-0.5,0.2c-0.1,0-0.2,0.1-0.3,0.1c-0.1,0-0.2,0-0.3,0s-0.2-0.1-0.2-0.2
				c-0.1-0.1-0.1-0.2-0.2-0.3c0-0.1-0.1-0.3,0-0.4c0-0.1,0.1-0.2,0.1-0.3s0.1-0.1,0.2-0.2c0.1-0.1,0.2-0.1,0.3-0.2
				c0.1-0.1,0.2-0.1,0.3-0.1c0.1,0,0.2-0.1,0.3-0.1c0.1,0,0.1-0.1,0.2-0.1c0-0.1,0-0.1,0-0.2c0-0.1-0.1-0.2-0.1-0.2
				c0,0-0.1-0.1-0.2-0.1s-0.1,0-0.2,0s-0.1,0-0.2,0c-0.2,0.1-0.3,0.1-0.4,0.2c-0.1,0.1-0.1,0.2-0.1,0.4l-0.4,0.1c0-0.2,0-0.3,0-0.4
				c0-0.1,0.1-0.2,0.2-0.3c0.1-0.1,0.2-0.2,0.3-0.2c0.1-0.1,0.2-0.1,0.4-0.2c0.1,0,0.2-0.1,0.3-0.1c0.1,0,0.2,0,0.3,0
				c0.1,0,0.2,0.1,0.3,0.1s0.1,0.2,0.2,0.3l0.4,1.3c0,0.1,0.1,0.2,0.1,0.2s0.1,0.1,0.1,0c0,0,0.1,0,0.1-0.1L1029.1,193.8z
				 M1028,192.7c0,0.1-0.1,0.1-0.2,0.1c-0.1,0-0.2,0.1-0.2,0.1c-0.1,0-0.2,0.1-0.3,0.1c-0.1,0-0.2,0.1-0.2,0.1
				c-0.1,0.1-0.1,0.1-0.1,0.2c0,0.1,0,0.2,0,0.3c0,0.1,0,0.1,0.1,0.2c0,0,0.1,0.1,0.1,0.1c0.1,0,0.1,0,0.2,0c0.1,0,0.1,0,0.2,0
				c0.1,0,0.2-0.1,0.3-0.2c0.1-0.1,0.1-0.1,0.2-0.2c0-0.1,0.1-0.1,0.1-0.2s0-0.1,0-0.2L1028,192.7z"/>
			<path class="st28" d="M1029.1,191.1l0.1,0.4l0,0c0.1-0.4,0.3-0.6,0.7-0.7c0.2,0,0.3-0.1,0.4-0.1c0.1,0,0.2,0,0.3,0.1
				s0.2,0.1,0.2,0.2c0.1,0.1,0.1,0.2,0.1,0.4l0.5,1.6l-0.4,0.1l-0.5-1.7c0-0.2-0.1-0.3-0.2-0.3c-0.1-0.1-0.3-0.1-0.4,0
				c-0.1,0-0.2,0.1-0.3,0.2c-0.1,0.1-0.1,0.1-0.2,0.2c0,0.1-0.1,0.2-0.1,0.3c0,0.1,0,0.2,0,0.3l0.4,1.4l-0.4,0.1l-0.7-2.5
				L1029.1,191.1z"/>
			<path class="st28" d="M1033.9,192.4l-0.1-0.3l0,0c0,0.2-0.1,0.3-0.2,0.4c-0.1,0.1-0.3,0.2-0.4,0.2c-0.2,0.1-0.4,0.1-0.5,0
				c-0.2,0-0.3-0.1-0.4-0.2c-0.1-0.1-0.2-0.2-0.3-0.3c-0.1-0.1-0.2-0.3-0.2-0.5s-0.1-0.3-0.1-0.5c0-0.2,0-0.3,0.1-0.5
				c0.1-0.1,0.2-0.3,0.3-0.4c0.1-0.1,0.3-0.2,0.5-0.3c0.1,0,0.1,0,0.2,0c0.1,0,0.2,0,0.2,0c0.1,0,0.2,0,0.2,0.1
				c0.1,0,0.2,0.1,0.2,0.1l0,0l-0.4-1.3l0.4-0.1l1,3.4L1033.9,192.4z M1032.2,191.9c0.1,0.1,0.1,0.2,0.2,0.3
				c0.1,0.1,0.2,0.1,0.3,0.1c0.1,0,0.2,0,0.4,0c0.1,0,0.2-0.1,0.3-0.2c0.1-0.1,0.1-0.2,0.2-0.3c0-0.1,0-0.2,0-0.3
				c0-0.1,0-0.2-0.1-0.4c0-0.1-0.1-0.2-0.1-0.3s-0.1-0.2-0.2-0.3c-0.1-0.1-0.2-0.1-0.3-0.1c-0.1,0-0.2,0-0.4,0
				c-0.1,0-0.2,0.1-0.3,0.2s-0.1,0.2-0.2,0.3c0,0.1,0,0.2,0,0.3c0,0.1,0,0.2,0.1,0.4C1032.1,191.7,1032.1,191.8,1032.2,191.9z"/>
			<path class="st28" d="M1023.5,198.4l-0.1-0.4l2.7-0.8l0.1,0.4l-1.1,0.3l0.9,3l-0.5,0.1l-0.9-3L1023.5,198.4z"/>
			<path class="st28" d="M1026.9,197l0.4,1.3l0,0c0-0.1,0-0.2,0.1-0.2c0-0.1,0.1-0.1,0.2-0.2c0.1-0.1,0.1-0.1,0.2-0.1
				c0.1,0,0.1-0.1,0.2-0.1c0.2,0,0.3-0.1,0.4-0.1c0.1,0,0.2,0,0.3,0.1c0.1,0.1,0.2,0.1,0.2,0.2c0.1,0.1,0.1,0.2,0.2,0.4l0.5,1.6
				l-0.4,0.1l-0.5-1.7c0-0.2-0.1-0.3-0.2-0.3c-0.1-0.1-0.3-0.1-0.4,0c-0.1,0-0.2,0.1-0.3,0.2c-0.1,0.1-0.1,0.1-0.2,0.2
				c0,0.1-0.1,0.2-0.1,0.3c0,0.1,0,0.2,0,0.3l0.4,1.4l-0.4,0.1l-1-3.4L1026.9,197z"/>
			<path class="st28" d="M1032.3,199.1c-0.1,0.1-0.2,0.1-0.3,0.2c-0.1,0-0.2,0-0.3,0s-0.1-0.1-0.2-0.3c-0.1,0.2-0.2,0.3-0.3,0.4
				c-0.1,0.1-0.3,0.2-0.5,0.2c-0.1,0-0.2,0.1-0.3,0.1c-0.1,0-0.2,0-0.3,0c-0.1,0-0.2-0.1-0.2-0.2c-0.1-0.1-0.1-0.2-0.2-0.3
				c0-0.1-0.1-0.3,0-0.4c0-0.1,0.1-0.2,0.1-0.3c0.1-0.1,0.1-0.1,0.2-0.2c0.1-0.1,0.2-0.1,0.3-0.2c0.1-0.1,0.2-0.1,0.3-0.1
				c0.1,0,0.2-0.1,0.3-0.1c0.1,0,0.1-0.1,0.2-0.1c0-0.1,0-0.1,0-0.2c0-0.1-0.1-0.2-0.1-0.2c0,0-0.1-0.1-0.2-0.1s-0.1,0-0.2,0
				c-0.1,0-0.1,0-0.2,0c-0.2,0.1-0.3,0.1-0.4,0.2c-0.1,0.1-0.1,0.2-0.1,0.4l-0.4,0.1c0-0.2,0-0.3,0-0.4c0-0.1,0.1-0.2,0.2-0.3
				c0.1-0.1,0.2-0.2,0.3-0.2c0.1-0.1,0.2-0.1,0.4-0.2c0.1,0,0.2-0.1,0.3-0.1c0.1,0,0.2,0,0.3,0s0.2,0.1,0.3,0.1
				c0.1,0.1,0.1,0.2,0.2,0.3l0.4,1.3c0,0.1,0.1,0.2,0.1,0.2s0.1,0.1,0.1,0c0,0,0.1,0,0.1-0.1L1032.3,199.1z M1031.3,198
				c0,0.1-0.1,0.1-0.2,0.1s-0.2,0.1-0.2,0.1c-0.1,0-0.2,0.1-0.3,0.1s-0.2,0.1-0.2,0.1c-0.1,0.1-0.1,0.1-0.1,0.2c0,0.1,0,0.2,0,0.3
				c0,0.1,0.1,0.1,0.1,0.2s0.1,0.1,0.1,0.1c0.1,0,0.1,0,0.2,0c0.1,0,0.1,0,0.2,0c0.1,0,0.2-0.1,0.3-0.2s0.1-0.1,0.2-0.2
				c0-0.1,0.1-0.1,0.1-0.2c0-0.1,0-0.1,0-0.2L1031.3,198z"/>
			<path class="st28" d="M1032.4,196.4l0.1,0.4l0,0c0.1-0.4,0.3-0.6,0.7-0.7c0.2,0,0.3-0.1,0.4-0.1c0.1,0,0.2,0,0.3,0.1
				c0.1,0.1,0.2,0.1,0.2,0.2c0.1,0.1,0.1,0.2,0.2,0.4l0.5,1.6l-0.4,0.1l-0.5-1.7c0-0.2-0.1-0.3-0.2-0.3c-0.1-0.1-0.3-0.1-0.4,0
				c-0.1,0-0.2,0.1-0.3,0.2s-0.1,0.1-0.2,0.2c0,0.1-0.1,0.2-0.1,0.3c0,0.1,0,0.2,0,0.3l0.4,1.4l-0.4,0.1l-0.7-2.5L1032.4,196.4z"/>
			<path class="st28" d="M1037.5,198.3c-0.1,0.3-0.4,0.4-0.8,0.6c-0.1,0-0.2,0.1-0.4,0.1c-0.1,0-0.2,0-0.4,0s-0.2-0.1-0.3-0.2
				c-0.1-0.1-0.2-0.2-0.2-0.3l0.4-0.1c0,0.1,0.1,0.1,0.1,0.2c0.1,0,0.1,0.1,0.2,0.1c0.1,0,0.1,0,0.2,0c0.1,0,0.2,0,0.2,0
				c0.1,0,0.2-0.1,0.3-0.2c0.1-0.1,0.1-0.2,0.2-0.3s0.1-0.2,0-0.3s0-0.3-0.1-0.4l0-0.2l0,0c0,0.2-0.1,0.3-0.2,0.4
				c-0.1,0.1-0.3,0.2-0.4,0.2c-0.2,0.1-0.4,0.1-0.5,0c-0.2,0-0.3-0.1-0.4-0.2s-0.2-0.2-0.3-0.3c-0.1-0.1-0.2-0.3-0.2-0.5
				c0-0.1-0.1-0.3-0.1-0.5c0-0.2,0-0.3,0.1-0.5c0.1-0.2,0.1-0.3,0.3-0.4c0.1-0.1,0.3-0.2,0.5-0.3c0.2,0,0.3-0.1,0.5,0
				c0.2,0,0.3,0.1,0.4,0.2l0,0l-0.1-0.4l0.4-0.1l0.7,2.3C1037.6,197.7,1037.6,198.1,1037.5,198.3z M1036.6,197.4
				c0.1-0.1,0.1-0.2,0.2-0.3c0-0.1,0-0.2,0-0.3c0-0.1,0-0.2-0.1-0.4c0-0.1-0.1-0.2-0.1-0.3c-0.1-0.1-0.1-0.2-0.2-0.2
				c-0.1-0.1-0.2-0.1-0.3-0.1c-0.1,0-0.2,0-0.3,0c-0.1,0-0.2,0.1-0.3,0.2c-0.1,0.1-0.1,0.2-0.2,0.3c0,0.1,0,0.2,0,0.3
				c0,0.1,0,0.2,0.1,0.4c0,0.1,0.1,0.2,0.1,0.3c0.1,0.1,0.1,0.2,0.2,0.3s0.2,0.1,0.3,0.2s0.2,0,0.4,0S1036.5,197.4,1036.6,197.4z"/>
			<path class="st28" d="M1038.3,196.7c0.1,0.1,0.1,0.1,0.2,0.1c0.1,0,0.2,0,0.2,0c0.1,0,0.2,0,0.2,0c0.1,0,0.1,0,0.2-0.1
				c0.1,0,0.1-0.1,0.2-0.1c0.1,0,0.1-0.1,0.1-0.2c0-0.1,0-0.1,0-0.2c0-0.1-0.1-0.2-0.2-0.2c-0.1,0-0.2,0-0.3,0c-0.1,0-0.3,0-0.4,0
				c-0.1,0-0.3,0-0.4,0c-0.1,0-0.3-0.1-0.4-0.1s-0.2-0.2-0.2-0.3c0-0.1,0-0.2,0-0.3c0-0.1,0.1-0.2,0.1-0.3c0.1-0.1,0.2-0.2,0.3-0.2
				c0.1-0.1,0.2-0.1,0.3-0.1c0.1,0,0.3-0.1,0.4-0.1c0.1,0,0.2,0,0.4,0c0.1,0,0.2,0.1,0.3,0.2c0.1,0.1,0.2,0.2,0.2,0.3l-0.4,0.1
				c0-0.1-0.1-0.1-0.1-0.2c-0.1,0-0.1-0.1-0.2-0.1c-0.1,0-0.1,0-0.2,0c-0.1,0-0.1,0-0.2,0c-0.1,0-0.1,0-0.2,0.1
				c-0.1,0-0.1,0.1-0.2,0.1c0,0-0.1,0.1-0.1,0.1c0,0,0,0.1,0,0.2c0,0.1,0.1,0.1,0.1,0.2c0.1,0,0.1,0,0.2,0.1c0.1,0,0.2,0,0.3,0
				s0.2,0,0.3,0c0.1,0,0.2,0,0.3,0s0.2,0,0.3,0c0.1,0,0.2,0.1,0.2,0.1c0.1,0.1,0.1,0.2,0.2,0.3c0,0.2,0.1,0.3,0,0.4
				c0,0.1-0.1,0.2-0.2,0.3c-0.1,0.1-0.2,0.2-0.3,0.2c-0.1,0.1-0.2,0.1-0.4,0.1c-0.1,0-0.3,0.1-0.4,0.1c-0.1,0-0.3,0-0.4,0
				c-0.1,0-0.2-0.1-0.3-0.2c-0.1-0.1-0.2-0.2-0.2-0.4l0.4-0.1C1038.2,196.6,1038.2,196.6,1038.3,196.7z"/>
		</g>
		<g>
			<path class="st29" d="M1097.6,202c-0.2,0.1-0.4,0.2-0.5,0.5c-0.1,0.3,0,0.6,0.4,0.8c0.7,0.3,1.1-0.8,1.5-1.4
				c0.4-0.7,0.9-1.8,1.5-1.9c-0.3,0-0.7-0.1-1.1-0.2c-0.9-0.2-1.6-0.3-1.9,0.3c-0.1,0.4,0,0.8,0.5,1c0.1,0,0.2,0.1,0.4,0.1l0,0.1
				c-0.2,0.2-0.5,0.2-0.7,0.1c-0.4-0.1-0.7-0.6-0.5-1.1c0.5-1.3,2.5-0.7,3.5-0.3c0.1-0.1,0.2-0.1,0.3-0.1c0,0,0.1,0.1,0.1,0.2
				c-0.1,0.1-0.3,0.1-0.5,0.1c-0.2,0.2-0.7,1.2-1.3,2c-0.5,0.8-1.4,1.7-2.1,1.4c-0.5-0.2-0.7-0.6-0.5-1
				C1096.9,202.3,1097.1,202,1097.6,202L1097.6,202z"/>
			<path class="st29" d="M1103.7,204.2c-0.5,0.7-1.2,1.2-1.9,1c-0.5-0.2-0.5-0.6-0.3-1.1c0.2-0.6,0.8-1.5,1-1.8c0.2,0,0.3,0,0.4,0
				c-0.2,0.4-0.8,1.3-1,1.9c-0.1,0.4-0.1,0.7,0.2,0.8c0.4,0.2,1.1-0.4,1.4-0.9L1103.7,204.2z M1103,201.1c0.1-0.2,0.3-0.3,0.4-0.2
				c0.2,0.1,0.3,0.3,0.2,0.4c-0.1,0.2-0.3,0.3-0.4,0.2C1103,201.4,1102.9,201.2,1103,201.1z"/>
			<path class="st29" d="M1106.8,205.4c-0.5,0.7-1.2,1.2-1.9,1c-0.4-0.1-0.4-0.5-0.3-1c0.1-0.4,0.5-0.8,0.6-1.2
				c0.1-0.4,0.2-0.6-0.1-0.7c-0.6-0.2-1.3,0.7-1.7,1.3c-0.2,0.3-0.3,0.6-0.4,0.7c-0.1,0.1-0.3,0-0.4,0c0.2-0.4,0.9-1.6,1.4-2.6
				c0.1,0,0.3,0,0.4,0.1l-0.4,0.7c0.4-0.3,0.8-0.6,1.3-0.4c0.4,0.2,0.5,0.5,0.3,1c-0.1,0.4-0.5,0.9-0.7,1.3
				c-0.1,0.3-0.1,0.6,0.1,0.7c0.4,0.2,1.1-0.4,1.4-0.9L1106.8,205.4z"/>
			<path class="st29" d="M1108.4,204.5c0.1-0.1,0.3-0.1,0.5,0c0.4,0.2,0.5,0.5,0.3,1c-0.3,0.9-1.4,1.9-2.4,1.5
				c-0.5-0.2-0.5-0.6-0.3-1.1c0.2-0.6,0.8-1.3,1-1.8c0.2,0,0.3,0,0.4,0c-0.2,0.6-0.8,1.2-1,1.9c-0.1,0.4-0.1,0.7,0.2,0.8
				c0.6,0.2,1.5-0.3,1.8-1.1C1108.9,205.2,1108.9,204.7,1108.4,204.5L1108.4,204.5z"/>
			<path class="st29" d="M1112.2,207.4c-0.5,0.6-1.3,1.2-2.3,0.8c-0.7-0.3-0.8-0.9-0.6-1.5c0.2-0.7,1.1-1.6,2-1.3
				c0.5,0.2,0.5,0.6,0.5,0.8c-0.2,0.5-1,0.7-2,0.4c0,0.1-0.1,0.1-0.1,0.2c-0.2,0.5-0.1,1,0.4,1.2c0.8,0.3,1.6-0.3,1.9-0.7
				L1112.2,207.4z M1111.4,206c0.1-0.3,0-0.4-0.2-0.5c-0.5-0.2-1.1,0.2-1.4,0.8C1110.8,206.7,1111.3,206.5,1111.4,206z"/>
			<path class="st29" d="M1115.3,208.5c-0.5,0.7-1.2,1.2-1.9,1c-0.4-0.1-0.4-0.5-0.3-1c0.1-0.4,0.5-0.8,0.6-1.2
				c0.1-0.4,0.2-0.6-0.1-0.7c-0.6-0.2-1.3,0.7-1.7,1.3c-0.2,0.3-0.3,0.6-0.4,0.7c-0.1,0.1-0.3,0-0.4,0c0.2-0.4,0.9-1.6,1.4-2.6
				c0.1,0,0.3,0,0.4,0.1l-0.4,0.7c0.4-0.3,0.8-0.6,1.3-0.4c0.4,0.2,0.5,0.5,0.3,1c-0.1,0.4-0.5,0.9-0.7,1.3
				c-0.1,0.3-0.1,0.6,0.1,0.7c0.4,0.2,1.1-0.4,1.4-0.9L1115.3,208.5z"/>
			<path class="st29" d="M1117,209.1c-0.5,0.7-1.2,1.2-1.9,1c-0.5-0.2-0.5-0.6-0.3-1.1c0.1-0.4,0.5-1.1,0.9-1.7
				c-0.1-0.1-0.3-0.1-0.4-0.2c0-0.1,0-0.1,0.1-0.2c0.1,0.1,0.3,0.1,0.4,0.2c0.2-0.3,0.4-0.6,0.4-0.8c0.2-0.1,0.3,0,0.4,0
				c-0.1,0.2-0.3,0.6-0.5,1c0.3,0.1,0.5,0.1,0.8,0.2c0,0.1,0,0.2-0.1,0.3c-0.3-0.1-0.5-0.1-0.8-0.2c-0.4,0.6-0.8,1.3-0.9,1.6
				c-0.1,0.4-0.1,0.7,0.2,0.8c0.4,0.2,1.1-0.4,1.4-0.9L1117,209.1z"/>
			<path class="st29" d="M1119.5,210.1c-0.5,0.6-1.3,1.2-2.3,0.8c-0.7-0.3-0.8-0.9-0.6-1.5c0.2-0.7,1.1-1.6,2-1.3
				c0.5,0.2,0.5,0.6,0.5,0.8c-0.2,0.5-1,0.7-2,0.4c0,0.1-0.1,0.1-0.1,0.2c-0.2,0.5-0.1,1,0.4,1.2c0.8,0.3,1.6-0.3,1.9-0.7
				L1119.5,210.1z M1118.8,208.8c0.1-0.3,0-0.4-0.2-0.5c-0.5-0.2-1.1,0.2-1.4,0.8C1118.1,209.4,1118.6,209.2,1118.8,208.8z"/>
			<path class="st29" d="M1123,211.4c-0.5,0.7-1.2,1.2-1.9,1c-0.5-0.2-0.5-0.6-0.4-1.1c-0.4,0.4-0.8,0.7-1.3,0.5
				c-0.5-0.2-0.6-0.8-0.3-1.4c0.2-0.7,1.1-1.6,2.1-1.2c0.2,0.1,0.4,0.2,0.5,0.3c0.3-0.6,0.6-1.1,0.7-1.4c0.2-0.1,0.3,0,0.4,0
				c-0.3,0.7-1.5,2.6-1.8,3.3c-0.1,0.4-0.1,0.7,0.2,0.8c0.4,0.2,1.1-0.4,1.4-0.9L1123,211.4z M1121.7,209.6
				c-0.1-0.2-0.3-0.3-0.5-0.4c-0.7-0.2-1.3,0.4-1.6,1.2c-0.2,0.5-0.2,1,0.2,1.1c0.5,0.2,1.1-0.5,1.5-1.2
				C1121.4,210.1,1121.5,209.9,1121.7,209.6z"/>
			<path class="st29" d="M1099.5,210.2c1.3,0.4,2-0.1,2.2-0.7c0.3-0.9-0.3-1.6-1.1-1.8c-1.2-0.4-2.3-0.2-2.6,0.5
				c-0.1,0.3-0.1,0.7,0.4,0.9c0.1,0,0.2,0.1,0.4,0.1c0,0,0,0,0,0.1c-0.2,0.1-0.4,0.2-0.6,0.1c-0.4-0.2-0.7-0.6-0.5-1.1
				c0.4-1.1,1.9-1.2,3-0.8c0.9,0.3,1.7,1.1,1.4,2.1c-0.3,0.9-1.6,1.2-2.7,0.8C1099.4,210.3,1099.5,210.2,1099.5,210.2z M1098,211.4
				c0.4-0.5,0.8-1.2,1.1-1.8c0.4-0.7,0.8-1.5,1.4-1.5l0,0c-0.2,0.2-0.5,0.8-1,1.6C1099,210.6,1098.6,211.6,1098,211.4L1098,211.4z"
				/>
			<path class="st29" d="M1105.6,211.5c-0.5,0.7-1.1,1-1.6,0.8c-0.4,0.6-1,1-1.7,0.7c-0.6-0.2-0.8-0.9-0.5-1.6
				c0.2-0.6,0.8-1.3,1.6-1.2l0,0.1c-0.6,0.1-1,0.6-1.2,1.2c-0.2,0.5-0.2,1.1,0.4,1.3c0.5,0.2,0.9-0.2,1.2-0.6
				c-0.6-0.3-0.7-1-0.5-1.5c0.1-0.3,0.4-0.5,0.8-0.4c0.5,0.2,0.5,0.8,0.3,1.4c-0.1,0.1-0.1,0.3-0.2,0.4c0.4,0.2,0.9-0.1,1.3-0.7
				L1105.6,211.5z M1103.9,211.7c0.1-0.3,0.2-1.1-0.1-1.2c-0.2-0.1-0.3,0-0.4,0.3c-0.1,0.3-0.1,0.8,0.4,1.2
				C1103.9,211.9,1103.9,211.8,1103.9,211.7z"/>
			<path class="st29" d="M1104.8,212.8c-0.1,0.1-0.2,0.2-0.2,0.4c-0.1,0.2,0,0.5,0.4,0.7c0.3,0.1,0.6,0.1,0.7-0.3
				c0.2-0.5-0.7-1.4-0.4-2c0.2-0.4,0.8-0.5,1.1-0.3c0.3,0.1,0.4,0.4,0.3,0.7c0,0,0,0-0.1,0c-0.1-0.2-0.2-0.4-0.5-0.5
				c-0.3-0.1-0.5,0-0.6,0.1c-0.2,0.4,0.7,1.5,0.5,2.1c-0.1,0.3-0.7,0.5-1.2,0.3c-0.6-0.2-0.7-0.6-0.6-0.9
				C1104.4,212.9,1104.6,212.8,1104.8,212.8C1104.8,212.8,1104.8,212.8,1104.8,212.8z"/>
			<path class="st29" d="M1108.9,213.8c-0.5,0.7-1.2,1.2-1.9,1c-0.5-0.2-0.5-0.6-0.3-1.1c0.1-0.4,0.5-1.1,0.9-1.7
				c-0.1-0.1-0.3-0.1-0.4-0.2c0-0.1,0-0.1,0.1-0.2c0.1,0.1,0.3,0.1,0.4,0.2c0.2-0.3,0.4-0.6,0.4-0.8c0.2-0.1,0.3,0,0.4,0
				c-0.1,0.2-0.3,0.6-0.5,1c0.3,0.1,0.5,0.1,0.8,0.2c0,0.1,0,0.2-0.1,0.3c-0.3-0.1-0.5-0.1-0.8-0.2c-0.4,0.6-0.8,1.3-0.9,1.6
				c-0.1,0.4-0.1,0.7,0.2,0.8c0.4,0.2,1.1-0.4,1.4-0.9L1108.9,213.8z"/>
			<path class="st29" d="M1111.1,214.7c-0.2,0.1-0.4,0.2-0.5,0.5c-0.1,0.3,0,0.6,0.4,0.8c0.7,0.3,1.1-0.8,1.5-1.4
				c0.4-0.7,0.9-1.8,1.5-1.9c-0.3,0-0.7-0.1-1.1-0.2c-0.9-0.2-1.6-0.3-1.9,0.3c-0.1,0.4,0,0.8,0.5,1c0.1,0,0.2,0.1,0.4,0.1l0,0.1
				c-0.2,0.2-0.5,0.2-0.7,0.1c-0.4-0.1-0.7-0.6-0.5-1.1c0.5-1.3,2.5-0.7,3.5-0.3c0.1-0.1,0.2-0.1,0.3-0.1c0,0,0.1,0.1,0.1,0.2
				c-0.1,0.1-0.3,0.1-0.5,0.1c-0.2,0.2-0.7,1.2-1.3,2c-0.5,0.8-1.4,1.7-2.1,1.4c-0.5-0.2-0.7-0.6-0.5-1
				C1110.3,214.9,1110.6,214.6,1111.1,214.7L1111.1,214.7z"/>
			<path class="st29" d="M1115.5,216.2c-0.5,0.7-1.2,1.2-1.9,1c-0.5-0.2-0.5-0.6-0.3-1.1c0.1-0.4,0.5-1.1,0.9-1.7
				c-0.1-0.1-0.3-0.1-0.4-0.2c0-0.1,0-0.1,0.1-0.2c0.1,0.1,0.3,0.1,0.4,0.2c0.2-0.3,0.4-0.6,0.4-0.8c0.2-0.1,0.3,0,0.4,0
				c-0.1,0.2-0.3,0.6-0.5,1c0.3,0.1,0.5,0.1,0.8,0.2c0,0.1,0,0.2-0.1,0.3c-0.3-0.1-0.5-0.1-0.8-0.2c-0.4,0.6-0.8,1.3-0.9,1.6
				c-0.1,0.4-0.1,0.7,0.2,0.8c0.4,0.2,1.1-0.4,1.4-0.9L1115.5,216.2z"/>
			<path class="st29" d="M1115.2,216.6c-0.1,0.1-0.2,0.2-0.2,0.4c-0.1,0.2,0,0.5,0.4,0.7c0.3,0.1,0.6,0.1,0.7-0.3
				c0.2-0.5-0.7-1.4-0.4-2c0.2-0.4,0.8-0.5,1.1-0.3c0.3,0.1,0.4,0.4,0.3,0.7c0,0,0,0-0.1,0c-0.1-0.2-0.2-0.4-0.5-0.5
				c-0.3-0.1-0.5,0-0.6,0.1c-0.2,0.4,0.7,1.5,0.5,2.1c-0.1,0.3-0.7,0.5-1.2,0.3c-0.6-0.2-0.7-0.6-0.6-0.9
				C1114.8,216.8,1114.9,216.6,1115.2,216.6C1115.2,216.6,1115.2,216.6,1115.2,216.6z"/>
		</g>
	</g>
	<g id="Desk">
		<path class="st30" d="M769.7,819.9l-3.4,1.2c-6.2,2.2-13.1-1.2-15.3-7.4l-58-166.7c-2.2-6.2,1.2-13.1,7.4-15.3l3.4-1.2
			c6.2-2.2,13.1,1.2,15.3,7.4l58,166.7C779.3,810.8,776,817.7,769.7,819.9z"/>
		<path class="st30" d="M1065.5,819.9l3.4,1.2c6.2,2.2,13.1-1.2,15.3-7.4l58-166.7c2.2-6.2-1.2-13.1-7.4-15.3l-3.4-1.2
			c-6.2-2.2-13.1,1.2-15.3,7.4l-58,166.7C1055.9,810.8,1059.2,817.7,1065.5,819.9z"/>
		<path class="st31" d="M552,933.8l13.1,5.7c5.5,2.4,12-0.1,14.3-5.6l124.6-286c2.4-5.5-0.1-12-5.6-14.3l-13.1-5.7
			c-5.5-2.4-12,0.1-14.3,5.6l-124.6,286C544,924.9,546.5,931.4,552,933.8z"/>
		<path class="st31" d="M1291,932.3l-16.4,7.1c-5.5,2.4-12-0.1-14.3-5.6l-124.6-286c-2.4-5.5,0.1-12,5.6-14.3l16.4-7.1
			c5.5-2.4,12,0.1,14.3,5.6l124.6,286C1299.1,923.5,1296.5,929.9,1291,932.3z"/>
		<path class="st32" d="M1253.8,622.5H563.5c-6.1,0-11,5-11,11l0,0c0,6.1,5,11,11,11h690.3c6.1,0,11-5,11-11l0,0
			C1264.8,627.5,1259.9,622.5,1253.8,622.5z"/>
		<path class="st33" d="M1274.2,626.9H547.6c-6.6,0-12-5.4-12-12V612c0-6.6,5.4-12,12-12h726.6c6.6,0,12,5.4,12,12v2.9
			C1286.2,621.5,1280.8,626.9,1274.2,626.9z"/>
	</g>
	<g id="Lamp">
		<path class="st34" d="M1131.3,443.9c0,0,69.7-37,68.7,37C1200,480.9,1159.7,474.9,1131.3,443.9z"/>
		<circle class="st34" cx="1190" cy="436.6" r="8"/>
		<path class="st34" d="M1283.9,494.9l-85.9-58.2l-8,8l83,55.5l-51.8,74.2l12.7,2l50-69.9C1283.9,506.5,1297.8,497.9,1283.9,494.9z"
			/>
		<path class="st34" d="M1186,600c0,0,11.4-26.1,35.2-25.6S1256,600,1256,600H1186z"/>
	</g>
	<g id="Shelf">
		<path class="st35" d="M799.6,248.2H581.3c-4.5,0-8.2-3.7-8.2-8.2v0c0-4.5,3.7-8.2,8.2-8.2h218.3c4.5,0,8.2,3.7,8.2,8.2v0
			C807.9,244.5,804.2,248.2,799.6,248.2z"/>
		<g id="Layer_15">
			<rect x="585.5" y="168.1" class="st36" width="21.9" height="65"/>
			<g>
				<path class="st5" d="M597,175.8v2.7c-0.6,0.1-1.3,0.3-1.9,0.5s-1.3,0.3-1.9,0.5s-1,0.3-1,0.3s0.6,0.2,1.9,0.5s2.2,0.5,2.9,0.7
					v2.6c-0.1,0.1-0.2,0.1-0.4,0.1c-0.1,0-0.2,0-0.2-0.1s-0.1-0.1-0.1-0.2V183c-0.6,0-1.5,0-2.8,0.1s-2.1,0.1-2.6,0.1v0.5
					c-0.1,0.1-0.2,0.1-0.4,0.1c-0.1,0-0.2,0-0.2-0.1s-0.1-0.1-0.1-0.2v-2.2c0.1-0.1,0.3-0.1,0.4-0.1c0.1,0,0.2,0,0.2,0.1
					s0.1,0.1,0.1,0.2v0.2c0.6,0,2.2,0,4.6-0.1c-1.1-0.3-2-0.5-2.8-0.7s-1.3-0.4-1.5-0.5s-0.3-0.4-0.3-0.7c0-0.5,0-0.8,0.1-0.8
					s0.4-0.2,1.2-0.5s1.9-0.6,3.4-1c-2.5,0-4,0-4.6,0v0.4c-0.1,0.1-0.2,0.1-0.4,0.1c-0.1,0-0.2,0-0.2-0.1s-0.1-0.1-0.1-0.2v-2
					c0.1-0.1,0.3-0.1,0.4-0.1c0.1,0,0.2,0,0.2,0.1s0.1,0.1,0.1,0.2v0.3c0.4,0,1.3,0.1,2.6,0.1s2.2,0.1,2.8,0.1v-0.6
					c0.1-0.1,0.3-0.1,0.4-0.1c0.1,0,0.2,0,0.2,0.1S597,175.8,597,175.8z"/>
				<path class="st5" d="M596.3,190.4c-0.7-0.4-2-1-3.9-2c-0.6,0-1.1,0-1.5,0v0.8c-0.1,0.1-0.2,0.1-0.4,0.1c-0.1,0-0.2,0-0.2-0.1
					s-0.1-0.1-0.1-0.2V186c0.1-0.1,0.3-0.1,0.4-0.1c0.1,0,0.2,0,0.2,0.1s0.1,0.1,0.1,0.2v0.5c0.4,0,0.9,0,1.3,0c2-1,3.4-1.8,4-2.1
					v-0.4c0.1-0.1,0.3-0.1,0.4-0.1c0.1,0,0.2,0,0.2,0.1s0.1,0.1,0.1,0.2v2.4c-0.1,0.1-0.2,0.1-0.4,0.1c-0.1,0-0.2,0-0.2-0.1
					s-0.1-0.1-0.1-0.2v-0.2c-0.4,0.1-1,0.4-1.8,0.7s-1.2,0.5-1.2,0.6s0.4,0.2,1.2,0.5s1.4,0.5,1.8,0.6v-0.5c0.1-0.1,0.3-0.1,0.4-0.1
					c0.1,0,0.2,0,0.2,0.1s0.1,0.1,0.1,0.2v2.1c-0.1,0.1-0.2,0.1-0.4,0.1c-0.1,0-0.2,0-0.2-0.1s-0.1-0.1-0.1-0.2V190.4z"/>
				<path class="st5" d="M597.1,194.2c0,0.8,0,1.4-0.1,1.7s-0.3,0.4-0.6,0.4c-0.3,0-0.5-0.1-0.7-0.3c0.3-0.8,0.5-1.4,0.5-2
					c0-0.4-0.1-0.6-0.2-0.8s-0.3-0.2-0.6-0.2c-0.3,0-0.5,0.1-0.6,0.3s-0.3,0.5-0.4,1.1c-0.2,0.7-0.4,1.2-0.7,1.6s-0.7,0.6-1.3,0.6
					c-0.7,0-1.2-0.3-1.6-0.8s-0.5-1.2-0.5-2.2c0-0.7,0.1-1.2,0.2-1.6s0.3-0.5,0.6-0.5c0.3,0,0.5,0.1,0.7,0.3
					c-0.4,0.7-0.6,1.4-0.6,2.1c0,0.4,0.1,0.7,0.2,0.9s0.3,0.3,0.6,0.3c0.3,0,0.5-0.1,0.7-0.4s0.3-0.7,0.5-1.3
					c0.2-0.6,0.4-1.1,0.7-1.4s0.7-0.4,1.2-0.4c0.7,0,1.2,0.2,1.5,0.7S597.1,193.3,597.1,194.2z"/>
				<path class="st5" d="M589.7,200c0,0.3,0,0.8-0.1,1.4s-0.1,1.2-0.1,1.5c0,0.3,0,0.6,0.1,0.8c-0.2,0.1-0.4,0.1-0.6,0.1
					c-0.2,0-0.4-0.1-0.5-0.2s-0.1-0.3-0.1-0.6c0-0.4,0.1-1,0.2-1.7s0.2-1.3,0.2-1.6c0-0.3,0-0.6-0.1-0.9c0.2-0.1,0.4-0.1,0.6-0.1
					c0.1,0,0.2,0,0.3,0.1s0.1,0.2,0.1,0.3S589.7,199.6,589.7,200z M593.3,197.6c1.3,0,2.3,0.3,2.9,0.9s0.9,1.4,0.9,2.4
					c0,1-0.2,1.7-0.7,2.2s-1.3,0.7-2.5,0.7c-1.3,0-2.3-0.3-2.9-0.9s-0.9-1.4-0.9-2.5c0-0.9,0.2-1.7,0.7-2.2S592.1,197.6,593.3,197.6
					z M593.8,199.2c-1.1,0-1.8,0.1-2.2,0.4s-0.5,0.6-0.5,1.1c0,0.5,0.2,0.8,0.5,1.1s1,0.3,1.8,0.3c1.1,0,1.8-0.1,2.2-0.4
					s0.5-0.6,0.5-1.1c0-0.5-0.2-0.8-0.5-1.1S594.7,199.2,593.8,199.2z"/>
				<path class="st5" d="M591.1,207v0.1c0,1.1,0.1,2,0.4,2.6c-0.2,0.1-0.4,0.2-0.7,0.2c-0.2,0-0.3-0.1-0.4-0.2s-0.1-0.4-0.1-0.8l0-4
					c0.1-0.1,0.3-0.1,0.4-0.1c0.1,0,0.2,0,0.2,0.1s0.1,0.1,0.1,0.2v0.4c0.4,0,1.5,0,3.3,0c1,0,1.6,0,2.1,0v-0.6
					c0.1-0.1,0.3-0.1,0.4-0.1c0.1,0,0.2,0,0.2,0.1s0.1,0.1,0.1,0.2v2.6c-0.1,0.1-0.2,0.1-0.4,0.1c-0.1,0-0.2,0-0.2-0.1
					s-0.1-0.1-0.1-0.2V207c-0.4,0-1.1,0-2.1,0C592.5,207,591.5,207,591.1,207z"/>
			</g>
		</g>
		<g id="Layer_11">
			<rect x="600.2" y="141.9" class="st37" width="32.8" height="91.2"/>
		</g>
		<g id="Layer_17">
			<path class="st38" d="M678.7,200.8c-0.9-1.5,1.5-4.6,32-1.2c20.7,2.3-27.1,8.5-31.7,1.1"/>
		</g>
		<g id="Layer_12">
			<g id="Layer_13">
				<path class="st39" d="M705.5,184.9c0,0,5.8-20.5-2.8-22.3c-8.7-1.8-17.5,22.3-7.3,22.3S705.5,184.9,705.5,184.9z"/>
				<path class="st39" d="M695.3,205.9c6.7-0.1,27.3-17.4,22-30.7c-5.3-13.3-22,9.7-22,9.7s-12.6-36.5-11.3-1.9
					c0,0-11.3,10.3,0,16.6C695.3,205.9,695.3,205.9,695.3,205.9z"/>
			</g>
			<rect x="644" y="127.6" class="st40" width="27" height="105.5"/>
			<rect x="621" y="113.9" class="st41" width="29.1" height="119.2"/>
			<path class="st42" d="M679,200.6c0,0,21.2,4.3,35.8-1.8c11.2-4.7,1.5,37.3-16.9,37.2C685.1,236.1,678,232.4,679,200.6z"/>
			<g>
				<path class="st5" d="M614.8,150v2.7c-0.1,0.1-0.2,0.1-0.4,0.1c-0.1,0-0.2,0-0.2-0.1s-0.1-0.1-0.1-0.2l0-0.5c-0.4,0-1.1,0-2.1,0
					h-3.8c-0.5,0-0.8-0.1-1.1-0.2s-0.5-0.3-0.7-0.6s-0.2-0.7-0.2-1.4c0-0.4,0-0.7,0.1-0.8s0.2-0.2,0.4-0.2c0.3,0,0.5,0.1,0.7,0.2
					c-0.2,0.6-0.3,1-0.2,1.2s0.5,0.3,1.2,0.3h3.6c1,0,1.6,0,2.1,0v-0.6c0.1-0.1,0.3-0.1,0.4-0.1c0.1,0,0.2,0,0.2,0.1
					S614.8,149.9,614.8,150z"/>
				<path class="st5" d="M614.9,156.6c0,0.5,0,0.9-0.1,0.9s-0.9,0.4-2.6,1s-2.8,1-3.5,1.2v0.5c-0.1,0.1-0.2,0.1-0.4,0.1
					c-0.1,0-0.2,0-0.2-0.1s-0.1-0.1-0.1-0.2v-2.5c0.1-0.1,0.3-0.1,0.4-0.1c0.1,0,0.2,0,0.2,0.1s0.1,0.1,0.1,0.2v0.2
					c0.2,0,0.7-0.2,1.4-0.4v-2.1c-0.7-0.2-1.2-0.3-1.4-0.3v0.5c-0.1,0.1-0.2,0.1-0.4,0.1c-0.1,0-0.2,0-0.2-0.1s-0.1-0.1-0.1-0.2
					v-2.1c0.1-0.1,0.3-0.1,0.4-0.1c0.1,0,0.2,0,0.2,0.1s0.1,0.1,0.1,0.2v0.3c0.6,0.2,1.6,0.6,3.1,1s2.3,0.8,2.6,0.9
					S614.9,156.2,614.9,156.6z M611,155.7v1.6c1.6-0.5,2.5-0.8,2.5-0.8S612.7,156.1,611,155.7z"/>
				<path class="st5" d="M614.8,164.5v2.1c-0.1,0.1-0.2,0.1-0.4,0.1c-0.1,0-0.2,0-0.2-0.1s-0.1-0.1-0.1-0.2v-0.2
					c-0.6-0.2-1.7-0.6-3.1-1s-2.3-0.8-2.6-0.9s-0.4-0.5-0.4-1c0-0.5,0-0.8,0.1-0.9s0.9-0.4,2.6-0.9s2.8-1,3.5-1.2v-0.4
					c0.1-0.1,0.3-0.1,0.4-0.1c0.1,0,0.2,0,0.2,0.1s0.1,0.1,0.1,0.2v2.4c-0.1,0.1-0.2,0.1-0.4,0.1c-0.1,0-0.2,0-0.2-0.1
					s-0.1-0.1-0.1-0.2v-0.2c-0.4,0.1-1.2,0.3-2.6,0.7s-2.1,0.7-2.1,0.7s0.7,0.3,2.1,0.6s2.2,0.5,2.6,0.6v-0.5
					c0.1-0.1,0.3-0.1,0.4-0.1c0.1,0,0.2,0,0.2,0.1S614.8,164.4,614.8,164.5z"/>
				<path class="st5" d="M614.9,169.6c0,0.5,0,0.9-0.1,0.9s-0.9,0.4-2.6,1s-2.8,1-3.5,1.2v0.5c-0.1,0.1-0.2,0.1-0.4,0.1
					c-0.1,0-0.2,0-0.2-0.1s-0.1-0.1-0.1-0.2v-2.5c0.1-0.1,0.3-0.1,0.4-0.1c0.1,0,0.2,0,0.2,0.1s0.1,0.1,0.1,0.2v0.2
					c0.2,0,0.7-0.2,1.4-0.4v-2.1c-0.7-0.2-1.2-0.3-1.4-0.3v0.5c-0.1,0.1-0.2,0.1-0.4,0.1c-0.1,0-0.2,0-0.2-0.1s-0.1-0.1-0.1-0.2
					v-2.1c0.1-0.1,0.3-0.1,0.4-0.1c0.1,0,0.2,0,0.2,0.1s0.1,0.1,0.1,0.2v0.3c0.6,0.2,1.6,0.6,3.1,1s2.3,0.8,2.6,0.9
					S614.9,169.2,614.9,169.6z M611,168.7v1.6c1.6-0.5,2.5-0.8,2.5-0.8S612.7,169.2,611,168.7z"/>
				<path class="st5" d="M614.9,176.5c0,0.8,0,1.4-0.1,1.7s-0.3,0.4-0.6,0.4c-0.3,0-0.5-0.1-0.7-0.3c0.3-0.8,0.5-1.4,0.5-2
					c0-0.4-0.1-0.6-0.2-0.8s-0.3-0.2-0.6-0.2c-0.3,0-0.5,0.1-0.6,0.3s-0.3,0.5-0.4,1.1c-0.2,0.7-0.4,1.2-0.7,1.6s-0.7,0.6-1.3,0.6
					c-0.7,0-1.2-0.3-1.6-0.8s-0.5-1.2-0.5-2.2c0-0.7,0.1-1.2,0.2-1.6s0.3-0.5,0.6-0.5c0.3,0,0.5,0.1,0.7,0.3
					c-0.4,0.7-0.6,1.4-0.6,2.1c0,0.4,0.1,0.7,0.2,0.9s0.3,0.3,0.6,0.3c0.3,0,0.5-0.1,0.7-0.4s0.3-0.7,0.5-1.3
					c0.2-0.6,0.4-1.1,0.7-1.4s0.7-0.4,1.2-0.4c0.7,0,1.2,0.2,1.5,0.7S614.9,175.7,614.9,176.5z"/>
				<path class="st5" d="M609,183.2c0,0.6,0.1,1.1,0.4,1.5c-0.2,0.2-0.5,0.3-0.7,0.3c-0.2,0-0.4-0.2-0.5-0.7s-0.2-1-0.2-1.6
					c0-1,0.2-1.7,0.6-2.2s1.2-0.7,2.4-0.7c1.3,0,2.3,0.3,2.9,0.9s0.9,1.4,0.9,2.5c0,0.7,0,1.2-0.1,1.4s-0.3,0.4-0.5,0.4
					c-0.2,0-0.4-0.1-0.7-0.3c0.3-0.6,0.4-1.2,0.4-1.8c0-0.5-0.2-0.8-0.5-1.1s-0.9-0.3-1.8-0.3c-1,0-1.7,0.1-2.1,0.4
					S609,182.6,609,183.2z"/>
				<path class="st5" d="M608.8,188.3v0.7c-0.1,0.1-0.2,0.1-0.4,0.1c-0.1,0-0.2,0-0.2-0.1s-0.1-0.1-0.1-0.2v-2.7
					c0.1-0.1,0.3-0.1,0.4-0.1c0.1,0,0.2,0,0.2,0.1s0.1,0.1,0.1,0.2v0.5c0.4,0,1.5,0,3.3,0c1,0,1.6,0,2.1,0v-0.6
					c0.1-0.1,0.3-0.1,0.4-0.1c0.1,0,0.2,0,0.2,0.1s0.1,0.1,0.1,0.2v2.5c0,1-0.1,1.7-0.4,2.2s-0.7,0.7-1.4,0.7
					c-0.9,0-1.5-0.5-1.8-1.6c-0.1,0.3-0.3,0.5-0.5,0.7s-0.6,0.4-1,0.6s-0.7,0.4-0.8,0.5s-0.2,0.3-0.2,0.6c-0.3,0.1-0.5,0.1-0.6,0
					s-0.2-0.4-0.2-0.8c0-0.5,0.1-0.9,0.2-1.1s0.4-0.4,1-0.5s1-0.3,1.2-0.5s0.4-0.4,0.4-0.7c0-0.2,0-0.3,0-0.4
					C609.8,188.3,609.2,188.3,608.8,188.3z M611.6,188.2v0.4c0,0.4,0.1,0.7,0.2,1s0.4,0.3,0.8,0.3c0.4,0,0.8-0.1,1-0.3
					s0.3-0.5,0.3-0.8c0-0.2,0-0.4,0-0.5c-0.2,0-0.8,0-1.7,0H611.6z"/>
				<path class="st5" d="M614.8,193.3v2.7c-0.1,0.1-0.2,0.1-0.4,0.1c-0.1,0-0.2,0-0.2-0.1s-0.1-0.1-0.1-0.2v-0.5c-0.4,0-1.1,0-2.1,0
					c-1.8,0-2.9,0-3.3,0v0.7c-0.1,0.1-0.2,0.1-0.4,0.1c-0.1,0-0.2,0-0.2-0.1s-0.1-0.1-0.1-0.2v-2.7c0.1-0.1,0.3-0.1,0.4-0.1
					c0.1,0,0.2,0,0.2,0.1s0.1,0.1,0.1,0.2v0.5c0.4,0,1.5,0,3.3,0c1,0,1.6,0,2.1,0v-0.6c0.1-0.1,0.3-0.1,0.4-0.1c0.1,0,0.2,0,0.2,0.1
					S614.8,193.2,614.8,193.3z"/>
				<path class="st5" d="M614.1,197.7V197c0.1-0.1,0.3-0.1,0.4-0.1c0.1,0,0.2,0,0.2,0.1s0.1,0.1,0.1,0.2v2.4c0,1.3-0.2,2.1-0.5,2.5
					s-0.8,0.7-1.5,0.7c-0.7,0-1.3-0.3-1.7-0.8s-0.6-1.4-0.6-2.5v-0.2c-0.8,0-1.4,0-1.7,0v0.8c-0.1,0.1-0.2,0.1-0.4,0.1
					c-0.1,0-0.2,0-0.2-0.1s-0.1-0.1-0.1-0.2V197c0.1-0.1,0.3-0.1,0.4-0.1c0.1,0,0.2,0,0.2,0.1s0.1,0.1,0.1,0.2v0.5
					c0.4,0,1.5,0,3.3,0C613,197.7,613.7,197.7,614.1,197.7z M611.3,199.6c0,0.5,0.1,0.9,0.3,1.1s0.5,0.4,0.9,0.4
					c0.4,0,0.7-0.1,1-0.3s0.3-0.6,0.3-1c0-0.2,0-0.4,0-0.5c-0.2,0-0.8,0-1.7,0h-0.7V199.6z"/>
				<path class="st5" d="M608.8,205.3c0.4,0,1.5,0,3.3,0c1,0,1.6,0,1.9,0c-0.1-1.1-0.1-1.8-0.1-1.9c0-0.2,0-0.3,0.1-0.3
					s0.2-0.1,0.3-0.1c0.2,0,0.5,0.1,0.7,0.2c-0.2,0.7-0.2,1.5-0.2,2.5v3.3c0,0.2,0,0.3-0.1,0.3s-0.2,0.1-0.3,0.1
					c-0.3,0-0.6-0.1-0.8-0.3c0.3-0.6,0.4-1.3,0.4-2.1v-0.1c-0.3,0-1,0-1.9,0c-1.8,0-2.9,0-3.3,0v0.7c-0.1,0.1-0.2,0.1-0.4,0.1
					c-0.1,0-0.2,0-0.2-0.1s-0.1-0.1-0.1-0.2v-2.9c0.1-0.1,0.3-0.1,0.4-0.1c0.1,0,0.2,0,0.2,0.1s0.1,0.1,0.1,0.2V205.3z"/>
			</g>
			<g>
				<path class="st5" d="M662.1,139.3v-0.6c0.1-0.1,0.3-0.1,0.4-0.1c0.1,0,0.2,0,0.2,0.1s0.1,0.1,0.1,0.2v2.4c0,1.3-0.2,2.1-0.5,2.5
					s-0.8,0.7-1.5,0.7c-0.7,0-1.3-0.3-1.7-0.8s-0.6-1.4-0.6-2.5v-0.2c-0.8,0-1.4,0-1.7,0v0.8c-0.1,0.1-0.2,0.1-0.4,0.1
					c-0.1,0-0.2,0-0.2-0.1s-0.1-0.1-0.1-0.2v-2.8c0.1-0.1,0.3-0.1,0.4-0.1c0.1,0,0.2,0,0.2,0.1s0.1,0.1,0.1,0.2v0.5
					c0.4,0,1.5,0,3.3,0C661,139.3,661.6,139.3,662.1,139.3z M659.3,141.3c0,0.5,0.1,0.9,0.3,1.1s0.5,0.4,0.9,0.4
					c0.4,0,0.7-0.1,1-0.3s0.3-0.6,0.3-1c0-0.2,0-0.4,0-0.5c-0.2,0-0.8,0-1.7,0h-0.7V141.3z"/>
				<path class="st5" d="M662.7,145.3v2.5c-0.1,0.1-0.2,0.1-0.4,0.1c-0.1,0-0.2,0-0.2-0.1s-0.1-0.1-0.1-0.2v-0.4c-0.4,0-1.1,0-2.1,0
					v2.4c1,0,1.7,0,2.1,0v-0.6c0.1-0.1,0.3-0.1,0.4-0.1c0.1,0,0.2,0,0.2,0.1s0.1,0.1,0.1,0.2v2.5c-0.1,0.1-0.2,0.1-0.4,0.1
					c-0.1,0-0.2,0-0.2-0.1s-0.1-0.1-0.1-0.2v-0.4c-0.4,0-1.1,0-2.1,0c-1.8,0-2.9,0-3.3,0v0.6c-0.1,0.1-0.2,0.1-0.4,0.1
					c-0.1,0-0.2,0-0.2-0.1s-0.1-0.1-0.1-0.2v-2.5c0.1-0.1,0.3-0.1,0.4-0.1c0.1,0,0.2,0,0.2,0.1s0.1,0.1,0.1,0.2v0.4
					c0.3,0,1.2,0,2.4,0v-2.4c-1.3,0-2.1,0-2.4,0v0.6c-0.1,0.1-0.2,0.1-0.4,0.1c-0.1,0-0.2,0-0.2-0.1s-0.1-0.1-0.1-0.2v-2.5
					c0.1-0.1,0.3-0.1,0.4-0.1c0.1,0,0.2,0,0.2,0.1s0.1,0.1,0.1,0.2v0.4c0.4,0,1.5,0,3.3,0c1,0,1.6,0,2.1,0v-0.6
					c0.1-0.1,0.3-0.1,0.4-0.1c0.1,0,0.2,0,0.2,0.1S662.7,145.2,662.7,145.3z"/>
				<path class="st5" d="M662.1,153.6v-0.6c0.1-0.1,0.3-0.1,0.4-0.1c0.1,0,0.2,0,0.2,0.1s0.1,0.1,0.1,0.2v2.4c0,1.3-0.2,2.1-0.5,2.5
					s-0.8,0.7-1.5,0.7c-0.7,0-1.3-0.3-1.7-0.8s-0.6-1.4-0.6-2.5v-0.2c-0.8,0-1.4,0-1.7,0v0.8c-0.1,0.1-0.2,0.1-0.4,0.1
					c-0.1,0-0.2,0-0.2-0.1s-0.1-0.1-0.1-0.2v-2.8c0.1-0.1,0.3-0.1,0.4-0.1c0.1,0,0.2,0,0.2,0.1s0.1,0.1,0.1,0.2v0.5
					c0.4,0,1.5,0,3.3,0C661,153.6,661.6,153.6,662.1,153.6z M659.3,155.5c0,0.5,0.1,0.9,0.3,1.1s0.5,0.4,0.9,0.4
					c0.4,0,0.7-0.1,1-0.3s0.3-0.6,0.3-1c0-0.2,0-0.4,0-0.5c-0.2,0-0.8,0-1.7,0h-0.7V155.5z"/>
			</g>
		</g>
		<g id="Layer_18">
			<line class="st43" x1="707.4" y1="188.6" x2="712.4" y2="184.9"/>
			<line class="st43" x1="707.4" y1="182.3" x2="707.1" y2="178.4"/>
			<line class="st43" x1="711.2" y1="178.1" x2="713.9" y2="176.4"/>
			<line class="st43" x1="714.1" y1="181.3" x2="719.5" y2="179.3"/>
			<line class="st43" x1="712.6" y1="173.5" x2="713.2" y2="169.3"/>
			<line class="st43" x1="709.4" y1="173.5" x2="708.8" y2="170.4"/>
			<line class="st43" x1="716.8" y1="176.6" x2="719.5" y2="174.6"/>
			<line class="st43" x1="714.5" y1="185.8" x2="718.2" y2="186.3"/>
			<line class="st43" x1="709.9" y1="190.3" x2="714.5" y2="190.7"/>
			<line class="st43" x1="705.9" y1="193.5" x2="709.1" y2="196.4"/>
			<line class="st43" x1="704" y1="190.5" x2="708.5" y2="192.6"/>
			<line class="st43" x1="702.4" y1="187" x2="707.3" y2="184.9"/>
			<line class="st43" x1="703.4" y1="183.1" x2="701.2" y2="180.3"/>
			<line class="st43" x1="704" y1="178.8" x2="702.3" y2="174.4"/>
			<line class="st43" x1="704.8" y1="169.5" x2="709.1" y2="166.9"/>
			<line class="st43" x1="702.3" y1="170.1" x2="703.2" y2="166.6"/>
			<line class="st43" x1="701" y1="165.4" x2="698.6" y2="162"/>
			<line class="st43" x1="699.2" y1="168.1" x2="695.1" y2="164.5"/>
			<line class="st43" x1="696.1" y1="170" x2="693.1" y2="167.3"/>
			<line class="st43" x1="697.2" y1="173.5" x2="698.6" y2="171.4"/>
			<line class="st43" x1="699.8" y1="174.9" x2="700.8" y2="171.9"/>
			<line class="st43" x1="696.6" y1="177.3" x2="695.2" y2="175.6"/>
			<line class="st43" x1="693.2" y1="172.4" x2="690.8" y2="170"/>
			<line class="st43" x1="686.8" y1="174.3" x2="682.4" y2="171.2"/>
			<line class="st43" x1="687.4" y1="171.4" x2="689.1" y2="167.6"/>
			<line class="st43" x1="688.2" y1="176.4" x2="691.1" y2="174.5"/>
			<line class="st43" x1="690.5" y1="178.8" x2="692.6" y2="177.8"/>
			<line class="st43" x1="691.5" y1="181.7" x2="688.2" y2="180.3"/>
			<line class="st43" x1="686.5" y1="178.3" x2="681.9" y2="176.4"/>
			<line class="st43" x1="687.2" y1="182.9" x2="681.4" y2="180.3"/>
			<line class="st43" x1="691.5" y1="184.9" x2="694.6" y2="181.7"/>
			<line class="st43" x1="698.4" y1="187.5" x2="697.2" y2="184.9"/>
			<line class="st43" x1="700.9" y1="182.8" x2="697.2" y2="180.3"/>
			<line class="st43" x1="699.2" y1="192" x2="701.2" y2="189.3"/>
			<line class="st43" x1="701.2" y1="195" x2="702.3" y2="192.6"/>
			<line class="st43" x1="703.2" y1="196.5" x2="706.2" y2="198"/>
			<line class="st43" x1="701.8" y1="198.7" x2="701.8" y2="201.8"/>
			<line class="st43" x1="698.6" y1="199.5" x2="696.6" y2="201.8"/>
			<line class="st43" x1="692" y1="198" x2="694" y2="201.8"/>
			<line class="st43" x1="689.7" y1="198.7" x2="685.1" y2="200.3"/>
			<line class="st43" x1="684.2" y1="196.3" x2="678.9" y2="193.8"/>
			<line class="st43" x1="683.6" y1="193.8" x2="686.8" y2="191.5"/>
			<line class="st43" x1="681.5" y1="190.6" x2="678" y2="188.4"/>
			<line class="st43" x1="682.5" y1="187" x2="679.8" y2="184.1"/>
			<line class="st43" x1="684.2" y1="186" x2="687.4" y2="184.9"/>
			<line class="st43" x1="691.5" y1="189.5" x2="688.9" y2="186.8"/>
			<line class="st43" x1="684.2" y1="189.5" x2="685.8" y2="188.1"/>
			<line class="st43" x1="692" y1="193.8" x2="688.9" y2="191.5"/>
			<line class="st43" x1="687.4" y1="196.1" x2="688.2" y2="194.4"/>
			<line class="st43" x1="694.6" y1="196" x2="697.9" y2="195"/>
			<line class="st43" x1="695.4" y1="192.6" x2="693.6" y2="190.6"/>
			<line class="st43" x1="696.3" y1="190.5" x2="693.9" y2="188.1"/>
		</g>
		<g id="Layer_14">
			<g>
				<path class="st5" d="M638.7,125.1v2.5c-0.1,0.1-0.2,0.1-0.4,0.1c-0.1,0-0.2,0-0.2-0.1s-0.1-0.1-0.1-0.2v-0.4c-0.4,0-1.1,0-2.1,0
					v2.4c1,0,1.7,0,2.1,0v-0.6c0.1-0.1,0.3-0.1,0.4-0.1c0.1,0,0.2,0,0.2,0.1s0.1,0.1,0.1,0.2v2.5c-0.1,0.1-0.2,0.1-0.4,0.1
					c-0.1,0-0.2,0-0.2-0.1s-0.1-0.1-0.1-0.2V131c-0.4,0-1.1,0-2.1,0c-1.8,0-2.9,0-3.3,0v0.6c-0.1,0.1-0.2,0.1-0.4,0.1
					c-0.1,0-0.2,0-0.2-0.1s-0.1-0.1-0.1-0.2v-2.5c0.1-0.1,0.3-0.1,0.4-0.1c0.1,0,0.2,0,0.2,0.1s0.1,0.1,0.1,0.2v0.4
					c0.3,0,1.2,0,2.4,0V127c-1.3,0-2.1,0-2.4,0v0.6c-0.1,0.1-0.2,0.1-0.4,0.1c-0.1,0-0.2,0-0.2-0.1s-0.1-0.1-0.1-0.2v-2.5
					c0.1-0.1,0.3-0.1,0.4-0.1c0.1,0,0.2,0,0.2,0.1s0.1,0.1,0.1,0.2v0.4c0.4,0,1.5,0,3.3,0c1,0,1.6,0,2.1,0v-0.6
					c0.1-0.1,0.3-0.1,0.4-0.1c0.1,0,0.2,0,0.2,0.1S638.7,125,638.7,125.1z"/>
				<path class="st5" d="M632.7,134.5c0.4,0,1.5,0,3.3,0c1,0,1.6,0,1.9,0c-0.1-1.1-0.1-1.8-0.1-1.9c0-0.2,0-0.3,0.1-0.3
					s0.2-0.1,0.3-0.1c0.2,0,0.5,0.1,0.7,0.2c-0.2,0.7-0.2,1.5-0.2,2.5v3.3c0,0.2,0,0.3-0.1,0.3s-0.2,0.1-0.3,0.1
					c-0.3,0-0.6-0.1-0.8-0.3c0.3-0.6,0.4-1.3,0.4-2.1v-0.1c-0.3,0-1,0-1.9,0c-1.8,0-2.9,0-3.3,0v0.7c-0.1,0.1-0.2,0.1-0.4,0.1
					c-0.1,0-0.2,0-0.2-0.1s-0.1-0.1-0.1-0.2v-2.9c0.1-0.1,0.3-0.1,0.4-0.1c0.1,0,0.2,0,0.2,0.1s0.1,0.1,0.1,0.2V134.5z"/>
				<path class="st5" d="M638.7,139.3v2.7c-0.6,0.1-1.3,0.3-1.9,0.5s-1.3,0.3-1.9,0.5s-1,0.3-1,0.3s0.6,0.2,1.9,0.5s2.2,0.5,2.9,0.7
					v2.6c-0.1,0.1-0.2,0.1-0.4,0.1c-0.1,0-0.2,0-0.2-0.1s-0.1-0.1-0.1-0.2v-0.4c-0.6,0-1.5,0-2.8,0.1s-2.1,0.1-2.6,0.1v0.5
					c-0.1,0.1-0.2,0.1-0.4,0.1c-0.1,0-0.2,0-0.2-0.1S632,147,632,147v-2.2c0.1-0.1,0.3-0.1,0.4-0.1c0.1,0,0.2,0,0.2,0.1
					s0.1,0.1,0.1,0.2v0.2c0.6,0,2.2,0,4.6-0.1c-1.1-0.3-2-0.5-2.8-0.7s-1.3-0.4-1.5-0.5s-0.3-0.4-0.3-0.7c0-0.5,0-0.8,0.1-0.8
					s0.4-0.2,1.2-0.5s1.9-0.6,3.4-1c-2.5,0-4,0-4.6,0v0.4c-0.1,0.1-0.2,0.1-0.4,0.1c-0.1,0-0.2,0-0.2-0.1s-0.1-0.1-0.1-0.2v-2
					c0.1-0.1,0.3-0.1,0.4-0.1c0.1,0,0.2,0,0.2,0.1s0.1,0.1,0.1,0.2v0.3c0.4,0,1.3,0.1,2.6,0.1s2.2,0.1,2.8,0.1v-0.6
					c0.1-0.1,0.3-0.1,0.4-0.1c0.1,0,0.2,0,0.2,0.1S638.7,139.2,638.7,139.3z"/>
				<path class="st5" d="M632.8,150.2v0.1c0,1.1,0.1,2,0.4,2.6c-0.2,0.1-0.4,0.2-0.7,0.2c-0.2,0-0.3-0.1-0.4-0.2s-0.1-0.4-0.1-0.8
					l0-4c0.1-0.1,0.3-0.1,0.4-0.1c0.1,0,0.2,0,0.2,0.1s0.1,0.1,0.1,0.2v0.4c0.4,0,1.5,0,3.3,0c1,0,1.6,0,2.1,0v-0.6
					c0.1-0.1,0.3-0.1,0.4-0.1c0.1,0,0.2,0,0.2,0.1s0.1,0.1,0.1,0.2v2.6c-0.1,0.1-0.2,0.1-0.4,0.1c-0.1,0-0.2,0-0.2-0.1
					s-0.1-0.1-0.1-0.2v-0.5c-0.4,0-1.1,0-2.1,0C634.2,150.2,633.1,150.2,632.8,150.2z"/>
				<path class="st5" d="M630.9,156.8l-0.6-0.2c0-0.2,0.1-0.5,0.2-0.9c0-0.1,0.1-0.2,0.2-0.2s0.2,0,0.3,0l8.7,3.2
					c0,0.2-0.1,0.5-0.2,0.9c-0.1,0.2-0.1,0.3-0.2,0.3s-0.2,0-0.2,0L630.9,156.8z"/>
				<path class="st5" d="M632.8,166c0,0.6,0.1,1.1,0.4,1.5c-0.2,0.2-0.5,0.3-0.7,0.3c-0.2,0-0.4-0.2-0.5-0.7s-0.2-1-0.2-1.6
					c0-1,0.2-1.7,0.6-2.2s1.2-0.7,2.4-0.7c1.3,0,2.3,0.3,2.9,0.9s0.9,1.4,0.9,2.5c0,0.7,0,1.2-0.1,1.4s-0.3,0.4-0.5,0.4
					c-0.2,0-0.4-0.1-0.7-0.3c0.3-0.6,0.4-1.2,0.4-1.8c0-0.5-0.2-0.8-0.5-1.1s-0.9-0.3-1.8-0.3c-1,0-1.7,0.1-2.1,0.4
					S632.8,165.4,632.8,166z"/>
				<path class="st5" d="M638.8,171.5c0,0.8,0,1.4-0.1,1.7s-0.3,0.4-0.6,0.4c-0.3,0-0.5-0.1-0.7-0.3c0.3-0.8,0.5-1.4,0.5-2
					c0-0.4-0.1-0.6-0.2-0.8s-0.3-0.2-0.6-0.2c-0.3,0-0.5,0.1-0.6,0.3s-0.3,0.5-0.4,1.1c-0.2,0.7-0.4,1.2-0.7,1.6s-0.7,0.6-1.3,0.6
					c-0.7,0-1.2-0.3-1.6-0.8s-0.5-1.2-0.5-2.2c0-0.7,0.1-1.2,0.2-1.6s0.3-0.5,0.6-0.5c0.3,0,0.5,0.1,0.7,0.3
					c-0.4,0.7-0.6,1.4-0.6,2.1c0,0.4,0.1,0.7,0.2,0.9s0.3,0.3,0.6,0.3c0.3,0,0.5-0.1,0.7-0.4s0.3-0.7,0.5-1.3
					c0.2-0.6,0.4-1.1,0.7-1.4s0.7-0.4,1.2-0.4c0.7,0,1.2,0.2,1.5,0.7S638.8,170.6,638.8,171.5z"/>
				<path class="st5" d="M638.8,177.4c0,0.8,0,1.4-0.1,1.7s-0.3,0.4-0.6,0.4c-0.3,0-0.5-0.1-0.7-0.3c0.3-0.8,0.5-1.4,0.5-2
					c0-0.4-0.1-0.6-0.2-0.8s-0.3-0.2-0.6-0.2c-0.3,0-0.5,0.1-0.6,0.3s-0.3,0.5-0.4,1.1c-0.2,0.7-0.4,1.2-0.7,1.6s-0.7,0.6-1.3,0.6
					c-0.7,0-1.2-0.3-1.6-0.8s-0.5-1.2-0.5-2.2c0-0.7,0.1-1.2,0.2-1.6s0.3-0.5,0.6-0.5c0.3,0,0.5,0.1,0.7,0.3
					c-0.4,0.7-0.6,1.4-0.6,2.1c0,0.4,0.1,0.7,0.2,0.9s0.3,0.3,0.6,0.3c0.3,0,0.5-0.1,0.7-0.4s0.3-0.7,0.5-1.3
					c0.2-0.6,0.4-1.1,0.7-1.4s0.7-0.4,1.2-0.4c0.7,0,1.2,0.2,1.5,0.7S638.8,176.6,638.8,177.4z"/>
			</g>
		</g>
		<g id="Layer_16">
			<line class="st44" x1="585.5" y1="224.2" x2="600.2" y2="224.2"/>
			<line class="st44" x1="600.2" y1="215.9" x2="621" y2="215.9"/>
			<line class="st44" x1="650.1" y1="220.9" x2="621" y2="220.9"/>
			<line class="st44" x1="650.1" y1="213.9" x2="671" y2="213.9"/>
		</g>
	</g>
</g>
<g id="Layer_2">
	<g id="XMLID_1_">
		<g>
			<path class="st45" d="M1345.1,291.4c-20.2-1.3-160.6-10-166.6-10c-7.2,0-7.5-2.9-7.1-5.7c0.3-1.9,1-4.1,1.3-5.2
				c3.4-11.7,26.4-91.5,27.3-96.6c1-5.5,5-6,5-6h189c9,0,5.5,8.5,5.5,8.5s-33.8,93.8-36.3,102.8c-1.8,6.3-8.7,9.8-12.7,11.4
				C1348.8,291.3,1346.9,291.5,1345.1,291.4z"/>
			<path class="st46" d="M1200,173.9c-0.9,5.1-24,84.9-27.3,96.6c-0.3,1.1-1,3.3-1.3,5.2c-0.4,2.8-0.1,5.7,7.1,5.7
				c6,0,146.5,8.8,166.6,10c1.8,0.1,3.6-0.2,5.3-0.8c4-1.6,11-5.1,12.7-11.4c2.5-9,36.3-102.8,36.3-102.8s3.5-8.5-5.5-8.5h-189
				C1205,167.9,1201,168.4,1200,173.9z M1160.9,288c-0.3,0-0.6,0-0.8,0v0c0,0,27.8-90.1,34.3-120.8c1.6-7.8,1.6-7.8,17.7-7.8
				c15.9,0,138.4,0,184.4,0c11.5,0,15.5,1.4,11.5,14.5c-3.4,11.3-29.3,93.6-43.5,123.9c-1,2.1-4,3.7-5.5,3.6
				c-2.1-0.1-3.9-0.5-4.9-0.8c-0.4-0.1-0.6-0.2-0.6-0.2L1160.9,288z"/>
			<path class="st47" d="M899.2,274.1c1.3,6.1,1.1,12.3,0.1,18c0,0,0,0,0,0c0,0,0,0,0,0s0,0,0,0c-0.1,0.5-0.2,1-0.3,1.5
				c-8-4.5-14.9-5.2-20.5-4.3c-10,1.6-15.6,8.5-15.6,8.5c6.5,5,12.3,6.8,17.2,6.7c11.9-0.1,18.9-10.9,18.9-10.9c-2.4,12.4-8,22-8,22
				c-3.4,1.7-6.7,2.7-9.9,3.1c-17.5,2.4-31.1-11.6-31.1-11.6s-36.9,32.8-88.9,2.2c0.4-20.5,7.9-36.5,7.9-36.5
				c10.1-1.2,18.9-4.3,26.4-8.4c0,0,71.3,12.7,95.6-4.3l2.6,1.8c1.2,1.5,2.2,3.1,3.1,4.7C897.8,269.2,898.6,271.6,899.2,274.1z
				 M832,297.9c0,0-8.3-8.2-22.2-9.6c-7.3-0.7-16.2,0.4-26.1,5.6c0,0,9.5,12.6,24.1,13.5c0.1,0,0.1,0,0.2,0c0.3,0,0.5,0,0.8,0
				c0.1,0,0.2,0,0.4,0C815.9,307.5,823.7,305.1,832,297.9z"/>
			<path class="st5" d="M809.8,288.3c13.9,1.4,22.2,9.6,22.2,9.6c-8.4,7.2-16.1,9.6-22.9,9.6c2.6-0.1,4.9-1.2,6.5-3c0,0,0,0,0,0
				c1.5-1.2,2.4-3.1,2.5-5.1c0.1-0.4,0.1-0.9,0.1-1.3c0-4.9-3.7-8.9-8.5-9.4L809.8,288.3z"/>
			<path class="st48" d="M776.7,401.6c0.2-9.4-0.6-22-5.7-31.2c-0.4-2.4-1.1-4.8-2-7.1c0,0,21.4,13,39.9,22.2l-0.1,0.1
				c0,0,2.4,11.5,6.5,20.9c2,4.5,4.3,8.6,7,10.7c0,0-8.9,6-6.8,11c0,0-32.9-16.7-39.9-14C775.7,414.2,776.5,408.9,776.7,401.6z"/>
			<path class="st49" d="M876,418.4c-34.1-6.8-60.7-11.9-60.7-11.9h0c-4.1-9.5-6.5-20.9-6.5-20.9l0.1-0.1c8.1,4,15.7,7.3,20.6,8.4
				c16.2,3.7,52.9-59.3,52.9-59.3s6.2-10.8-1.2-15.7c3.2-0.4,6.5-1.4,9.9-3.1c0,0,5.6-9.6,8-22c0.1-0.5,0.2-1,0.3-1.5
				c0.2,0.8,11.3,44.4-4.2,59.8c-3.6,3.6-6.3,7.4-8.3,11.2c0,0,2.6,26.3,16.6,38.3s5.2,23.4,5.2,23.4
				C897.4,422.6,886.3,420.4,876,418.4z"/>
			<path class="st50" d="M818.2,299.2c0-3.8-3-6.8-6.8-6.8c-3.8,0-6.8,3-6.8,6.8c0,3.8,3.1,6.8,6.8,6.8c1.7,0,3.2-0.6,4.3-1.5
				c-1.6,1.8-4,2.9-6.5,3c-0.4,0-0.8,0-1.2,0c-0.1,0-0.1,0-0.2,0c-4.8-0.5-8.5-4.5-8.5-9.4c0-5.2,4.2-9.4,9.5-9.4c0.3,0,0.7,0,1,0
				c4.8,0.5,8.5,4.5,8.5,9.4c0,0.5,0,0.9-0.1,1.3C818.2,299.3,818.2,299.3,818.2,299.2z"/>
			<path class="st51" d="M1160.9,288l192.6,12.4c0,0,0.2,0.1,0.6,0.2l-0.1,0.4l-0.7-0.1c-0.4,0-0.8,0.1-1.1,0.3l-93.7,54.5l-1,0.1
				c-0.2-0.1-0.4-0.1-0.7-0.1l-181.9-13.5c-0.4,0-0.9,0.1-1.2,0.2l84.7-53.8c0.5-0.3,1.1-0.5,1.8-0.6
				C1160.3,288,1160.6,288,1160.9,288z M1172.2,290.4c0,0-10.2-0.7-14.4,2c-14.2,9-22.3,15.1-31.9,22.8c-7.9,6.3-3.4,4.5,14,6.2
				c0.1,0,0.2,0,0.3,0c4.7,0.4,117,9.6,131.8,11.5c15.2,1.9,14.2,2.1,18.5-0.5c10.4-6.4,37.5-22.2,43-25.6c11.2-7-2.1-6.3-4-6.4
				C1289.8,298.2,1172.2,290.4,1172.2,290.4z"/>
			<path class="st49" d="M678.7,279.2c-8.4-18,28.7-121.7,101.3-114.3c0,0,9.1-1.2,20.7,2.7c12.4,4.2,27.7,14.4,37.3,38.6
				c0,0-9.3,39.9-42.6,58.3c-7.5,4.1-16.3,7.2-26.4,8.4c0,0-7.5,16-7.9,36.5c-0.1,7.2,0.6,15,2.9,22.8c3.5,12.2,5,22.4,4.6,31l0.4,0
				c0.9,2.4,1.6,4.8,2,7.1c3.3,18.6-8,36.1-8,36.1l1.3,2.2L692,450.9c0,0-3,1-8,2.7c-8.9,3-24,8.1-39.4,13.6l-0.6-1.6
				c0.7-1.3,13.3-36.8,8-59.1c-5-21.1,5.5-37.5,6.6-39.1C650.7,331.7,655.7,296.5,678.7,279.2z"/>
			<path class="st46" d="M1353.3,300.9l0.7,0.1l0.7,0.4c4.3,0,4.2,5.3,1,7.2l-97,60.3c0.8-0.6,1.3-1.5,1.3-2.5v-7.2
				c0-1.6-1.1-3-2.6-3.4l1-0.1l93.7-54.5C1352.5,301,1352.9,300.9,1353.3,300.9z"/>
			<path class="st52" d="M1261.8,909.9c15.1-9.8,28.2,0.9,28.2,0.9l48.7,46c0,0,12.7,15.3-12,12c-24.7-3.3-173.3-76-173.3-76
				c37.3-4.7,26.2-45.7,26.2-45.7l0.8-1.2C1228.4,881.1,1261.8,909.9,1261.8,909.9z"/>
			<path class="st53" d="M1329.5,300.4c1.9,0.1,15.2-0.6,4,6.4c-5.5,3.4-32.6,19.2-43,25.6c-4.3,2.6-3.3,2.4-18.5,0.5
				c-14.8-1.9-127.2-11.1-131.8-11.5c-0.1,0-0.2,0-0.3,0c-17.4-1.7-21.8,0.1-14-6.2c9.6-7.7,17.8-13.8,31.9-22.8
				c4.3-2.7,14.4-2,14.4-2S1289.8,298.2,1329.5,300.4z"/>
			<path class="st46" d="M1260,359.2v7.2c0,1-0.5,1.9-1.3,2.5c0,0,0,0,0,0l-0.3,0.2c-0.5,0.3-1.1,0.5-1.8,0.4l-56.7-4.7l-76-6.3
				c5.7-9.2-7-10.2-13.8,0l-28.7-2.7c-2.2-0.2-4.2-1.5-5.2-3.5l-3.6-6.7c-0.6-1.2-0.1-2.5,0.9-3.1c0.4-0.2,0.8-0.3,1.2-0.2
				l181.9,13.5c0.2,0,0.4,0,0.7,0.1C1258.9,356.2,1260,357.5,1260,359.2z"/>
			<path class="st51" d="M1258.4,369.1l0.3-0.2C1258.6,369,1258.5,369,1258.4,369.1z"/>
			<path class="st47" d="M1124,358.4l76,6.3l0,0.1c-13.9,16.7-36.4,21-48.1,22l0,0.3c0,0-48.3,62.2-81.8,94.4
				c4.7-26.8-26.4-41.1-26.4-41.1l6.2-2.9l74-49.2c0,0-21.3-6.8-16.7-23.5c0.7-2.5,1.7-4.6,2.9-6.4
				C1117,348.2,1129.7,349.2,1124,358.4z"/>
			<path class="st47" d="M1180.4,846.1l-0.8,1.2c0,0,11.1,41-26.2,45.7c-50-38.7-242.4-102.4-242.4-102.4c5-4.5,10.5-9.1,16.4-13.6
				c28.5-21.6,46.9-34.4,59.5-42C1051.6,757.7,1125.5,806,1180.4,846.1z"/>
			<path class="st54" d="M664.1,506.5c-11.3,2.1-23.2,4.6-34.6,7.1c-26.1,5.7-49.4,11.7-56.4,14.3c-16.9,6.3-15.7-12.3-21.1-21
				c-1.2-2-2-11.9-2.6-26c0,0,15.2,14.9,35.2-14c3,9,6,15.6,8.4,20.1c6.6-3.7,29.5-12.1,51.5-19.9c15.5-5.5,30.6-10.6,39.4-13.6
				c5-1.7,8-2.7,8-2.7l72.3-42.1l12.3-7.2c-0.2,7.3-1,12.7-1,12.7c7-2.7,39.9,14,39.9,14c-2.1-5,6.8-11,6.8-11
				c-2.7-2.2-5-6.2-7-10.7h0c0,0,26.5,5.1,60.7,11.9c10.3,2.1,21.4,4.3,32.6,6.6c47.4,9.7,98,20.7,111.9,25.9l0.1,0.3l23.1-10.8
				c0,0,31.2,14.4,26.4,41.1c-10.7,10.3-19.9,17.5-25.5,18.6c-18.2,3.6-98.5-16.1-133.4-25c-9.7-2.5-15.8-4.1-16.2-4.2
				c17.7,13,12.9,34,12.9,34c-3.4,17.4-12.5,25.4-23.1,28.4l0.2,0.6c-0.7,3.1-5.9,25.9-10.6,49.2c-3.3,16.5-6.3,33.3-7.3,43.7v0
				c0,0-43.8,20.6-104.1,0l-1.7,0.5c-3.8-14-13.2-40.7-23.2-67.6c-8.2-22-16.6-44.1-22.5-59.3c-2.1-0.4-5.2-0.4-9-0.2
				C696.5,500.9,681,503.3,664.1,506.5z"/>
			<path class="st54" d="M754.7,656.9L754.7,656.9c1.6-4,3-7.6,4.2-10.6c0,0,62.1,25.9,108.3-0.7c13.2,29.3,149.5,70.7,149.5,70.7
				s20.7,6,6,7.3c-9.5,0.9-13.1-2.4-35.9,11.3c-12.6,7.6-31,20.4-59.5,42c-5.9,4.5-11.4,9-16.4,13.6c-62.4,56.6-55,113.8-55,113.8
				c-4-10.7-48.7-38-89.3-72.7c-7.5-6.4-12.7-16.5-16.1-28.6C735.8,750.3,754.2,659,754.7,656.9z"/>
			<path class="st49" d="M918,554.4L918,554.4c-2.8,17.5-33.2,17.3-33.2,17.3l0,0c-3.8,7.9-10,11.3-10.3,11.5
				c4.7-23.4,9.9-46.1,10.6-49.2l-0.2-0.6c10.6-3,19.7-11,23.1-28.4c0,0,4.8-21-12.9-34c0.4,0.1,6.6,1.8,16.2,4.2
				c-3.7,21.6,7,15.1,27,58.4c20,43.3-18.9,51-18.9,51s23.6-17.7,6.2-24.6C922.5,558.7,920,556.7,918,554.4z"/>
			<path class="st49" d="M899.5,274.3c-0.6-2.5-1.5-5-2.8-7.5c-0.7-1.4-1.4-2.8-2.3-4.2l-0.7-0.5c-3-3.9-7.4-7.5-13.5-10.5
				c-27.5-13.3-42.1-45.3-42.1-45.3c-9.7-24.2-24.9-34.4-37.3-38.6c0,0,62-24.7,102.7,36.6c40.3,60.8-3.2,87.4-4,88c0,0,0,0,0,0
				s0,0,0,0C899.5,291.4,901.7,283.5,899.5,274.3z"/>
			<path class="st48" d="M893.6,262l-2.6-1.8c-24.3,17-95.6,4.3-95.6,4.3c33.3-18.3,42.6-58.3,42.6-58.3s14.7,32,42.1,45.3
				C886.2,254.5,890.5,258.2,893.6,262z"/>
			<circle cx="882.3" cy="297.2" r="5"/>
			<path class="st5" d="M887.4,296.9c0-4-3.2-7.3-7.3-7.3c-0.5,0-1,0-1.5,0.1l-0.1-0.5c5.5-0.9,12.4-0.1,20.5,4.3
				c0,0-7,10.7-18.9,10.9l0-0.3C884.1,304.2,887.4,301,887.4,296.9z"/>
			<path class="st50" d="M880.1,289.7c4,0,7.3,3.3,7.3,7.3c0,4-3.2,7.3-7.3,7.3c-4,0-7.3-3.2-7.3-7.3c0-3.5,2.5-6.4,5.8-7.1
				C879.1,289.7,879.6,289.7,880.1,289.7z M887.3,297.2c0-2.8-2.2-5-5-5s-5,2.2-5,5c0,2.8,2.2,5,5,5S887.3,300,887.3,297.2z"/>
			<path class="st48" d="M881.1,318.8c7.5,4.9,1.2,15.7,1.2,15.7s-36.7,63-52.9,59.3c-4.9-1.1-12.5-4.4-20.6-8.4
				c-18.5-9.2-39.9-22.2-39.9-22.2l-0.4,0c0.4-8.6-1.1-18.8-4.6-31c-2.2-7.9-3-15.6-2.9-22.8c52,30.7,88.9-2.2,88.9-2.2
				S863.6,321.2,881.1,318.8z M857.6,354.3c4.6-0.6,6.7-1.8,4.4-4.1c-10.3-10-16-5-16-5c-3-6-50,5-50,5s6.5,0.8,15.3,1.8
				C846,379.5,857.6,354.3,857.6,354.3z"/>
			<path class="st5" d="M880.1,304.2l0,0.3c-4.9,0.1-10.7-1.7-17.2-6.7c0,0,5.6-6.9,15.6-8.5l0.1,0.5c-3.3,0.7-5.8,3.6-5.8,7.1
				C872.9,301,876.1,304.2,880.1,304.2z"/>
			<path class="st47" d="M867.2,626.9v18.7c-46.2,26.7-108.3,0.7-108.3,0.7c2.6-6.6,4.1-10.7,4.1-10.7c-0.1-1.7-0.7-4.5-1.7-8.2
				l1.7-0.5C823.4,647.5,867.2,626.9,867.2,626.9z"/>
			<path class="st55" d="M862,350.2c2.3,2.3,0.2,3.5-4.4,4.1c-9.9,1.2-31.5-0.7-46.2-2.3c-8.9-1-15.3-1.8-15.3-1.8s47-11,50-5
				C846,345.2,851.7,340.2,862,350.2z"/>
			<path class="st55" d="M811.3,352c14.8,1.6,36.3,3.5,46.2,2.3C857.6,354.3,846,379.5,811.3,352z"/>
			<path class="st52" d="M792,929.4c-49.2-1.1-84.9-2.8-110.6-4.6c29.3-4.8,25.3-41,25.3-41v0c32.5,11.8,97.6,27.2,97.6,27.2
				c30.3,2.7,24.4,18.7,24.4,18.7c-12,34-43.3,67.3-43.3,67.3C770,976.9,792,929.4,792,929.4L792,929.4z"/>
			<path d="M818.2,299.2c0,0,0,0.1,0,0.1c-0.3,2-1.2,3.8-2.5,5.1c0,0,0,0,0,0c-1.2,1-2.7,1.5-4.3,1.5c-3.8,0-6.8-3-6.8-6.8
				c0-3.8,3.1-6.8,6.8-6.8C815.1,292.4,818.2,295.5,818.2,299.2z"/>
			<path class="st5" d="M809.8,288.3l0,0.3c-0.3,0-0.6,0-1,0c-5.2,0-9.5,4.2-9.5,9.4c0,4.9,3.7,8.9,8.5,9.4
				c-14.7-0.9-24.1-13.5-24.1-13.5C793.7,288.7,802.5,287.6,809.8,288.3z"/>
			<path class="st56" d="M771,370.4c5.1,9.2,5.9,21.8,5.7,31.2l-12.3,7.2l-1.3-2.2C763,406.5,774.3,389,771,370.4z"/>
			<path class="st47" d="M689.4,875.4c2.1,2.3,8.5,5.2,17.3,8.4v0c0,0,4,36.1-25.3,41c-69.4-5-67.3-11.2-67.3-11.2
				c-13.3-29.3,80-154,100.7-178.7c13.6-16.2,30.2-54,40-78h0c-0.4,2-18.8,93.4-4.1,146C722.1,818.8,700.4,854.2,689.4,875.4z"/>
			<path class="st49" d="M660.4,565.4c-21,22.5-47.1,21.3-60.2,9.5c-17.1-15.3,0-33.1,0-33.1c16.9,22.9,29.3-28.2,29.3-28.2
				c11.4-2.5,23.3-5,34.6-7.1c16.9-3.2,32.4-5.6,42.5-6.2c3.9-0.2,6.9-0.2,9,0.2c5.9,15.2,14.3,37.3,22.5,59.3
				c-15.2,15.5-28.9-5.3-28.9-5.3C685.7,591.1,661.1,566,660.4,565.4z"/>
			<path class="st47" d="M604.6,328.2c11,11.6-1.5,19.4-1.5,19.4l-0.7,0.2c2.9,7.2-4.4,8.6-4.4,8.6s-16,9.5-24.7,10.5l0,0.3
				c-1.7,47.4,4.6,79.5,11.3,99.6c-20,28.9-35.2,14-35.2,14c-1.7-46.3-0.1-137.5-0.1-137.5s18-53.9,42-41.2
				C615.3,314.9,604.6,328.2,604.6,328.2z"/>
		</g>
		<g>
			<path class="st57" d="M850,311.6c0,0,10.7,10.7,14,12c3.3,1.3,0,12-14,14"/>
			<path class="st57" d="M811.3,352c-8.9-1-15.3-1.8-15.3-1.8s47-11,50-5c0,0,5.7-5,16,5c2.3,2.3,0.2,3.5-4.4,4.1
				C847.7,355.5,826.1,353.6,811.3,352z"/>
			<path class="st57" d="M857.6,354.3c0,0-11.6,25.2-46.2-2.3"/>
			<path class="st57" d="M899.3,292.1c1-5.7,1.2-11.9-0.1-18c-0.5-2.5-1.4-5-2.5-7.4c-0.7-1.4-1.4-2.8-2.3-4.2l-0.7-0.5l-2.6-1.8
				c-24.3,17-95.6,4.3-95.6,4.3"/>
			<path class="st57" d="M899.3,292.2C899.3,292.2,899.3,292.2,899.3,292.2"/>
			<path class="st57" d="M761.1,309.4c52,30.7,88.9-2.2,88.9-2.2s13.6,14,31.1,11.6c3.2-0.4,6.5-1.4,9.9-3.1c0,0,5.6-9.6,8-22
				c0.1-0.5,0.2-1,0.3-1.5"/>
			<path class="st57" d="M808,307.4c0.4,0,0.8,0,1.2,0c6.7,0.1,14.5-2.4,22.9-9.6c0,0-8.3-8.2-22.2-9.6c-7.3-0.7-16.2,0.4-26.1,5.6
				c0,0,9.5,12.6,24.1,13.5"/>
			<path class="st57" d="M880.1,304.5c-4.9,0.1-10.7-1.7-17.2-6.7c0,0,5.6-6.9,15.6-8.5c5.5-0.9,12.4-0.1,20.5,4.3
				C899,293.6,892.1,304.4,880.1,304.5z"/>
			<path class="st57" d="M815.7,304.5c-1.2,1-2.7,1.5-4.3,1.5c-3.8,0-6.8-3-6.8-6.8c0-3.8,3.1-6.8,6.8-6.8c3.8,0,6.8,3,6.8,6.8
				c0,0,0,0.1,0,0.1C818.1,301.4,817.2,303.3,815.7,304.5"/>
			<path class="st57" d="M809.8,288.6c4.8,0.5,8.5,4.5,8.5,9.4c0,0.5,0,0.9-0.1,1.3c-0.3,2-1.2,3.8-2.5,5.1c0,0,0,0,0,0
				c-1.6,1.8-4,2.9-6.5,3c-0.1,0-0.2,0-0.4,0c-0.3,0-0.5,0-0.8,0c-0.1,0-0.1,0-0.2,0c-4.8-0.5-8.5-4.5-8.5-9.4
				c0-5.2,4.2-9.4,9.5-9.4C809.1,288.6,809.5,288.6,809.8,288.6z"/>
			<path class="st57" d="M878.7,289.8c0.5-0.1,1-0.1,1.5-0.1c4,0,7.3,3.3,7.3,7.3c0,4-3.2,7.3-7.3,7.3c-4,0-7.3-3.2-7.3-7.3
				C872.9,293.4,875.3,290.5,878.7,289.8z"/>
			<circle class="st57" cx="882.3" cy="297.2" r="5"/>
			<path class="st57" d="M827.3,285.6c-1.7-1-18.7-22-43.7-7.7"/>
			<path class="st57" d="M867,285.6c0,0,18.5-17.4,32.2-11.4c0.1,0,0.2,0.1,0.3,0.1c1.3,0.6,2.6,1.5,3.8,2.6"/>
			<path class="st57" d="M808.8,385.6c0,0,2.4,11.5,6.5,20.9c2,4.5,4.3,8.6,7,10.7c0,0-8.9,6-6.8,11c0,0-32.9-16.7-39.9-14
				c0,0,0.8-5.3,1-12.7c0.2-9.4-0.6-22-5.7-31.2c-0.6-1.1-1.3-2.1-2-3.1"/>
			<path class="st57" d="M769,363.2c0,0,21.4,13,39.9,22.2c8.1,4,15.7,7.3,20.6,8.4c16.2,3.7,52.9-59.3,52.9-59.3s6.2-10.8-1.2-15.7
				"/>
			<path class="st57" d="M756.7,401.6c0,0,15.4-14.6,12.3-34.3"/>
			<path class="st57" d="M763,406.5c0,0,11.2-17.5,8-36.1c-0.4-2.4-1.1-4.8-2-7.1"/>
			<path class="st57" d="M776.7,401.6L776.7,401.6l-12.4,7.2L692,450.9c0,0-3,1-8,2.7c-8.9,3-24,8.1-39.4,13.6
				c-22,7.8-44.9,16.1-51.5,19.9c-0.9,0.5-1.5,0.9-1.7,1.2"/>
			<path class="st57" d="M598,494.9c0,0-2-2.5-4.9-7.9c-2.4-4.5-5.5-11.2-8.4-20.1c-6.7-20.2-13-52.3-11.3-99.6"/>
			<path class="st57" d="M582,354.7c0,0-3.3-16.7-12.7,3.8c-3.3,7.2-0.7,9.1,4,8.5c8.7-1,24.7-10.5,24.7-10.5s7.3-1.4,4.4-8.6
				c-1.7-4.2-7-10.5-19.5-19.6"/>
			<path class="st57" d="M603.1,347.6c0,0,12.5-7.8,1.5-19.4c-2.8-2.9-7-6.1-13.3-9.4"/>
			<path class="st57" d="M604.6,328.2c0,0,10.7-13.3-13.3-26c-24-12.7-42,41.2-42,41.2s-1.6,91.1,0.1,137.5c0.5,14.1,1.3,24,2.6,26
				c5.3,8.7,4.1,27.3,21.1,21c7-2.6,30.4-8.6,56.4-14.3c11.4-2.5,23.3-5,34.6-7.1c16.9-3.2,32.4-5.6,42.5-6.2c3.9-0.2,6.9-0.2,9,0.2
				c0.7,0.1,1.2,0.2,1.7,0.4"/>
			<path class="st57" d="M708,480.9c0,0,3,7.6,7.6,19.6c5.9,15.2,14.3,37.3,22.5,59.3c10,26.8,19.4,53.6,23.2,67.6
				c1,3.7,1.6,6.5,1.7,8.2c0,0-1.5,4.1-4.1,10.7c-1.2,3.1-2.6,6.7-4.3,10.6c-9.8,24-26.4,61.8-40,78
				C694,759.6,600.7,884.2,614,913.6c0,0-2.1,6.2,67.3,11.2c25.8,1.8,61.4,3.5,110.6,4.6c2.9,0.1,5.8,0.1,8.7,0.2"/>
			<path class="st57" d="M874.5,583.1c4.7-23.4,9.9-46.1,10.6-49.2c0-0.2,0.1-0.4,0.1-0.4"/>
			<path class="st57" d="M867,635.6c-0.3-1.7-0.2-4.8,0.2-8.7"/>
			<path class="st57" d="M895,470.9c-2.7-2-6-3.8-9.9-5.3"/>
			<path class="st57" d="M838,525.9c0,0,26.2,13.3,46.9,7.4c10.6-3,19.7-11,23.1-28.4c0,0,4.8-21-12.9-34"/>
			<path class="st57" d="M811.3,529.2c0,0-30,28.3-62,0c-32-28.3,0-63.6,0-63.6"/>
			<path class="st57" d="M895,470.9C895,470.9,895,470.9,895,470.9c0.4,0.1,6.6,1.8,16.2,4.2c34.9,8.9,115.2,28.6,133.4,25
				c5.6-1.1,14.8-8.3,25.5-18.6c33.5-32.1,81.8-94.4,81.8-94.4"/>
			<path class="st57" d="M815.3,406.5c0,0,26.5,5.1,60.7,11.9c10.3,2.1,21.4,4.3,32.6,6.6c47.4,9.7,98,20.7,111.9,25.9"/>
			<polyline class="st57" points="1011.3,455.6 1020.7,451.2 1043.8,440.5 1050,437.6 1124,388.4 			"/>
			<path class="st57" d="M1131.3,367.2c0,0-14,2.1-7.3-8.8c5.7-9.2-7-10.2-13.8,0c-1.2,1.8-2.2,3.9-2.9,6.4
				c-4.7,16.7,16.7,23.5,16.7,23.5"/>
			<path class="st57" d="M1144.5,387.2c0,0,2.9,0.1,7.4-0.3c11.6-1.1,34.2-5.3,48.1-22"/>
			<path class="st57" d="M792,929.4c0,0-22,47.5-6.6,67.5c0,0,31.3-33.3,43.3-67.3c0,0,5.9-16-24.4-18.7c0,0-65.1-15.4-97.6-27.2
				c-8.8-3.2-15.2-6.1-17.3-8.4c-0.4-0.4-0.6-0.8-0.7-1.2"/>
			<path class="st57" d="M681.3,892.2c0,0,2.8-6.8,8-16.8c11-21.2,32.7-56.6,61.2-72.4c0,0,0.1,0,0.1-0.1"/>
			<path class="st57" d="M706.7,883.7c0,0,4,36.1-25.3,41"/>
			<path class="st57" d="M867.2,626.9c0,0-43.8,20.6-104.1,0"/>
			<path class="st57" d="M754.7,656.9C754.7,656.9,754.7,656.9,754.7,656.9c-0.4,2.1-18.8,93.5-4.1,146.1
				c3.4,12.1,8.5,22.2,16.1,28.6c40.7,34.7,85.3,62,89.3,72.7c0,0-7.4-57.1,55-113.8c5-4.5,10.5-9.1,16.4-13.6
				c28.5-21.6,46.9-34.4,59.5-42c22.8-13.8,26.4-10.5,35.9-11.3c14.7-1.3-6-7.3-6-7.3s-136.4-41.3-149.5-70.7v-18.7v0
				c1-10.4,4-27.2,7.3-43.7"/>
			<path class="st57" d="M758.9,646.3c0,0,62.1,25.9,108.3-0.7"/>
			<path class="st57" d="M911,790.5c0,0,192.4,63.8,242.4,102.4c0,0,148.7,72.7,173.3,76c24.7,3.3,12-12,12-12l-48.7-46
				c0,0-13.1-10.7-28.2-0.9c-2.6,1.7-5.2,3.9-7.8,6.9"/>
			<path class="st57" d="M1261.8,909.9c0,0-33.4-28.8-81.4-63.9c-54.9-40.1-128.8-88.4-193.6-111.2"/>
			<path class="st57" d="M1179.6,847.2c0,0,11.1,41-26.2,45.7"/>
			<path class="st57" d="M678.1,337.6c8.9-26,8.4-41.6,0.6-58.3c-8.4-18,28.7-121.7,101.3-114.3c0,0,9.1-1.2,20.7,2.7
				c12.4,4.2,27.7,14.4,37.3,38.6c0,0-9.3,39.9-42.6,58.3c-7.5,4.1-16.3,7.2-26.4,8.4c0,0-7.5,16-7.9,36.5c-0.1,7.2,0.6,15,2.9,22.8
				c3.5,12.2,5,22.4,4.6,31c-0.7,15.9-7.6,26.4-19.3,34.5"/>
			<path class="st57" d="M800.7,167.6c0,0,62-24.7,102.7,36.6c40.3,60.8-3.2,87.4-4,88c0,0,0,0,0,0s0,0,0,0c0,0,0,0,0,0
				c0.2-0.7,2.4-8.7,0.2-17.9c-0.6-2.5-1.5-5-2.8-7.5c-0.8-1.6-1.8-3.2-3.1-4.7c-3-3.9-7.4-7.5-13.5-10.5
				c-27.5-13.3-42.1-45.3-42.1-45.3"/>
			<path class="st57" d="M899.3,292.2C899.3,292.2,899.3,292.2,899.3,292.2c0.2,0.8,11.3,44.4-4.2,59.8c-3.6,3.6-6.3,7.4-8.3,11.2
				c-6.7,12.8-5.6,25.2-5.6,25.2"/>
			<path class="st57" d="M886.8,363.2c0,0,2.6,26.3,16.6,38.3s5.2,23.4,5.2,23.4"/>
			<path class="st57" d="M863,377.6c0,0-0.6,18,9.9,24c10.5,6,3.1,16.8,3.1,16.8"/>
			<path class="st57" d="M840.7,394.1c0,0-1.1,5.7,4,12.4"/>
			<path class="st57" d="M706.7,377.6c0,0-10,16.7-8.7,32.7s-8.4,41.5-14,43.3"/>
			<path class="st57" d="M644,465.6c0.7-1.3,13.3-36.8,8-59.1c-5-21.1,5.5-37.5,6.6-39.1c0.1-0.1,0.1-0.1,0.1-0.1"/>
			<path class="st57" d="M678.7,279.2c-23,17.2-28,52.5-20.1,88.1c1.3,5.7,2.9,11.4,4.8,17c0,0,5.3,10.5,3.3,29.2"/>
			<path class="st57" d="M767.3,193.6c0,0-24.7,7.3-26.7,29.3s-23.3,25.3-23.3,25.3"/>
			<path class="st57" d="M787.3,210.9c0,0-46.7,29.3-45,58c1.7,28.7-6.3,62-16.3,59.3"/>
			<path class="st57" d="M714,279.2c0,0-18.6,32.4-7.3,49c11.3,16.7-15.3,39-15.3,39"/>
			<path class="st57" d="M629.5,513.6c0,0-12.4,51-29.3,28.2c0,0-17.1,17.8,0,33.1c13.1,11.7,39.2,12.9,60.2-9.5
				c6.4-6.9,12.4-16,17.3-27.8"/>
			<path class="st57" d="M660.4,565.3C660.4,565.3,660.4,565.3,660.4,565.3c0.7,0.7,25.3,25.8,48.8-10.9c4.1-6.4,8.2-14.6,12.1-25.2
				"/>
			<path class="st57" d="M709.3,554.4c0,0,13.7,20.9,28.9,5.3"/>
			<path class="st57" d="M702.7,533.6c0,0,9.4-15.3,4-20c-4.9-4.3-0.8-12.1-0.1-13.3c0.1-0.1,0.1-0.1,0.1-0.1"/>
			<path class="st57" d="M665,506.3c-0.3-1.1-0.6-1-0.9,0.2c-0.8,2.9-1.9,11.8-3.7,22.7c-3.1,19.2-25.2,25.2-25.2,25.2"/>
			<path class="st57" d="M874.5,583.1C874.5,583.1,874.5,583.1,874.5,583.1c0.3-0.2,6.5-3.5,10.3-11.5c2.1-4.3,3.4-10,2.6-17.2"/>
			<path class="st57" d="M884.8,571.7c0,0,30.4,0.3,33.1-17.3"/>
			<path class="st57" d="M910.3,525.9c0,0-1.3,18.1,7.7,28.5c2,2.3,4.5,4.3,7.7,5.6c17.3,6.9-6.2,24.6-6.2,24.6s38.9-7.7,18.9-51
				c-20-43.3-30.8-36.9-27-58.4"/>
			<path class="st57" d="M549.4,480.9c0,0,15.2,14.9,35.2-14c0.3-0.4,0.6-0.9,0.9-1.3"/>
			<path class="st57" d="M1043.8,440.5c0,0,31.2,14.4,26.4,41.1"/>
			<path class="st57" d="M1258.7,368.9c-0.1,0.1-0.2,0.1-0.3,0.2c-0.5,0.3-1.1,0.5-1.8,0.4l-56.7-4.7l-76-6.3"/>
			<path class="st57" d="M1110.2,358.4l-28.7-2.7c-2.2-0.2-4.2-1.5-5.2-3.5l-3.6-6.7c-0.6-1.2-0.1-2.5,0.9-3.1
				c0.4-0.2,0.8-0.3,1.2-0.2l181.9,13.5c0.2,0,0.4,0,0.7,0.1c1.5,0.4,2.6,1.8,2.6,3.4v7.2c0,1-0.5,1.9-1.3,2.5"/>
			<path class="st57" d="M1258.4,369.1l0.3-0.2c0,0,0,0,0,0l97-60.3c3.2-2,3.3-7.2-1-7.2l-0.7-0.4l-0.7-0.1c-0.4,0-0.8,0.1-1.1,0.3
				l-93.7,54.5"/>
			<path class="st57" d="M1353.5,300.4L1160.9,288c-0.3,0-0.6,0-0.8,0c-0.6,0.1-1.2,0.3-1.8,0.6l-84.7,53.8"/>
			<path class="st57" d="M1160.1,288c0,0,27.8-90.1,34.3-120.8c1.6-7.8,1.6-7.8,17.7-7.8c15.9,0,138.4,0,184.4,0
				c11.5,0,15.5,1.4,11.5,14.5c-3.4,11.3-29.3,93.6-43.5,123.9c-1,2.1-4,3.7-5.5,3.6c-2.1-0.1-3.9-0.5-4.9-0.8
				c-0.4-0.1-0.6-0.2-0.6-0.2"/>
			<path class="st57" d="M1394,167.9h-189c0,0-4,0.5-5,6c-0.9,5.1-24,84.9-27.3,96.6c-0.3,1.1-1,3.3-1.3,5.2
				c-0.4,2.8-0.1,5.7,7.1,5.7c6,0,146.5,8.8,166.6,10c1.8,0.1,3.6-0.2,5.3-0.8c4-1.6,11-5.1,12.7-11.4c2.5-9,36.3-102.8,36.3-102.8
				S1403,167.9,1394,167.9z"/>
			<path class="st57" d="M1172.2,290.4c0,0,117.6,7.8,157.2,10c1.9,0.1,15.2-0.6,4,6.4c-5.5,3.4-32.6,19.2-43,25.6
				c-4.3,2.6-3.3,2.4-18.5,0.5c-14.8-1.9-127.2-11.1-131.8-11.5c-0.1,0-0.2,0-0.3,0c-17.4-1.7-21.8,0.1-14-6.2
				c9.6-7.7,17.8-13.8,31.9-22.8C1162.1,289.7,1172.2,290.4,1172.2,290.4z"/>
			<path class="st58" d="M1171.3,325.9c0,0-4.3-2.3-7.8,2.9c-2.4,3.5-8,9.5-9.6,13.7c-0.6,1.5,0.5,2.8,3.5,2.8"/>
			<path class="st58" d="M1221.2,330.1c0,0,6.3,0,3.8,4.3s-8.8,11.7-8.8,11.7s-3.1,3.8-7.7,2.3"/>
		</g>
	</g>
	<g id="Layer_3">
		<circle class="st59" cx="883.3" cy="296.1" r="1.1"/>
		<circle class="st59" cx="814.5" cy="296.9" r="1.3"/>
		<circle class="st59" cx="811.4" cy="300.7" r="1.5"/>
		<circle class="st59" cx="881.7" cy="299" r="1.2"/>
	</g>
	<path class="st60" d="M1300.2,165.1L1300.2,165.1c-1,0-1.8-0.8-1.8-1.8v0c0-1,0.8-1.7,1.8-1.7l0,0c1,0,1.8,0.8,1.8,1.7v0
		C1302,164.3,1301.2,165.1,1300.2,165.1z"/>
</g>
</svg>
