<svg id="Layer_25" data-name="Layer 25" xmlns="http://www.w3.org/2000/svg" viewBox="0 0 1145.94 1168.88"><defs><style>.cls-1{fill:#d6d6d6;}.cls-2{fill:#484748;}.cls-3{fill:#50979b;}.cls-14,.cls-4{fill:#fff;}.cls-12,.cls-15,.cls-16,.cls-19,.cls-20,.cls-21,.cls-40,.cls-41,.cls-5,.cls-54,.cls-55{fill:none;}.cls-41,.cls-5{stroke:#fff;}.cls-12,.cls-14,.cls-15,.cls-16,.cls-19,.cls-20,.cls-21,.cls-31,.cls-36,.cls-39,.cls-40,.cls-41,.cls-5,.cls-54,.cls-55,.cls-57,.cls-6,.cls-7,.cls-8{stroke-miterlimit:10;}.cls-5{stroke-width:6px;}.cls-6{fill:#727373;stroke:#565656;}.cls-20,.cls-21,.cls-31,.cls-6,.cls-7{stroke-width:3px;}.cls-7{stroke:#5e5f5f;}.cls-13,.cls-8{fill:#f7f7f7;}.cls-8{stroke:#b7b7b7;}.cls-9{fill:#cbeaef;}.cls-10{fill:#282828;}.cls-11{fill:#828282;}.cls-12{stroke:#bcbcbc;}.cls-14{stroke:#828282;stroke-width:4px;}.cls-15,.cls-16{stroke:#dcdbdb;}.cls-15{stroke-width:2px;}.cls-17{fill:#dcdbdb;}.cls-18{fill:#f4f4f4;}.cls-19{stroke:#353535;}.cls-20{stroke:#ea9c23;}.cls-21{stroke:#0d8296;}.cls-22{fill:#fff0b3;}.cls-23{fill:#f4d7e8;}.cls-24{fill:#231f20;}.cls-25{fill:#58595b;}.cls-26{fill:#3d3d3d;}.cls-27{fill:#231612;}.cls-28{fill:#301c11;}.cls-29{fill:#3f2a1c;}.cls-30{fill:#563c2b;}.cls-31{fill:#171617;stroke:#121212;}.cls-32{fill:#35241d;}.cls-33{fill:#28572a;}.cls-34{fill:#366994;}.cls-35{fill:#41111b;}.cls-36{fill:#16763b;stroke:#1d351a;}.cls-37{fill:#342556;}.cls-38{fill:#c07c2a;}.cls-39{fill:#761113;stroke:#41111b;}.cls-40{stroke:#213a1b;}.cls-42,.cls-57{fill:#1b1b1c;}.cls-43{fill:#8c8c8c;}.cls-44{fill:#fcb141;}.cls-45{fill:#fdd5b9;}.cls-46{fill:#421313;}.cls-47{fill:#1b6734;}.cls-48{fill:#9d9d9d;}.cls-49{fill:#1e1e1e;}.cls-50{fill:#3f403f;}.cls-51{fill:#ea496b;}.cls-52{fill:#ef558f;}.cls-53{fill:#34111a;}.cls-54,.cls-57{stroke:#000;}.cls-55{stroke:#787878;}.cls-56{fill:#333;}</style></defs><title>ck</title><rect class="cls-1" width="1145.94" height="838.46"/><rect class="cls-2" y="705.22" width="1145.94" height="463.67"/><g id="Layer_26" data-name="Layer 26"><rect class="cls-3" width="1145.94" height="434.33"/></g><rect class="cls-4" y="705.22" width="1145.94" height="29.67"/><rect class="cls-4" y="428.22" width="1145.94" height="12.24"/><polyline class="cls-5" points="0 460.97 134.62 460.97 134.62 684.83 0 684.83"/><rect class="cls-5" x="168.96" y="460.97" width="174.62" height="223.86"/><rect class="cls-5" x="377.93" y="460.97" width="174.62" height="223.86"/><rect class="cls-5" x="586.89" y="460.97" width="174.62" height="223.86"/><rect class="cls-5" x="795.86" y="460.97" width="174.62" height="223.86"/><polyline class="cls-5" points="1145.94 684.83 1004.82 684.83 1004.82 460.97 1145.94 460.97"/><g id="iMac"><path class="cls-6" d="M522.43,563s-3,31,20,36.93-93.28,2.92-93.28,2.92,18.82-16.88,16-42.94S522.43,563,522.43,563Z"/><rect class="cls-7" x="323.23" y="404.51" width="275.67" height="162.26" rx="12" ry="12"/></g><g id="Layer_19" data-name="Layer 19"><rect class="cls-8" x="651.13" y="522.98" width="36.75" height="80.67" rx="12" ry="12"/><rect class="cls-8" x="659.54" y="504.37" width="19.93" height="26.56"/><g id="Layer_23" data-name="Layer 23"><path class="cls-9" d="M651.83,540.55a8.44,8.44,0,0,0,6.46.32s5.71,1.9,8.82,0c0,0,5.5,2.07,8.31,0,0,0,4.78,2,7.47,0,0,0,4.28.71,4.28-.32l-0.08,50.7s1.09,11.9-14.17,12.4-21-4.86-21-12.66S651.83,540.55,651.83,540.55Z"/></g><path class="cls-10" d="M659.54,512.08v-7.71h19.93v7.71A40.69,40.69,0,0,1,659.54,512.08Z"/><ellipse class="cls-11" cx="669.51" cy="504.37" rx="9.97" ry="1.49"/><path class="cls-12" d="M659.89,525"/><path class="cls-12" d="M679.47,524.25"/><path class="cls-12" d="M679.47,512.08"/><g id="Layer_24" data-name="Layer 24"><path class="cls-13" d="M658.35,525.79s-0.26-.61,2.65-1.54,18.74-1.83,20.09,2-1.61,7-1.61,7l-22.22-.52Z"/></g></g><g id="Whiteboard"><rect class="cls-14" x="545.81" y="134.72" width="357.99" height="233.87" rx="12" ry="12"/><g id="Layer_6" data-name="Layer 6"><polyline class="cls-15" points="665.88 220.55 698.14 231.77 709.37 199.48"/><polyline class="cls-16" points="593.04 211.78 629.37 209.84 627.52 175.23"/><rect class="cls-17" x="574.38" y="248.22" width="78.67" height="91.25"/></g><g id="Layer_7" data-name="Layer 7"><rect class="cls-18" x="573.38" y="247.22" width="78.67" height="91.25"/></g><g id="Layer_8" data-name="Layer 8"><polyline class="cls-19" points="584.38 272.89 584.38 312.3 638.88 312.3"/></g><g id="Layer_9" data-name="Layer 9"><polyline class="cls-20" points="584.38 293.84 598.9 285.55 612.71 292.84 635.61 279.21"/><polyline class="cls-21" points="584.38 285.55 598.9 300.38 604.38 293.84 625.38 300.72 638.88 296.88"/></g><rect class="cls-22" x="590.38" y="172.88" width="38" height="38" transform="translate(-9.37 32.81) rotate(-3.06)"/><rect class="cls-23" x="669.07" y="190.88" width="35.98" height="35.98" transform="translate(106.71 -214.07) rotate(19.17)"/><path class="cls-24" d="M588.69,261.23a2,2,0,0,1-1,.25,2.06,2.06,0,0,1-.89-0.18,1.86,1.86,0,0,1-.64-0.5,2.12,2.12,0,0,1-.39-0.72,2.8,2.8,0,0,1,0-1.69,2.13,2.13,0,0,1,.39-0.72,1.89,1.89,0,0,1,.64-0.5,2.24,2.24,0,0,1,1.79,0,1.9,1.9,0,0,1,.64.5,2.13,2.13,0,0,1,.39.72,2.76,2.76,0,0,1,.13.84,2.7,2.7,0,0,1-.16.94,2.07,2.07,0,0,1-.49.77l0.56,0.44-0.29.36Zm0-.61A1.53,1.53,0,0,0,589,260a2.4,2.4,0,0,0,.12-0.76,2.44,2.44,0,0,0-.08-0.64,1.72,1.72,0,0,0-.26-0.57,1.36,1.36,0,0,0-.46-0.4,1.55,1.55,0,0,0-1.34,0,1.34,1.34,0,0,0-.46.4,1.72,1.72,0,0,0-.26.57,2.47,2.47,0,0,0,0,1.28,1.73,1.73,0,0,0,.26.57,1.34,1.34,0,0,0,.46.41,1.39,1.39,0,0,0,.67.15,1.53,1.53,0,0,0,.59-0.12l-0.47-.38,0.3-.35Z"/><path class="cls-24" d="M592.41,261.38v-0.49h0a1,1,0,0,1-.41.42,1.24,1.24,0,0,1-.59.13,1.38,1.38,0,0,1-.51-0.08,0.8,0.8,0,0,1-.33-0.23,0.87,0.87,0,0,1-.18-0.36,2,2,0,0,1-.05-0.46v-2h0.51v2.1a0.62,0.62,0,0,0,.17.46,0.63,0.63,0,0,0,.46.17,1,1,0,0,0,.4-0.07,0.76,0.76,0,0,0,.29-0.2,0.88,0.88,0,0,0,.17-0.31,1.26,1.26,0,0,0,.06-0.39v-1.75h0.51v3.1h-0.48Z"/><path class="cls-24" d="M596.41,261.37a0.72,0.72,0,0,1-.37.08,0.44,0.44,0,0,1-.31-0.11,0.48,0.48,0,0,1-.12-0.36,1.22,1.22,0,0,1-.49.36,1.69,1.69,0,0,1-1,.06,0.94,0.94,0,0,1-.33-0.15,0.72,0.72,0,0,1-.22-0.27,0.9,0.9,0,0,1-.08-0.4,0.92,0.92,0,0,1,.09-0.43,0.8,0.8,0,0,1,.24-0.27,1.09,1.09,0,0,1,.34-0.16l0.39-.09,0.4-.06,0.33-.06a0.55,0.55,0,0,0,.23-0.11,0.28,0.28,0,0,0,.08-0.22,0.51,0.51,0,0,0-.06-0.27,0.43,0.43,0,0,0-.16-0.16,0.66,0.66,0,0,0-.22-0.07l-0.24,0a1.08,1.08,0,0,0-.54.12,0.52,0.52,0,0,0-.23.46h-0.51a1.09,1.09,0,0,1,.12-0.49,0.91,0.91,0,0,1,.29-0.32,1.21,1.21,0,0,1,.41-0.18,2.18,2.18,0,0,1,.5-0.05,2.91,2.91,0,0,1,.42,0,1.1,1.1,0,0,1,.38.12,0.73,0.73,0,0,1,.27.26,0.83,0.83,0,0,1,.1.44v1.59a1.22,1.22,0,0,0,0,.26,0.12,0.12,0,0,0,.14.08l0.16,0v0.4Zm-0.83-1.59a0.63,0.63,0,0,1-.25.1l-0.33.05-0.34,0a1.28,1.28,0,0,0-.31.09,0.57,0.57,0,0,0-.23.17,0.48,0.48,0,0,0-.09.3,0.4,0.4,0,0,0,.18.35,0.56,0.56,0,0,0,.19.08l0.23,0a1.21,1.21,0,0,0,.43-0.07,0.91,0.91,0,0,0,.29-0.17,0.68,0.68,0,0,0,.17-0.23,0.57,0.57,0,0,0,.05-0.23v-0.52Z"/><path class="cls-24" d="M597.35,258.28v0.65h0a1.37,1.37,0,0,1,.46-0.56,1.14,1.14,0,0,1,.68-0.17v0.54a1.44,1.44,0,0,0-.52.08,0.82,0.82,0,0,0-.35.25,1,1,0,0,0-.19.39,2.12,2.12,0,0,0-.06.53v1.38h-0.51v-3.1h0.48Z"/><path class="cls-24" d="M600.21,258.28v0.45h-0.62v1.93a0.52,0.52,0,0,0,0,.14,0.14,0.14,0,0,0,.06.08,0.25,0.25,0,0,0,.12,0h0.43v0.45h-0.39a1.82,1.82,0,0,1-.34,0,0.5,0.5,0,0,1-.23-0.1,0.43,0.43,0,0,1-.13-0.2,1.17,1.17,0,0,1,0-.35v-2h-0.53v-0.45h0.53v-0.93h0.51v0.93h0.62Z"/><path class="cls-24" d="M603,261.18a1.41,1.41,0,0,1-.88.26,1.6,1.6,0,0,1-.65-0.12A1.27,1.27,0,0,1,601,261a1.42,1.42,0,0,1-.28-0.52,2.46,2.46,0,0,1-.11-0.65,1.86,1.86,0,0,1,.11-0.65,1.55,1.55,0,0,1,.3-0.51,1.38,1.38,0,0,1,.46-0.34,1.42,1.42,0,0,1,.58-0.12,1.27,1.27,0,0,1,.69.17,1.36,1.36,0,0,1,.44.44,1.71,1.71,0,0,1,.23.58,2.48,2.48,0,0,1,.05.59h-2.32a1.23,1.23,0,0,0,0,.39,0.88,0.88,0,0,0,.17.32,0.86,0.86,0,0,0,.31.23,1.05,1.05,0,0,0,.44.08,0.88,0.88,0,0,0,.53-0.15,0.73,0.73,0,0,0,.27-0.46h0.5A1.24,1.24,0,0,1,603,261.18Zm-0.12-2a0.86,0.86,0,0,0-.46-0.46,0.94,0.94,0,0,0-.71,0,0.82,0.82,0,0,0-.27.19,0.9,0.9,0,0,0-.18.28,1.06,1.06,0,0,0-.08.34h1.78A1,1,0,0,0,602.84,259.19Z"/><path class="cls-24" d="M604.45,258.28v0.65h0a1.37,1.37,0,0,1,.46-0.56,1.14,1.14,0,0,1,.68-0.17v0.54a1.44,1.44,0,0,0-.52.08,0.82,0.82,0,0,0-.35.25,1,1,0,0,0-.19.39,2.12,2.12,0,0,0-.06.53v1.38H604v-3.1h0.48Z"/><path class="cls-24" d="M606.53,257.1v4.28H606V257.1h0.51Z"/><path class="cls-24" d="M608.54,261.8a3.1,3.1,0,0,1-.18.38,1.07,1.07,0,0,1-.19.26,0.65,0.65,0,0,1-.23.14,0.89,0.89,0,0,1-.3,0h-0.18l-0.17,0V262.1l0.15,0.05,0.15,0a0.44,0.44,0,0,0,.26-0.08,0.46,0.46,0,0,0,.16-0.21l0.21-.52L607,258.28h0.58l0.91,2.54h0l0.87-2.54h0.54Z"/><path class="cls-24" d="M614.09,257.1a1.41,1.41,0,0,1,1,.3,1,1,0,0,1,.34.82,1.31,1.31,0,0,1-.18.68,0.91,0.91,0,0,1-.57.4h0a0.76,0.76,0,0,1,.3.12,0.66,0.66,0,0,1,.19.2,0.9,0.9,0,0,1,.1.26,2.57,2.57,0,0,1,.05.3c0,0.1,0,.21,0,0.32a2.61,2.61,0,0,0,0,.32,2,2,0,0,0,.07.3,0.74,0.74,0,0,0,.13.25h-0.64a0.36,0.36,0,0,1-.08-0.18,1.88,1.88,0,0,1,0-.25c0-.09,0-0.19,0-0.3a2,2,0,0,0,0-.32,2.9,2.9,0,0,0-.06-0.3,0.71,0.71,0,0,0-.11-0.25,0.56,0.56,0,0,0-.2-0.17,0.75,0.75,0,0,0-.34-0.06h-1.39v1.83h-0.57V257.1h2Zm0.12,1.94a0.82,0.82,0,0,0,.32-0.12,0.64,0.64,0,0,0,.22-0.23,0.78,0.78,0,0,0,.08-0.38,0.77,0.77,0,0,0-.18-0.53,0.74,0.74,0,0,0-.58-0.2h-1.42v1.49h1.19A2.28,2.28,0,0,0,614.21,259Z"/><path class="cls-24" d="M618.3,261.18a1.41,1.41,0,0,1-.88.26,1.6,1.6,0,0,1-.65-0.12,1.27,1.27,0,0,1-.46-0.34,1.42,1.42,0,0,1-.28-0.52,2.46,2.46,0,0,1-.11-0.65,1.86,1.86,0,0,1,.11-0.65,1.55,1.55,0,0,1,.3-0.51,1.38,1.38,0,0,1,.46-0.34,1.42,1.42,0,0,1,.58-0.12,1.27,1.27,0,0,1,.69.17,1.36,1.36,0,0,1,.44.44,1.71,1.71,0,0,1,.23.58,2.48,2.48,0,0,1,.05.59h-2.32a1.23,1.23,0,0,0,0,.39,0.88,0.88,0,0,0,.17.32,0.86,0.86,0,0,0,.31.23,1.05,1.05,0,0,0,.44.08,0.88,0.88,0,0,0,.53-0.15,0.73,0.73,0,0,0,.27-0.46h0.5A1.24,1.24,0,0,1,618.3,261.18Zm-0.12-2a0.86,0.86,0,0,0-.46-0.46,0.94,0.94,0,0,0-.71,0,0.82,0.82,0,0,0-.27.19,0.9,0.9,0,0,0-.18.28,1.06,1.06,0,0,0-.08.34h1.78A1,1,0,0,0,618.17,259.19Z"/><path class="cls-24" d="M619.85,258.28v0.42h0a0.76,0.76,0,0,1,.4-0.37,1.48,1.48,0,0,1,.59-0.12,1.4,1.4,0,0,1,.63.13,1.28,1.28,0,0,1,.44.36,1.58,1.58,0,0,1,.27.52,2.14,2.14,0,0,1,.09.62,2.2,2.2,0,0,1-.09.62,1.46,1.46,0,0,1-.26.51,1.25,1.25,0,0,1-.44.34,1.44,1.44,0,0,1-.62.13l-0.25,0a1.44,1.44,0,0,1-.28-0.08,1.08,1.08,0,0,1-.26-0.15,0.81,0.81,0,0,1-.21-0.23h0v1.6h-0.51v-4.28h0.51Zm1.83,1.1a1.14,1.14,0,0,0-.17-0.37,0.86,0.86,0,0,0-.3-0.26,0.91,0.91,0,0,0-.43-0.1,0.84,0.84,0,0,0-.73.37,1.1,1.1,0,0,0-.17.38,1.79,1.79,0,0,0,0,.87,1.1,1.1,0,0,0,.17.38,0.87,0.87,0,0,0,.3.26,1,1,0,0,0,.45.1,0.88,0.88,0,0,0,.44-0.1,0.82,0.82,0,0,0,.28-0.27,1.18,1.18,0,0,0,.16-0.38,2,2,0,0,0,0-.44A1.58,1.58,0,0,0,621.68,259.38Z"/><path class="cls-24" d="M622.81,259.2a1.46,1.46,0,0,1,.29-0.52,1.35,1.35,0,0,1,.47-0.34,1.74,1.74,0,0,1,1.3,0,1.37,1.37,0,0,1,.47.34,1.44,1.44,0,0,1,.29.52,2.05,2.05,0,0,1,.1.64,2,2,0,0,1-.1.64,1.44,1.44,0,0,1-.29.51,1.33,1.33,0,0,1-.47.34,1.78,1.78,0,0,1-1.3,0,1.32,1.32,0,0,1-.47-0.34,1.46,1.46,0,0,1-.29-0.51,2.05,2.05,0,0,1-.1-0.64A2.08,2.08,0,0,1,622.81,259.2Zm0.52,1.14a1,1,0,0,0,.21.37,0.89,0.89,0,0,0,.31.23,0.94,0.94,0,0,0,.75,0,0.89,0.89,0,0,0,.31-0.23,1.06,1.06,0,0,0,.21-0.37,1.71,1.71,0,0,0,0-1,1.1,1.1,0,0,0-.21-0.37,0.88,0.88,0,0,0-.31-0.23,0.94,0.94,0,0,0-.75,0,0.88,0.88,0,0,0-.31.23,1.08,1.08,0,0,0-.21.37A1.71,1.71,0,0,0,623.33,260.34Z"/><path class="cls-24" d="M626.79,258.28v0.65h0a1.37,1.37,0,0,1,.46-0.56,1.14,1.14,0,0,1,.68-0.17v0.54a1.44,1.44,0,0,0-.52.08,0.82,0.82,0,0,0-.35.25,1,1,0,0,0-.19.39,2.12,2.12,0,0,0-.06.53v1.38h-0.51v-3.1h0.48Z"/><path class="cls-24" d="M629.65,258.28v0.45H629v1.93a0.52,0.52,0,0,0,0,.14,0.14,0.14,0,0,0,.06.08,0.25,0.25,0,0,0,.12,0h0.43v0.45h-0.39a1.82,1.82,0,0,1-.34,0,0.5,0.5,0,0,1-.23-0.1,0.43,0.43,0,0,1-.13-0.2,1.17,1.17,0,0,1,0-.35v-2H628v-0.45h0.53v-0.93H629v0.93h0.62Z"/><path class="cls-24" d="M594.59,319.53l1.5,2.32h0v-2.32h0.36v2.86H596l-1.49-2.29h0v2.29h-0.36v-2.86h0.4Z"/><path class="cls-24" d="M598.42,322.38v-0.33h0a0.69,0.69,0,0,1-.28.28,0.83,0.83,0,0,1-.4.09,0.94,0.94,0,0,1-.34-0.05,0.54,0.54,0,0,1-.22-0.15,0.57,0.57,0,0,1-.12-0.24,1.29,1.29,0,0,1,0-.31v-1.36h0.34v1.4a0.39,0.39,0,0,0,.42.42,0.7,0.7,0,0,0,.27,0,0.5,0.5,0,0,0,.19-0.14,0.59,0.59,0,0,0,.11-0.21,0.83,0.83,0,0,0,0-.26v-1.17h0.34v2.07h-0.32Z"/><path class="cls-24" d="M599.57,320.32v0.3h0a0.81,0.81,0,0,1,1-.27,0.45,0.45,0,0,1,.22.27,0.72,0.72,0,0,1,.27-0.26,0.77,0.77,0,0,1,.37-0.09,1.09,1.09,0,0,1,.28,0,0.59,0.59,0,0,1,.22.11,0.48,0.48,0,0,1,.14.19,0.68,0.68,0,0,1,0,.27v1.52h-0.34V321a1,1,0,0,0,0-.18,0.37,0.37,0,0,0-.06-0.15,0.3,0.3,0,0,0-.12-0.1,0.48,0.48,0,0,0-.2,0,0.54,0.54,0,0,0-.4.14,0.52,0.52,0,0,0-.14.38v1.29h-0.34V321a0.83,0.83,0,0,0,0-.18,0.39,0.39,0,0,0-.06-0.15,0.29,0.29,0,0,0-.12-0.1,0.46,0.46,0,0,0-.19,0,0.51,0.51,0,0,0-.25.06,0.58,0.58,0,0,0-.17.14,0.58,0.58,0,0,0-.1.17,0.51,0.51,0,0,0,0,.15v1.29h-0.34v-2.07h0.32Z"/><path class="cls-24" d="M603,319.53v1.07h0a0.51,0.51,0,0,1,.26-0.25,1,1,0,0,1,.4-0.08,0.94,0.94,0,0,1,.42.09,0.86,0.86,0,0,1,.3.24,1.06,1.06,0,0,1,.18.35,1.41,1.41,0,0,1,.06.42,1.45,1.45,0,0,1-.06.42,1,1,0,0,1-.18.34,0.84,0.84,0,0,1-.3.23,1,1,0,0,1-.41.08l-0.17,0-0.19-.05a0.71,0.71,0,0,1-.17-0.1,0.54,0.54,0,0,1-.14-0.15h0v0.28h-0.34v-2.86H603Zm1.22,1.52a0.77,0.77,0,0,0-.12-0.25,0.56,0.56,0,0,0-.2-0.17,0.61,0.61,0,0,0-.29-0.06,0.56,0.56,0,0,0-.49.25,0.74,0.74,0,0,0-.11.25,1.2,1.2,0,0,0,0,.58,0.74,0.74,0,0,0,.11.25,0.58,0.58,0,0,0,.2.17,0.63,0.63,0,0,0,.3.07,0.58,0.58,0,0,0,.29-0.07,0.55,0.55,0,0,0,.19-0.18,0.79,0.79,0,0,0,.1-0.26,1.35,1.35,0,0,0,0-.3A1.05,1.05,0,0,0,604.23,321Z"/><path class="cls-24" d="M606.5,322.25a0.94,0.94,0,0,1-.58.18,1.06,1.06,0,0,1-.43-0.08,0.84,0.84,0,0,1-.31-0.22,1,1,0,0,1-.19-0.34,1.69,1.69,0,0,1-.07-0.44,1.25,1.25,0,0,1,.07-0.43,1,1,0,0,1,.2-0.34,0.93,0.93,0,0,1,.31-0.22,1,1,0,0,1,.39-0.08,0.85,0.85,0,0,1,.46.11,0.91,0.91,0,0,1,.29.29,1.13,1.13,0,0,1,.15.38,1.61,1.61,0,0,1,0,.4h-1.55a0.8,0.8,0,0,0,0,.26,0.57,0.57,0,0,0,.12.22,0.56,0.56,0,0,0,.2.15,0.7,0.7,0,0,0,.29.06,0.59,0.59,0,0,0,.35-0.1,0.48,0.48,0,0,0,.18-0.3h0.34A0.82,0.82,0,0,1,606.5,322.25Zm-0.08-1.33a0.56,0.56,0,0,0-.12-0.19,0.59,0.59,0,0,0-.18-0.12,0.58,0.58,0,0,0-.23,0,0.59,0.59,0,0,0-.24,0,0.55,0.55,0,0,0-.18.13,0.6,0.6,0,0,0-.12.19,0.72,0.72,0,0,0-.05.23h1.19A0.69,0.69,0,0,0,606.41,320.92Z"/><path class="cls-24" d="M607.49,320.32v0.44h0a0.92,0.92,0,0,1,.3-0.37,0.77,0.77,0,0,1,.46-0.11v0.36a1,1,0,0,0-.35.06,0.55,0.55,0,0,0-.23.16,0.68,0.68,0,0,0-.13.26,1.43,1.43,0,0,0,0,.35v0.92h-0.34v-2.07h0.32Z"/><path class="cls-24" d="M608.77,321.92a0.37,0.37,0,0,0,.13.12,0.57,0.57,0,0,0,.18.07l0.2,0h0.17l0.16,0a0.3,0.3,0,0,0,.12-0.09,0.25,0.25,0,0,0,0-.16,0.23,0.23,0,0,0-.1-0.2,0.86,0.86,0,0,0-.25-0.11l-0.33-.08a1.72,1.72,0,0,1-.33-0.1,0.69,0.69,0,0,1-.25-0.17,0.45,0.45,0,0,1-.1-0.31,0.49,0.49,0,0,1,.07-0.27,0.57,0.57,0,0,1,.18-0.18,0.84,0.84,0,0,1,.25-0.1,1.15,1.15,0,0,1,.27,0,1.62,1.62,0,0,1,.32,0,0.76,0.76,0,0,1,.26.1,0.54,0.54,0,0,1,.18.2,0.76,0.76,0,0,1,.08.31h-0.34a0.35,0.35,0,0,0-.05-0.17,0.35,0.35,0,0,0-.11-0.11l-0.15-.06-0.17,0h-0.15l-0.14,0a0.28,0.28,0,0,0-.1.08,0.2,0.2,0,0,0,0,.13,0.19,0.19,0,0,0,.06.15,0.49,0.49,0,0,0,.16.1l0.22,0.06,0.24,0.05,0.25,0.07a0.82,0.82,0,0,1,.22.11,0.53,0.53,0,0,1,.15.17,0.49,0.49,0,0,1,.06.25,0.58,0.58,0,0,1-.08.31,0.61,0.61,0,0,1-.2.2,0.86,0.86,0,0,1-.28.11,1.69,1.69,0,0,1-.31,0,1.44,1.44,0,0,1-.33,0,0.8,0.8,0,0,1-.28-0.12,0.6,0.6,0,0,1-.19-0.22,0.74,0.74,0,0,1-.08-0.33h0.34A0.39,0.39,0,0,0,608.77,321.92Z"/><path class="cls-24" d="M611.61,320.39a1.39,1.39,0,0,1,.26-0.48,1.25,1.25,0,0,1,.43-0.33,1.49,1.49,0,0,1,1.19,0,1.25,1.25,0,0,1,.43.33,1.43,1.43,0,0,1,.26.48,1.88,1.88,0,0,1,0,1.12,1.43,1.43,0,0,1-.26.48,1.23,1.23,0,0,1-.43.33,1.52,1.52,0,0,1-1.19,0,1.23,1.23,0,0,1-.43-0.33,1.39,1.39,0,0,1-.26-0.48A1.88,1.88,0,0,1,611.61,320.39Zm0.35,1a1.15,1.15,0,0,0,.18.38,0.9,0.9,0,0,0,.31.27,1,1,0,0,0,.9,0,0.9,0.9,0,0,0,.31-0.27,1.15,1.15,0,0,0,.18-0.38,1.66,1.66,0,0,0,0-.85,1.15,1.15,0,0,0-.18-0.38,0.89,0.89,0,0,0-.31-0.27,1,1,0,0,0-.9,0,0.89,0.89,0,0,0-.31.27,1.15,1.15,0,0,0-.18.38A1.66,1.66,0,0,0,612,321.38Z"/><path class="cls-24" d="M615.23,322.38l-0.77-2.07h0.38l0.58,1.72h0l0.56-1.72h0.36l-0.76,2.07h-0.36Z"/><path class="cls-24" d="M618.13,322.25a0.94,0.94,0,0,1-.58.18,1.06,1.06,0,0,1-.43-0.08,0.84,0.84,0,0,1-.31-0.22,1,1,0,0,1-.19-0.34,1.69,1.69,0,0,1-.07-0.44,1.25,1.25,0,0,1,.07-0.43,1,1,0,0,1,.2-0.34,0.93,0.93,0,0,1,.31-0.22,1,1,0,0,1,.39-0.08,0.85,0.85,0,0,1,.46.11,0.91,0.91,0,0,1,.29.29,1.13,1.13,0,0,1,.15.38,1.61,1.61,0,0,1,0,.4h-1.55a0.8,0.8,0,0,0,0,.26,0.57,0.57,0,0,0,.12.22,0.56,0.56,0,0,0,.2.15,0.7,0.7,0,0,0,.29.06,0.59,0.59,0,0,0,.35-0.1,0.48,0.48,0,0,0,.18-0.3h0.34A0.82,0.82,0,0,1,618.13,322.25ZM618,320.92a0.56,0.56,0,0,0-.12-0.19,0.59,0.59,0,0,0-.18-0.12,0.58,0.58,0,0,0-.23,0,0.59,0.59,0,0,0-.24,0,0.55,0.55,0,0,0-.18.13,0.6,0.6,0,0,0-.12.19,0.72,0.72,0,0,0-.05.23h1.19A0.69,0.69,0,0,0,618,320.92Z"/><path class="cls-24" d="M619.12,320.32v0.44h0a0.92,0.92,0,0,1,.3-0.37,0.77,0.77,0,0,1,.46-0.11v0.36a1,1,0,0,0-.35.06,0.55,0.55,0,0,0-.23.16,0.68,0.68,0,0,0-.13.26,1.43,1.43,0,0,0,0,.35v0.92H618.8v-2.07h0.32Z"/><path class="cls-24" d="M621,319.85v-0.32h2.28v0.32h-1v2.54H622v-2.54h-1Z"/><path class="cls-24" d="M623.57,319.94v-0.42h0.34v0.42h-0.34Zm0.34,0.37v2.07h-0.34v-2.07h0.34Z"/><path class="cls-24" d="M624.76,320.32v0.3h0a0.81,0.81,0,0,1,1-.27,0.45,0.45,0,0,1,.22.27,0.72,0.72,0,0,1,.27-0.26,0.77,0.77,0,0,1,.37-0.09,1.09,1.09,0,0,1,.28,0,0.59,0.59,0,0,1,.22.11,0.48,0.48,0,0,1,.14.19,0.68,0.68,0,0,1,0,.27v1.52H627V321a1,1,0,0,0,0-.18,0.37,0.37,0,0,0-.06-0.15,0.3,0.3,0,0,0-.12-0.1,0.48,0.48,0,0,0-.2,0,0.54,0.54,0,0,0-.4.14,0.52,0.52,0,0,0-.14.38v1.29h-0.34V321a0.83,0.83,0,0,0,0-.18,0.39,0.39,0,0,0-.06-0.15,0.29,0.29,0,0,0-.12-0.1,0.46,0.46,0,0,0-.19,0,0.51,0.51,0,0,0-.25.06,0.58,0.58,0,0,0-.17.14,0.58,0.58,0,0,0-.1.17,0.51,0.51,0,0,0,0,.15v1.29h-0.34v-2.07h0.32Z"/><path class="cls-24" d="M629.32,322.25a0.94,0.94,0,0,1-.58.18,1.06,1.06,0,0,1-.43-0.08,0.84,0.84,0,0,1-.31-0.22,1,1,0,0,1-.19-0.34,1.69,1.69,0,0,1-.07-0.44,1.25,1.25,0,0,1,.07-0.43,1,1,0,0,1,.2-0.34,0.93,0.93,0,0,1,.31-0.22,1,1,0,0,1,.39-0.08,0.85,0.85,0,0,1,.46.11,0.91,0.91,0,0,1,.29.29,1.13,1.13,0,0,1,.15.38,1.61,1.61,0,0,1,0,.4H628.1a0.8,0.8,0,0,0,0,.26,0.57,0.57,0,0,0,.12.22,0.56,0.56,0,0,0,.2.15,0.7,0.7,0,0,0,.29.06,0.59,0.59,0,0,0,.35-0.1,0.48,0.48,0,0,0,.18-0.3h0.34A0.82,0.82,0,0,1,629.32,322.25Zm-0.08-1.33a0.56,0.56,0,0,0-.12-0.19,0.59,0.59,0,0,0-.18-0.12,0.58,0.58,0,0,0-.23,0,0.59,0.59,0,0,0-.24,0,0.55,0.55,0,0,0-.18.13,0.6,0.6,0,0,0-.12.19,0.72,0.72,0,0,0-.05.23h1.19A0.69,0.69,0,0,0,629.23,320.92Z"/><path class="cls-25" d="M603.45,185.53a1,1,0,0,0-.63,0,1.43,1.43,0,0,0-.27.11,0.78,0.78,0,0,0-.22.17,0.52,0.52,0,0,0-.12.23,0.58,0.58,0,0,0,0,.3,0.37,0.37,0,0,0,.17.23,0.73,0.73,0,0,0,.3.09,2.09,2.09,0,0,0,.38,0l0.43,0h0.43a1.35,1.35,0,0,1,.4.07,0.87,0.87,0,0,1,.33.2,1,1,0,0,1,.24.9,1.05,1.05,0,0,1-.22.41,1.44,1.44,0,0,1-.37.31,2.19,2.19,0,0,1-.46.2,2.08,2.08,0,0,1-.57.09,1.39,1.39,0,0,1-.52-0.08,1.08,1.08,0,0,1-.42-0.28,1.27,1.27,0,0,1-.28-0.5l0.43-.13a0.78,0.78,0,0,0,.49.54,1,1,0,0,0,.36.05,1.55,1.55,0,0,0,.39-0.06,1.82,1.82,0,0,0,.3-0.12,1,1,0,0,0,.25-0.18,0.59,0.59,0,0,0,.14-0.25,0.58,0.58,0,0,0,0-.33,0.45,0.45,0,0,0-.18-0.26,0.71,0.71,0,0,0-.3-0.1,1.93,1.93,0,0,0-.39,0l-0.43,0-0.43,0a1.53,1.53,0,0,1-.4-0.05,0.74,0.74,0,0,1-.54-0.54,1,1,0,0,1,0-.48,1,1,0,0,1,.19-0.4,1.31,1.31,0,0,1,.34-0.3,1.82,1.82,0,0,1,.44-0.2,1.92,1.92,0,0,1,.51-0.08,1.17,1.17,0,0,1,.46.08,1,1,0,0,1,.37.26,1.29,1.29,0,0,1,.25.45l-0.43.13A0.74,0.74,0,0,0,603.45,185.53Z"/><path class="cls-25" d="M606,185.29l0.11,0.36-0.49.15,0.46,1.54a0.44,0.44,0,0,0,0,.11,0.11,0.11,0,0,0,.06.05h0.1l0.16,0,0.19-.06,0.11,0.36-0.31.09-0.28.06a0.41,0.41,0,0,1-.21,0,0.35,0.35,0,0,1-.15-0.13,1,1,0,0,1-.12-0.27l-0.47-1.58-0.42.13-0.11-.36,0.42-.13-0.22-.74,0.41-.12,0.22,0.74Z"/><path class="cls-25" d="M608.83,187.13l-0.12-.39h0a0.85,0.85,0,0,1-.23.44,1,1,0,0,1-.44.25,1.15,1.15,0,0,1-.43.06,0.67,0.67,0,0,1-.32-0.1,0.72,0.72,0,0,1-.23-0.24,1.64,1.64,0,0,1-.15-0.35l-0.49-1.63,0.41-.12,0.5,1.68a0.51,0.51,0,0,0,.24.32,0.52,0.52,0,0,0,.41,0,0.87,0.87,0,0,0,.31-0.15,0.64,0.64,0,0,0,.18-0.23,0.72,0.72,0,0,0,.06-0.29,1.06,1.06,0,0,0,0-.32l-0.42-1.4,0.41-.12,0.74,2.48Z"/><path class="cls-25" d="M608.94,184.79l-0.11-.36,0.42-.12-0.11-.37a0.6,0.6,0,0,1,0-.51,0.78,0.78,0,0,1,.46-0.31l0.13,0h0.14l0.11,0.35H609.9l-0.12,0a0.41,0.41,0,0,0-.21.13,0.26,0.26,0,0,0,0,.25l0.1,0.34,0.48-.14,0.11,0.36-0.48.14,0.64,2.12-0.41.12-0.64-2.12Z"/><path class="cls-25" d="M610.27,184.39l-0.11-.36,0.42-.12-0.11-.37a0.6,0.6,0,0,1,0-.51,0.77,0.77,0,0,1,.46-0.31l0.13,0h0.14l0.11,0.35h-0.12l-0.12,0a0.42,0.42,0,0,0-.21.13,0.26,0.26,0,0,0,0,.25l0.1,0.34,0.48-.14,0.11,0.36-0.48.14,0.64,2.12-0.41.12-0.64-2.12Z"/><path class="cls-25" d="M607.45,193.8a0.62,0.62,0,0,1-.27.15,0.36,0.36,0,0,1-.28,0,0.4,0.4,0,0,1-.18-0.26,1,1,0,0,1-.3.41,1.34,1.34,0,0,1-.45.23,1.38,1.38,0,0,1-.33.06,0.79,0.79,0,0,1-.3,0,0.61,0.61,0,0,1-.24-0.16,0.75,0.75,0,0,1-.16-0.3,0.77,0.77,0,0,1,0-.37,0.66,0.66,0,0,1,.12-0.27,0.89,0.89,0,0,1,.23-0.21l0.29-.17,0.3-.15,0.25-.13a0.46,0.46,0,0,0,.16-0.15,0.24,0.24,0,0,0,0-.19,0.42,0.42,0,0,0-.12-0.2A0.34,0.34,0,0,0,606,192a0.56,0.56,0,0,0-.19,0l-0.2,0a0.89,0.89,0,0,0-.4.23,0.43,0.43,0,0,0-.08.43l-0.41.12a0.92,0.92,0,0,1,0-.42,0.76,0.76,0,0,1,.15-0.33,1,1,0,0,1,.29-0.24,1.83,1.83,0,0,1,.38-0.16l0.34-.08a0.92,0.92,0,0,1,.33,0,0.6,0.6,0,0,1,.28.14,0.7,0.7,0,0,1,.19.32L607,193.3a1,1,0,0,0,.08.21,0.1,0.1,0,0,0,.13,0l0.12-.06Zm-1-1.07a0.54,0.54,0,0,1-.18.14L606,193l-0.26.12a1.06,1.06,0,0,0-.23.14,0.49,0.49,0,0,0-.14.19,0.4,0.4,0,0,0,0,.26,0.33,0.33,0,0,0,.09.16,0.35,0.35,0,0,0,.14.08,0.47,0.47,0,0,0,.17,0l0.19,0a1,1,0,0,0,.33-0.16,0.79,0.79,0,0,0,.19-0.21,0.59,0.59,0,0,0,.08-0.22,0.48,0.48,0,0,0,0-.2Z"/><path class="cls-25" d="M607.47,191.1l0.12,0.39h0a0.89,0.89,0,0,1,.67-0.69,1.11,1.11,0,0,1,.43-0.05,0.69,0.69,0,0,1,.32.11,0.74,0.74,0,0,1,.23.24,1.69,1.69,0,0,1,.15.35l0.49,1.63-0.41.12-0.5-1.68a0.51,0.51,0,0,0-.24-0.32,0.52,0.52,0,0,0-.41,0,0.86,0.86,0,0,0-.31.15,0.64,0.64,0,0,0-.18.23,0.74,0.74,0,0,0-.06.29,1,1,0,0,0,0,.32l0.42,1.4-0.41.12-0.74-2.48Z"/><path class="cls-25" d="M612.29,192.35l-0.1-.34h0a0.62,0.62,0,0,1-.23.39,1.26,1.26,0,0,1-.45.23,1.18,1.18,0,0,1-.53,0,1.06,1.06,0,0,1-.44-0.18,1.26,1.26,0,0,1-.34-0.35,1.76,1.76,0,0,1-.22-0.48,1.8,1.8,0,0,1-.08-0.52,1.21,1.21,0,0,1,.09-0.47,1.07,1.07,0,0,1,.27-0.38,1.17,1.17,0,0,1,.46-0.25l0.21,0h0.24a0.94,0.94,0,0,1,.24.06,0.7,0.7,0,0,1,.22.13h0l-0.38-1.27,0.41-.12,1,3.42Zm-1.73-.44a1,1,0,0,0,.23.25,0.72,0.72,0,0,0,.3.13,0.77,0.77,0,0,0,.37,0,0.73,0.73,0,0,0,.33-0.19,0.75,0.75,0,0,0,.17-0.28,1,1,0,0,0,0-.34,1.54,1.54,0,0,0-.21-0.69,0.89,0.89,0,0,0-.23-0.26,0.74,0.74,0,0,0-.3-0.14,0.8,0.8,0,0,0-.38,0,0.73,0.73,0,0,0-.33.19,0.69,0.69,0,0,0-.17.29,1,1,0,0,0,0,.34,1.77,1.77,0,0,0,.07.37A1.28,1.28,0,0,0,610.57,191.91Z"/><path class="cls-25" d="M601.92,198.43L601.8,198l2.73-.82,0.11,0.38-1.14.34,0.91,3-0.45.14-0.91-3Z"/><path class="cls-25" d="M605.25,197l0.39,1.31h0a0.58,0.58,0,0,1,.08-0.24,0.81,0.81,0,0,1,.16-0.19,1,1,0,0,1,.2-0.14l0.22-.09a1.14,1.14,0,0,1,.43-0.06,0.69,0.69,0,0,1,.32.11,0.74,0.74,0,0,1,.23.24,1.69,1.69,0,0,1,.15.35l0.49,1.63-0.41.12-0.5-1.68a0.51,0.51,0,0,0-.24-0.32,0.52,0.52,0,0,0-.41,0,0.85,0.85,0,0,0-.31.15,0.63,0.63,0,0,0-.18.23,0.72,0.72,0,0,0-.06.29,1,1,0,0,0,0,.32l0.42,1.4-0.41.12-1-3.42Z"/><path class="cls-25" d="M610.73,199.08a0.62,0.62,0,0,1-.27.15,0.37,0.37,0,0,1-.28,0A0.4,0.4,0,0,1,610,199a1,1,0,0,1-.3.41,1.34,1.34,0,0,1-.45.23,1.37,1.37,0,0,1-.33.06,0.79,0.79,0,0,1-.3,0,0.61,0.61,0,0,1-.24-0.16,0.76,0.76,0,0,1-.16-0.3,0.78,0.78,0,0,1,0-.37,0.67,0.67,0,0,1,.12-0.28,0.91,0.91,0,0,1,.23-0.21l0.29-.17,0.3-.15,0.25-.13a0.47,0.47,0,0,0,.16-0.15,0.23,0.23,0,0,0,0-.19,0.42,0.42,0,0,0-.12-0.2,0.35,0.35,0,0,0-.17-0.09,0.54,0.54,0,0,0-.19,0l-0.2,0a0.9,0.9,0,0,0-.4.23,0.44,0.44,0,0,0-.08.43l-0.41.12a0.93,0.93,0,0,1,0-.42,0.75,0.75,0,0,1,.15-0.33,1,1,0,0,1,.29-0.24,1.85,1.85,0,0,1,.38-0.16l0.34-.08a0.9,0.9,0,0,1,.33,0,0.6,0.6,0,0,1,.28.14,0.71,0.71,0,0,1,.19.33l0.38,1.27a1,1,0,0,0,.08.21,0.1,0.1,0,0,0,.13,0l0.12-.06Zm-1-1.07a0.52,0.52,0,0,1-.18.14l-0.25.12-0.26.12a1.09,1.09,0,0,0-.23.14,0.47,0.47,0,0,0-.14.19,0.4,0.4,0,0,0,0,.26,0.35,0.35,0,0,0,.09.16,0.36,0.36,0,0,0,.14.08,0.46,0.46,0,0,0,.17,0l0.19,0a1,1,0,0,0,.33-0.16,0.75,0.75,0,0,0,.19-0.21,0.57,0.57,0,0,0,.08-0.22,0.46,0.46,0,0,0,0-.2Z"/><path class="cls-25" d="M610.75,196.38l0.12,0.39h0a0.89,0.89,0,0,1,.67-0.69A1.13,1.13,0,0,1,612,196a0.69,0.69,0,0,1,.32.11,0.75,0.75,0,0,1,.23.24,1.64,1.64,0,0,1,.15.35l0.49,1.63-0.41.12-0.5-1.68a0.51,0.51,0,0,0-.24-0.32,0.52,0.52,0,0,0-.41,0,0.87,0.87,0,0,0-.31.15,0.62,0.62,0,0,0-.18.23,0.72,0.72,0,0,0-.06.29,1,1,0,0,0,0,.32l0.42,1.4-0.41.12-0.74-2.48Z"/><path class="cls-25" d="M615.84,198.31a1.18,1.18,0,0,1-.78.56,1.8,1.8,0,0,1-.36.07,1.11,1.11,0,0,1-.36,0,0.81,0.81,0,0,1-.31-0.15,0.68,0.68,0,0,1-.21-0.31l0.41-.12a0.31,0.31,0,0,0,.13.17,0.54,0.54,0,0,0,.2.08,0.78,0.78,0,0,0,.22,0l0.22,0a0.8,0.8,0,0,0,.32-0.17,0.68,0.68,0,0,0,.17-0.26,0.82,0.82,0,0,0,0-.33,1.71,1.71,0,0,0-.07-0.39l0-.16h0a0.71,0.71,0,0,1-.22.43,1,1,0,0,1-.42.24,1.13,1.13,0,0,1-.51,0,1,1,0,0,1-.43-0.17,1.2,1.2,0,0,1-.33-0.33,1.67,1.67,0,0,1-.21-0.46,2,2,0,0,1-.08-0.47,1.28,1.28,0,0,1,.07-0.48,1.09,1.09,0,0,1,.26-0.42,1.15,1.15,0,0,1,.5-0.29,0.94,0.94,0,0,1,.46,0,0.74,0.74,0,0,1,.4.22h0l-0.11-.35,0.38-.11,0.68,2.26A1.37,1.37,0,0,1,615.84,198.31Zm-0.85-1a0.69,0.69,0,0,0,.16-0.29,1.09,1.09,0,0,0,0-.35,1.56,1.56,0,0,0-.06-0.36,1.45,1.45,0,0,0-.13-0.31,0.93,0.93,0,0,0-.21-0.25,0.67,0.67,0,0,0-.28-0.14,0.68,0.68,0,0,0-.35,0,0.73,0.73,0,0,0-.31.17,0.68,0.68,0,0,0-.17.27,0.88,0.88,0,0,0,0,.33,1.44,1.44,0,0,0,.06.35,1.74,1.74,0,0,0,.13.33,1,1,0,0,0,.21.27,0.67,0.67,0,0,0,.28.16,0.65,0.65,0,0,0,.36,0A0.68,0.68,0,0,0,615,197.36Z"/><path class="cls-25" d="M616.66,196.7a0.44,0.44,0,0,0,.2.1,0.69,0.69,0,0,0,.23,0l0.25,0,0.2-.07a0.77,0.77,0,0,0,.18-0.11,0.37,0.37,0,0,0,.11-0.16,0.32,0.32,0,0,0,0-.21,0.29,0.29,0,0,0-.19-0.2,1.06,1.06,0,0,0-.34,0l-0.42,0a2.13,2.13,0,0,1-.42,0,0.85,0.85,0,0,1-.36-0.12,0.56,0.56,0,0,1-.23-0.34,0.61,0.61,0,0,1,0-.35,0.71,0.71,0,0,1,.15-0.28,1,1,0,0,1,.26-0.21,1.46,1.46,0,0,1,.32-0.14,2,2,0,0,1,.4-0.08,1,1,0,0,1,.35,0,0.66,0.66,0,0,1,.29.17,1,1,0,0,1,.21.35l-0.41.12a0.42,0.42,0,0,0-.12-0.18,0.43,0.43,0,0,0-.17-0.09,0.65,0.65,0,0,0-.2,0l-0.21,0-0.18.07a0.68,0.68,0,0,0-.16.1,0.38,0.38,0,0,0-.1.13,0.26,0.26,0,0,0,0,.17,0.24,0.24,0,0,0,.13.15,0.64,0.64,0,0,0,.22.06h0.28l0.31,0h0.32a1,1,0,0,1,.3,0,0.63,0.63,0,0,1,.24.14,0.59,0.59,0,0,1,.16.28,0.73,0.73,0,0,1,0,.4,0.76,0.76,0,0,1-.17.31,1,1,0,0,1-.3.23,2.05,2.05,0,0,1-.37.15,1.79,1.79,0,0,1-.41.07,1,1,0,0,1-.37,0,0.73,0.73,0,0,1-.31-0.19,0.93,0.93,0,0,1-.21-0.36l0.41-.12A0.48,0.48,0,0,0,616.66,196.7Z"/><path class="cls-26" d="M676,202a0.88,0.88,0,0,0-.51.52,0.57,0.57,0,0,0,.41.76c0.74,0.28,1.15-.75,1.54-1.43s0.93-1.77,1.52-1.88c-0.32,0-.7-0.14-1.06-0.22-0.86-.18-1.63-0.31-1.87.35a0.73,0.73,0,0,0,.51,1,1,1,0,0,0,.41.06v0.06a0.7,0.7,0,0,1-.66.09,0.88,0.88,0,0,1-.53-1.13c0.48-1.29,2.49-.66,3.5-0.34a0.25,0.25,0,0,1,.25-0.07,0.18,0.18,0,0,1,.08.17,1,1,0,0,1-.47.06,15.08,15.08,0,0,0-1.26,2c-0.49.82-1.36,1.73-2.13,1.44a0.79,0.79,0,0,1-.55-1A0.81,0.81,0,0,1,676,202Z"/><path class="cls-26" d="M682.1,204.19a1.85,1.85,0,0,1-1.86,1,0.77,0.77,0,0,1-.32-1.13c0.22-.59.84-1.48,1-1.79a1,1,0,0,1,.44,0c-0.16.44-.8,1.29-1,1.9a0.56,0.56,0,0,0,.22.82,1.59,1.59,0,0,0,1.42-.9Zm-0.76-3.12a0.34,0.34,0,1,1,.2.43A0.35,0.35,0,0,1,681.34,201.08Z"/><path class="cls-26" d="M685.23,205.36a1.84,1.84,0,0,1-1.86,1c-0.39-.15-0.42-0.53-0.25-1s0.5-.8.63-1.17,0.18-.64-0.1-0.75c-0.58-.21-1.32.69-1.68,1.34a6.94,6.94,0,0,0-.35.71,0.59,0.59,0,0,1-.43,0c0.16-.42.91-1.65,1.42-2.65a0.51,0.51,0,0,1,.4.11l-0.39.67a1.23,1.23,0,0,1,1.25-.4c0.44,0.16.48,0.53,0.3,1s-0.52.86-.66,1.25-0.13.56,0.13,0.66a1.59,1.59,0,0,0,1.42-.9Z"/><path class="cls-26" d="M686.73,204.48a0.64,0.64,0,0,1,.49,0,0.68,0.68,0,0,1,.31,1c-0.33.89-1.38,1.94-2.44,1.55a0.78,0.78,0,0,1-.34-1.14c0.24-.63.77-1.28,1-1.78a1,1,0,0,1,.44,0c-0.23.62-.79,1.23-1,1.89a0.56,0.56,0,0,0,.22.82,1.58,1.58,0,0,0,1.79-1.11,0.77,0.77,0,0,0-.41-1.14v-0.05Z"/><path class="cls-26" d="M690.57,207.36a2.09,2.09,0,0,1-2.32.8,1.09,1.09,0,0,1-.58-1.52c0.25-.67,1.14-1.62,2-1.28a0.62,0.62,0,0,1,.46.82c-0.2.53-1,.73-2,0.4,0,0.06-.05.13-0.08,0.19a0.83,0.83,0,0,0,.44,1.2,1.72,1.72,0,0,0,1.89-.73ZM689.83,206a0.31,0.31,0,0,0-.18-0.46,1.29,1.29,0,0,0-1.41.84C689.16,206.68,689.66,206.46,689.83,206Z"/><path class="cls-26" d="M693.71,208.51a1.84,1.84,0,0,1-1.86,1c-0.39-.15-0.42-0.53-0.25-1s0.5-.8.63-1.17,0.18-.64-0.1-0.75c-0.58-.22-1.32.69-1.68,1.34a7.19,7.19,0,0,0-.35.71,0.59,0.59,0,0,1-.43,0c0.16-.42.91-1.65,1.42-2.65a0.5,0.5,0,0,1,.4.11l-0.39.68a1.23,1.23,0,0,1,1.25-.4c0.44,0.16.48,0.53,0.3,1s-0.52.86-.66,1.25-0.13.56,0.13,0.66a1.59,1.59,0,0,0,1.42-.9Z"/><path class="cls-26" d="M695.41,209.14a1.85,1.85,0,0,1-1.86,1,0.77,0.77,0,0,1-.32-1.13,15.31,15.31,0,0,1,.91-1.68l-0.39-.18a0.22,0.22,0,0,1,.09-0.18,3.55,3.55,0,0,0,.41.17,6.73,6.73,0,0,0,.43-0.84,0.69,0.69,0,0,1,.44,0,8,8,0,0,1-.5,1,7.46,7.46,0,0,0,.79.19,0.29,0.29,0,0,1-.12.26c-0.27-.07-0.53-0.14-0.8-0.23a15.81,15.81,0,0,0-.9,1.65c-0.14.38-.12,0.7,0.22,0.82a1.59,1.59,0,0,0,1.42-.9Z"/><path class="cls-26" d="M697.93,210.1a2.09,2.09,0,0,1-2.32.8,1.09,1.09,0,0,1-.58-1.52c0.25-.67,1.14-1.62,2-1.28a0.62,0.62,0,0,1,.46.82c-0.2.53-1,.73-2,0.4l-0.08.19a0.84,0.84,0,0,0,.44,1.2,1.72,1.72,0,0,0,1.89-.73Zm-0.75-1.34a0.32,0.32,0,0,0-.18-0.46,1.29,1.29,0,0,0-1.41.84C696.51,209.42,697,209.2,697.18,208.76Z"/><path class="cls-26" d="M701.4,211.38a1.85,1.85,0,0,1-1.86,1,0.76,0.76,0,0,1-.35-1.1,1.27,1.27,0,0,1-1.31.49,1,1,0,0,1-.34-1.43,1.81,1.81,0,0,1,2.09-1.24,1.62,1.62,0,0,1,.55.33,12.47,12.47,0,0,0,.72-1.36,0.79,0.79,0,0,1,.44,0c-0.25.68-1.5,2.63-1.75,3.3a0.56,0.56,0,0,0,.22.82,1.59,1.59,0,0,0,1.42-.9Zm-1.35-1.74a1,1,0,0,0-.47-0.36,1.47,1.47,0,0,0-1.62,1.16c-0.18.49-.18,1,0.2,1.11s1.1-.55,1.48-1.18C699.76,210.14,699.91,209.89,700.05,209.64Z"/><path class="cls-26" d="M677.88,210.22c1.26,0.4,2-.09,2.2-0.68A1.42,1.42,0,0,0,679,207.7c-1.2-.45-2.32-0.23-2.61.55a0.63,0.63,0,0,0,.45.88,0.92,0.92,0,0,0,.38.06,0.1,0.1,0,0,1,0,.07,0.71,0.71,0,0,1-.64.08,0.8,0.8,0,0,1-.48-1.07c0.4-1.08,1.94-1.19,3-.79,0.89,0.33,1.74,1.13,1.37,2.12s-1.55,1.21-2.68.79A0.19,0.19,0,0,1,677.88,210.22Zm-1.48,1.16a17,17,0,0,0,1.1-1.81c0.38-.67.78-1.54,1.37-1.49v0a10.16,10.16,0,0,0-1,1.63c-0.47.82-1,1.88-1.48,1.68v0Z"/><path class="cls-26" d="M683.94,211.49a32,32,0,0,1-3.28,1.51,1.2,1.2,0,0,1-.55-1.64,1.69,1.69,0,0,1,1.63-1.18v0.07a1.88,1.88,0,0,0-1.23,1.2,0.93,0.93,0,0,0,.38,1.35,1,1,0,0,0,1.21-.62,1.2,1.2,0,0,1-.54-1.51,0.59,0.59,0,0,1,.81-0.38,1,1,0,0,1,.32,1.37,3.32,3.32,0,0,1-.2.42,1.19,1.19,0,0,0,1.29-.7Zm-1.62.26a1.15,1.15,0,0,0-.11-1.22c-0.18-.07-0.31,0-0.41.28a0.92,0.92,0,0,0,.43,1.15Z"/><path class="cls-26" d="M683.21,212.79a1.11,1.11,0,0,0-.21.37,0.51,0.51,0,0,0,.38.66,0.53,0.53,0,0,0,.74-0.28c0.2-.53-0.66-1.4-0.44-2a0.91,0.91,0,0,1,1.14-.33,0.47,0.47,0,0,1,.31.67,0.05,0.05,0,0,1-.06,0,0.82,0.82,0,0,0-.46-0.52c-0.33-.12-0.53,0-0.6.14-0.15.4,0.73,1.46,0.48,2.12a1,1,0,0,1-1.2.35,0.74,0.74,0,0,1-.61-0.87,0.55,0.55,0,0,1,.5-0.36A0.05,0.05,0,0,1,683.21,212.79Z"/><path class="cls-26" d="M687.3,213.79a1.85,1.85,0,0,1-1.86,1,0.77,0.77,0,0,1-.32-1.13A15.31,15.31,0,0,1,686,212l-0.39-.18a0.22,0.22,0,0,1,.09-0.18,3.7,3.7,0,0,0,.41.17,6.69,6.69,0,0,0,.43-0.84,0.69,0.69,0,0,1,.44,0,7.87,7.87,0,0,1-.5,1,7.39,7.39,0,0,0,.79.19,0.29,0.29,0,0,1-.12.26c-0.27-.07-0.53-0.14-0.8-0.23a15.48,15.48,0,0,0-.9,1.65c-0.14.38-.12,0.7,0.22,0.82a1.59,1.59,0,0,0,1.42-.9Z"/><path class="cls-26" d="M689.43,214.69a0.88,0.88,0,0,0-.51.52,0.58,0.58,0,0,0,.41.76c0.74,0.27,1.15-.75,1.54-1.43s0.93-1.77,1.52-1.88c-0.32,0-.7-0.14-1.06-0.22-0.86-.18-1.63-0.31-1.87.35a0.73,0.73,0,0,0,.51,1,1,1,0,0,0,.41.06v0.06a0.7,0.7,0,0,1-.66.09,0.88,0.88,0,0,1-.53-1.13c0.48-1.29,2.49-.66,3.5-0.34a0.25,0.25,0,0,1,.25-0.06,0.18,0.18,0,0,1,.08.17,1,1,0,0,1-.47.06,15.16,15.16,0,0,0-1.26,2c-0.48.82-1.36,1.73-2.13,1.44a0.79,0.79,0,0,1-.55-1,0.81,0.81,0,0,1,.8-0.53Z"/><path class="cls-26" d="M693.91,216.25a1.85,1.85,0,0,1-1.86,1,0.77,0.77,0,0,1-.32-1.13,15.35,15.35,0,0,1,.91-1.68l-0.39-.18a0.22,0.22,0,0,1,.09-0.18,3.78,3.78,0,0,0,.41.17,6.57,6.57,0,0,0,.43-0.84,0.69,0.69,0,0,1,.44,0,8,8,0,0,1-.5,1,7.33,7.33,0,0,0,.79.19,0.3,0.3,0,0,1-.12.26c-0.27-.07-0.53-0.14-0.8-0.23a15.75,15.75,0,0,0-.9,1.65c-0.14.38-.12,0.7,0.22,0.82a1.59,1.59,0,0,0,1.42-.9Z"/><path class="cls-26" d="M693.57,216.65a1.12,1.12,0,0,0-.21.37,0.51,0.51,0,0,0,.38.66,0.53,0.53,0,0,0,.74-0.28c0.2-.53-0.66-1.4-0.44-2a0.91,0.91,0,0,1,1.14-.33,0.47,0.47,0,0,1,.31.67,0.05,0.05,0,0,1-.06,0,0.82,0.82,0,0,0-.46-0.52c-0.33-.12-0.53,0-0.6.14-0.15.4,0.73,1.46,0.48,2.12a1,1,0,0,1-1.2.34,0.74,0.74,0,0,1-.61-0.87,0.55,0.55,0,0,1,.5-0.36A0.05,0.05,0,0,1,693.57,216.65Z"/></g><g id="Desk"><rect class="cls-27" x="299.71" y="625.48" width="27.56" height="200.51" rx="12" ry="12" transform="translate(-220.97 143.22) rotate(-19.17)"/><rect class="cls-27" x="664.69" y="625.48" width="27.56" height="200.51" rx="12" ry="12" transform="translate(1080.95 1634.05) rotate(-160.83)"/><rect class="cls-28" x="185.6" y="616.71" width="36.04" height="333.81" rx="10.9" ry="10.9" transform="translate(329.97 -16.1) rotate(23.54)"/><rect class="cls-28" x="774.74" y="615.98" width="39.66" height="333.81" rx="10.9" ry="10.9" transform="translate(1835.72 1183.21) rotate(156.46)"/><rect class="cls-29" x="130.82" y="622.55" width="712.38" height="22.05" rx="11.02" ry="11.02"/><rect class="cls-30" x="113.99" y="599.97" width="750.6" height="26.9" rx="12" ry="12"/></g><g id="Lamp"><path class="cls-31" d="M709.71,443.91s69.67-37,68.67,37C778.38,480.88,738,474.94,709.71,443.91Z"/><circle class="cls-31" cx="768.38" cy="436.65" r="8"/><path class="cls-31" d="M862.28,494.88l-85.9-58.24-8,8,83,55.52-51.78,74.2,12.71,2,50-69.87S876.18,497.88,862.28,494.88Z"/><path class="cls-31" d="M764.38,600s11.44-26.12,35.22-25.6S834.38,600,834.38,600h-70Z"/></g><g id="Shelf"><rect class="cls-32" x="151.44" y="231.77" width="234.8" height="16.45" rx="8.22" ry="8.22"/><g id="Layer_15" data-name="Layer 15"><rect class="cls-33" x="163.86" y="168.14" width="21.92" height="64.98"/><path class="cls-4" d="M175.38,175.85v2.66q-0.94.22-1.88,0.48t-1.94.5a5.8,5.8,0,0,0-1,.28s0.63,0.19,1.9.51,2.24,0.54,2.92.67v2.56a0.86,0.86,0,0,1-.36.08,0.35,0.35,0,0,1-.24-0.06,0.27,0.27,0,0,1-.07-0.2V183q-0.83,0-2.76.09t-2.56.14v0.46a0.84,0.84,0,0,1-.36.08,0.35,0.35,0,0,1-.24-0.06,0.27,0.27,0,0,1-.07-0.21v-2.23a1.15,1.15,0,0,1,.42-0.08,0.24,0.24,0,0,1,.19.07,0.32,0.32,0,0,1,.06.21v0.18q0.94,0,4.58-.09-1.61-.38-2.79-0.73a8.75,8.75,0,0,1-1.51-.54,0.73,0.73,0,0,1-.32-0.69,3.08,3.08,0,0,1,.05-0.83,5.81,5.81,0,0,1,1.2-.46q1.15-.38,3.41-1-3.69,0-4.63,0v0.38a0.84,0.84,0,0,1-.36.08,0.35,0.35,0,0,1-.24-0.06,0.27,0.27,0,0,1-.07-0.21v-2a1.09,1.09,0,0,1,.42-0.09,0.24,0.24,0,0,1,.19.07,0.33,0.33,0,0,1,.06.21V176q0.62,0,2.56.14t2.76,0.09v-0.55a1.14,1.14,0,0,1,.41-0.08,0.24,0.24,0,0,1,.2.07A0.33,0.33,0,0,1,175.38,175.85Z"/><path class="cls-4" d="M174.71,190.37q-1-.55-3.86-2-0.84,0-1.47,0v0.79a0.84,0.84,0,0,1-.36.08,0.35,0.35,0,0,1-.24-0.06,0.26,0.26,0,0,1-.07-0.2V186a1.15,1.15,0,0,1,.42-0.08,0.24,0.24,0,0,1,.19.07,0.32,0.32,0,0,1,.06.21v0.55q0.62,0,1.34,0,3-1.56,4-2.13v-0.42a1.14,1.14,0,0,1,.41-0.08,0.24,0.24,0,0,1,.2.07,0.33,0.33,0,0,1,.06.21v2.43a0.86,0.86,0,0,1-.36.08,0.35,0.35,0,0,1-.24-0.06,0.28,0.28,0,0,1-.07-0.21V186.5q-0.57.2-1.77,0.71a5.55,5.55,0,0,0-1.2.57,4.89,4.89,0,0,0,1.15.5q1.15,0.43,1.82.62v-0.45a1.14,1.14,0,0,1,.41-0.08,0.25,0.25,0,0,1,.2.07,0.32,0.32,0,0,1,.06.21v2.14a0.86,0.86,0,0,1-.36.08,0.35,0.35,0,0,1-.24-0.06,0.27,0.27,0,0,1-.07-0.2v-0.23Z"/><path class="cls-4" d="M175.48,194.16a6,6,0,0,1-.15,1.66,0.56,0.56,0,0,1-.57.41,1,1,0,0,1-.73-0.3,4.91,4.91,0,0,0,.51-2,1.17,1.17,0,0,0-.19-0.77,0.7,0.7,0,0,0-.55-0.21,0.76,0.76,0,0,0-.64.27,3.62,3.62,0,0,0-.45,1.08,4.66,4.66,0,0,1-.68,1.58,1.61,1.61,0,0,1-1.34.58,1.75,1.75,0,0,1-1.56-.76,4,4,0,0,1-.51-2.21,5.66,5.66,0,0,1,.16-1.56,0.62,0.62,0,0,1,.62-0.5,1,1,0,0,1,.73.34,4.67,4.67,0,0,0-.57,2.09,1.71,1.71,0,0,0,.17.89,0.62,0.62,0,0,0,.56.25,0.8,0.8,0,0,0,.71-0.4,5.21,5.21,0,0,0,.51-1.3,2.87,2.87,0,0,1,.72-1.39,1.67,1.67,0,0,1,1.18-.42,1.83,1.83,0,0,1,1.53.7A3,3,0,0,1,175.48,194.16Z"/><path class="cls-4" d="M168.07,200q0,0.44-.1,1.43t-0.1,1.5a2.62,2.62,0,0,0,.1.77,1.25,1.25,0,0,1-.58.14,0.58,0.58,0,0,1-.49-0.18,1,1,0,0,1-.13-0.55,9.35,9.35,0,0,1,.21-1.68,9.29,9.29,0,0,0,.21-1.63,2.68,2.68,0,0,0-.14-0.89,1.21,1.21,0,0,1,.55-0.14,0.4,0.4,0,0,1,.28.08,0.67,0.67,0,0,1,.12.32A4.85,4.85,0,0,1,168.07,200Zm3.62-2.44a4,4,0,0,1,2.87.89,3.77,3.77,0,0,1,.25,4.61,3.28,3.28,0,0,1-2.5.75,4,4,0,0,1-2.87-.89,3.26,3.26,0,0,1-.92-2.46,3.12,3.12,0,0,1,.67-2.15A3.29,3.29,0,0,1,171.69,197.56Zm0.47,1.68a4,4,0,0,0-2.16.4,1.29,1.29,0,0,0-.54,1.1,1.15,1.15,0,0,0,.53,1.06,3.8,3.8,0,0,0,1.85.32,4,4,0,0,0,2.18-.39,1.3,1.3,0,0,0,.52-1.11,1.15,1.15,0,0,0-.53-1.06A3.8,3.8,0,0,0,172.16,199.24Z"/><path class="cls-4" d="M169.53,207v0.12a7.14,7.14,0,0,0,.39,2.6,1.24,1.24,0,0,1-.7.21,0.41,0.41,0,0,1-.39-0.2,1.84,1.84,0,0,1-.12-0.81v-4a1.09,1.09,0,0,1,.42-0.09,0.24,0.24,0,0,1,.19.07,0.33,0.33,0,0,1,.06.21v0.36q0.63,0,3.28,0,1.43,0,2.06,0v-0.55a1.08,1.08,0,0,1,.41-0.09,0.24,0.24,0,0,1,.2.07,0.33,0.33,0,0,1,.06.21v2.57a0.86,0.86,0,0,1-.36.08,0.35,0.35,0,0,1-.24-0.06,0.27,0.27,0,0,1-.07-0.2V207q-0.62,0-2.06,0Q170,207,169.53,207Z"/></g><g id="Layer_11" data-name="Layer 11"><rect class="cls-34" x="178.61" y="141.88" width="32.77" height="91.2"/></g><g id="Layer_17" data-name="Layer 17"><path class="cls-35" d="M257,200.76c-0.9-1.46,1.48-4.58,32-1.21,20.69,2.29-27.08,8.5-31.69,1.08"/></g><g id="Layer_12" data-name="Layer 12"><g id="Layer_13" data-name="Layer 13"><path class="cls-36" d="M283.88,184.93s5.83-20.48-2.83-22.26-17.47,22.26-7.32,22.26h10.15Z"/><path class="cls-36" d="M273.73,205.93c6.65-.05,27.32-17.36,22-30.71s-22,9.7-22,9.7-12.6-36.51-11.34-1.85c0,0-11.34,10.29,0,16.58Z"/></g><rect class="cls-37" x="222.38" y="127.57" width="27" height="105.51"/><rect class="cls-38" x="199.38" y="113.88" width="29.09" height="119.2"/><path class="cls-39" d="M257.36,200.63s21.15,4.34,35.77-1.78c11.25-4.71,1.5,37.27-16.87,37.24C263.51,236.06,256.37,232.39,257.36,200.63Z"/><path class="cls-4" d="M193.18,150v2.67a0.86,0.86,0,0,1-.36.08,0.35,0.35,0,0,1-.24-0.06,0.27,0.27,0,0,1-.07-0.2v-0.47q-0.62,0-2.06,0h-3.78a2.57,2.57,0,0,1-1.09-.2,1.51,1.51,0,0,1-.66-0.62,2.81,2.81,0,0,1-.25-1.36,2,2,0,0,1,.11-0.83,0.42,0.42,0,0,1,.41-0.2,1.11,1.11,0,0,1,.68.22,2.42,2.42,0,0,0-.24,1.22,1.48,1.48,0,0,0,1.22.27h3.61q1.43,0,2.06,0v-0.65a1.14,1.14,0,0,1,.41-0.08,0.24,0.24,0,0,1,.2.07A0.33,0.33,0,0,1,193.18,150Z"/><path class="cls-4" d="M193.27,156.59a3.88,3.88,0,0,1-.05.92,18,18,0,0,1-2.57,1q-2.51.85-3.47,1.24v0.46a0.84,0.84,0,0,1-.36.08,0.35,0.35,0,0,1-.24-0.06,0.27,0.27,0,0,1-.07-0.21v-2.5a1.15,1.15,0,0,1,.42-0.08,0.24,0.24,0,0,1,.19.07,0.33,0.33,0,0,1,.06.21v0.21q0.35-.07,1.4-0.38v-2.07q-1-.27-1.4-0.34v0.46a0.84,0.84,0,0,1-.36.08,0.35,0.35,0,0,1-.24-0.06,0.26,0.26,0,0,1-.07-0.2v-2.13a1.15,1.15,0,0,1,.42-0.08,0.24,0.24,0,0,1,.19.07,0.32,0.32,0,0,1,.06.21v0.26q0.94,0.35,3.06,1t2.57,0.93A0.89,0.89,0,0,1,193.27,156.59Zm-3.87-.91v1.62a15.09,15.09,0,0,0,2.46-.84A14.76,14.76,0,0,0,189.4,155.68Z"/><path class="cls-4" d="M193.18,164.47v2.14a0.86,0.86,0,0,1-.36.08,0.35,0.35,0,0,1-.24-0.06,0.27,0.27,0,0,1-.07-0.2v-0.23l-3.13-1a19.6,19.6,0,0,1-2.57-.94,1,1,0,0,1-.38-1,3.24,3.24,0,0,1,.05-0.86,24,24,0,0,1,2.57-.91q2.51-.83,3.47-1.21v-0.41a1.08,1.08,0,0,1,.41-0.09,0.24,0.24,0,0,1,.2.07,0.33,0.33,0,0,1,.06.21v2.43a0.86,0.86,0,0,1-.36.08,0.35,0.35,0,0,1-.24-0.06,0.27,0.27,0,0,1-.07-0.2v-0.24q-0.53.11-2.6,0.73a10.86,10.86,0,0,0-2.08.72,10.22,10.22,0,0,0,2.06.62,19,19,0,0,0,2.63.57v-0.46a1.14,1.14,0,0,1,.41-0.08,0.25,0.25,0,0,1,.2.07A0.33,0.33,0,0,1,193.18,164.47Z"/><path class="cls-4" d="M193.27,169.61a3.88,3.88,0,0,1-.05.92,18,18,0,0,1-2.57,1q-2.51.85-3.47,1.24v0.46a0.84,0.84,0,0,1-.36.08,0.35,0.35,0,0,1-.24-0.06,0.27,0.27,0,0,1-.07-0.21v-2.5a1.15,1.15,0,0,1,.42-0.08,0.24,0.24,0,0,1,.19.07,0.33,0.33,0,0,1,.06.21v0.21q0.35-.07,1.4-0.38v-2.07q-1-.27-1.4-0.34v0.46a0.84,0.84,0,0,1-.36.08,0.35,0.35,0,0,1-.24-0.06,0.26,0.26,0,0,1-.07-0.2v-2.13a1.15,1.15,0,0,1,.42-0.08,0.24,0.24,0,0,1,.19.07,0.32,0.32,0,0,1,.06.21v0.26q0.94,0.35,3.06,1t2.57,0.93A0.89,0.89,0,0,1,193.27,169.61Zm-3.87-.91v1.62a15.09,15.09,0,0,0,2.46-.84A14.76,14.76,0,0,0,189.4,168.69Z"/><path class="cls-4" d="M193.28,176.47a6,6,0,0,1-.15,1.66,0.56,0.56,0,0,1-.57.41,1,1,0,0,1-.73-0.3,4.91,4.91,0,0,0,.51-2,1.17,1.17,0,0,0-.19-0.77,0.7,0.7,0,0,0-.55-0.21,0.76,0.76,0,0,0-.64.27,3.62,3.62,0,0,0-.45,1.08,4.66,4.66,0,0,1-.68,1.58,1.61,1.61,0,0,1-1.34.58,1.75,1.75,0,0,1-1.56-.76,4,4,0,0,1-.51-2.21,5.66,5.66,0,0,1,.16-1.56,0.62,0.62,0,0,1,.62-0.5,1,1,0,0,1,.73.34,4.67,4.67,0,0,0-.57,2.09,1.71,1.71,0,0,0,.17.89,0.62,0.62,0,0,0,.56.25,0.8,0.8,0,0,0,.71-0.4,5.21,5.21,0,0,0,.51-1.3,2.87,2.87,0,0,1,.72-1.39,1.67,1.67,0,0,1,1.18-.42,1.83,1.83,0,0,1,1.53.7A3,3,0,0,1,193.28,176.47Z"/><path class="cls-4" d="M187.35,183.23a2.77,2.77,0,0,0,.45,1.53,1.07,1.07,0,0,1-.71.33,0.71,0.71,0,0,1-.51-0.69,6.59,6.59,0,0,1-.17-1.6,2.53,2.53,0,0,1,3.08-2.93,4.07,4.07,0,0,1,2.87.86,3.2,3.2,0,0,1,.92,2.45,4.71,4.71,0,0,1-.15,1.44,0.55,0.55,0,0,1-.54.4,1,1,0,0,1-.66-0.31,4.27,4.27,0,0,0,.42-1.77,1.18,1.18,0,0,0-.51-1.05,3.46,3.46,0,0,0-1.83-.34,4.07,4.07,0,0,0-2.1.37A1.47,1.47,0,0,0,187.35,183.23Z"/><path class="cls-4" d="M187.18,188.27V189a0.84,0.84,0,0,1-.36.08,0.35,0.35,0,0,1-.24-0.06,0.26,0.26,0,0,1-.07-0.2v-2.74a1.09,1.09,0,0,1,.42-0.09,0.24,0.24,0,0,1,.19.07,0.33,0.33,0,0,1,.06.21v0.45q0.62,0,3.27,0,1.43,0,2.06,0v-0.65a1.14,1.14,0,0,1,.41-0.08,0.25,0.25,0,0,1,.2.07,0.32,0.32,0,0,1,.06.21v2.53a4.16,4.16,0,0,1-.42,2.18,1.5,1.5,0,0,1-1.36.65,1.87,1.87,0,0,1-1.79-1.6,1.68,1.68,0,0,1-.52.68,5.44,5.44,0,0,1-1,.59,2.49,2.49,0,0,0-.78.51,0.92,0.92,0,0,0-.15.57,0.61,0.61,0,0,1-.6,0,1.27,1.27,0,0,1-.17-0.82,2.35,2.35,0,0,1,.16-1.05,1.69,1.69,0,0,1,1-.52,4.46,4.46,0,0,0,1.24-.51,0.85,0.85,0,0,0,.4-0.74,1.85,1.85,0,0,0,0-.45Zm2.83,0v0.4a1.66,1.66,0,0,0,.24,1,0.86,0.86,0,0,0,.75.33,1.21,1.21,0,0,0,1-.33,1.23,1.23,0,0,0,.29-0.84,2.12,2.12,0,0,0,0-.5q-0.31,0-1.74,0H190Z"/><path class="cls-4" d="M193.18,193.29V196a0.86,0.86,0,0,1-.36.08,0.35,0.35,0,0,1-.24-0.06,0.28,0.28,0,0,1-.07-0.21V195.3q-0.62,0-2.06,0-2.64,0-3.27,0V196a0.84,0.84,0,0,1-.36.08,0.35,0.35,0,0,1-.24-0.06,0.27,0.27,0,0,1-.07-0.21v-2.69a1.09,1.09,0,0,1,.42-0.09,0.24,0.24,0,0,1,.19.07,0.33,0.33,0,0,1,.06.21v0.45q0.62,0,3.27,0,1.43,0,2.06,0v-0.65a1.08,1.08,0,0,1,.41-0.09,0.24,0.24,0,0,1,.2.07A0.33,0.33,0,0,1,193.18,193.29Z"/><path class="cls-4" d="M192.51,197.67V197a1.14,1.14,0,0,1,.41-0.08,0.25,0.25,0,0,1,.2.07,0.32,0.32,0,0,1,.06.21v2.35a4.87,4.87,0,0,1-.46,2.55,1.7,1.7,0,0,1-1.5.65,2,2,0,0,1-1.69-.79,4.18,4.18,0,0,1-.61-2.54v-0.23l-1.74,0V200a0.84,0.84,0,0,1-.36.08,0.35,0.35,0,0,1-.24-0.06,0.27,0.27,0,0,1-.07-0.21V197a1.09,1.09,0,0,1,.42-0.09,0.24,0.24,0,0,1,.19.07,0.33,0.33,0,0,1,.06.21v0.45q0.62,0,3.27,0Q191.88,197.7,192.51,197.67Zm-2.79,2a1.83,1.83,0,0,0,.27,1.11,1.1,1.1,0,0,0,.93.35,1.35,1.35,0,0,0,1-.33,1.38,1.38,0,0,0,.35-1,2.11,2.11,0,0,0,0-.49q-0.31,0-1.74,0h-0.73v0.43Z"/><path class="cls-4" d="M187.18,205.35q0.62,0,3.27,0,1.43,0,1.91,0-0.09-1.7-.09-1.91a0.55,0.55,0,0,1,.09-0.35,0.41,0.41,0,0,1,.33-0.11,1.89,1.89,0,0,1,.73.17,11.17,11.17,0,0,0-.24,2.53V209a0.62,0.62,0,0,1-.07.34,0.36,0.36,0,0,1-.31.11,1.55,1.55,0,0,1-.84-0.26,5.09,5.09,0,0,0,.42-2.12v-0.12q-0.48,0-1.91,0-2.64,0-3.27,0v0.75a0.8,0.8,0,0,1-.36.09,0.35,0.35,0,0,1-.24-0.06,0.27,0.27,0,0,1-.07-0.21V204.6a1.09,1.09,0,0,1,.42-0.09,0.24,0.24,0,0,1,.19.07,0.33,0.33,0,0,1,.06.21v0.55Z"/><path class="cls-4" d="M240.44,139.28v-0.65a1.14,1.14,0,0,1,.41-0.08,0.25,0.25,0,0,1,.2.07,0.32,0.32,0,0,1,.06.21v2.35a4.87,4.87,0,0,1-.46,2.55,1.7,1.7,0,0,1-1.5.65,2,2,0,0,1-1.69-.79,4.18,4.18,0,0,1-.61-2.54v-0.23l-1.74,0v0.8a0.84,0.84,0,0,1-.36.08,0.35,0.35,0,0,1-.24-0.06,0.27,0.27,0,0,1-.07-0.21v-2.83a1.09,1.09,0,0,1,.42-0.09,0.24,0.24,0,0,1,.19.07,0.33,0.33,0,0,1,.06.21v0.45q0.62,0,3.27,0Q239.82,139.31,240.44,139.28Zm-2.79,2a1.83,1.83,0,0,0,.27,1.11,1.1,1.1,0,0,0,.93.35,1.35,1.35,0,0,0,1-.33,1.38,1.38,0,0,0,.35-1,2.11,2.11,0,0,0,0-.49q-0.31,0-1.74,0h-0.73v0.43Z"/><path class="cls-4" d="M241.11,145.33v2.52a0.86,0.86,0,0,1-.36.08,0.35,0.35,0,0,1-.24-0.06,0.28,0.28,0,0,1-.07-0.21v-0.38q-0.62,0-2.09,0v2.43q1.47,0,2.09,0v-0.55a1.14,1.14,0,0,1,.41-0.08,0.25,0.25,0,0,1,.2.07,0.32,0.32,0,0,1,.06.21v2.52a0.86,0.86,0,0,1-.36.08,0.35,0.35,0,0,1-.24-0.06,0.27,0.27,0,0,1-.07-0.2v-0.42q-0.62,0-2.06,0-2.64,0-3.27,0v0.6a0.84,0.84,0,0,1-.36.08,0.35,0.35,0,0,1-.24-0.06,0.26,0.26,0,0,1-.07-0.2v-2.54a1.15,1.15,0,0,1,.42-0.08,0.24,0.24,0,0,1,.19.07,0.32,0.32,0,0,1,.06.21v0.36q0.52,0,2.42,0v-2.43l-2.42,0v0.56a0.84,0.84,0,0,1-.36.08,0.35,0.35,0,0,1-.24-0.06,0.27,0.27,0,0,1-.07-0.21v-2.54a1.09,1.09,0,0,1,.42-0.09,0.24,0.24,0,0,1,.19.07,0.33,0.33,0,0,1,.06.21v0.41q0.62,0,3.27,0,1.43,0,2.06,0v-0.6a1.08,1.08,0,0,1,.41-0.09,0.24,0.24,0,0,1,.2.07A0.33,0.33,0,0,1,241.11,145.33Z"/><path class="cls-4" d="M240.44,153.56v-0.65a1.14,1.14,0,0,1,.41-0.08,0.25,0.25,0,0,1,.2.07,0.32,0.32,0,0,1,.06.21v2.35a4.87,4.87,0,0,1-.46,2.55,1.7,1.7,0,0,1-1.5.65,2,2,0,0,1-1.69-.79,4.18,4.18,0,0,1-.61-2.54v-0.23l-1.74,0v0.8a0.84,0.84,0,0,1-.36.08,0.35,0.35,0,0,1-.24-0.06,0.27,0.27,0,0,1-.07-0.21V152.9a1.09,1.09,0,0,1,.42-0.09,0.24,0.24,0,0,1,.19.07,0.33,0.33,0,0,1,.06.21v0.45q0.62,0,3.27,0Q239.82,153.58,240.44,153.56Zm-2.79,2a1.83,1.83,0,0,0,.27,1.11,1.1,1.1,0,0,0,.93.35,1.35,1.35,0,0,0,1-.33,1.38,1.38,0,0,0,.35-1,2.11,2.11,0,0,0,0-.49q-0.31,0-1.74,0h-0.73v0.43Z"/></g><g id="Layer_18" data-name="Layer 18"><line class="cls-40" x1="285.8" y1="188.63" x2="290.76" y2="184.93"/><line class="cls-40" x1="285.8" y1="182.26" x2="285.51" y2="178.38"/><line class="cls-40" x1="289.63" y1="178.13" x2="292.26" y2="176.38"/><line class="cls-40" x1="292.51" y1="181.26" x2="297.92" y2="179.33"/><line class="cls-40" x1="290.94" y1="173.48" x2="291.63" y2="169.26"/><line class="cls-40" x1="287.76" y1="173.48" x2="287.13" y2="170.38"/><line class="cls-40" x1="295.21" y1="176.63" x2="297.92" y2="174.63"/><line class="cls-40" x1="292.88" y1="185.76" x2="296.57" y2="186.26"/><line class="cls-40" x1="288.28" y1="190.26" x2="292.9" y2="190.72"/><line class="cls-40" x1="284.26" y1="193.55" x2="287.44" y2="196.38"/><line class="cls-40" x1="282.38" y1="190.49" x2="286.88" y2="192.55"/><line class="cls-40" x1="280.76" y1="187.04" x2="285.65" y2="184.93"/><line class="cls-40" x1="281.76" y1="183.13" x2="279.63" y2="180.29"/><line class="cls-40" x1="282.38" y1="178.76" x2="280.69" y2="174.38"/><line class="cls-40" x1="283.21" y1="169.51" x2="287.44" y2="166.88"/><line class="cls-40" x1="280.69" y1="170.13" x2="281.54" y2="166.63"/><line class="cls-40" x1="279.38" y1="165.38" x2="276.97" y2="162.01"/><line class="cls-40" x1="277.6" y1="168.14" x2="273.51" y2="164.51"/><line class="cls-40" x1="274.51" y1="170.01" x2="271.51" y2="167.26"/><line class="cls-40" x1="275.56" y1="173.48" x2="276.97" y2="171.37"/><line class="cls-40" x1="278.18" y1="174.88" x2="279.13" y2="171.93"/><line class="cls-40" x1="275.01" y1="177.26" x2="273.63" y2="175.63"/><line class="cls-40" x1="271.63" y1="172.43" x2="269.18" y2="170.01"/><line class="cls-40" x1="265.13" y1="174.26" x2="260.76" y2="171.22"/><line class="cls-40" x1="265.76" y1="171.37" x2="267.51" y2="167.63"/><line class="cls-40" x1="266.63" y1="176.45" x2="269.48" y2="174.51"/><line class="cls-40" x1="268.84" y1="178.76" x2="270.95" y2="177.76"/><line class="cls-40" x1="269.9" y1="181.71" x2="266.63" y2="180.29"/><line class="cls-40" x1="264.88" y1="178.26" x2="260.26" y2="176.45"/><line class="cls-40" x1="265.63" y1="182.88" x2="259.76" y2="180.33"/><line class="cls-40" x1="269.9" y1="184.93" x2="273.01" y2="181.71"/><line class="cls-40" x1="276.76" y1="187.51" x2="275.55" y2="184.93"/><line class="cls-40" x1="279.26" y1="182.76" x2="275.55" y2="180.29"/><line class="cls-40" x1="277.6" y1="192.01" x2="279.63" y2="189.26"/><line class="cls-40" x1="279.63" y1="194.97" x2="280.69" y2="192.55"/><line class="cls-40" x1="281.54" y1="196.51" x2="284.63" y2="198.04"/><line class="cls-40" x1="280.16" y1="198.68" x2="280.16" y2="201.83"/><line class="cls-40" x1="276.97" y1="199.51" x2="275.01" y2="201.83"/><line class="cls-40" x1="270.41" y1="198.04" x2="272.38" y2="201.83"/><line class="cls-40" x1="268.06" y1="198.68" x2="263.48" y2="200.25"/><line class="cls-40" x1="262.57" y1="196.26" x2="257.27" y2="193.76"/><line class="cls-40" x1="262.01" y1="193.76" x2="265.13" y2="191.52"/><line class="cls-40" x1="259.92" y1="190.63" x2="256.38" y2="188.38"/><line class="cls-40" x1="260.88" y1="187.04" x2="258.15" y2="184.13"/><line class="cls-40" x1="262.57" y1="186.01" x2="265.77" y2="184.93"/><line class="cls-40" x1="269.9" y1="189.51" x2="267.26" y2="186.78"/><line class="cls-40" x1="262.57" y1="189.51" x2="264.17" y2="188.14"/><line class="cls-40" x1="270.41" y1="193.76" x2="267.26" y2="191.52"/><line class="cls-40" x1="265.77" y1="196.13" x2="266.63" y2="194.38"/><line class="cls-40" x1="273.01" y1="196.01" x2="276.26" y2="194.97"/><line class="cls-40" x1="273.76" y1="192.64" x2="272.01" y2="190.63"/><line class="cls-40" x1="274.63" y1="190.49" x2="272.26" y2="188.14"/></g><g id="Layer_14" data-name="Layer 14"><path class="cls-4" d="M217,125.1v2.52a0.86,0.86,0,0,1-.36.08,0.35,0.35,0,0,1-.24-0.06,0.28,0.28,0,0,1-.07-0.21v-0.38q-0.62,0-2.09,0v2.43q1.47,0,2.09,0v-0.55a1.14,1.14,0,0,1,.41-0.08,0.25,0.25,0,0,1,.2.07,0.32,0.32,0,0,1,.06.21v2.52a0.86,0.86,0,0,1-.36.08,0.35,0.35,0,0,1-.24-0.06,0.27,0.27,0,0,1-.07-0.2V131q-0.62,0-2.06,0-2.64,0-3.27,0v0.6a0.84,0.84,0,0,1-.36.08,0.35,0.35,0,0,1-.24-0.06,0.26,0.26,0,0,1-.07-0.2v-2.54a1.15,1.15,0,0,1,.42-0.08,0.24,0.24,0,0,1,.19.07,0.32,0.32,0,0,1,.06.21v0.36q0.52,0,2.42,0V127l-2.42,0v0.56a0.84,0.84,0,0,1-.36.08,0.35,0.35,0,0,1-.24-0.06,0.27,0.27,0,0,1-.07-0.21V124.9a1.09,1.09,0,0,1,.42-0.09,0.24,0.24,0,0,1,.19.07,0.33,0.33,0,0,1,.06.21v0.41q0.62,0,3.27,0,1.43,0,2.06,0v-0.6a1.08,1.08,0,0,1,.41-0.09,0.24,0.24,0,0,1,.2.07A0.33,0.33,0,0,1,217,125.1Z"/><path class="cls-4" d="M211.05,134.51q0.62,0,3.27,0,1.43,0,1.91,0-0.09-1.7-.09-1.91a0.55,0.55,0,0,1,.09-0.35,0.41,0.41,0,0,1,.33-0.11,1.89,1.89,0,0,1,.73.17,11.17,11.17,0,0,0-.24,2.53v3.29a0.62,0.62,0,0,1-.07.34,0.36,0.36,0,0,1-.31.11,1.55,1.55,0,0,1-.84-0.26,5.09,5.09,0,0,0,.42-2.12v-0.12q-0.48,0-1.91,0-2.64,0-3.27,0v0.75a0.8,0.8,0,0,1-.36.09,0.35,0.35,0,0,1-.24-0.06,0.27,0.27,0,0,1-.07-0.21v-2.88a1.09,1.09,0,0,1,.42-0.09,0.24,0.24,0,0,1,.19.07,0.33,0.33,0,0,1,.06.21v0.55Z"/><path class="cls-4" d="M217,139.33V142q-0.94.22-1.88,0.48t-1.94.5a5.8,5.8,0,0,0-1,.28s0.63,0.19,1.9.51,2.24,0.54,2.92.67V147a0.86,0.86,0,0,1-.36.08,0.35,0.35,0,0,1-.24-0.06,0.27,0.27,0,0,1-.07-0.2v-0.37q-0.83,0-2.76.09t-2.56.14v0.46a0.84,0.84,0,0,1-.36.08,0.35,0.35,0,0,1-.24-0.06,0.27,0.27,0,0,1-.07-0.21v-2.23a1.15,1.15,0,0,1,.42-0.08,0.24,0.24,0,0,1,.19.07,0.32,0.32,0,0,1,.06.21v0.18q0.94,0,4.58-.09-1.61-.38-2.79-0.73a8.75,8.75,0,0,1-1.51-.54A0.73,0.73,0,0,1,211,143a3.08,3.08,0,0,1,.05-0.83,5.81,5.81,0,0,1,1.2-.46q1.15-.38,3.41-1-3.69,0-4.63,0v0.38a0.84,0.84,0,0,1-.36.08,0.35,0.35,0,0,1-.24-0.06,0.27,0.27,0,0,1-.07-0.21v-2a1.09,1.09,0,0,1,.42-0.09,0.24,0.24,0,0,1,.19.07,0.33,0.33,0,0,1,.06.21v0.32q0.62,0,2.56.14t2.76,0.09v-0.55a1.14,1.14,0,0,1,.41-0.08,0.24,0.24,0,0,1,.2.07A0.33,0.33,0,0,1,217,139.33Z"/><path class="cls-4" d="M211.2,150.18v0.12a7.14,7.14,0,0,0,.39,2.6,1.24,1.24,0,0,1-.7.21,0.41,0.41,0,0,1-.39-0.2,1.84,1.84,0,0,1-.12-0.81v-4a1.09,1.09,0,0,1,.42-0.09,0.24,0.24,0,0,1,.19.07,0.33,0.33,0,0,1,.06.21v0.36q0.63,0,3.28,0,1.43,0,2.06,0v-0.55a1.08,1.08,0,0,1,.41-0.09,0.24,0.24,0,0,1,.2.07,0.33,0.33,0,0,1,.06.21v2.57a0.86,0.86,0,0,1-.36.08,0.35,0.35,0,0,1-.24-0.06,0.27,0.27,0,0,1-.07-0.2v-0.47q-0.62,0-2.06,0Q211.68,150.15,211.2,150.18Z"/><path class="cls-4" d="M209.24,156.82l-0.62-.22a3.46,3.46,0,0,1,.24-0.9,0.36,0.36,0,0,1,.17-0.22,0.45,0.45,0,0,1,.31,0l8.68,3.16a4.22,4.22,0,0,1-.23.86,0.4,0.4,0,0,1-.19.28,0.44,0.44,0,0,1-.25,0Z"/><path class="cls-4" d="M211.22,166a2.77,2.77,0,0,0,.45,1.53,1.07,1.07,0,0,1-.71.33,0.71,0.71,0,0,1-.51-0.69,6.59,6.59,0,0,1-.17-1.6,2.53,2.53,0,0,1,3.08-2.93,4.07,4.07,0,0,1,2.87.86,3.2,3.2,0,0,1,.92,2.45,4.71,4.71,0,0,1-.15,1.44,0.55,0.55,0,0,1-.54.4,1,1,0,0,1-.66-0.31,4.27,4.27,0,0,0,.42-1.77,1.18,1.18,0,0,0-.51-1.05,3.46,3.46,0,0,0-1.83-.34,4.07,4.07,0,0,0-2.1.37A1.47,1.47,0,0,0,211.22,166Z"/><path class="cls-4" d="M217.14,171.45a6,6,0,0,1-.15,1.66,0.56,0.56,0,0,1-.57.41,1,1,0,0,1-.73-0.3,4.91,4.91,0,0,0,.51-2,1.17,1.17,0,0,0-.19-0.77,0.7,0.7,0,0,0-.55-0.21,0.76,0.76,0,0,0-.64.27,3.62,3.62,0,0,0-.45,1.08,4.66,4.66,0,0,1-.68,1.58,1.61,1.61,0,0,1-1.34.58,1.75,1.75,0,0,1-1.56-.76,4,4,0,0,1-.51-2.21,5.66,5.66,0,0,1,.16-1.56,0.62,0.62,0,0,1,.62-0.5,1,1,0,0,1,.73.34,4.67,4.67,0,0,0-.57,2.09,1.71,1.71,0,0,0,.17.89,0.62,0.62,0,0,0,.56.25,0.8,0.8,0,0,0,.71-0.4,5.21,5.21,0,0,0,.51-1.3,2.87,2.87,0,0,1,.72-1.39,1.67,1.67,0,0,1,1.18-.42,1.83,1.83,0,0,1,1.53.7A3,3,0,0,1,217.14,171.45Z"/><path class="cls-4" d="M217.14,177.44a6,6,0,0,1-.15,1.66,0.56,0.56,0,0,1-.57.41,1,1,0,0,1-.73-0.3,4.91,4.91,0,0,0,.51-2,1.17,1.17,0,0,0-.19-0.77,0.7,0.7,0,0,0-.55-0.21,0.76,0.76,0,0,0-.64.27,3.62,3.62,0,0,0-.45,1.08,4.66,4.66,0,0,1-.68,1.58,1.61,1.61,0,0,1-1.34.58,1.75,1.75,0,0,1-1.56-.76,4,4,0,0,1-.51-2.21,5.66,5.66,0,0,1,.16-1.56,0.62,0.62,0,0,1,.62-0.5,1,1,0,0,1,.73.34,4.67,4.67,0,0,0-.57,2.09,1.71,1.71,0,0,0,.17.89,0.62,0.62,0,0,0,.56.25,0.8,0.8,0,0,0,.71-0.4,5.21,5.21,0,0,0,.51-1.3,2.87,2.87,0,0,1,.72-1.39,1.67,1.67,0,0,1,1.18-.42,1.83,1.83,0,0,1,1.53.7A3,3,0,0,1,217.14,177.44Z"/></g><g id="Layer_16" data-name="Layer 16"><line class="cls-41" x1="163.86" y1="224.22" x2="178.61" y2="224.22"/><line class="cls-41" x1="178.61" y1="215.95" x2="199.38" y2="215.95"/><line class="cls-41" x1="228.47" y1="220.88" x2="199.38" y2="220.88"/><line class="cls-41" x1="228.47" y1="213.88" x2="249.38" y2="213.88"/></g></g><path class="cls-42" d="M923.5,291.42c-20.16-1.26-160.59-10-166.62-10-7.25,0-7.51-2.92-7.12-5.69a39.66,39.66,0,0,1,1.28-5.23c3.37-11.67,26.41-91.48,27.34-96.58,1-5.5,5-6,5-6h189c9,0,5.5,8.5,5.5,8.5S944,270.2,941.54,279.2c-1.75,6.29-8.69,9.83-12.71,11.4A12.59,12.59,0,0,1,923.5,291.42Z"/><path class="cls-43" d="M778.38,173.88c-0.93,5.1-24,84.91-27.34,96.58a39.66,39.66,0,0,0-1.28,5.23c-0.39,2.77-.13,5.69,7.12,5.69,6,0,146.46,8.78,166.62,10a12.59,12.59,0,0,0,5.33-.82c4-1.57,11-5.11,12.71-11.4,2.5-9,36.34-102.82,36.34-102.82s3.5-8.5-5.5-8.5h-189S779.38,168.38,778.38,173.88ZM739.28,288a4.72,4.72,0,0,0-.84,0v0s27.79-90.09,34.3-120.81c1.64-7.77,1.58-7.77,17.74-7.77h184.4c11.5,0,15.5,1.38,11.5,14.5-3.43,11.26-29.32,93.59-43.5,123.88a7.24,7.24,0,0,1-5.5,3.62,19.57,19.57,0,0,1-4.86-.8l-0.64-.2Z"/><path class="cls-44" d="M477.53,274.12a47.7,47.7,0,0,1,.15,18h0a0.1,0.1,0,0,0,0,0h0c-0.08.49-.17,1-0.26,1.45-8-4.46-14.91-5.22-20.45-4.34a26.85,26.85,0,0,0-15.62,8.48c6.48,5,12.26,6.79,17.18,6.72,11.94-.13,18.89-10.86,18.89-10.86a78,78,0,0,1-8,22,31.24,31.24,0,0,1-9.87,3.13c-17.52,2.43-31.13-11.6-31.13-11.6s-36.86,32.83-88.86,2.16a99.28,99.28,0,0,1,7.86-36.48,72.08,72.08,0,0,0,26.39-8.41s71.28,12.73,95.61-4.27L472,262a30.46,30.46,0,0,1,3.07,4.7A34.66,34.66,0,0,1,477.53,274.12Zm-67.11,23.76a39.56,39.56,0,0,0-22.23-9.56c-7.3-.74-16.15.39-26.14,5.56,0,0,9.48,12.63,24.14,13.52h0.18a7.38,7.38,0,0,0,.82,0h0.36C394.28,307.52,402,305.07,410.42,297.88Z"/><path class="cls-4" d="M388.19,288.32a39.56,39.56,0,0,1,22.23,9.56c-8.39,7.19-16.14,9.64-22.87,9.56a9.36,9.36,0,0,0,6.51-3,0,0,0,0,0,0,0,6.76,6.76,0,0,0,2.47-5.13,8.54,8.54,0,0,0,.1-1.34,9.45,9.45,0,0,0-8.48-9.4Z"/><path class="cls-45" d="M355.07,401.56c0.24-9.37-.6-22-5.68-31.21a36.92,36.92,0,0,0-2-7.14s21.39,13,39.87,22.22l-0.06.12a124.33,124.33,0,0,0,6.51,20.95c2,4.51,4.32,8.56,7,10.71,0,0-8.86,6-6.76,11,0,0-32.9-16.66-39.9-14A106.35,106.35,0,0,0,355.07,401.56Z"/><path class="cls-46" d="M454.37,418.36c-34.14-6.81-60.66-11.86-60.66-11.86h0a124.33,124.33,0,0,1-6.51-20.95l0.06-.12c8.12,4,15.67,7.33,20.61,8.45,16.19,3.67,52.85-59.33,52.85-59.33s6.25-10.81-1.2-15.74a31.24,31.24,0,0,0,9.87-3.13,78,78,0,0,0,8-22c0.09-.48.18-1,0.26-1.45,0.21,0.8,11.31,44.43-4.25,59.82a45.13,45.13,0,0,0-8.27,11.2s2.56,26.34,16.56,38.34S487,424.94,487,424.94C475.74,422.64,464.71,420.42,454.37,418.36Z"/><path class="cls-47" d="M396.55,299.21a6.82,6.82,0,1,0-2.49,5.27,9.36,9.36,0,0,1-6.51,3,11.55,11.55,0,0,1-1.18,0h-0.18a9.45,9.45,0,0,1,1-18.85c0.33,0,.65,0,1,0.05a9.45,9.45,0,0,1,8.48,9.4,8.54,8.54,0,0,1-.1,1.34A0.57,0.57,0,0,0,396.55,299.21Z"/><path class="cls-48" d="M739.28,288l192.6,12.41,0.64,0.2-0.12.41-0.74-.13a2.23,2.23,0,0,0-1.11.3l-93.73,54.52-1,.07a3.75,3.75,0,0,0-.67-0.11l-181.9-13.45a2.2,2.2,0,0,0-1.23.25l84.7-53.81a4.41,4.41,0,0,1,1.75-.64A4.72,4.72,0,0,1,739.28,288Zm11.35,2.41s-10.16-.66-14.42,2a319,319,0,0,0-31.94,22.79c-7.87,6.3-3.39,4.51,14,6.18h0.29c4.66,0.38,117,9.62,131.85,11.49,15.18,1.91,14.24,2.12,18.5-.5,10.44-6.42,37.54-22.19,43-25.6,11.17-7-2.12-6.3-4-6.4C868.21,298.21,750.63,290.38,750.63,290.38Z"/><path class="cls-46" d="M257.05,279.22c-8.42-18,28.66-121.67,101.33-114.34a49.6,49.6,0,0,1,20.67,2.7c12.42,4.23,27.65,14.45,37.33,38.63,0,0-9.32,39.94-42.61,58.27a72.08,72.08,0,0,1-26.39,8.41,99.28,99.28,0,0,0-7.86,36.48,77.42,77.42,0,0,0,2.86,22.84c3.51,12.22,5,22.39,4.59,31l0.41,0a36.92,36.92,0,0,1,2,7.14c3.27,18.62-8,36.15-8,36.15l1.31,2.25-72.34,42.13-8,2.68c-8.86,3-24,8.13-39.44,13.58l-0.57-1.59c0.67-1.34,13.33-36.76,8-59.05-5.05-21.11,5.45-37.48,6.57-39.15C229,331.71,234.05,296.46,257.05,279.22Z"/><path class="cls-43" d="M931.66,300.86L932.4,301l0.67,0.38c4.31,0,4.17,5.3,1,7.25l-97,60.27a3.08,3.08,0,0,0,1.27-2.5v-7.24a3.53,3.53,0,0,0-2.59-3.4l1-.07,93.73-54.52A2.23,2.23,0,0,1,931.66,300.86Z"/><path class="cls-49" d="M840.2,909.94c15-9.76,28.18.94,28.18,0.94l48.67,46s12.66,15.33-12,12-173.34-76-173.34-76c37.34-4.67,26.23-45.65,26.23-45.65l0.84-1.15C806.77,881.14,840.2,909.94,840.2,909.94Z"/><path class="cls-50" d="M907.88,300.38c1.88,0.1,15.17-.57,4,6.4-5.46,3.41-32.56,19.18-43,25.6-4.26,2.62-3.32,2.41-18.5.5-14.83-1.87-127.19-11.11-131.85-11.49h-0.29c-17.36-1.67-21.84.12-14-6.18a319,319,0,0,1,31.94-22.79c4.26-2.69,14.42-2,14.42-2S868.21,298.21,907.88,300.38Z"/><path class="cls-43" d="M838.38,359.15v7.24a3.08,3.08,0,0,1-1.27,2.5h0l-0.28.17a3.07,3.07,0,0,1-1.78.4l-56.65-4.72-76-6.33c5.68-9.25-7-10.22-13.78,0l-28.67-2.7a6.69,6.69,0,0,1-5.25-3.48l-3.63-6.7a2.29,2.29,0,0,1,.94-3.1,2.2,2.2,0,0,1,1.23-.25l181.9,13.45a3.75,3.75,0,0,1,.67.11A3.53,3.53,0,0,1,838.38,359.15Z"/><path class="cls-48" d="M836.82,369.07l0.28-.17A2.61,2.61,0,0,1,836.82,369.07Z"/><path class="cls-44" d="M702.38,358.42l76,6.33v0.08c-13.87,16.72-36.43,21-48,22l0,0.35s-48.26,62.25-81.77,94.38c4.7-26.79-26.45-41.15-26.45-41.15l6.24-2.9,74-49.17s-21.33-6.83-16.67-23.55a22.53,22.53,0,0,1,2.89-6.41C695.38,348.2,708.06,349.17,702.38,358.42Z"/><path class="cls-44" d="M758.78,846.08l-0.84,1.15s11.11,41-26.23,45.65c-50-38.67-242.38-102.42-242.38-102.42q7.5-6.82,16.38-13.58c28.47-21.6,46.9-34.41,59.48-42C629.93,757.65,703.88,806,758.78,846.08Z"/><path class="cls-51" d="M242.46,506.49c-11.28,2.13-23.19,4.59-34.59,7.09-26.06,5.73-49.44,11.68-56.43,14.3-16.94,6.33-15.73-12.33-21.06-21-1.24-2-2.05-11.95-2.56-26,0,0,15.17,14.89,35.2-14A128,128,0,0,0,171.45,487c6.63-3.7,29.45-12.09,51.5-19.85,15.48-5.45,30.58-10.58,39.44-13.58l8-2.68,72.34-42.13,12.35-7.19a106.35,106.35,0,0,1-1,12.65c7-2.66,39.9,14,39.9,14-2.1-5,6.76-11,6.76-11-2.69-2.15-5.05-6.2-7-10.71h0s26.52,5.05,60.66,11.86c10.34,2.06,21.37,4.28,32.59,6.58,47.43,9.7,98,20.65,111.94,25.94l0.15,0.32,23.09-10.75s31.15,14.36,26.45,41.15c-10.7,10.26-19.89,17.45-25.54,18.56-18.15,3.59-98.51-16.1-133.39-25.05-9.66-2.48-15.82-4.13-16.22-4.23,17.69,13,12.94,34,12.94,34-3.38,17.38-12.5,25.4-23.09,28.4l0.18,0.63c-0.71,3.08-5.92,25.85-10.59,49.22-3.31,16.51-6.34,33.32-7.34,43.73h0s-43.76,20.64-104.13,0l-1.69.45c-3.77-14-13.25-40.74-23.2-67.57-8.16-22-16.63-44.11-22.51-59.28a43.91,43.91,0,0,0-9-.15C274.84,500.92,259.37,503.32,242.46,506.49Z"/><path class="cls-51" d="M333,656.91h0c1.62-4,3-7.56,4.26-10.62,0,0,62.08,25.92,108.26-.74,13.15,29.33,149.51,70.66,149.51,70.66s20.66,6,6,7.34c-9.45.86-13.09-2.44-35.86,11.33-12.58,7.59-31,20.4-59.48,42q-8.89,6.75-16.38,13.58c-62.38,56.61-55,113.76-55,113.76-4-10.66-48.67-38-89.33-72.67-7.55-6.43-12.71-16.49-16.1-28.61C314.2,750.34,332.62,659,333,656.91Z"/><path class="cls-46" d="M496.33,554.39l0,0c-2.74,17.52-33.13,17.26-33.13,17.26h0a26.33,26.33,0,0,1-10.28,11.47c4.67-23.37,9.88-46.14,10.59-49.22l-0.18-.63c10.59-3,19.71-11,23.09-28.4,0,0,4.75-21-12.94-34,0.4,0.1,6.56,1.75,16.22,4.23-3.73,21.56,7.05,15.1,27.05,58.44s-18.91,51-18.91,51,23.58-17.67,6.25-24.6A19.72,19.72,0,0,1,496.33,554.39Z"/><path class="cls-46" d="M477.87,274.27a32.17,32.17,0,0,0-2.82-7.53,32.86,32.86,0,0,0-2.34-4.19L472,262a37.6,37.6,0,0,0-13.47-10.49c-27.46-13.34-42.13-45.34-42.13-45.34-9.68-24.18-24.91-34.4-37.33-38.63,0,0,62-24.7,102.66,36.63,40.28,60.75-3.18,87.45-4,88v0h0A37.78,37.78,0,0,0,477.87,274.27Z"/><path class="cls-45" d="M472,262l-2.6-1.83c-24.33,17-95.61,4.27-95.61,4.27,33.29-18.33,42.61-58.27,42.61-58.27s14.67,32,42.13,45.34A37.6,37.6,0,0,1,472,262Z"/><circle cx="460.71" cy="297.22" r="5"/><path class="cls-4" d="M465.77,296.94a7.27,7.27,0,0,0-7.26-7.27,7.19,7.19,0,0,0-1.47.15L457,289.3c5.54-.88,12.42-0.12,20.45,4.34,0,0-6.95,10.73-18.89,10.86v-0.29A7.26,7.26,0,0,0,465.77,296.94Z"/><path class="cls-47" d="M458.51,289.67a7.27,7.27,0,1,1-1.47.15A7.19,7.19,0,0,1,458.51,289.67Zm7.2,7.54a5,5,0,1,0-5,5A5,5,0,0,0,465.71,297.21Z"/><path class="cls-45" d="M459.51,318.81c7.45,4.93,1.2,15.74,1.2,15.74s-36.66,63-52.85,59.33c-4.94-1.12-12.49-4.41-20.61-8.45-18.48-9.18-39.87-22.22-39.87-22.22l-0.41,0c0.38-8.59-1.08-18.76-4.59-31a77.42,77.42,0,0,1-2.86-22.84c52,30.67,88.86-2.16,88.86-2.16S442,321.24,459.51,318.81ZM436,354.27c4.64-.56,6.74-1.8,4.4-4.06-10.33-10-16-5-16-5-3-6-50,5-50,5s6.45,0.84,15.35,1.8C424.42,379.48,436,354.27,436,354.27Z"/><path class="cls-4" d="M458.51,304.21v0.29c-4.92.07-10.7-1.68-17.18-6.72A26.85,26.85,0,0,1,457,289.3l0.08,0.52A7.27,7.27,0,0,0,458.51,304.21Z"/><path class="cls-44" d="M445.54,626.87v18.68c-46.18,26.66-108.26.74-108.26,0.74,2.6-6.62,4.13-10.74,4.13-10.74a47.22,47.22,0,0,0-1.69-8.24l1.69-.45C401.78,647.51,445.54,626.87,445.54,626.87Z"/><path class="cls-52" d="M440.38,350.21c2.34,2.26.24,3.5-4.4,4.06-9.92,1.21-31.46-.68-46.25-2.26-8.9-1-15.35-1.8-15.35-1.8s47-11,50-5C424.38,345.21,430.05,340.21,440.38,350.21Z"/><path class="cls-52" d="M389.73,352c14.79,1.58,36.33,3.47,46.25,2.26C436,354.27,424.42,379.48,389.73,352Z"/><path class="cls-49" d="M370.35,929.35c-49.24-1.12-84.87-2.8-110.64-4.65,29.34-4.84,25.35-41,25.35-41h0c32.52,11.78,97.6,27.15,97.6,27.15,30.28,2.67,24.39,18.67,24.39,18.67-12,34-43.34,67.33-43.34,67.33-15.33-20,6.64-67.52,6.64-67.52h0Z"/><path d="M396.55,299.21a0.57,0.57,0,0,1,0,.13,9.35,9.35,0,0,1-2.47,5.13,0,0,0,0,1,0,0A6.81,6.81,0,1,1,396.55,299.21Z"/><path class="cls-4" d="M388.19,288.32l0,0.28c-0.32,0-.64-0.05-1-0.05a9.45,9.45,0,0,0-1,18.85c-14.66-.89-24.14-13.52-24.14-13.52C372,288.71,380.89,287.58,388.19,288.32Z"/><path class="cls-53" d="M349.39,370.35c5.08,9.17,5.92,21.84,5.68,31.21l-12.35,7.19-1.31-2.25S352.66,389,349.39,370.35Z"/><path class="cls-44" d="M267.76,875.36c2.12,2.28,8.53,5.2,17.3,8.37h0s4,36.12-25.35,41c-69.39-5-67.33-11.15-67.33-11.15-13.33-29.34,80-154,100.67-178.67,13.57-16.2,30.17-54,40-78h0c-0.41,2-18.83,93.43-4.08,146C300.5,818.79,278.79,854.21,267.76,875.36Z"/><path class="cls-46" d="M238.81,565.35c-21,22.46-47.12,21.26-60.2,9.53-17.1-15.33,0-33.14,0-33.14,16.9,22.86,29.26-28.16,29.26-28.16,11.4-2.5,23.31-5,34.59-7.09,16.91-3.17,32.38-5.57,42.51-6.18a43.91,43.91,0,0,1,9,.15c5.88,15.17,14.35,37.26,22.51,59.28-15.19,15.53-28.88-5.33-28.88-5.33C264.07,591.14,239.48,566,238.81,565.35Z"/><path class="cls-44" d="M183,328.21c11,11.61-1.52,19.41-1.52,19.41l-0.69.24c2.9,7.16-4.41,8.56-4.41,8.56s-16,9.46-24.7,10.5l0,0.29c-1.68,47.36,4.64,79.47,11.31,99.64-20,28.92-35.2,14-35.2,14-1.68-46.33-.11-137.46-0.11-137.46s18-53.87,42-41.21S183,328.21,183,328.21Z"/><path class="cls-54" d="M428.38,311.55s10.67,10.66,14,12,0,12-14,14"/><path class="cls-54" d="M389.73,352c-8.9-1-15.35-1.8-15.35-1.8s47-11,50-5c0,0,5.67-5,16,5,2.34,2.26.24,3.5-4.4,4.06C426.06,355.48,404.52,353.59,389.73,352Z"/><path class="cls-54" d="M436,354.27s-11.56,25.21-46.25-2.26"/><path class="cls-54" d="M477.68,292.13a47.7,47.7,0,0,0-.15-18,34.66,34.66,0,0,0-2.48-7.38,32.86,32.86,0,0,0-2.34-4.19L472,262l-2.6-1.83c-24.33,17-95.61,4.27-95.61,4.27"/><path class="cls-54" d="M477.68,292.18v0"/><path class="cls-54" d="M339.52,309.37c52,30.67,88.86-2.16,88.86-2.16s13.61,14,31.13,11.6a31.24,31.24,0,0,0,9.87-3.13,78,78,0,0,0,8-22c0.09-.48.18-1,0.26-1.45"/><path class="cls-54" d="M386.37,307.41a11.55,11.55,0,0,0,1.18,0c6.73,0.08,14.48-2.37,22.87-9.56a39.56,39.56,0,0,0-22.23-9.56c-7.3-.74-16.15.39-26.14,5.56,0,0,9.48,12.63,24.14,13.52"/><path class="cls-54" d="M458.52,304.5c-4.92.07-10.7-1.68-17.18-6.72A26.85,26.85,0,0,1,457,289.3c5.54-.88,12.42-0.12,20.45,4.34C477.41,293.64,470.46,304.37,458.52,304.5Z"/><path class="cls-54" d="M394.06,304.48a6.81,6.81,0,1,1,2.49-5.27,0.57,0.57,0,0,1,0,.13,6.76,6.76,0,0,1-2.47,5.13"/><path class="cls-54" d="M388.16,288.6a9.45,9.45,0,0,1,8.48,9.4,8.54,8.54,0,0,1-.1,1.34,9.35,9.35,0,0,1-2.47,5.13,0,0,0,0,1,0,0,9.36,9.36,0,0,1-6.51,3h-0.36a7.38,7.38,0,0,1-.82,0h-0.18a9.45,9.45,0,0,1,1-18.85C387.52,288.55,387.84,288.57,388.16,288.6Z"/><path class="cls-54" d="M457,289.82a7.19,7.19,0,0,1,1.47-.15A7.27,7.27,0,1,1,457,289.82Z"/><circle class="cls-54" cx="460.71" cy="297.22" r="5"/><path class="cls-54" d="M405.71,285.55c-1.66-1-18.66-22-43.66-7.67"/><path class="cls-54" d="M445.38,285.55s18.51-17.42,32.15-11.43a2.07,2.07,0,0,1,.34.15,15,15,0,0,1,3.84,2.61"/><path class="cls-54" d="M387.19,385.55a124.33,124.33,0,0,0,6.51,20.95c2,4.51,4.32,8.56,7,10.71,0,0-8.86,6-6.76,11,0,0-32.9-16.66-39.9-14a106.35,106.35,0,0,0,1-12.65c0.24-9.37-.6-22-5.68-31.21a26.18,26.18,0,0,0-2-3.14"/><path class="cls-54" d="M347.38,363.21s21.39,13,39.87,22.22c8.12,4,15.67,7.33,20.61,8.45,16.19,3.67,52.85-59.33,52.85-59.33s6.25-10.81-1.2-15.74"/><path class="cls-54" d="M335.05,401.55s15.39-14.62,12.33-34.34"/><path class="cls-54" d="M341.41,406.5s11.25-17.53,8-36.15a36.92,36.92,0,0,0-2-7.14"/><path class="cls-54" d="M355.08,401.55h0l-12.35,7.19-72.34,42.13-8,2.68c-8.86,3-24,8.13-39.44,13.58-22.05,7.76-44.87,16.15-51.5,19.85a7.65,7.65,0,0,0-1.74,1.22"/><path class="cls-54" d="M176.38,494.88a52.23,52.23,0,0,1-4.93-7.89A128,128,0,0,1,163,466.85c-6.67-20.17-13-52.28-11.31-99.64"/><path class="cls-54" d="M160.38,354.66s-3.33-16.69-12.67,3.76c-3.27,7.18-.72,9.07,4,8.5,8.69-1,24.7-10.5,24.7-10.5s7.31-1.4,4.41-8.56c-1.72-4.23-7-10.49-19.48-19.65"/><path class="cls-54" d="M181.48,347.62s12.5-7.8,1.52-19.41c-2.75-2.91-7-6.07-13.29-9.4"/><path class="cls-54" d="M183,328.21s10.71-13.33-13.29-26-42,41.21-42,41.21-1.57,91.13.11,137.46c0.51,14.05,1.32,24,2.56,26,5.33,8.67,4.12,27.33,21.06,21,7-2.62,30.37-8.57,56.43-14.3,11.4-2.5,23.31-5,34.59-7.09,16.91-3.17,32.38-5.57,42.51-6.18a43.91,43.91,0,0,1,9,.15,8,8,0,0,1,1.7.42"/><path class="cls-54" d="M286.38,480.88s3,7.65,7.63,19.58c5.88,15.17,14.35,37.26,22.51,59.28,9.95,26.83,19.43,53.56,23.2,67.57a47.22,47.22,0,0,1,1.69,8.24s-1.53,4.12-4.13,10.74c-1.21,3.06-2.64,6.65-4.26,10.62-9.8,24-26.4,61.77-40,78-20.67,24.67-114,149.33-100.67,178.67,0,0-2.06,6.19,67.33,11.15,25.77,1.85,61.4,3.53,110.64,4.65l8.7,0.2"/><path class="cls-54" d="M452.88,583.13c4.67-23.37,9.88-46.14,10.59-49.22,0.05-.24.08-0.36,0.08-0.36"/><path class="cls-54" d="M445.38,635.55a38,38,0,0,1,.16-8.68"/><path class="cls-54" d="M473.42,470.87a42.55,42.55,0,0,0-9.87-5.32"/><path class="cls-54" d="M416.38,525.88s26.24,13.27,46.91,7.4c10.59-3,19.71-11,23.09-28.4,0,0,4.75-21-12.94-34"/><path class="cls-54" d="M389.73,529.17s-30,28.28-62,0,0-63.62,0-63.62"/><path class="cls-54" d="M473.42,470.87h0c0.4,0.1,6.56,1.75,16.22,4.23,34.88,8.95,115.24,28.64,133.39,25.05,5.65-1.11,14.84-8.3,25.54-18.56,33.51-32.13,81.77-94.38,81.77-94.38"/><path class="cls-54" d="M393.71,406.5s26.52,5.05,60.66,11.86c10.34,2.06,21.37,4.28,32.59,6.58,47.43,9.7,98,20.65,111.94,25.94"/><polyline class="cls-54" points="589.71 455.55 599.05 451.2 622.14 440.45 628.38 437.55 702.38 388.38"/><path class="cls-54" d="M709.71,367.21s-14,2.09-7.33-8.79c5.68-9.25-7-10.22-13.78,0a22.53,22.53,0,0,0-2.89,6.41c-4.66,16.72,16.67,23.55,16.67,23.55"/><path class="cls-54" d="M722.88,387.22a71.26,71.26,0,0,0,7.45-.35c11.62-1.07,34.18-5.32,48-22"/><path class="cls-54" d="M370.35,929.36s-22,47.52-6.64,67.52c0,0,31.34-33.33,43.34-67.33,0,0,5.89-16-24.39-18.67,0,0-65.08-15.37-97.6-27.15-8.77-3.17-15.18-6.09-17.3-8.37a2.93,2.93,0,0,1-.71-1.15"/><path class="cls-54" d="M259.71,892.21s2.82-6.82,8-16.85c11-21.15,32.74-56.57,61.19-72.42l0.1-.06"/><path class="cls-54" d="M285.06,883.74s4,36.12-25.35,41"/><path class="cls-54" d="M445.54,626.87s-43.76,20.64-104.13,0"/><path class="cls-54" d="M333,656.88v0c-0.41,2-18.83,93.43-4.08,146,3.39,12.12,8.55,22.18,16.1,28.61,40.66,34.66,85.33,62,89.33,72.67,0,0-7.43-57.15,55-113.76q7.5-6.82,16.38-13.58c28.47-21.6,46.9-34.41,59.48-42,22.77-13.77,26.41-10.47,35.86-11.33,14.66-1.34-6-7.34-6-7.34s-136.36-41.33-149.51-70.66V626.87h0c1-10.41,4-27.22,7.34-43.73"/><path class="cls-54" d="M337.28,646.29s62.08,25.92,108.26-.74"/><path class="cls-54" d="M489.33,790.46s192.38,63.75,242.38,102.42c0,0,148.67,72.67,173.34,76s12-12,12-12l-48.67-46s-13.13-10.7-28.18-.94a37.58,37.58,0,0,0-7.82,6.94"/><path class="cls-54" d="M840.2,909.94s-33.43-28.8-81.42-63.86c-54.9-40.12-128.85-88.43-193.59-111.2"/><path class="cls-54" d="M757.94,847.23s11.11,41-26.23,45.65"/><path class="cls-54" d="M256.44,337.55c8.94-26,8.44-41.61.61-58.33-8.42-18,28.66-121.67,101.33-114.34a49.6,49.6,0,0,1,20.67,2.7c12.42,4.23,27.65,14.45,37.33,38.63,0,0-9.32,39.94-42.61,58.27a72.08,72.08,0,0,1-26.39,8.41,99.28,99.28,0,0,0-7.86,36.48,77.42,77.42,0,0,0,2.86,22.84c3.51,12.22,5,22.39,4.59,31-0.67,15.9-7.58,26.41-19.26,34.52"/><path class="cls-54" d="M379.05,167.58s62-24.7,102.66,36.63c40.28,60.75-3.18,87.45-4,88h0a0.1,0.1,0,0,1,0,0h0a37.78,37.78,0,0,0,.19-17.86,32.17,32.17,0,0,0-2.82-7.53A30.46,30.46,0,0,0,472,262a37.6,37.6,0,0,0-13.47-10.49c-27.46-13.34-42.13-45.34-42.13-45.34"/><path class="cls-54" d="M477.67,292.18h0c0.21,0.8,11.31,44.43-4.25,59.82a45.13,45.13,0,0,0-8.27,11.2,50.38,50.38,0,0,0-5.64,25.17"/><path class="cls-54" d="M465.15,363.21s2.56,26.34,16.56,38.34S487,424.94,487,424.94"/><path class="cls-54" d="M441.34,377.55s-0.58,18,9.9,24,3.13,16.81,3.13,16.81"/><path class="cls-54" d="M419.05,394.08s-1.15,5.74,4,12.42"/><path class="cls-54" d="M285.06,377.55s-10,16.66-8.68,32.66-8.39,41.46-14,43.35"/><path class="cls-54" d="M222.38,465.55c0.67-1.34,13.33-36.76,8-59.05-5.05-21.11,5.45-37.48,6.57-39.15l0.1-.14"/><path class="cls-54" d="M257.05,279.22c-23,17.24-28,52.49-20.1,88.13a165.6,165.6,0,0,0,4.76,17s5.34,10.5,3.34,29.17"/><path class="cls-54" d="M345.7,193.55s-24.65,7.33-26.65,29.33-23.34,25.33-23.34,25.33"/><path class="cls-54" d="M365.71,210.88s-46.68,29.33-45,58-6.33,62-16.33,59.33"/><path class="cls-54" d="M292.38,279.2s-18.63,32.35-7.32,49-15.35,39-15.35,39"/><path class="cls-54" d="M207.87,513.58s-12.36,51-29.26,28.16c0,0-17.1,17.81,0,33.14,13.08,11.73,39.24,12.93,60.2-9.53,6.43-6.9,12.38-16,17.3-27.8"/><path class="cls-54" d="M238.8,565.34h0c0.67,0.69,25.26,25.79,48.83-10.94a130.63,130.63,0,0,0,12.07-25.24"/><path class="cls-54" d="M287.64,554.41s13.69,20.86,28.88,5.33"/><path class="cls-54" d="M281.05,533.55s9.37-15.26,4-20c-4.94-4.34-.76-12.09-0.09-13.27l0.09-.15"/><path class="cls-54" d="M243.38,506.3c-0.29-1.13-.59-1-0.92.19-0.84,2.87-1.92,11.85-3.66,22.68-3.09,19.19-25.24,25.24-25.24,25.24"/><path class="cls-54" d="M452.87,583.13h0a26.33,26.33,0,0,0,10.28-11.47,31.61,31.61,0,0,0,2.61-17.25"/><path class="cls-54" d="M463.17,571.67s30.39,0.26,33.13-17.26"/><path class="cls-54" d="M488.66,525.88s-1.3,18.1,7.67,28.51a19.72,19.72,0,0,0,7.72,5.56c17.33,6.93-6.25,24.6-6.25,24.6s38.91-7.67,18.91-51-30.78-36.88-27.05-58.44"/><path class="cls-54" d="M127.82,480.88s15.17,14.89,35.2-14c0.3-.42.59-0.86,0.89-1.3"/><path class="cls-54" d="M622.14,440.45s31.15,14.36,26.45,41.15"/><path class="cls-54" d="M837.1,368.9a2.61,2.61,0,0,1-.28.17,3.07,3.07,0,0,1-1.78.4l-56.65-4.72-76-6.33"/><path class="cls-54" d="M688.6,358.42l-28.67-2.7a6.69,6.69,0,0,1-5.25-3.48l-3.63-6.7a2.29,2.29,0,0,1,.94-3.1,2.2,2.2,0,0,1,1.23-.25l181.9,13.45a3.75,3.75,0,0,1,.67.11,3.53,3.53,0,0,1,2.59,3.4v7.24a3.08,3.08,0,0,1-1.27,2.5"/><path class="cls-54" d="M836.82,369.07l0.28-.17h0l97-60.27c3.17-1.95,3.31-7.24-1-7.25L932.4,301l-0.74-.13a2.23,2.23,0,0,0-1.11.3l-93.73,54.52"/><path class="cls-54" d="M931.88,300.38L739.28,288a4.72,4.72,0,0,0-.84,0,4.41,4.41,0,0,0-1.75.64L652,342.44"/><path class="cls-54" d="M738.44,288s27.79-90.09,34.3-120.81c1.64-7.77,1.58-7.77,17.74-7.77h184.4c11.5,0,15.5,1.38,11.5,14.5-3.43,11.26-29.32,93.59-43.5,123.88a7.24,7.24,0,0,1-5.5,3.62,19.57,19.57,0,0,1-4.86-.8l-0.64-.2"/><path class="cls-54" d="M972.38,167.88h-189s-4,.5-5,6c-0.93,5.1-24,84.91-27.34,96.58a39.66,39.66,0,0,0-1.28,5.23c-0.39,2.77-.13,5.69,7.12,5.69,6,0,146.46,8.78,166.62,10a12.59,12.59,0,0,0,5.33-.82c4-1.57,11-5.11,12.71-11.4,2.5-9,36.34-102.82,36.34-102.82S981.38,167.88,972.38,167.88Z"/><path class="cls-54" d="M750.63,290.38s117.58,7.83,157.25,10c1.88,0.1,15.17-.57,4,6.4-5.46,3.41-32.56,19.18-43,25.6-4.26,2.62-3.32,2.41-18.5.5-14.83-1.87-127.19-11.11-131.85-11.49h-0.29c-17.36-1.67-21.84.12-14-6.18a319,319,0,0,1,31.94-22.79C740.47,289.72,750.63,290.38,750.63,290.38Z"/><path class="cls-55" d="M749.64,325.88s-4.32-2.3-7.82,2.86c-2.39,3.54-8,9.54-9.61,13.7-0.58,1.52.5,2.77,3.5,2.77"/><path class="cls-55" d="M799.6,330.05s6.28,0,3.78,4.28-8.83,11.72-8.83,11.72-3.07,3.83-7.67,2.33"/><g id="Layer_3" data-name="Layer 3"><circle class="cls-56" cx="461.69" cy="296.07" r="1.1"/><circle class="cls-56" cx="392.88" cy="296.88" r="1.29"/><circle class="cls-56" cx="389.74" cy="300.72" r="1.5"/><circle class="cls-56" cx="460.08" cy="298.97" r="1.25"/></g><rect class="cls-57" x="876.88" y="161.63" width="3.5" height="3.5" rx="1.75" ry="1.75"/></svg>