<?xml version="1.0" encoding="utf-8"?>
<!-- Generator: Adobe Illustrator 19.2.0, SVG Export Plug-In . SVG Version: 6.00 Build 0)  -->
<svg version="1.1" xmlns="http://www.w3.org/2000/svg" xmlns:xlink="http://www.w3.org/1999/xlink" x="0px" y="0px"
	 viewBox="0 0 1145.9 1168.9" style="enable-background:new 0 0 1145.9 1168.9;" xml:space="preserve">
<style type="text/css">
	.st0{display:none;}
	.st1{display:inline;}
	.st2{fill:#D6D6D6;}
	.st3{fill:#484748;}
	.st4{fill:#50979B;}
	.st5{fill:#FFFFFF;}
	.st6{fill:none;stroke:#FFFFFF;stroke-width:6;stroke-miterlimit:10;}
	.st7{font-family:'AzoSansUber-Regular';}
	.st8{font-size:90px;}
	.st9{fill:#727373;stroke:#565656;stroke-width:3;stroke-miterlimit:10;}
	.st10{stroke:#5E5F5F;stroke-width:3;stroke-miterlimit:10;}
	.st11{fill:#F7F7F7;stroke:#B7B7B7;stroke-miterlimit:10;}
	.st12{fill:#CBEAEF;}
	.st13{fill:#282828;}
	.st14{fill:#828282;}
	.st15{fill:none;stroke:#BCBCBC;stroke-miterlimit:10;}
	.st16{fill:#F7F7F7;}
	.st17{fill:#FFFFFF;stroke:#828282;stroke-width:4;stroke-miterlimit:10;}
	.st18{fill:none;stroke:#DCDBDB;stroke-width:2;stroke-miterlimit:10;}
	.st19{fill:none;stroke:#DCDBDB;stroke-miterlimit:10;}
	.st20{fill:#DCDBDB;}
	.st21{fill:#F4F4F4;}
	.st22{fill:none;stroke:#353535;stroke-miterlimit:10;}
	.st23{fill:none;stroke:#EA9C23;stroke-width:3;stroke-miterlimit:10;}
	.st24{fill:none;stroke:#0D8296;stroke-width:3;stroke-miterlimit:10;}
	.st25{fill:#FFF0B3;}
	.st26{fill:#F4D7E8;}
	.st27{fill:#58595B;}
	.st28{fill:#3D3D3D;}
	.st29{fill:#231612;}
	.st30{fill:#301C11;}
	.st31{fill:#3F2A1C;}
	.st32{fill:#563C2B;}
	.st33{fill:#171617;stroke:#121212;stroke-width:3;stroke-miterlimit:10;}
	.st34{fill:#35241D;}
	.st35{fill:#28572A;}
	.st36{fill:#366994;}
	.st37{fill:#41111B;}
	.st38{fill:#16763B;stroke:#1D351A;stroke-miterlimit:10;}
	.st39{fill:#342556;}
	.st40{fill:#C07C2A;}
	.st41{fill:#761113;stroke:#41111B;stroke-miterlimit:10;}
	.st42{fill:none;stroke:#213A1B;stroke-miterlimit:10;}
	.st43{fill:none;stroke:#FFFFFF;stroke-miterlimit:10;}
	.st44{fill:#1B1B1C;}
	.st45{fill:#8C8C8C;}
	.st46{fill:#FCB141;}
	.st47{fill:#FDD5B9;}
	.st48{fill:#421313;}
	.st49{fill:#1B6734;}
	.st50{fill:#9D9D9D;}
	.st51{fill:#1E1E1E;}
	.st52{fill:#3F403F;}
	.st53{fill:#EA496B;}
	.st54{fill:#EF558F;}
	.st55{fill:#34111A;}
	.st56{fill:none;stroke:#000000;stroke-miterlimit:10;}
	.st57{fill:none;stroke:#787878;stroke-miterlimit:10;}
	.st58{fill:#333333;}
	.st59{fill:#1B1B1C;stroke:#000000;stroke-miterlimit:10;}
</style>
<g id="Layer_1" class="st0">
	<g id="bNdmsu.tif" class="st1">
		
			<image style="overflow:visible;" width="1080" height="1080" id="Layer_0_1_" xlink:href="5D10448EACC9C5E3.png"  transform="matrix(1 0 0 1 25.3813 -12.1168)">
		</image>
	</g>
</g>
<g id="Layer_25">
	<rect class="st2" width="1145.9" height="838.5"/>
	<rect y="705.2" class="st3" width="1145.9" height="463.7"/>
	<g id="Layer_26">
		<rect class="st4" width="1145.9" height="434.3"/>
	</g>
	<rect y="705.2" class="st5" width="1145.9" height="29.7"/>
	<rect y="428.2" class="st5" width="1145.9" height="12.2"/>
	<polyline class="st6" points="0,461 134.6,461 134.6,684.8 0,684.8 	"/>
	<rect x="169" y="461" class="st6" width="174.6" height="223.9"/>
	<rect x="377.9" y="461" class="st6" width="174.6" height="223.9"/>
	<rect x="586.9" y="461" class="st6" width="174.6" height="223.9"/>
	<rect x="795.9" y="461" class="st6" width="174.6" height="223.9"/>
	<polyline class="st6" points="1145.9,684.8 1004.8,684.8 1004.8,461 1145.9,461 	"/>
	<text transform="matrix(1 0 0 1 52.1028 1122.8832)" class="st5 st7 st8">CODEMASTERKAROL</text>
</g>
<g id="Background">
	<g id="iMac">
		<path class="st9" d="M522.4,563c0,0-3,31,20,36.9c23,5.9-93.3,2.9-93.3,2.9s18.8-16.9,16-42.9C462.4,533.9,522.4,563,522.4,563z"
			/>
		<path class="st10" d="M586.9,566.8H335.2c-6.6,0-12-5.4-12-12V416.5c0-6.6,5.4-12,12-12h251.7c6.6,0,12,5.4,12,12v138.3
			C598.9,561.4,593.5,566.8,586.9,566.8z"/>
	</g>
	<g id="Layer_19">
		<path class="st11" d="M675.9,603.6h-12.8c-6.6,0-12-5.4-12-12V535c0-6.6,5.4-12,12-12h12.8c6.6,0,12,5.4,12,12v56.7
			C687.9,598.2,682.5,603.6,675.9,603.6z"/>
		<rect x="659.5" y="504.4" class="st11" width="19.9" height="26.6"/>
		<g id="Layer_23">
			<path class="st12" d="M651.8,540.5c0,0,3,1.6,6.5,0.3c0,0,5.7,1.9,8.8,0c0,0,5.5,2.1,8.3,0c0,0,4.8,2,7.5,0c0,0,4.3,0.7,4.3-0.3
				l-0.1,50.7c0,0,1.1,11.9-14.2,12.4c-15.3,0.5-21-4.9-21-12.7S651.8,540.5,651.8,540.5z"/>
		</g>
		<path class="st13" d="M659.5,512.1v-7.7h19.9v7.7C679.5,512.1,670.3,514.8,659.5,512.1z"/>
		<ellipse class="st14" cx="669.5" cy="504.4" rx="10" ry="1.5"/>
		<path class="st15" d="M659.9,525"/>
		<path class="st15" d="M679.5,524.2"/>
		<path class="st15" d="M679.5,512.1"/>
		<g id="Layer_24">
			<path class="st16" d="M658.3,525.8c0,0-0.3-0.6,2.6-1.5c2.9-0.9,18.7-1.8,20.1,2c1.3,3.8-1.6,7-1.6,7l-22.2-0.5L658.3,525.8z"/>
		</g>
	</g>
	<g id="Whiteboard">
		<path class="st17" d="M891.8,368.6h-334c-6.6,0-12-5.4-12-12V146.7c0-6.6,5.4-12,12-12h334c6.6,0,12,5.4,12,12v209.9
			C903.8,363.2,898.4,368.6,891.8,368.6z"/>
		<g id="Layer_6">
			<polyline class="st18" points="665.9,220.6 698.1,231.8 709.4,199.5 			"/>
			<polyline class="st19" points="593,211.8 629.4,209.8 627.5,175.2 			"/>
			<rect x="574.4" y="248.2" class="st20" width="78.7" height="91.2"/>
		</g>
		<g id="Layer_7">
			<rect x="573.4" y="247.2" class="st21" width="78.7" height="91.2"/>
		</g>
		<g id="Layer_8">
			<polyline class="st22" points="584.4,272.9 584.4,312.3 638.9,312.3 			"/>
		</g>
		<g id="Layer_9">
			<polyline class="st23" points="584.4,293.8 598.9,285.5 612.7,292.8 635.6,279.2 			"/>
			<polyline class="st24" points="584.4,285.5 598.9,300.4 604.4,293.8 625.4,300.7 638.9,296.9 			"/>
		</g>
		
			<rect x="590.4" y="172.9" transform="matrix(0.9986 -5.338489e-02 5.338489e-02 0.9986 -9.3747 32.8054)" class="st25" width="38" height="38"/>
		
			<rect x="669.1" y="190.9" transform="matrix(0.9445 0.3284 -0.3284 0.9445 106.7122 -214.0651)" class="st26" width="36" height="36"/>
		<g>
			<path d="M588.7,261.2c-0.3,0.2-0.6,0.3-1,0.3c-0.3,0-0.6-0.1-0.9-0.2s-0.5-0.3-0.6-0.5s-0.3-0.4-0.4-0.7
				c-0.1-0.3-0.1-0.6-0.1-0.8s0-0.6,0.1-0.8c0.1-0.3,0.2-0.5,0.4-0.7s0.4-0.4,0.6-0.5c0.3-0.1,0.6-0.2,0.9-0.2s0.6,0.1,0.9,0.2
				c0.3,0.1,0.5,0.3,0.6,0.5c0.2,0.2,0.3,0.4,0.4,0.7s0.1,0.6,0.1,0.8c0,0.3-0.1,0.6-0.2,0.9s-0.3,0.6-0.5,0.8l0.6,0.4l-0.3,0.4
				L588.7,261.2z M588.7,260.6c0.2-0.2,0.3-0.4,0.4-0.6c0.1-0.2,0.1-0.5,0.1-0.8c0-0.2,0-0.4-0.1-0.6c-0.1-0.2-0.1-0.4-0.3-0.6
				s-0.3-0.3-0.5-0.4c-0.2-0.1-0.4-0.2-0.7-0.2c-0.3,0-0.5,0.1-0.7,0.2c-0.2,0.1-0.3,0.2-0.5,0.4c-0.1,0.2-0.2,0.4-0.3,0.6
				c-0.1,0.2-0.1,0.4-0.1,0.6c0,0.2,0,0.4,0.1,0.6s0.1,0.4,0.3,0.6c0.1,0.2,0.3,0.3,0.5,0.4c0.2,0.1,0.4,0.2,0.7,0.2
				c0.2,0,0.4,0,0.6-0.1l-0.5-0.4l0.3-0.3L588.7,260.6z"/>
			<path d="M592.4,261.4v-0.5h0c-0.1,0.2-0.2,0.3-0.4,0.4c-0.2,0.1-0.4,0.1-0.6,0.1c-0.2,0-0.4,0-0.5-0.1c-0.1-0.1-0.2-0.1-0.3-0.2
				c-0.1-0.1-0.1-0.2-0.2-0.4c0-0.1-0.1-0.3-0.1-0.5v-2h0.5v2.1c0,0.2,0.1,0.3,0.2,0.5c0.1,0.1,0.3,0.2,0.5,0.2c0.2,0,0.3,0,0.4-0.1
				c0.1,0,0.2-0.1,0.3-0.2s0.1-0.2,0.2-0.3s0.1-0.2,0.1-0.4v-1.8h0.5v3.1H592.4z"/>
			<path d="M596.4,261.4c-0.1,0.1-0.2,0.1-0.4,0.1c-0.1,0-0.2,0-0.3-0.1c-0.1-0.1-0.1-0.2-0.1-0.4c-0.1,0.2-0.3,0.3-0.5,0.4
				c-0.2,0.1-0.4,0.1-0.6,0.1c-0.1,0-0.3,0-0.4,0c-0.1,0-0.2-0.1-0.3-0.1c-0.1-0.1-0.2-0.2-0.2-0.3s-0.1-0.2-0.1-0.4
				c0-0.2,0-0.3,0.1-0.4c0.1-0.1,0.1-0.2,0.2-0.3s0.2-0.1,0.3-0.2s0.3-0.1,0.4-0.1c0.1,0,0.3,0,0.4-0.1s0.2,0,0.3-0.1
				s0.2-0.1,0.2-0.1c0.1-0.1,0.1-0.1,0.1-0.2c0-0.1,0-0.2-0.1-0.3s-0.1-0.1-0.2-0.2c-0.1,0-0.1-0.1-0.2-0.1c-0.1,0-0.2,0-0.2,0
				c-0.2,0-0.4,0-0.5,0.1c-0.1,0.1-0.2,0.2-0.2,0.5h-0.5c0-0.2,0-0.4,0.1-0.5s0.2-0.2,0.3-0.3s0.3-0.1,0.4-0.2
				c0.2,0,0.3-0.1,0.5-0.1c0.1,0,0.3,0,0.4,0c0.1,0,0.3,0.1,0.4,0.1c0.1,0.1,0.2,0.1,0.3,0.3s0.1,0.3,0.1,0.4v1.6c0,0.1,0,0.2,0,0.3
				c0,0.1,0.1,0.1,0.1,0.1c0,0,0.1,0,0.2,0V261.4z M595.6,259.8c-0.1,0-0.1,0.1-0.3,0.1c-0.1,0-0.2,0-0.3,0.1c-0.1,0-0.2,0-0.3,0
				s-0.2,0-0.3,0.1c-0.1,0-0.2,0.1-0.2,0.2c-0.1,0.1-0.1,0.2-0.1,0.3c0,0.1,0,0.2,0.1,0.2c0,0.1,0.1,0.1,0.1,0.1
				c0.1,0,0.1,0.1,0.2,0.1c0.1,0,0.1,0,0.2,0c0.2,0,0.3,0,0.4-0.1s0.2-0.1,0.3-0.2c0.1-0.1,0.1-0.1,0.2-0.2s0.1-0.2,0.1-0.2V259.8z"
				/>
			<path d="M597.3,258.3v0.7h0c0.1-0.3,0.3-0.4,0.5-0.6c0.2-0.1,0.4-0.2,0.7-0.2v0.5c-0.2,0-0.4,0-0.5,0.1c-0.1,0.1-0.3,0.1-0.3,0.2
				c-0.1,0.1-0.2,0.2-0.2,0.4c0,0.2-0.1,0.3-0.1,0.5v1.4h-0.5v-3.1H597.3z"/>
			<path d="M600.2,258.3v0.5h-0.6v1.9c0,0.1,0,0.1,0,0.1c0,0,0,0.1,0.1,0.1s0.1,0,0.1,0c0,0,0.1,0,0.2,0h0.2v0.5h-0.4
				c-0.1,0-0.2,0-0.3,0c-0.1,0-0.2-0.1-0.2-0.1s-0.1-0.1-0.1-0.2s0-0.2,0-0.3v-2h-0.5v-0.5h0.5v-0.9h0.5v0.9H600.2z"/>
			<path d="M603,261.2c-0.2,0.2-0.5,0.3-0.9,0.3c-0.2,0-0.5,0-0.6-0.1c-0.2-0.1-0.3-0.2-0.5-0.3s-0.2-0.3-0.3-0.5
				c-0.1-0.2-0.1-0.4-0.1-0.7c0-0.2,0-0.5,0.1-0.6s0.2-0.4,0.3-0.5c0.1-0.1,0.3-0.3,0.5-0.3c0.2-0.1,0.4-0.1,0.6-0.1
				c0.3,0,0.5,0.1,0.7,0.2c0.2,0.1,0.3,0.3,0.4,0.4c0.1,0.2,0.2,0.4,0.2,0.6c0,0.2,0.1,0.4,0.1,0.6h-2.3c0,0.1,0,0.3,0,0.4
				c0,0.1,0.1,0.2,0.2,0.3c0.1,0.1,0.2,0.2,0.3,0.2s0.3,0.1,0.4,0.1c0.2,0,0.4,0,0.5-0.1s0.2-0.3,0.3-0.5h0.5
				C603.3,260.7,603.2,261,603,261.2z M602.8,259.2c0-0.1-0.1-0.2-0.2-0.3c-0.1-0.1-0.2-0.1-0.3-0.2c-0.1,0-0.2-0.1-0.4-0.1
				c-0.1,0-0.3,0-0.4,0.1c-0.1,0-0.2,0.1-0.3,0.2s-0.1,0.2-0.2,0.3s-0.1,0.2-0.1,0.3h1.8C602.9,259.4,602.9,259.3,602.8,259.2z"/>
			<path d="M604.5,258.3v0.7h0c0.1-0.3,0.3-0.4,0.5-0.6c0.2-0.1,0.4-0.2,0.7-0.2v0.5c-0.2,0-0.4,0-0.5,0.1c-0.1,0.1-0.3,0.1-0.3,0.2
				c-0.1,0.1-0.2,0.2-0.2,0.4c0,0.2-0.1,0.3-0.1,0.5v1.4H604v-3.1H604.5z"/>
			<path d="M606.5,257.1v4.3H606v-4.3H606.5z"/>
			<path d="M608.5,261.8c-0.1,0.2-0.1,0.3-0.2,0.4c-0.1,0.1-0.1,0.2-0.2,0.3c-0.1,0.1-0.1,0.1-0.2,0.1c-0.1,0-0.2,0-0.3,0
				c-0.1,0-0.1,0-0.2,0c-0.1,0-0.1,0-0.2,0v-0.5c0,0,0.1,0,0.2,0.1s0.1,0,0.1,0c0.1,0,0.2,0,0.3-0.1c0.1,0,0.1-0.1,0.2-0.2l0.2-0.5
				l-1.2-3.1h0.6l0.9,2.5h0l0.9-2.5h0.5L608.5,261.8z"/>
			<path d="M614.1,257.1c0.4,0,0.7,0.1,1,0.3c0.2,0.2,0.3,0.5,0.3,0.8c0,0.3-0.1,0.5-0.2,0.7c-0.1,0.2-0.3,0.3-0.6,0.4v0
				c0.1,0,0.2,0.1,0.3,0.1s0.1,0.1,0.2,0.2c0,0.1,0.1,0.2,0.1,0.3c0,0.1,0,0.2,0.1,0.3c0,0.1,0,0.2,0,0.3c0,0.1,0,0.2,0,0.3
				c0,0.1,0,0.2,0.1,0.3c0,0.1,0.1,0.2,0.1,0.2h-0.6c0,0-0.1-0.1-0.1-0.2c0-0.1,0-0.2,0-0.3c0-0.1,0-0.2,0-0.3c0-0.1,0-0.2,0-0.3
				c0-0.1,0-0.2-0.1-0.3c0-0.1-0.1-0.2-0.1-0.2c-0.1-0.1-0.1-0.1-0.2-0.2s-0.2-0.1-0.3-0.1h-1.4v1.8h-0.6v-4.3H614.1z M614.2,259
				c0.1,0,0.2-0.1,0.3-0.1s0.2-0.1,0.2-0.2c0.1-0.1,0.1-0.2,0.1-0.4c0-0.2-0.1-0.4-0.2-0.5c-0.1-0.1-0.3-0.2-0.6-0.2h-1.4v1.5h1.2
				C614,259.1,614.1,259.1,614.2,259z"/>
			<path d="M618.3,261.2c-0.2,0.2-0.5,0.3-0.9,0.3c-0.2,0-0.5,0-0.6-0.1c-0.2-0.1-0.3-0.2-0.5-0.3s-0.2-0.3-0.3-0.5
				c-0.1-0.2-0.1-0.4-0.1-0.7c0-0.2,0-0.5,0.1-0.6s0.2-0.4,0.3-0.5c0.1-0.1,0.3-0.3,0.5-0.3c0.2-0.1,0.4-0.1,0.6-0.1
				c0.3,0,0.5,0.1,0.7,0.2c0.2,0.1,0.3,0.3,0.4,0.4c0.1,0.2,0.2,0.4,0.2,0.6c0,0.2,0.1,0.4,0.1,0.6h-2.3c0,0.1,0,0.3,0,0.4
				c0,0.1,0.1,0.2,0.2,0.3c0.1,0.1,0.2,0.2,0.3,0.2s0.3,0.1,0.4,0.1c0.2,0,0.4,0,0.5-0.1s0.2-0.3,0.3-0.5h0.5
				C618.7,260.7,618.5,261,618.3,261.2z M618.2,259.2c0-0.1-0.1-0.2-0.2-0.3c-0.1-0.1-0.2-0.1-0.3-0.2c-0.1,0-0.2-0.1-0.4-0.1
				c-0.1,0-0.3,0-0.4,0.1c-0.1,0-0.2,0.1-0.3,0.2s-0.1,0.2-0.2,0.3s-0.1,0.2-0.1,0.3h1.8C618.2,259.4,618.2,259.3,618.2,259.2z"/>
			<path d="M619.9,258.3v0.4h0c0.1-0.2,0.2-0.3,0.4-0.4c0.2-0.1,0.4-0.1,0.6-0.1c0.2,0,0.4,0,0.6,0.1s0.3,0.2,0.4,0.4
				c0.1,0.1,0.2,0.3,0.3,0.5c0.1,0.2,0.1,0.4,0.1,0.6c0,0.2,0,0.4-0.1,0.6s-0.1,0.4-0.3,0.5s-0.3,0.3-0.4,0.3s-0.4,0.1-0.6,0.1
				c-0.1,0-0.2,0-0.3,0s-0.2,0-0.3-0.1c-0.1,0-0.2-0.1-0.3-0.1s-0.2-0.1-0.2-0.2h0v1.6h-0.5v-4.3H619.9z M621.7,259.4
				c0-0.1-0.1-0.3-0.2-0.4s-0.2-0.2-0.3-0.3c-0.1-0.1-0.3-0.1-0.4-0.1c-0.2,0-0.3,0-0.4,0.1c-0.1,0.1-0.2,0.2-0.3,0.3
				c-0.1,0.1-0.1,0.2-0.2,0.4c0,0.1-0.1,0.3-0.1,0.4c0,0.2,0,0.3,0.1,0.4c0,0.1,0.1,0.3,0.2,0.4c0.1,0.1,0.2,0.2,0.3,0.3
				s0.3,0.1,0.5,0.1s0.3,0,0.4-0.1c0.1-0.1,0.2-0.2,0.3-0.3c0.1-0.1,0.1-0.2,0.2-0.4c0-0.1,0-0.3,0-0.4
				C621.7,259.7,621.7,259.5,621.7,259.4z"/>
			<path d="M622.8,259.2c0.1-0.2,0.2-0.4,0.3-0.5s0.3-0.3,0.5-0.3c0.2-0.1,0.4-0.1,0.6-0.1c0.2,0,0.5,0,0.7,0.1
				c0.2,0.1,0.3,0.2,0.5,0.3s0.2,0.3,0.3,0.5c0.1,0.2,0.1,0.4,0.1,0.6s0,0.4-0.1,0.6c-0.1,0.2-0.2,0.4-0.3,0.5s-0.3,0.3-0.5,0.3
				c-0.2,0.1-0.4,0.1-0.7,0.1c-0.2,0-0.5,0-0.6-0.1c-0.2-0.1-0.3-0.2-0.5-0.3s-0.2-0.3-0.3-0.5c-0.1-0.2-0.1-0.4-0.1-0.6
				S622.7,259.4,622.8,259.2z M623.3,260.3c0,0.1,0.1,0.3,0.2,0.4c0.1,0.1,0.2,0.2,0.3,0.2c0.1,0.1,0.2,0.1,0.4,0.1s0.3,0,0.4-0.1
				c0.1-0.1,0.2-0.1,0.3-0.2c0.1-0.1,0.2-0.2,0.2-0.4c0-0.1,0.1-0.3,0.1-0.5s0-0.4-0.1-0.5c-0.1-0.1-0.1-0.3-0.2-0.4
				s-0.2-0.2-0.3-0.2c-0.1-0.1-0.2-0.1-0.4-0.1s-0.3,0-0.4,0.1c-0.1,0.1-0.2,0.1-0.3,0.2s-0.2,0.2-0.2,0.4s-0.1,0.3-0.1,0.5
				S623.3,260.2,623.3,260.3z"/>
			<path d="M626.8,258.3v0.7h0c0.1-0.3,0.3-0.4,0.5-0.6c0.2-0.1,0.4-0.2,0.7-0.2v0.5c-0.2,0-0.4,0-0.5,0.1c-0.1,0.1-0.3,0.1-0.3,0.2
				c-0.1,0.1-0.2,0.2-0.2,0.4c0,0.2-0.1,0.3-0.1,0.5v1.4h-0.5v-3.1H626.8z"/>
			<path d="M629.6,258.3v0.5H629v1.9c0,0.1,0,0.1,0,0.1c0,0,0,0.1,0.1,0.1s0.1,0,0.1,0c0,0,0.1,0,0.2,0h0.2v0.5h-0.4
				c-0.1,0-0.2,0-0.3,0c-0.1,0-0.2-0.1-0.2-0.1s-0.1-0.1-0.1-0.2s0-0.2,0-0.3v-2H628v-0.5h0.5v-0.9h0.5v0.9H629.6z"/>
		</g>
		<g>
			<path d="M594.6,319.5l1.5,2.3h0v-2.3h0.4v2.9H596l-1.5-2.3h0v2.3h-0.4v-2.9H594.6z"/>
			<path d="M598.4,322.4v-0.3h0c-0.1,0.1-0.2,0.2-0.3,0.3c-0.1,0.1-0.2,0.1-0.4,0.1c-0.1,0-0.2,0-0.3-0.1c-0.1,0-0.2-0.1-0.2-0.2
				c-0.1-0.1-0.1-0.1-0.1-0.2c0-0.1,0-0.2,0-0.3v-1.4h0.3v1.4c0,0.1,0,0.2,0.1,0.3c0.1,0.1,0.2,0.1,0.3,0.1c0.1,0,0.2,0,0.3,0
				c0.1,0,0.1-0.1,0.2-0.1c0.1-0.1,0.1-0.1,0.1-0.2s0-0.2,0-0.3v-1.2h0.3v2.1H598.4z"/>
			<path d="M599.6,320.3v0.3h0c0.2-0.2,0.4-0.4,0.7-0.4c0.1,0,0.2,0,0.3,0.1c0.1,0.1,0.2,0.1,0.2,0.3c0.1-0.1,0.2-0.2,0.3-0.3
				s0.2-0.1,0.4-0.1c0.1,0,0.2,0,0.3,0c0.1,0,0.2,0.1,0.2,0.1c0.1,0,0.1,0.1,0.1,0.2c0,0.1,0,0.2,0,0.3v1.5h-0.3V321
				c0-0.1,0-0.1,0-0.2c0-0.1,0-0.1-0.1-0.1c0,0-0.1-0.1-0.1-0.1c-0.1,0-0.1,0-0.2,0c-0.2,0-0.3,0-0.4,0.1c-0.1,0.1-0.1,0.2-0.1,0.4
				v1.3h-0.3V321c0-0.1,0-0.1,0-0.2c0-0.1,0-0.1-0.1-0.1s-0.1-0.1-0.1-0.1c0,0-0.1,0-0.2,0c-0.1,0-0.2,0-0.3,0.1
				c-0.1,0-0.1,0.1-0.2,0.1c0,0.1-0.1,0.1-0.1,0.2c0,0.1,0,0.1,0,0.1v1.3h-0.3v-2.1H599.6z"/>
			<path d="M603,319.5v1.1h0c0.1-0.1,0.1-0.2,0.3-0.2c0.1-0.1,0.3-0.1,0.4-0.1c0.2,0,0.3,0,0.4,0.1c0.1,0.1,0.2,0.1,0.3,0.2
				c0.1,0.1,0.1,0.2,0.2,0.3c0,0.1,0.1,0.3,0.1,0.4c0,0.1,0,0.3-0.1,0.4c0,0.1-0.1,0.2-0.2,0.3c-0.1,0.1-0.2,0.2-0.3,0.2
				c-0.1,0.1-0.3,0.1-0.4,0.1c-0.1,0-0.1,0-0.2,0s-0.1,0-0.2-0.1s-0.1-0.1-0.2-0.1c-0.1,0-0.1-0.1-0.1-0.2h0v0.3h-0.3v-2.9H603z
				 M604.2,321c0-0.1-0.1-0.2-0.1-0.2c-0.1-0.1-0.1-0.1-0.2-0.2c-0.1,0-0.2-0.1-0.3-0.1c-0.1,0-0.2,0-0.3,0.1
				c-0.1,0-0.1,0.1-0.2,0.2c-0.1,0.1-0.1,0.2-0.1,0.2s0,0.2,0,0.3c0,0.1,0,0.2,0,0.3c0,0.1,0.1,0.2,0.1,0.2c0.1,0.1,0.1,0.1,0.2,0.2
				c0.1,0,0.2,0.1,0.3,0.1s0.2,0,0.3-0.1s0.1-0.1,0.2-0.2c0-0.1,0.1-0.2,0.1-0.3c0-0.1,0-0.2,0-0.3
				C604.3,321.2,604.3,321.1,604.2,321z"/>
			<path d="M606.5,322.3c-0.2,0.1-0.3,0.2-0.6,0.2c-0.2,0-0.3,0-0.4-0.1s-0.2-0.1-0.3-0.2c-0.1-0.1-0.1-0.2-0.2-0.3
				s-0.1-0.3-0.1-0.4c0-0.2,0-0.3,0.1-0.4c0-0.1,0.1-0.2,0.2-0.3s0.2-0.2,0.3-0.2c0.1-0.1,0.2-0.1,0.4-0.1c0.2,0,0.3,0,0.5,0.1
				c0.1,0.1,0.2,0.2,0.3,0.3s0.1,0.2,0.2,0.4c0,0.1,0,0.3,0,0.4h-1.5c0,0.1,0,0.2,0,0.3c0,0.1,0.1,0.2,0.1,0.2
				c0.1,0.1,0.1,0.1,0.2,0.1c0.1,0,0.2,0.1,0.3,0.1c0.1,0,0.3,0,0.4-0.1c0.1-0.1,0.2-0.2,0.2-0.3h0.3
				C606.8,322,606.7,322.1,606.5,322.3z M606.4,320.9c0-0.1-0.1-0.1-0.1-0.2c-0.1-0.1-0.1-0.1-0.2-0.1s-0.1,0-0.2,0
				c-0.1,0-0.2,0-0.2,0c-0.1,0-0.1,0.1-0.2,0.1s-0.1,0.1-0.1,0.2s0,0.1-0.1,0.2h1.2C606.5,321.1,606.4,321,606.4,320.9z"/>
			<path d="M607.5,320.3v0.4h0c0.1-0.2,0.2-0.3,0.3-0.4s0.3-0.1,0.5-0.1v0.4c-0.1,0-0.3,0-0.3,0.1c-0.1,0-0.2,0.1-0.2,0.2
				c-0.1,0.1-0.1,0.2-0.1,0.3s0,0.2,0,0.4v0.9h-0.3v-2.1H607.5z"/>
			<path d="M608.8,321.9c0,0.1,0.1,0.1,0.1,0.1c0.1,0,0.1,0.1,0.2,0.1s0.1,0,0.2,0c0.1,0,0.1,0,0.2,0c0.1,0,0.1,0,0.2,0
				c0,0,0.1-0.1,0.1-0.1c0,0,0-0.1,0-0.2c0-0.1,0-0.2-0.1-0.2c-0.1,0-0.2-0.1-0.2-0.1c-0.1,0-0.2-0.1-0.3-0.1
				c-0.1,0-0.2-0.1-0.3-0.1c-0.1,0-0.2-0.1-0.2-0.2c-0.1-0.1-0.1-0.2-0.1-0.3c0-0.1,0-0.2,0.1-0.3c0-0.1,0.1-0.1,0.2-0.2
				c0.1,0,0.2-0.1,0.2-0.1c0.1,0,0.2,0,0.3,0c0.1,0,0.2,0,0.3,0s0.2,0.1,0.3,0.1c0.1,0,0.1,0.1,0.2,0.2s0.1,0.2,0.1,0.3h-0.3
				c0-0.1,0-0.1-0.1-0.2c0,0-0.1-0.1-0.1-0.1c0,0-0.1,0-0.2-0.1c-0.1,0-0.1,0-0.2,0c-0.1,0-0.1,0-0.2,0c-0.1,0-0.1,0-0.1,0
				s-0.1,0-0.1,0.1c0,0,0,0.1,0,0.1c0,0.1,0,0.1,0.1,0.1c0,0,0.1,0.1,0.2,0.1c0.1,0,0.1,0,0.2,0.1c0.1,0,0.2,0,0.2,0.1
				c0.1,0,0.2,0,0.2,0.1c0.1,0,0.2,0.1,0.2,0.1s0.1,0.1,0.2,0.2c0,0.1,0.1,0.1,0.1,0.2c0,0.1,0,0.2-0.1,0.3s-0.1,0.1-0.2,0.2
				c-0.1,0.1-0.2,0.1-0.3,0.1c-0.1,0-0.2,0-0.3,0c-0.1,0-0.2,0-0.3,0c-0.1,0-0.2-0.1-0.3-0.1c-0.1-0.1-0.1-0.1-0.2-0.2
				s-0.1-0.2-0.1-0.3h0.3C608.7,321.8,608.7,321.9,608.8,321.9z"/>
			<path d="M611.6,320.4c0.1-0.2,0.1-0.3,0.3-0.5c0.1-0.1,0.3-0.2,0.4-0.3c0.2-0.1,0.4-0.1,0.6-0.1c0.2,0,0.4,0,0.6,0.1
				c0.2,0.1,0.3,0.2,0.4,0.3s0.2,0.3,0.3,0.5c0.1,0.2,0.1,0.4,0.1,0.6c0,0.2,0,0.4-0.1,0.6c-0.1,0.2-0.1,0.3-0.3,0.5
				s-0.3,0.2-0.4,0.3c-0.2,0.1-0.4,0.1-0.6,0.1c-0.2,0-0.4,0-0.6-0.1c-0.2-0.1-0.3-0.2-0.4-0.3c-0.1-0.1-0.2-0.3-0.3-0.5
				c-0.1-0.2-0.1-0.4-0.1-0.6C611.5,320.8,611.6,320.6,611.6,320.4z M612,321.4c0,0.1,0.1,0.3,0.2,0.4s0.2,0.2,0.3,0.3
				c0.1,0.1,0.3,0.1,0.4,0.1c0.2,0,0.3,0,0.4-0.1c0.1-0.1,0.2-0.2,0.3-0.3s0.1-0.2,0.2-0.4s0.1-0.3,0.1-0.4c0-0.1,0-0.3-0.1-0.4
				s-0.1-0.3-0.2-0.4c-0.1-0.1-0.2-0.2-0.3-0.3c-0.1-0.1-0.3-0.1-0.4-0.1c-0.2,0-0.3,0-0.4,0.1c-0.1,0.1-0.2,0.2-0.3,0.3
				c-0.1,0.1-0.1,0.2-0.2,0.4s-0.1,0.3-0.1,0.4C611.9,321.1,611.9,321.2,612,321.4z"/>
			<path d="M615.2,322.4l-0.8-2.1h0.4l0.6,1.7h0l0.6-1.7h0.4l-0.8,2.1H615.2z"/>
			<path d="M618.1,322.3c-0.2,0.1-0.3,0.2-0.6,0.2c-0.2,0-0.3,0-0.4-0.1s-0.2-0.1-0.3-0.2c-0.1-0.1-0.1-0.2-0.2-0.3
				s-0.1-0.3-0.1-0.4c0-0.2,0-0.3,0.1-0.4c0-0.1,0.1-0.2,0.2-0.3s0.2-0.2,0.3-0.2c0.1-0.1,0.2-0.1,0.4-0.1c0.2,0,0.3,0,0.5,0.1
				c0.1,0.1,0.2,0.2,0.3,0.3s0.1,0.2,0.2,0.4c0,0.1,0,0.3,0,0.4h-1.5c0,0.1,0,0.2,0,0.3c0,0.1,0.1,0.2,0.1,0.2
				c0.1,0.1,0.1,0.1,0.2,0.1c0.1,0,0.2,0.1,0.3,0.1c0.1,0,0.3,0,0.4-0.1c0.1-0.1,0.2-0.2,0.2-0.3h0.3
				C618.4,322,618.3,322.1,618.1,322.3z M618,320.9c0-0.1-0.1-0.1-0.1-0.2c-0.1-0.1-0.1-0.1-0.2-0.1s-0.1,0-0.2,0
				c-0.1,0-0.2,0-0.2,0c-0.1,0-0.1,0.1-0.2,0.1s-0.1,0.1-0.1,0.2s0,0.1-0.1,0.2h1.2C618.1,321.1,618.1,321,618,320.9z"/>
			<path d="M619.1,320.3v0.4h0c0.1-0.2,0.2-0.3,0.3-0.4s0.3-0.1,0.5-0.1v0.4c-0.1,0-0.3,0-0.3,0.1c-0.1,0-0.2,0.1-0.2,0.2
				c-0.1,0.1-0.1,0.2-0.1,0.3s0,0.2,0,0.4v0.9h-0.3v-2.1H619.1z"/>
			<path d="M621,319.8v-0.3h2.3v0.3h-1v2.5H622v-2.5H621z"/>
			<path d="M623.6,319.9v-0.4h0.3v0.4H623.6z M623.9,320.3v2.1h-0.3v-2.1H623.9z"/>
			<path d="M624.8,320.3v0.3h0c0.2-0.2,0.4-0.4,0.7-0.4c0.1,0,0.2,0,0.3,0.1c0.1,0.1,0.2,0.1,0.2,0.3c0.1-0.1,0.2-0.2,0.3-0.3
				s0.2-0.1,0.4-0.1c0.1,0,0.2,0,0.3,0c0.1,0,0.2,0.1,0.2,0.1c0.1,0,0.1,0.1,0.1,0.2c0,0.1,0,0.2,0,0.3v1.5H627V321
				c0-0.1,0-0.1,0-0.2c0-0.1,0-0.1-0.1-0.1c0,0-0.1-0.1-0.1-0.1c-0.1,0-0.1,0-0.2,0c-0.2,0-0.3,0-0.4,0.1c-0.1,0.1-0.1,0.2-0.1,0.4
				v1.3h-0.3V321c0-0.1,0-0.1,0-0.2c0-0.1,0-0.1-0.1-0.1s-0.1-0.1-0.1-0.1c0,0-0.1,0-0.2,0c-0.1,0-0.2,0-0.3,0.1
				c-0.1,0-0.1,0.1-0.2,0.1c0,0.1-0.1,0.1-0.1,0.2c0,0.1,0,0.1,0,0.1v1.3h-0.3v-2.1H624.8z"/>
			<path d="M629.3,322.3c-0.2,0.1-0.3,0.2-0.6,0.2c-0.2,0-0.3,0-0.4-0.1s-0.2-0.1-0.3-0.2c-0.1-0.1-0.1-0.2-0.2-0.3
				s-0.1-0.3-0.1-0.4c0-0.2,0-0.3,0.1-0.4c0-0.1,0.1-0.2,0.2-0.3s0.2-0.2,0.3-0.2c0.1-0.1,0.2-0.1,0.4-0.1c0.2,0,0.3,0,0.5,0.1
				c0.1,0.1,0.2,0.2,0.3,0.3s0.1,0.2,0.2,0.4c0,0.1,0,0.3,0,0.4h-1.5c0,0.1,0,0.2,0,0.3c0,0.1,0.1,0.2,0.1,0.2
				c0.1,0.1,0.1,0.1,0.2,0.1c0.1,0,0.2,0.1,0.3,0.1c0.1,0,0.3,0,0.4-0.1c0.1-0.1,0.2-0.2,0.2-0.3h0.3
				C629.6,322,629.5,322.1,629.3,322.3z M629.2,320.9c0-0.1-0.1-0.1-0.1-0.2c-0.1-0.1-0.1-0.1-0.2-0.1s-0.1,0-0.2,0
				c-0.1,0-0.2,0-0.2,0c-0.1,0-0.1,0.1-0.2,0.1s-0.1,0.1-0.1,0.2s0,0.1-0.1,0.2h1.2C629.3,321.1,629.3,321,629.2,320.9z"/>
		</g>
		<g>
			<path class="st27" d="M603.4,185.5c-0.2-0.1-0.4-0.1-0.6,0c-0.1,0-0.2,0.1-0.3,0.1s-0.2,0.1-0.2,0.2s-0.1,0.1-0.1,0.2
				s0,0.2,0,0.3c0,0.1,0.1,0.2,0.2,0.2s0.2,0.1,0.3,0.1c0.1,0,0.2,0,0.4,0c0.1,0,0.3,0,0.4,0c0.1,0,0.3,0,0.4,0c0.1,0,0.3,0,0.4,0.1
				c0.1,0,0.2,0.1,0.3,0.2c0.1,0.1,0.2,0.2,0.2,0.4c0.1,0.2,0.1,0.3,0,0.5c0,0.2-0.1,0.3-0.2,0.4c-0.1,0.1-0.2,0.2-0.4,0.3
				c-0.1,0.1-0.3,0.2-0.5,0.2c-0.2,0.1-0.4,0.1-0.6,0.1c-0.2,0-0.4,0-0.5-0.1s-0.3-0.2-0.4-0.3c-0.1-0.1-0.2-0.3-0.3-0.5l0.4-0.1
				c0,0.1,0.1,0.3,0.2,0.3c0.1,0.1,0.2,0.2,0.3,0.2c0.1,0,0.2,0.1,0.4,0.1c0.1,0,0.3,0,0.4-0.1c0.1,0,0.2-0.1,0.3-0.1
				c0.1,0,0.2-0.1,0.3-0.2s0.1-0.2,0.1-0.2c0-0.1,0-0.2,0-0.3c0-0.1-0.1-0.2-0.2-0.3s-0.2-0.1-0.3-0.1c-0.1,0-0.2,0-0.4,0
				c-0.1,0-0.3,0-0.4,0c-0.1,0-0.3,0-0.4,0c-0.1,0-0.3,0-0.4-0.1c-0.1,0-0.2-0.1-0.3-0.2c-0.1-0.1-0.2-0.2-0.2-0.4
				c-0.1-0.2-0.1-0.3,0-0.5c0-0.1,0.1-0.3,0.2-0.4c0.1-0.1,0.2-0.2,0.3-0.3c0.1-0.1,0.3-0.2,0.4-0.2c0.2-0.1,0.3-0.1,0.5-0.1
				c0.2,0,0.3,0,0.5,0.1c0.1,0.1,0.3,0.1,0.4,0.3c0.1,0.1,0.2,0.3,0.3,0.5l-0.4,0.1C603.8,185.7,603.6,185.6,603.4,185.5z"/>
			<path class="st27" d="M606,185.3l0.1,0.4l-0.5,0.1l0.5,1.5c0,0,0,0.1,0,0.1c0,0,0,0,0.1,0.1c0,0,0.1,0,0.1,0c0,0,0.1,0,0.2,0
				l0.2-0.1l0.1,0.4l-0.3,0.1c-0.1,0-0.2,0.1-0.3,0.1c-0.1,0-0.1,0-0.2,0c-0.1,0-0.1-0.1-0.2-0.1c0-0.1-0.1-0.2-0.1-0.3l-0.5-1.6
				l-0.4,0.1l-0.1-0.4l0.4-0.1l-0.2-0.7l0.4-0.1l0.2,0.7L606,185.3z"/>
			<path class="st27" d="M608.8,187.1l-0.1-0.4l0,0c0,0.2-0.1,0.3-0.2,0.4c-0.1,0.1-0.3,0.2-0.4,0.3c-0.2,0-0.3,0.1-0.4,0.1
				c-0.1,0-0.2,0-0.3-0.1s-0.2-0.1-0.2-0.2c-0.1-0.1-0.1-0.2-0.2-0.4l-0.5-1.6l0.4-0.1l0.5,1.7c0,0.2,0.1,0.3,0.2,0.3s0.3,0.1,0.4,0
				c0.1,0,0.2-0.1,0.3-0.2s0.1-0.1,0.2-0.2c0-0.1,0.1-0.2,0.1-0.3s0-0.2,0-0.3l-0.4-1.4l0.4-0.1l0.7,2.5L608.8,187.1z"/>
			<path class="st27" d="M608.9,184.8l-0.1-0.4l0.4-0.1l-0.1-0.4c-0.1-0.2,0-0.4,0-0.5c0.1-0.1,0.2-0.2,0.5-0.3c0,0,0.1,0,0.1,0
				c0.1,0,0.1,0,0.1,0l0.1,0.4c0,0-0.1,0-0.1,0c0,0-0.1,0-0.1,0c-0.1,0-0.2,0.1-0.2,0.1c0,0.1,0,0.1,0,0.2l0.1,0.3l0.5-0.1l0.1,0.4
				l-0.5,0.1l0.6,2.1l-0.4,0.1l-0.6-2.1L608.9,184.8z"/>
			<path class="st27" d="M610.3,184.4l-0.1-0.4l0.4-0.1l-0.1-0.4c-0.1-0.2,0-0.4,0-0.5c0.1-0.1,0.2-0.2,0.5-0.3c0,0,0.1,0,0.1,0
				c0.1,0,0.1,0,0.1,0l0.1,0.4c0,0-0.1,0-0.1,0c0,0-0.1,0-0.1,0c-0.1,0-0.2,0.1-0.2,0.1s0,0.1,0,0.2l0.1,0.3l0.5-0.1l0.1,0.4
				l-0.5,0.1l0.6,2.1l-0.4,0.1l-0.6-2.1L610.3,184.4z"/>
			<path class="st27" d="M607.4,193.8c-0.1,0.1-0.2,0.1-0.3,0.1c-0.1,0-0.2,0-0.3,0c-0.1,0-0.1-0.1-0.2-0.3
				c-0.1,0.2-0.2,0.3-0.3,0.4c-0.1,0.1-0.3,0.2-0.5,0.2c-0.1,0-0.2,0.1-0.3,0.1c-0.1,0-0.2,0-0.3,0s-0.2-0.1-0.2-0.2
				c-0.1-0.1-0.1-0.2-0.2-0.3c0-0.1-0.1-0.3,0-0.4c0-0.1,0.1-0.2,0.1-0.3s0.1-0.1,0.2-0.2c0.1-0.1,0.2-0.1,0.3-0.2
				c0.1-0.1,0.2-0.1,0.3-0.1c0.1,0,0.2-0.1,0.3-0.1c0.1,0,0.1-0.1,0.2-0.1c0-0.1,0-0.1,0-0.2c0-0.1-0.1-0.2-0.1-0.2
				c0,0-0.1-0.1-0.2-0.1s-0.1,0-0.2,0s-0.1,0-0.2,0c-0.2,0.1-0.3,0.1-0.4,0.2c-0.1,0.1-0.1,0.2-0.1,0.4l-0.4,0.1c0-0.2,0-0.3,0-0.4
				c0-0.1,0.1-0.2,0.2-0.3c0.1-0.1,0.2-0.2,0.3-0.2c0.1-0.1,0.2-0.1,0.4-0.2c0.1,0,0.2-0.1,0.3-0.1c0.1,0,0.2,0,0.3,0
				c0.1,0,0.2,0.1,0.3,0.1s0.1,0.2,0.2,0.3l0.4,1.3c0,0.1,0.1,0.2,0.1,0.2s0.1,0.1,0.1,0c0,0,0.1,0,0.1-0.1L607.4,193.8z
				 M606.4,192.7c0,0.1-0.1,0.1-0.2,0.1c-0.1,0-0.2,0.1-0.2,0.1c-0.1,0-0.2,0.1-0.3,0.1c-0.1,0-0.2,0.1-0.2,0.1
				c-0.1,0.1-0.1,0.1-0.1,0.2c0,0.1,0,0.2,0,0.3c0,0.1,0,0.1,0.1,0.2c0,0,0.1,0.1,0.1,0.1c0.1,0,0.1,0,0.2,0c0.1,0,0.1,0,0.2,0
				c0.1,0,0.2-0.1,0.3-0.2c0.1-0.1,0.1-0.1,0.2-0.2c0-0.1,0.1-0.1,0.1-0.2s0-0.1,0-0.2L606.4,192.7z"/>
			<path class="st27" d="M607.5,191.1l0.1,0.4l0,0c0.1-0.4,0.3-0.6,0.7-0.7c0.2,0,0.3-0.1,0.4-0.1c0.1,0,0.2,0,0.3,0.1
				s0.2,0.1,0.2,0.2c0.1,0.1,0.1,0.2,0.1,0.4l0.5,1.6l-0.4,0.1l-0.5-1.7c0-0.2-0.1-0.3-0.2-0.3c-0.1-0.1-0.3-0.1-0.4,0
				c-0.1,0-0.2,0.1-0.3,0.2c-0.1,0.1-0.1,0.1-0.2,0.2c0,0.1-0.1,0.2-0.1,0.3c0,0.1,0,0.2,0,0.3l0.4,1.4l-0.4,0.1l-0.7-2.5
				L607.5,191.1z"/>
			<path class="st27" d="M612.3,192.4l-0.1-0.3l0,0c0,0.2-0.1,0.3-0.2,0.4c-0.1,0.1-0.3,0.2-0.4,0.2c-0.2,0.1-0.4,0.1-0.5,0
				c-0.2,0-0.3-0.1-0.4-0.2c-0.1-0.1-0.2-0.2-0.3-0.3c-0.1-0.1-0.2-0.3-0.2-0.5s-0.1-0.3-0.1-0.5c0-0.2,0-0.3,0.1-0.5
				c0.1-0.1,0.2-0.3,0.3-0.4c0.1-0.1,0.3-0.2,0.5-0.3c0.1,0,0.1,0,0.2,0c0.1,0,0.2,0,0.2,0c0.1,0,0.2,0,0.2,0.1
				c0.1,0,0.2,0.1,0.2,0.1l0,0l-0.4-1.3l0.4-0.1l1,3.4L612.3,192.4z M610.6,191.9c0.1,0.1,0.1,0.2,0.2,0.3c0.1,0.1,0.2,0.1,0.3,0.1
				c0.1,0,0.2,0,0.4,0c0.1,0,0.2-0.1,0.3-0.2c0.1-0.1,0.1-0.2,0.2-0.3c0-0.1,0-0.2,0-0.3c0-0.1,0-0.2-0.1-0.4c0-0.1-0.1-0.2-0.1-0.3
				s-0.1-0.2-0.2-0.3c-0.1-0.1-0.2-0.1-0.3-0.1c-0.1,0-0.2,0-0.4,0c-0.1,0-0.2,0.1-0.3,0.2s-0.1,0.2-0.2,0.3c0,0.1,0,0.2,0,0.3
				c0,0.1,0,0.2,0.1,0.4C610.5,191.7,610.5,191.8,610.6,191.9z"/>
			<path class="st27" d="M601.9,198.4l-0.1-0.4l2.7-0.8l0.1,0.4l-1.1,0.3l0.9,3l-0.5,0.1l-0.9-3L601.9,198.4z"/>
			<path class="st27" d="M605.3,197l0.4,1.3l0,0c0-0.1,0-0.2,0.1-0.2c0-0.1,0.1-0.1,0.2-0.2c0.1-0.1,0.1-0.1,0.2-0.1
				c0.1,0,0.1-0.1,0.2-0.1c0.2,0,0.3-0.1,0.4-0.1c0.1,0,0.2,0,0.3,0.1c0.1,0.1,0.2,0.1,0.2,0.2c0.1,0.1,0.1,0.2,0.2,0.4l0.5,1.6
				l-0.4,0.1l-0.5-1.7c0-0.2-0.1-0.3-0.2-0.3c-0.1-0.1-0.3-0.1-0.4,0c-0.1,0-0.2,0.1-0.3,0.2c-0.1,0.1-0.1,0.1-0.2,0.2
				c0,0.1-0.1,0.2-0.1,0.3c0,0.1,0,0.2,0,0.3l0.4,1.4l-0.4,0.1l-1-3.4L605.3,197z"/>
			<path class="st27" d="M610.7,199.1c-0.1,0.1-0.2,0.1-0.3,0.2c-0.1,0-0.2,0-0.3,0s-0.1-0.1-0.2-0.3c-0.1,0.2-0.2,0.3-0.3,0.4
				c-0.1,0.1-0.3,0.2-0.5,0.2c-0.1,0-0.2,0.1-0.3,0.1c-0.1,0-0.2,0-0.3,0c-0.1,0-0.2-0.1-0.2-0.2c-0.1-0.1-0.1-0.2-0.2-0.3
				c0-0.1-0.1-0.3,0-0.4c0-0.1,0.1-0.2,0.1-0.3c0.1-0.1,0.1-0.1,0.2-0.2c0.1-0.1,0.2-0.1,0.3-0.2c0.1-0.1,0.2-0.1,0.3-0.1
				c0.1,0,0.2-0.1,0.3-0.1c0.1,0,0.1-0.1,0.2-0.1c0-0.1,0-0.1,0-0.2c0-0.1-0.1-0.2-0.1-0.2c0,0-0.1-0.1-0.2-0.1s-0.1,0-0.2,0
				c-0.1,0-0.1,0-0.2,0c-0.2,0.1-0.3,0.1-0.4,0.2c-0.1,0.1-0.1,0.2-0.1,0.4l-0.4,0.1c0-0.2,0-0.3,0-0.4c0-0.1,0.1-0.2,0.2-0.3
				c0.1-0.1,0.2-0.2,0.3-0.2c0.1-0.1,0.2-0.1,0.4-0.2c0.1,0,0.2-0.1,0.3-0.1c0.1,0,0.2,0,0.3,0s0.2,0.1,0.3,0.1
				c0.1,0.1,0.1,0.2,0.2,0.3l0.4,1.3c0,0.1,0.1,0.2,0.1,0.2s0.1,0.1,0.1,0c0,0,0.1,0,0.1-0.1L610.7,199.1z M609.7,198
				c0,0.1-0.1,0.1-0.2,0.1s-0.2,0.1-0.2,0.1c-0.1,0-0.2,0.1-0.3,0.1s-0.2,0.1-0.2,0.1c-0.1,0.1-0.1,0.1-0.1,0.2c0,0.1,0,0.2,0,0.3
				c0,0.1,0.1,0.1,0.1,0.2s0.1,0.1,0.1,0.1c0.1,0,0.1,0,0.2,0c0.1,0,0.1,0,0.2,0c0.1,0,0.2-0.1,0.3-0.2s0.1-0.1,0.2-0.2
				c0-0.1,0.1-0.1,0.1-0.2c0-0.1,0-0.1,0-0.2L609.7,198z"/>
			<path class="st27" d="M610.7,196.4l0.1,0.4l0,0c0.1-0.4,0.3-0.6,0.7-0.7c0.2,0,0.3-0.1,0.4-0.1c0.1,0,0.2,0,0.3,0.1
				c0.1,0.1,0.2,0.1,0.2,0.2c0.1,0.1,0.1,0.2,0.2,0.4l0.5,1.6l-0.4,0.1l-0.5-1.7c0-0.2-0.1-0.3-0.2-0.3c-0.1-0.1-0.3-0.1-0.4,0
				c-0.1,0-0.2,0.1-0.3,0.2s-0.1,0.1-0.2,0.2c0,0.1-0.1,0.2-0.1,0.3c0,0.1,0,0.2,0,0.3l0.4,1.4l-0.4,0.1l-0.7-2.5L610.7,196.4z"/>
			<path class="st27" d="M615.8,198.3c-0.1,0.3-0.4,0.4-0.8,0.6c-0.1,0-0.2,0.1-0.4,0.1c-0.1,0-0.2,0-0.4,0s-0.2-0.1-0.3-0.2
				c-0.1-0.1-0.2-0.2-0.2-0.3l0.4-0.1c0,0.1,0.1,0.1,0.1,0.2c0.1,0,0.1,0.1,0.2,0.1c0.1,0,0.1,0,0.2,0c0.1,0,0.2,0,0.2,0
				c0.1,0,0.2-0.1,0.3-0.2c0.1-0.1,0.1-0.2,0.2-0.3s0.1-0.2,0-0.3s0-0.3-0.1-0.4l0-0.2l0,0c0,0.2-0.1,0.3-0.2,0.4
				c-0.1,0.1-0.3,0.2-0.4,0.2c-0.2,0.1-0.4,0.1-0.5,0c-0.2,0-0.3-0.1-0.4-0.2s-0.2-0.2-0.3-0.3c-0.1-0.1-0.2-0.3-0.2-0.5
				c0-0.1-0.1-0.3-0.1-0.5c0-0.2,0-0.3,0.1-0.5c0.1-0.2,0.1-0.3,0.3-0.4c0.1-0.1,0.3-0.2,0.5-0.3c0.2,0,0.3-0.1,0.5,0
				c0.2,0,0.3,0.1,0.4,0.2l0,0l-0.1-0.4l0.4-0.1l0.7,2.3C616,197.7,616,198.1,615.8,198.3z M615,197.4c0.1-0.1,0.1-0.2,0.2-0.3
				c0-0.1,0-0.2,0-0.3c0-0.1,0-0.2-0.1-0.4c0-0.1-0.1-0.2-0.1-0.3c-0.1-0.1-0.1-0.2-0.2-0.2c-0.1-0.1-0.2-0.1-0.3-0.1
				c-0.1,0-0.2,0-0.3,0c-0.1,0-0.2,0.1-0.3,0.2c-0.1,0.1-0.1,0.2-0.2,0.3c0,0.1,0,0.2,0,0.3c0,0.1,0,0.2,0.1,0.4
				c0,0.1,0.1,0.2,0.1,0.3c0.1,0.1,0.1,0.2,0.2,0.3s0.2,0.1,0.3,0.2s0.2,0,0.4,0S614.9,197.4,615,197.4z"/>
			<path class="st27" d="M616.7,196.7c0.1,0.1,0.1,0.1,0.2,0.1c0.1,0,0.2,0,0.2,0c0.1,0,0.2,0,0.2,0c0.1,0,0.1,0,0.2-0.1
				c0.1,0,0.1-0.1,0.2-0.1c0.1,0,0.1-0.1,0.1-0.2c0-0.1,0-0.1,0-0.2c0-0.1-0.1-0.2-0.2-0.2c-0.1,0-0.2,0-0.3,0c-0.1,0-0.3,0-0.4,0
				c-0.1,0-0.3,0-0.4,0c-0.1,0-0.3-0.1-0.4-0.1s-0.2-0.2-0.2-0.3c0-0.1,0-0.2,0-0.3c0-0.1,0.1-0.2,0.1-0.3c0.1-0.1,0.2-0.2,0.3-0.2
				c0.1-0.1,0.2-0.1,0.3-0.1c0.1,0,0.3-0.1,0.4-0.1c0.1,0,0.2,0,0.4,0c0.1,0,0.2,0.1,0.3,0.2c0.1,0.1,0.2,0.2,0.2,0.3l-0.4,0.1
				c0-0.1-0.1-0.1-0.1-0.2c-0.1,0-0.1-0.1-0.2-0.1c-0.1,0-0.1,0-0.2,0c-0.1,0-0.1,0-0.2,0c-0.1,0-0.1,0-0.2,0.1
				c-0.1,0-0.1,0.1-0.2,0.1c0,0-0.1,0.1-0.1,0.1c0,0,0,0.1,0,0.2c0,0.1,0.1,0.1,0.1,0.2c0.1,0,0.1,0,0.2,0.1c0.1,0,0.2,0,0.3,0
				s0.2,0,0.3,0c0.1,0,0.2,0,0.3,0s0.2,0,0.3,0c0.1,0,0.2,0.1,0.2,0.1c0.1,0.1,0.1,0.2,0.2,0.3c0,0.2,0.1,0.3,0,0.4
				c0,0.1-0.1,0.2-0.2,0.3c-0.1,0.1-0.2,0.2-0.3,0.2c-0.1,0.1-0.2,0.1-0.4,0.1c-0.1,0-0.3,0.1-0.4,0.1c-0.1,0-0.3,0-0.4,0
				c-0.1,0-0.2-0.1-0.3-0.2c-0.1-0.1-0.2-0.2-0.2-0.4l0.4-0.1C616.6,196.6,616.6,196.6,616.7,196.7z"/>
		</g>
		<g>
			<path class="st28" d="M676,202c-0.2,0.1-0.4,0.2-0.5,0.5c-0.1,0.3,0,0.6,0.4,0.8c0.7,0.3,1.1-0.8,1.5-1.4
				c0.4-0.7,0.9-1.8,1.5-1.9c-0.3,0-0.7-0.1-1.1-0.2c-0.9-0.2-1.6-0.3-1.9,0.3c-0.1,0.4,0,0.8,0.5,1c0.1,0,0.2,0.1,0.4,0.1l0,0.1
				c-0.2,0.2-0.5,0.2-0.7,0.1c-0.4-0.1-0.7-0.6-0.5-1.1c0.5-1.3,2.5-0.7,3.5-0.3c0.1-0.1,0.2-0.1,0.3-0.1c0,0,0.1,0.1,0.1,0.2
				c-0.1,0.1-0.3,0.1-0.5,0.1c-0.2,0.2-0.7,1.2-1.3,2c-0.5,0.8-1.4,1.7-2.1,1.4c-0.5-0.2-0.7-0.6-0.5-1
				C675.3,202.3,675.5,202,676,202L676,202z"/>
			<path class="st28" d="M682.1,204.2c-0.5,0.7-1.2,1.2-1.9,1c-0.5-0.2-0.5-0.6-0.3-1.1c0.2-0.6,0.8-1.5,1-1.8c0.2,0,0.3,0,0.4,0
				c-0.2,0.4-0.8,1.3-1,1.9c-0.1,0.4-0.1,0.7,0.2,0.8c0.4,0.2,1.1-0.4,1.4-0.9L682.1,204.2z M681.3,201.1c0.1-0.2,0.3-0.3,0.4-0.2
				c0.2,0.1,0.3,0.3,0.2,0.4c-0.1,0.2-0.3,0.3-0.4,0.2C681.4,201.4,681.3,201.2,681.3,201.1z"/>
			<path class="st28" d="M685.2,205.4c-0.5,0.7-1.2,1.2-1.9,1c-0.4-0.1-0.4-0.5-0.3-1c0.1-0.4,0.5-0.8,0.6-1.2
				c0.1-0.4,0.2-0.6-0.1-0.7c-0.6-0.2-1.3,0.7-1.7,1.3c-0.2,0.3-0.3,0.6-0.4,0.7c-0.1,0.1-0.3,0-0.4,0c0.2-0.4,0.9-1.6,1.4-2.6
				c0.1,0,0.3,0,0.4,0.1l-0.4,0.7c0.4-0.3,0.8-0.6,1.3-0.4c0.4,0.2,0.5,0.5,0.3,1c-0.1,0.4-0.5,0.9-0.7,1.3
				c-0.1,0.3-0.1,0.6,0.1,0.7c0.4,0.2,1.1-0.4,1.4-0.9L685.2,205.4z"/>
			<path class="st28" d="M686.7,204.5c0.1-0.1,0.3-0.1,0.5,0c0.4,0.2,0.5,0.5,0.3,1c-0.3,0.9-1.4,1.9-2.4,1.5
				c-0.5-0.2-0.5-0.6-0.3-1.1c0.2-0.6,0.8-1.3,1-1.8c0.2,0,0.3,0,0.4,0c-0.2,0.6-0.8,1.2-1,1.9c-0.1,0.4-0.1,0.7,0.2,0.8
				c0.6,0.2,1.5-0.3,1.8-1.1C687.3,205.2,687.3,204.7,686.7,204.5L686.7,204.5z"/>
			<path class="st28" d="M690.6,207.4c-0.5,0.6-1.3,1.2-2.3,0.8c-0.7-0.3-0.8-0.9-0.6-1.5c0.2-0.7,1.1-1.6,2-1.3
				c0.5,0.2,0.5,0.6,0.5,0.8c-0.2,0.5-1,0.7-2,0.4c0,0.1-0.1,0.1-0.1,0.2c-0.2,0.5-0.1,1,0.4,1.2c0.8,0.3,1.6-0.3,1.9-0.7
				L690.6,207.4z M689.8,206c0.1-0.3,0-0.4-0.2-0.5c-0.5-0.2-1.1,0.2-1.4,0.8C689.2,206.7,689.7,206.5,689.8,206z"/>
			<path class="st28" d="M693.7,208.5c-0.5,0.7-1.2,1.2-1.9,1c-0.4-0.1-0.4-0.5-0.3-1c0.1-0.4,0.5-0.8,0.6-1.2s0.2-0.6-0.1-0.7
				c-0.6-0.2-1.3,0.7-1.7,1.3c-0.2,0.3-0.3,0.6-0.4,0.7c-0.1,0.1-0.3,0-0.4,0c0.2-0.4,0.9-1.6,1.4-2.6c0.1,0,0.3,0,0.4,0.1l-0.4,0.7
				c0.4-0.3,0.8-0.6,1.3-0.4c0.4,0.2,0.5,0.5,0.3,1c-0.1,0.4-0.5,0.9-0.7,1.3c-0.1,0.3-0.1,0.6,0.1,0.7c0.4,0.2,1.1-0.4,1.4-0.9
				L693.7,208.5z"/>
			<path class="st28" d="M695.4,209.1c-0.5,0.7-1.2,1.2-1.9,1c-0.5-0.2-0.5-0.6-0.3-1.1c0.1-0.4,0.5-1.1,0.9-1.7
				c-0.1-0.1-0.3-0.1-0.4-0.2c0-0.1,0-0.1,0.1-0.2c0.1,0.1,0.3,0.1,0.4,0.2c0.2-0.3,0.4-0.6,0.4-0.8c0.2-0.1,0.3,0,0.4,0
				c-0.1,0.2-0.3,0.6-0.5,1c0.3,0.1,0.5,0.1,0.8,0.2c0,0.1,0,0.2-0.1,0.3c-0.3-0.1-0.5-0.1-0.8-0.2c-0.4,0.6-0.8,1.3-0.9,1.6
				c-0.1,0.4-0.1,0.7,0.2,0.8c0.4,0.2,1.1-0.4,1.4-0.9L695.4,209.1z"/>
			<path class="st28" d="M697.9,210.1c-0.5,0.6-1.3,1.2-2.3,0.8c-0.7-0.3-0.8-0.9-0.6-1.5c0.2-0.7,1.1-1.6,2-1.3
				c0.5,0.2,0.5,0.6,0.5,0.8c-0.2,0.5-1,0.7-2,0.4c0,0.1-0.1,0.1-0.1,0.2c-0.2,0.5-0.1,1,0.4,1.2c0.8,0.3,1.6-0.3,1.9-0.7
				L697.9,210.1z M697.2,208.8c0.1-0.3,0-0.4-0.2-0.5c-0.5-0.2-1.1,0.2-1.4,0.8C696.5,209.4,697,209.2,697.2,208.8z"/>
			<path class="st28" d="M701.4,211.4c-0.5,0.7-1.2,1.2-1.9,1c-0.5-0.2-0.5-0.6-0.4-1.1c-0.4,0.4-0.8,0.7-1.3,0.5
				c-0.5-0.2-0.6-0.8-0.3-1.4c0.2-0.7,1.1-1.6,2.1-1.2c0.2,0.1,0.4,0.2,0.5,0.3c0.3-0.6,0.6-1.1,0.7-1.4c0.2-0.1,0.3,0,0.4,0
				c-0.3,0.7-1.5,2.6-1.8,3.3c-0.1,0.4-0.1,0.7,0.2,0.8c0.4,0.2,1.1-0.4,1.4-0.9L701.4,211.4z M700.1,209.6
				c-0.1-0.2-0.3-0.3-0.5-0.4c-0.7-0.2-1.3,0.4-1.6,1.2c-0.2,0.5-0.2,1,0.2,1.1c0.5,0.2,1.1-0.5,1.5-1.2
				C699.8,210.1,699.9,209.9,700.1,209.6z"/>
			<path class="st28" d="M677.9,210.2c1.3,0.4,2-0.1,2.2-0.7c0.3-0.9-0.3-1.6-1.1-1.8c-1.2-0.4-2.3-0.2-2.6,0.5
				c-0.1,0.3-0.1,0.7,0.4,0.9c0.1,0,0.2,0.1,0.4,0.1c0,0,0,0,0,0.1c-0.2,0.1-0.4,0.2-0.6,0.1c-0.4-0.2-0.7-0.6-0.5-1.1
				c0.4-1.1,1.9-1.2,3-0.8c0.9,0.3,1.7,1.1,1.4,2.1c-0.3,0.9-1.6,1.2-2.7,0.8C677.8,210.3,677.8,210.2,677.9,210.2z M676.4,211.4
				c0.4-0.5,0.8-1.2,1.1-1.8c0.4-0.7,0.8-1.5,1.4-1.5l0,0c-0.2,0.2-0.5,0.8-1,1.6C677.4,210.6,676.9,211.6,676.4,211.4L676.4,211.4z
				"/>
			<path class="st28" d="M683.9,211.5c-0.5,0.7-1.1,1-1.6,0.8c-0.4,0.6-1,1-1.7,0.7c-0.6-0.2-0.8-0.9-0.5-1.6
				c0.2-0.6,0.8-1.3,1.6-1.2l0,0.1c-0.6,0.1-1,0.6-1.2,1.2c-0.2,0.5-0.2,1.1,0.4,1.3c0.5,0.2,0.9-0.2,1.2-0.6
				c-0.6-0.3-0.7-1-0.5-1.5c0.1-0.3,0.4-0.5,0.8-0.4c0.5,0.2,0.5,0.8,0.3,1.4c-0.1,0.1-0.1,0.3-0.2,0.4c0.4,0.2,0.9-0.1,1.3-0.7
				L683.9,211.5z M682.3,211.7c0.1-0.3,0.2-1.1-0.1-1.2c-0.2-0.1-0.3,0-0.4,0.3c-0.1,0.3-0.1,0.8,0.4,1.2
				C682.3,211.9,682.3,211.8,682.3,211.7z"/>
			<path class="st28" d="M683.2,212.8c-0.1,0.1-0.2,0.2-0.2,0.4c-0.1,0.2,0,0.5,0.4,0.7c0.3,0.1,0.6,0.1,0.7-0.3
				c0.2-0.5-0.7-1.4-0.4-2c0.2-0.4,0.8-0.5,1.1-0.3c0.3,0.1,0.4,0.4,0.3,0.7c0,0,0,0-0.1,0c-0.1-0.2-0.2-0.4-0.5-0.5
				c-0.3-0.1-0.5,0-0.6,0.1c-0.2,0.4,0.7,1.5,0.5,2.1c-0.1,0.3-0.7,0.5-1.2,0.3c-0.6-0.2-0.7-0.6-0.6-0.9
				C682.8,212.9,683,212.8,683.2,212.8C683.2,212.8,683.2,212.8,683.2,212.8z"/>
			<path class="st28" d="M687.3,213.8c-0.5,0.7-1.2,1.2-1.9,1c-0.5-0.2-0.5-0.6-0.3-1.1c0.1-0.4,0.5-1.1,0.9-1.7
				c-0.1-0.1-0.3-0.1-0.4-0.2c0-0.1,0-0.1,0.1-0.2c0.1,0.1,0.3,0.1,0.4,0.2c0.2-0.3,0.4-0.6,0.4-0.8c0.2-0.1,0.3,0,0.4,0
				c-0.1,0.2-0.3,0.6-0.5,1c0.3,0.1,0.5,0.1,0.8,0.2c0,0.1,0,0.2-0.1,0.3c-0.3-0.1-0.5-0.1-0.8-0.2c-0.4,0.6-0.8,1.3-0.9,1.6
				c-0.1,0.4-0.1,0.7,0.2,0.8c0.4,0.2,1.1-0.4,1.4-0.9L687.3,213.8z"/>
			<path class="st28" d="M689.4,214.7c-0.2,0.1-0.4,0.2-0.5,0.5c-0.1,0.3,0,0.6,0.4,0.8c0.7,0.3,1.1-0.8,1.5-1.4
				c0.4-0.7,0.9-1.8,1.5-1.9c-0.3,0-0.7-0.1-1.1-0.2c-0.9-0.2-1.6-0.3-1.9,0.3c-0.1,0.4,0,0.8,0.5,1c0.1,0,0.2,0.1,0.4,0.1l0,0.1
				c-0.2,0.2-0.5,0.2-0.7,0.1c-0.4-0.1-0.7-0.6-0.5-1.1c0.5-1.3,2.5-0.7,3.5-0.3c0.1-0.1,0.2-0.1,0.3-0.1c0,0,0.1,0.1,0.1,0.2
				c-0.1,0.1-0.3,0.1-0.5,0.1c-0.2,0.2-0.7,1.2-1.3,2c-0.5,0.8-1.4,1.7-2.1,1.4c-0.5-0.2-0.7-0.6-0.5-1
				C688.7,214.9,689,214.6,689.4,214.7L689.4,214.7z"/>
			<path class="st28" d="M693.9,216.2c-0.5,0.7-1.2,1.2-1.9,1c-0.5-0.2-0.5-0.6-0.3-1.1c0.1-0.4,0.5-1.1,0.9-1.7
				c-0.1-0.1-0.3-0.1-0.4-0.2c0-0.1,0-0.1,0.1-0.2c0.1,0.1,0.3,0.1,0.4,0.2c0.2-0.3,0.4-0.6,0.4-0.8c0.2-0.1,0.3,0,0.4,0
				c-0.1,0.2-0.3,0.6-0.5,1c0.3,0.1,0.5,0.1,0.8,0.2c0,0.1,0,0.2-0.1,0.3c-0.3-0.1-0.5-0.1-0.8-0.2c-0.4,0.6-0.8,1.3-0.9,1.6
				c-0.1,0.4-0.1,0.7,0.2,0.8c0.4,0.2,1.1-0.4,1.4-0.9L693.9,216.2z"/>
			<path class="st28" d="M693.6,216.6c-0.1,0.1-0.2,0.2-0.2,0.4c-0.1,0.2,0,0.5,0.4,0.7c0.3,0.1,0.6,0.1,0.7-0.3
				c0.2-0.5-0.7-1.4-0.4-2c0.2-0.4,0.8-0.5,1.1-0.3c0.3,0.1,0.4,0.4,0.3,0.7c0,0,0,0-0.1,0c-0.1-0.2-0.2-0.4-0.5-0.5
				c-0.3-0.1-0.5,0-0.6,0.1c-0.2,0.4,0.7,1.5,0.5,2.1c-0.1,0.3-0.7,0.5-1.2,0.3c-0.6-0.2-0.7-0.6-0.6-0.9
				C693.1,216.8,693.3,216.6,693.6,216.6C693.6,216.6,693.6,216.6,693.6,216.6z"/>
		</g>
	</g>
	<g id="Desk">
		<path class="st29" d="M348.1,819.9l-3.4,1.2c-6.2,2.2-13.1-1.2-15.3-7.4l-58-166.7c-2.2-6.2,1.2-13.1,7.4-15.3l3.4-1.2
			c6.2-2.2,13.1,1.2,15.3,7.4l58,166.7C357.7,810.8,354.3,817.7,348.1,819.9z"/>
		<path class="st29" d="M643.9,819.9l3.4,1.2c6.2,2.2,13.1-1.2,15.3-7.4l58-166.7c2.2-6.2-1.2-13.1-7.4-15.3l-3.4-1.2
			c-6.2-2.2-13.1,1.2-15.3,7.4l-58,166.7C634.3,810.8,637.6,817.7,643.9,819.9z"/>
		<path class="st30" d="M130.4,933.8l13.1,5.7c5.5,2.4,12-0.1,14.3-5.6l124.6-286c2.4-5.5-0.1-12-5.6-14.3l-13.1-5.7
			c-5.5-2.4-12,0.1-14.3,5.6l-124.6,286C122.4,924.9,124.9,931.4,130.4,933.8z"/>
		<path class="st30" d="M869.4,932.3l-16.4,7.1c-5.5,2.4-12-0.1-14.3-5.6l-124.6-286c-2.4-5.5,0.1-12,5.6-14.3l16.4-7.1
			c5.5-2.4,12,0.1,14.3,5.6l124.6,286C877.5,923.5,874.9,929.9,869.4,932.3z"/>
		<path class="st31" d="M832.2,622.5H141.8c-6.1,0-11,5-11,11l0,0c0,6.1,5,11,11,11h690.3c6.1,0,11-5,11-11l0,0
			C843.2,627.5,838.2,622.5,832.2,622.5z"/>
		<path class="st32" d="M852.6,626.9H126c-6.6,0-12-5.4-12-12V612c0-6.6,5.4-12,12-12h726.6c6.6,0,12,5.4,12,12v2.9
			C864.6,621.5,859.2,626.9,852.6,626.9z"/>
	</g>
	<g id="Lamp">
		<path class="st33" d="M709.7,443.9c0,0,69.7-37,68.7,37C778.4,480.9,738,474.9,709.7,443.9z"/>
		<circle class="st33" cx="768.4" cy="436.6" r="8"/>
		<path class="st33" d="M862.3,494.9l-85.9-58.2l-8,8l83,55.5l-51.8,74.2l12.7,2l50-69.9C862.3,506.5,876.2,497.9,862.3,494.9z"/>
		<path class="st33" d="M764.4,600c0,0,11.4-26.1,35.2-25.6c23.8,0.5,34.8,25.6,34.8,25.6H764.4z"/>
	</g>
	<g id="Shelf">
		<path class="st34" d="M378,248.2H159.7c-4.5,0-8.2-3.7-8.2-8.2v0c0-4.5,3.7-8.2,8.2-8.2H378c4.5,0,8.2,3.7,8.2,8.2v0
			C386.2,244.5,382.5,248.2,378,248.2z"/>
		<g id="Layer_15">
			<rect x="163.9" y="168.1" class="st35" width="21.9" height="65"/>
			<g>
				<path class="st5" d="M175.4,175.8v2.7c-0.6,0.1-1.3,0.3-1.9,0.5s-1.3,0.3-1.9,0.5s-1,0.3-1,0.3s0.6,0.2,1.9,0.5s2.2,0.5,2.9,0.7
					v2.6c-0.1,0.1-0.2,0.1-0.4,0.1c-0.1,0-0.2,0-0.2-0.1s-0.1-0.1-0.1-0.2V183c-0.6,0-1.5,0-2.8,0.1s-2.1,0.1-2.6,0.1v0.5
					c-0.1,0.1-0.2,0.1-0.4,0.1c-0.1,0-0.2,0-0.2-0.1s-0.1-0.1-0.1-0.2v-2.2c0.1-0.1,0.3-0.1,0.4-0.1c0.1,0,0.2,0,0.2,0.1
					s0.1,0.1,0.1,0.2v0.2c0.6,0,2.2,0,4.6-0.1c-1.1-0.3-2-0.5-2.8-0.7s-1.3-0.4-1.5-0.5s-0.3-0.4-0.3-0.7c0-0.5,0-0.8,0.1-0.8
					s0.4-0.2,1.2-0.5s1.9-0.6,3.4-1c-2.5,0-4,0-4.6,0v0.4c-0.1,0.1-0.2,0.1-0.4,0.1c-0.1,0-0.2,0-0.2-0.1s-0.1-0.1-0.1-0.2v-2
					c0.1-0.1,0.3-0.1,0.4-0.1c0.1,0,0.2,0,0.2,0.1s0.1,0.1,0.1,0.2v0.3c0.4,0,1.3,0.1,2.6,0.1s2.2,0.1,2.8,0.1v-0.6
					c0.1-0.1,0.3-0.1,0.4-0.1c0.1,0,0.2,0,0.2,0.1S175.4,175.8,175.4,175.8z"/>
				<path class="st5" d="M174.7,190.4c-0.7-0.4-2-1-3.9-2c-0.6,0-1.1,0-1.5,0v0.8c-0.1,0.1-0.2,0.1-0.4,0.1c-0.1,0-0.2,0-0.2-0.1
					s-0.1-0.1-0.1-0.2V186c0.1-0.1,0.3-0.1,0.4-0.1c0.1,0,0.2,0,0.2,0.1s0.1,0.1,0.1,0.2v0.5c0.4,0,0.9,0,1.3,0c2-1,3.4-1.8,4-2.1
					v-0.4c0.1-0.1,0.3-0.1,0.4-0.1c0.1,0,0.2,0,0.2,0.1s0.1,0.1,0.1,0.2v2.4c-0.1,0.1-0.2,0.1-0.4,0.1c-0.1,0-0.2,0-0.2-0.1
					s-0.1-0.1-0.1-0.2v-0.2c-0.4,0.1-1,0.4-1.8,0.7s-1.2,0.5-1.2,0.6s0.4,0.2,1.2,0.5s1.4,0.5,1.8,0.6v-0.5c0.1-0.1,0.3-0.1,0.4-0.1
					c0.1,0,0.2,0,0.2,0.1s0.1,0.1,0.1,0.2v2.1c-0.1,0.1-0.2,0.1-0.4,0.1c-0.1,0-0.2,0-0.2-0.1s-0.1-0.1-0.1-0.2V190.4z"/>
				<path class="st5" d="M175.5,194.2c0,0.8,0,1.4-0.1,1.7s-0.3,0.4-0.6,0.4c-0.3,0-0.5-0.1-0.7-0.3c0.3-0.8,0.5-1.4,0.5-2
					c0-0.4-0.1-0.6-0.2-0.8s-0.3-0.2-0.6-0.2c-0.3,0-0.5,0.1-0.6,0.3s-0.3,0.5-0.4,1.1c-0.2,0.7-0.4,1.2-0.7,1.6s-0.7,0.6-1.3,0.6
					c-0.7,0-1.2-0.3-1.6-0.8s-0.5-1.2-0.5-2.2c0-0.7,0.1-1.2,0.2-1.6s0.3-0.5,0.6-0.5c0.3,0,0.5,0.1,0.7,0.3
					c-0.4,0.7-0.6,1.4-0.6,2.1c0,0.4,0.1,0.7,0.2,0.9s0.3,0.3,0.6,0.3c0.3,0,0.5-0.1,0.7-0.4s0.3-0.7,0.5-1.3
					c0.2-0.6,0.4-1.1,0.7-1.4s0.7-0.4,1.2-0.4c0.7,0,1.2,0.2,1.5,0.7S175.5,193.3,175.5,194.2z"/>
				<path class="st5" d="M168.1,200c0,0.3,0,0.8-0.1,1.4s-0.1,1.2-0.1,1.5c0,0.3,0,0.6,0.1,0.8c-0.2,0.1-0.4,0.1-0.6,0.1
					c-0.2,0-0.4-0.1-0.5-0.2s-0.1-0.3-0.1-0.6c0-0.4,0.1-1,0.2-1.7s0.2-1.3,0.2-1.6c0-0.3,0-0.6-0.1-0.9c0.2-0.1,0.4-0.1,0.6-0.1
					c0.1,0,0.2,0,0.3,0.1s0.1,0.2,0.1,0.3S168.1,199.6,168.1,200z M171.7,197.6c1.3,0,2.3,0.3,2.9,0.9s0.9,1.4,0.9,2.4
					c0,1-0.2,1.7-0.7,2.2s-1.3,0.7-2.5,0.7c-1.3,0-2.3-0.3-2.9-0.9s-0.9-1.4-0.9-2.5c0-0.9,0.2-1.7,0.7-2.2S170.5,197.6,171.7,197.6
					z M172.2,199.2c-1.1,0-1.8,0.1-2.2,0.4s-0.5,0.6-0.5,1.1c0,0.5,0.2,0.8,0.5,1.1s1,0.3,1.8,0.3c1.1,0,1.8-0.1,2.2-0.4
					s0.5-0.6,0.5-1.1c0-0.5-0.2-0.8-0.5-1.1S173,199.2,172.2,199.2z"/>
				<path class="st5" d="M169.5,207v0.1c0,1.1,0.1,2,0.4,2.6c-0.2,0.1-0.4,0.2-0.7,0.2c-0.2,0-0.3-0.1-0.4-0.2s-0.1-0.4-0.1-0.8l0-4
					c0.1-0.1,0.3-0.1,0.4-0.1c0.1,0,0.2,0,0.2,0.1s0.1,0.1,0.1,0.2v0.4c0.4,0,1.5,0,3.3,0c1,0,1.6,0,2.1,0v-0.6
					c0.1-0.1,0.3-0.1,0.4-0.1c0.1,0,0.2,0,0.2,0.1s0.1,0.1,0.1,0.2v2.6c-0.1,0.1-0.2,0.1-0.4,0.1c-0.1,0-0.2,0-0.2-0.1
					s-0.1-0.1-0.1-0.2V207c-0.4,0-1.1,0-2.1,0C170.9,207,169.8,207,169.5,207z"/>
			</g>
		</g>
		<g id="Layer_11">
			<rect x="178.6" y="141.9" class="st36" width="32.8" height="91.2"/>
		</g>
		<g id="Layer_17">
			<path class="st37" d="M257,200.8c-0.9-1.5,1.5-4.6,32-1.2c20.7,2.3-27.1,8.5-31.7,1.1"/>
		</g>
		<g id="Layer_12">
			<g id="Layer_13">
				<path class="st38" d="M283.9,184.9c0,0,5.8-20.5-2.8-22.3c-8.7-1.8-17.5,22.3-7.3,22.3S283.9,184.9,283.9,184.9z"/>
				<path class="st38" d="M273.7,205.9c6.7-0.1,27.3-17.4,22-30.7c-5.3-13.3-22,9.7-22,9.7s-12.6-36.5-11.3-1.9
					c0,0-11.3,10.3,0,16.6C273.7,205.9,273.7,205.9,273.7,205.9z"/>
			</g>
			<rect x="222.4" y="127.6" class="st39" width="27" height="105.5"/>
			<rect x="199.4" y="113.9" class="st40" width="29.1" height="119.2"/>
			<path class="st41" d="M257.4,200.6c0,0,21.2,4.3,35.8-1.8c11.2-4.7,1.5,37.3-16.9,37.2C263.5,236.1,256.4,232.4,257.4,200.6z"/>
			<g>
				<path class="st5" d="M193.2,150v2.7c-0.1,0.1-0.2,0.1-0.4,0.1c-0.1,0-0.2,0-0.2-0.1s-0.1-0.1-0.1-0.2l0-0.5c-0.4,0-1.1,0-2.1,0
					h-3.8c-0.5,0-0.8-0.1-1.1-0.2s-0.5-0.3-0.7-0.6s-0.2-0.7-0.2-1.4c0-0.4,0-0.7,0.1-0.8s0.2-0.2,0.4-0.2c0.3,0,0.5,0.1,0.7,0.2
					c-0.2,0.6-0.3,1-0.2,1.2s0.5,0.3,1.2,0.3h3.6c1,0,1.6,0,2.1,0v-0.6c0.1-0.1,0.3-0.1,0.4-0.1c0.1,0,0.2,0,0.2,0.1
					S193.2,149.9,193.2,150z"/>
				<path class="st5" d="M193.3,156.6c0,0.5,0,0.9-0.1,0.9s-0.9,0.4-2.6,1s-2.8,1-3.5,1.2v0.5c-0.1,0.1-0.2,0.1-0.4,0.1
					c-0.1,0-0.2,0-0.2-0.1s-0.1-0.1-0.1-0.2v-2.5c0.1-0.1,0.3-0.1,0.4-0.1c0.1,0,0.2,0,0.2,0.1s0.1,0.1,0.1,0.2v0.2
					c0.2,0,0.7-0.2,1.4-0.4v-2.1c-0.7-0.2-1.2-0.3-1.4-0.3v0.5c-0.1,0.1-0.2,0.1-0.4,0.1c-0.1,0-0.2,0-0.2-0.1s-0.1-0.1-0.1-0.2
					v-2.1c0.1-0.1,0.3-0.1,0.4-0.1c0.1,0,0.2,0,0.2,0.1s0.1,0.1,0.1,0.2v0.3c0.6,0.2,1.6,0.6,3.1,1s2.3,0.8,2.6,0.9
					S193.3,156.2,193.3,156.6z M189.4,155.7v1.6c1.6-0.5,2.5-0.8,2.5-0.8S191,156.1,189.4,155.7z"/>
				<path class="st5" d="M193.2,164.5v2.1c-0.1,0.1-0.2,0.1-0.4,0.1c-0.1,0-0.2,0-0.2-0.1s-0.1-0.1-0.1-0.2v-0.2
					c-0.6-0.2-1.7-0.6-3.1-1s-2.3-0.8-2.6-0.9s-0.4-0.5-0.4-1c0-0.5,0-0.8,0.1-0.9s0.9-0.4,2.6-0.9s2.8-1,3.5-1.2v-0.4
					c0.1-0.1,0.3-0.1,0.4-0.1c0.1,0,0.2,0,0.2,0.1s0.1,0.1,0.1,0.2v2.4c-0.1,0.1-0.2,0.1-0.4,0.1c-0.1,0-0.2,0-0.2-0.1
					s-0.1-0.1-0.1-0.2v-0.2c-0.4,0.1-1.2,0.3-2.6,0.7s-2.1,0.7-2.1,0.7s0.7,0.3,2.1,0.6s2.2,0.5,2.6,0.6v-0.5
					c0.1-0.1,0.3-0.1,0.4-0.1c0.1,0,0.2,0,0.2,0.1S193.2,164.4,193.2,164.5z"/>
				<path class="st5" d="M193.3,169.6c0,0.5,0,0.9-0.1,0.9s-0.9,0.4-2.6,1s-2.8,1-3.5,1.2v0.5c-0.1,0.1-0.2,0.1-0.4,0.1
					c-0.1,0-0.2,0-0.2-0.1s-0.1-0.1-0.1-0.2v-2.5c0.1-0.1,0.3-0.1,0.4-0.1c0.1,0,0.2,0,0.2,0.1s0.1,0.1,0.1,0.2v0.2
					c0.2,0,0.7-0.2,1.4-0.4v-2.1c-0.7-0.2-1.2-0.3-1.4-0.3v0.5c-0.1,0.1-0.2,0.1-0.4,0.1c-0.1,0-0.2,0-0.2-0.1s-0.1-0.1-0.1-0.2
					v-2.1c0.1-0.1,0.3-0.1,0.4-0.1c0.1,0,0.2,0,0.2,0.1s0.1,0.1,0.1,0.2v0.3c0.6,0.2,1.6,0.6,3.1,1s2.3,0.8,2.6,0.9
					S193.3,169.2,193.3,169.6z M189.4,168.7v1.6c1.6-0.5,2.5-0.8,2.5-0.8S191,169.2,189.4,168.7z"/>
				<path class="st5" d="M193.3,176.5c0,0.8,0,1.4-0.1,1.7s-0.3,0.4-0.6,0.4c-0.3,0-0.5-0.1-0.7-0.3c0.3-0.8,0.5-1.4,0.5-2
					c0-0.4-0.1-0.6-0.2-0.8s-0.3-0.2-0.6-0.2c-0.3,0-0.5,0.1-0.6,0.3s-0.3,0.5-0.4,1.1c-0.2,0.7-0.4,1.2-0.7,1.6s-0.7,0.6-1.3,0.6
					c-0.7,0-1.2-0.3-1.6-0.8s-0.5-1.2-0.5-2.2c0-0.7,0.1-1.2,0.2-1.6s0.3-0.5,0.6-0.5c0.3,0,0.5,0.1,0.7,0.3
					c-0.4,0.7-0.6,1.4-0.6,2.1c0,0.4,0.1,0.7,0.2,0.9s0.3,0.3,0.6,0.3c0.3,0,0.5-0.1,0.7-0.4s0.3-0.7,0.5-1.3
					c0.2-0.6,0.4-1.1,0.7-1.4s0.7-0.4,1.2-0.4c0.7,0,1.2,0.2,1.5,0.7S193.3,175.7,193.3,176.5z"/>
				<path class="st5" d="M187.4,183.2c0,0.6,0.1,1.1,0.4,1.5c-0.2,0.2-0.5,0.3-0.7,0.3c-0.2,0-0.4-0.2-0.5-0.7s-0.2-1-0.2-1.6
					c0-1,0.2-1.7,0.6-2.2s1.2-0.7,2.4-0.7c1.3,0,2.3,0.3,2.9,0.9s0.9,1.4,0.9,2.5c0,0.7,0,1.2-0.1,1.4s-0.3,0.4-0.5,0.4
					c-0.2,0-0.4-0.1-0.7-0.3c0.3-0.6,0.4-1.2,0.4-1.8c0-0.5-0.2-0.8-0.5-1.1s-0.9-0.3-1.8-0.3c-1,0-1.7,0.1-2.1,0.4
					S187.4,182.6,187.4,183.2z"/>
				<path class="st5" d="M187.2,188.3v0.7c-0.1,0.1-0.2,0.1-0.4,0.1c-0.1,0-0.2,0-0.2-0.1s-0.1-0.1-0.1-0.2v-2.7
					c0.1-0.1,0.3-0.1,0.4-0.1c0.1,0,0.2,0,0.2,0.1s0.1,0.1,0.1,0.2v0.5c0.4,0,1.5,0,3.3,0c1,0,1.6,0,2.1,0v-0.6
					c0.1-0.1,0.3-0.1,0.4-0.1c0.1,0,0.2,0,0.2,0.1s0.1,0.1,0.1,0.2v2.5c0,1-0.1,1.7-0.4,2.2s-0.7,0.7-1.4,0.7
					c-0.9,0-1.5-0.5-1.8-1.6c-0.1,0.3-0.3,0.5-0.5,0.7s-0.6,0.4-1,0.6s-0.7,0.4-0.8,0.5s-0.2,0.3-0.2,0.6c-0.3,0.1-0.5,0.1-0.6,0
					s-0.2-0.4-0.2-0.8c0-0.5,0.1-0.9,0.2-1.1s0.4-0.4,1-0.5s1-0.3,1.2-0.5s0.4-0.4,0.4-0.7c0-0.2,0-0.3,0-0.4
					C188.2,188.3,187.5,188.3,187.2,188.3z M190,188.2v0.4c0,0.4,0.1,0.7,0.2,1s0.4,0.3,0.8,0.3c0.4,0,0.8-0.1,1-0.3
					s0.3-0.5,0.3-0.8c0-0.2,0-0.4,0-0.5c-0.2,0-0.8,0-1.7,0H190z"/>
				<path class="st5" d="M193.2,193.3v2.7c-0.1,0.1-0.2,0.1-0.4,0.1c-0.1,0-0.2,0-0.2-0.1s-0.1-0.1-0.1-0.2v-0.5c-0.4,0-1.1,0-2.1,0
					c-1.8,0-2.9,0-3.3,0v0.7c-0.1,0.1-0.2,0.1-0.4,0.1c-0.1,0-0.2,0-0.2-0.1s-0.1-0.1-0.1-0.2v-2.7c0.1-0.1,0.3-0.1,0.4-0.1
					c0.1,0,0.2,0,0.2,0.1s0.1,0.1,0.1,0.2v0.5c0.4,0,1.5,0,3.3,0c1,0,1.6,0,2.1,0v-0.6c0.1-0.1,0.3-0.1,0.4-0.1c0.1,0,0.2,0,0.2,0.1
					S193.2,193.2,193.2,193.3z"/>
				<path class="st5" d="M192.5,197.7V197c0.1-0.1,0.3-0.1,0.4-0.1c0.1,0,0.2,0,0.2,0.1s0.1,0.1,0.1,0.2v2.4c0,1.3-0.2,2.1-0.5,2.5
					s-0.8,0.7-1.5,0.7c-0.7,0-1.3-0.3-1.7-0.8s-0.6-1.4-0.6-2.5v-0.2c-0.8,0-1.4,0-1.7,0v0.8c-0.1,0.1-0.2,0.1-0.4,0.1
					c-0.1,0-0.2,0-0.2-0.1s-0.1-0.1-0.1-0.2V197c0.1-0.1,0.3-0.1,0.4-0.1c0.1,0,0.2,0,0.2,0.1s0.1,0.1,0.1,0.2v0.5
					c0.4,0,1.5,0,3.3,0C191.4,197.7,192.1,197.7,192.5,197.7z M189.7,199.6c0,0.5,0.1,0.9,0.3,1.1s0.5,0.4,0.9,0.4
					c0.4,0,0.7-0.1,1-0.3s0.3-0.6,0.3-1c0-0.2,0-0.4,0-0.5c-0.2,0-0.8,0-1.7,0h-0.7V199.6z"/>
				<path class="st5" d="M187.2,205.3c0.4,0,1.5,0,3.3,0c1,0,1.6,0,1.9,0c-0.1-1.1-0.1-1.8-0.1-1.9c0-0.2,0-0.3,0.1-0.3
					s0.2-0.1,0.3-0.1c0.2,0,0.5,0.1,0.7,0.2c-0.2,0.7-0.2,1.5-0.2,2.5v3.3c0,0.2,0,0.3-0.1,0.3s-0.2,0.1-0.3,0.1
					c-0.3,0-0.6-0.1-0.8-0.3c0.3-0.6,0.4-1.3,0.4-2.1v-0.1c-0.3,0-1,0-1.9,0c-1.8,0-2.9,0-3.3,0v0.7c-0.1,0.1-0.2,0.1-0.4,0.1
					c-0.1,0-0.2,0-0.2-0.1s-0.1-0.1-0.1-0.2v-2.9c0.1-0.1,0.3-0.1,0.4-0.1c0.1,0,0.2,0,0.2,0.1s0.1,0.1,0.1,0.2V205.3z"/>
			</g>
			<g>
				<path class="st5" d="M240.4,139.3v-0.6c0.1-0.1,0.3-0.1,0.4-0.1c0.1,0,0.2,0,0.2,0.1s0.1,0.1,0.1,0.2v2.4c0,1.3-0.2,2.1-0.5,2.5
					s-0.8,0.7-1.5,0.7c-0.7,0-1.3-0.3-1.7-0.8s-0.6-1.4-0.6-2.5v-0.2c-0.8,0-1.4,0-1.7,0v0.8c-0.1,0.1-0.2,0.1-0.4,0.1
					c-0.1,0-0.2,0-0.2-0.1s-0.1-0.1-0.1-0.2v-2.8c0.1-0.1,0.3-0.1,0.4-0.1c0.1,0,0.2,0,0.2,0.1s0.1,0.1,0.1,0.2v0.5
					c0.4,0,1.5,0,3.3,0C239.3,139.3,240,139.3,240.4,139.3z M237.7,141.3c0,0.5,0.1,0.9,0.3,1.1s0.5,0.4,0.9,0.4
					c0.4,0,0.7-0.1,1-0.3s0.3-0.6,0.3-1c0-0.2,0-0.4,0-0.5c-0.2,0-0.8,0-1.7,0h-0.7V141.3z"/>
				<path class="st5" d="M241.1,145.3v2.5c-0.1,0.1-0.2,0.1-0.4,0.1c-0.1,0-0.2,0-0.2-0.1s-0.1-0.1-0.1-0.2v-0.4c-0.4,0-1.1,0-2.1,0
					v2.4c1,0,1.7,0,2.1,0v-0.6c0.1-0.1,0.3-0.1,0.4-0.1c0.1,0,0.2,0,0.2,0.1s0.1,0.1,0.1,0.2v2.5c-0.1,0.1-0.2,0.1-0.4,0.1
					c-0.1,0-0.2,0-0.2-0.1s-0.1-0.1-0.1-0.2v-0.4c-0.4,0-1.1,0-2.1,0c-1.8,0-2.9,0-3.3,0v0.6c-0.1,0.1-0.2,0.1-0.4,0.1
					c-0.1,0-0.2,0-0.2-0.1s-0.1-0.1-0.1-0.2v-2.5c0.1-0.1,0.3-0.1,0.4-0.1c0.1,0,0.2,0,0.2,0.1s0.1,0.1,0.1,0.2v0.4
					c0.3,0,1.2,0,2.4,0v-2.4c-1.3,0-2.1,0-2.4,0v0.6c-0.1,0.1-0.2,0.1-0.4,0.1c-0.1,0-0.2,0-0.2-0.1s-0.1-0.1-0.1-0.2v-2.5
					c0.1-0.1,0.3-0.1,0.4-0.1c0.1,0,0.2,0,0.2,0.1s0.1,0.1,0.1,0.2v0.4c0.4,0,1.5,0,3.3,0c1,0,1.6,0,2.1,0v-0.6
					c0.1-0.1,0.3-0.1,0.4-0.1c0.1,0,0.2,0,0.2,0.1S241.1,145.2,241.1,145.3z"/>
				<path class="st5" d="M240.4,153.6v-0.6c0.1-0.1,0.3-0.1,0.4-0.1c0.1,0,0.2,0,0.2,0.1s0.1,0.1,0.1,0.2v2.4c0,1.3-0.2,2.1-0.5,2.5
					s-0.8,0.7-1.5,0.7c-0.7,0-1.3-0.3-1.7-0.8s-0.6-1.4-0.6-2.5v-0.2c-0.8,0-1.4,0-1.7,0v0.8c-0.1,0.1-0.2,0.1-0.4,0.1
					c-0.1,0-0.2,0-0.2-0.1s-0.1-0.1-0.1-0.2v-2.8c0.1-0.1,0.3-0.1,0.4-0.1c0.1,0,0.2,0,0.2,0.1s0.1,0.1,0.1,0.2v0.5
					c0.4,0,1.5,0,3.3,0C239.3,153.6,240,153.6,240.4,153.6z M237.7,155.5c0,0.5,0.1,0.9,0.3,1.1s0.5,0.4,0.9,0.4
					c0.4,0,0.7-0.1,1-0.3s0.3-0.6,0.3-1c0-0.2,0-0.4,0-0.5c-0.2,0-0.8,0-1.7,0h-0.7V155.5z"/>
			</g>
		</g>
		<g id="Layer_18">
			<line class="st42" x1="285.8" y1="188.6" x2="290.8" y2="184.9"/>
			<line class="st42" x1="285.8" y1="182.3" x2="285.5" y2="178.4"/>
			<line class="st42" x1="289.6" y1="178.1" x2="292.3" y2="176.4"/>
			<line class="st42" x1="292.5" y1="181.3" x2="297.9" y2="179.3"/>
			<line class="st42" x1="290.9" y1="173.5" x2="291.6" y2="169.3"/>
			<line class="st42" x1="287.8" y1="173.5" x2="287.1" y2="170.4"/>
			<line class="st42" x1="295.2" y1="176.6" x2="297.9" y2="174.6"/>
			<line class="st42" x1="292.9" y1="185.8" x2="296.6" y2="186.3"/>
			<line class="st42" x1="288.3" y1="190.3" x2="292.9" y2="190.7"/>
			<line class="st42" x1="284.3" y1="193.5" x2="287.4" y2="196.4"/>
			<line class="st42" x1="282.4" y1="190.5" x2="286.9" y2="192.6"/>
			<line class="st42" x1="280.8" y1="187" x2="285.7" y2="184.9"/>
			<line class="st42" x1="281.8" y1="183.1" x2="279.6" y2="180.3"/>
			<line class="st42" x1="282.4" y1="178.8" x2="280.7" y2="174.4"/>
			<line class="st42" x1="283.2" y1="169.5" x2="287.4" y2="166.9"/>
			<line class="st42" x1="280.7" y1="170.1" x2="281.5" y2="166.6"/>
			<line class="st42" x1="279.4" y1="165.4" x2="277" y2="162"/>
			<line class="st42" x1="277.6" y1="168.1" x2="273.5" y2="164.5"/>
			<line class="st42" x1="274.5" y1="170" x2="271.5" y2="167.3"/>
			<line class="st42" x1="275.6" y1="173.5" x2="277" y2="171.4"/>
			<line class="st42" x1="278.2" y1="174.9" x2="279.1" y2="171.9"/>
			<line class="st42" x1="275" y1="177.3" x2="273.6" y2="175.6"/>
			<line class="st42" x1="271.6" y1="172.4" x2="269.2" y2="170"/>
			<line class="st42" x1="265.1" y1="174.3" x2="260.8" y2="171.2"/>
			<line class="st42" x1="265.8" y1="171.4" x2="267.5" y2="167.6"/>
			<line class="st42" x1="266.6" y1="176.4" x2="269.5" y2="174.5"/>
			<line class="st42" x1="268.8" y1="178.8" x2="271" y2="177.8"/>
			<line class="st42" x1="269.9" y1="181.7" x2="266.6" y2="180.3"/>
			<line class="st42" x1="264.9" y1="178.3" x2="260.3" y2="176.4"/>
			<line class="st42" x1="265.6" y1="182.9" x2="259.8" y2="180.3"/>
			<line class="st42" x1="269.9" y1="184.9" x2="273" y2="181.7"/>
			<line class="st42" x1="276.8" y1="187.5" x2="275.6" y2="184.9"/>
			<line class="st42" x1="279.3" y1="182.8" x2="275.6" y2="180.3"/>
			<line class="st42" x1="277.6" y1="192" x2="279.6" y2="189.3"/>
			<line class="st42" x1="279.6" y1="195" x2="280.7" y2="192.6"/>
			<line class="st42" x1="281.5" y1="196.5" x2="284.6" y2="198"/>
			<line class="st42" x1="280.2" y1="198.7" x2="280.2" y2="201.8"/>
			<line class="st42" x1="277" y1="199.5" x2="275" y2="201.8"/>
			<line class="st42" x1="270.4" y1="198" x2="272.4" y2="201.8"/>
			<line class="st42" x1="268.1" y1="198.7" x2="263.5" y2="200.3"/>
			<line class="st42" x1="262.6" y1="196.3" x2="257.3" y2="193.8"/>
			<line class="st42" x1="262" y1="193.8" x2="265.1" y2="191.5"/>
			<line class="st42" x1="259.9" y1="190.6" x2="256.4" y2="188.4"/>
			<line class="st42" x1="260.9" y1="187" x2="258.1" y2="184.1"/>
			<line class="st42" x1="262.6" y1="186" x2="265.8" y2="184.9"/>
			<line class="st42" x1="269.9" y1="189.5" x2="267.3" y2="186.8"/>
			<line class="st42" x1="262.6" y1="189.5" x2="264.2" y2="188.1"/>
			<line class="st42" x1="270.4" y1="193.8" x2="267.3" y2="191.5"/>
			<line class="st42" x1="265.8" y1="196.1" x2="266.6" y2="194.4"/>
			<line class="st42" x1="273" y1="196" x2="276.3" y2="195"/>
			<line class="st42" x1="273.8" y1="192.6" x2="272" y2="190.6"/>
			<line class="st42" x1="274.6" y1="190.5" x2="272.3" y2="188.1"/>
		</g>
		<g id="Layer_14">
			<g>
				<path class="st5" d="M217,125.1v2.5c-0.1,0.1-0.2,0.1-0.4,0.1c-0.1,0-0.2,0-0.2-0.1s-0.1-0.1-0.1-0.2v-0.4c-0.4,0-1.1,0-2.1,0
					v2.4c1,0,1.7,0,2.1,0v-0.6c0.1-0.1,0.3-0.1,0.4-0.1c0.1,0,0.2,0,0.2,0.1s0.1,0.1,0.1,0.2v2.5c-0.1,0.1-0.2,0.1-0.4,0.1
					c-0.1,0-0.2,0-0.2-0.1s-0.1-0.1-0.1-0.2V131c-0.4,0-1.1,0-2.1,0c-1.8,0-2.9,0-3.3,0v0.6c-0.1,0.1-0.2,0.1-0.4,0.1
					c-0.1,0-0.2,0-0.2-0.1s-0.1-0.1-0.1-0.2v-2.5c0.1-0.1,0.3-0.1,0.4-0.1c0.1,0,0.2,0,0.2,0.1s0.1,0.1,0.1,0.2v0.4
					c0.3,0,1.2,0,2.4,0V127c-1.3,0-2.1,0-2.4,0v0.6c-0.1,0.1-0.2,0.1-0.4,0.1c-0.1,0-0.2,0-0.2-0.1s-0.1-0.1-0.1-0.2v-2.5
					c0.1-0.1,0.3-0.1,0.4-0.1c0.1,0,0.2,0,0.2,0.1s0.1,0.1,0.1,0.2v0.4c0.4,0,1.5,0,3.3,0c1,0,1.6,0,2.1,0v-0.6
					c0.1-0.1,0.3-0.1,0.4-0.1c0.1,0,0.2,0,0.2,0.1S217,125,217,125.1z"/>
				<path class="st5" d="M211.1,134.5c0.4,0,1.5,0,3.3,0c1,0,1.6,0,1.9,0c-0.1-1.1-0.1-1.8-0.1-1.9c0-0.2,0-0.3,0.1-0.3
					s0.2-0.1,0.3-0.1c0.2,0,0.5,0.1,0.7,0.2c-0.2,0.7-0.2,1.5-0.2,2.5v3.3c0,0.2,0,0.3-0.1,0.3s-0.2,0.1-0.3,0.1
					c-0.3,0-0.6-0.1-0.8-0.3c0.3-0.6,0.4-1.3,0.4-2.1v-0.1c-0.3,0-1,0-1.9,0c-1.8,0-2.9,0-3.3,0v0.7c-0.1,0.1-0.2,0.1-0.4,0.1
					c-0.1,0-0.2,0-0.2-0.1s-0.1-0.1-0.1-0.2v-2.9c0.1-0.1,0.3-0.1,0.4-0.1c0.1,0,0.2,0,0.2,0.1s0.1,0.1,0.1,0.2V134.5z"/>
				<path class="st5" d="M217,139.3v2.7c-0.6,0.1-1.3,0.3-1.9,0.5s-1.3,0.3-1.9,0.5s-1,0.3-1,0.3s0.6,0.2,1.9,0.5s2.2,0.5,2.9,0.7
					v2.6c-0.1,0.1-0.2,0.1-0.4,0.1c-0.1,0-0.2,0-0.2-0.1s-0.1-0.1-0.1-0.2v-0.4c-0.6,0-1.5,0-2.8,0.1s-2.1,0.1-2.6,0.1v0.5
					c-0.1,0.1-0.2,0.1-0.4,0.1c-0.1,0-0.2,0-0.2-0.1s-0.1-0.1-0.1-0.2v-2.2c0.1-0.1,0.3-0.1,0.4-0.1c0.1,0,0.2,0,0.2,0.1
					s0.1,0.1,0.1,0.2v0.2c0.6,0,2.2,0,4.6-0.1c-1.1-0.3-2-0.5-2.8-0.7s-1.3-0.4-1.5-0.5s-0.3-0.4-0.3-0.7c0-0.5,0-0.8,0.1-0.8
					s0.4-0.2,1.2-0.5s1.9-0.6,3.4-1c-2.5,0-4,0-4.6,0v0.4c-0.1,0.1-0.2,0.1-0.4,0.1c-0.1,0-0.2,0-0.2-0.1s-0.1-0.1-0.1-0.2v-2
					c0.1-0.1,0.3-0.1,0.4-0.1c0.1,0,0.2,0,0.2,0.1s0.1,0.1,0.1,0.2v0.3c0.4,0,1.3,0.1,2.6,0.1s2.2,0.1,2.8,0.1v-0.6
					c0.1-0.1,0.3-0.1,0.4-0.1c0.1,0,0.2,0,0.2,0.1S217,139.2,217,139.3z"/>
				<path class="st5" d="M211.2,150.2v0.1c0,1.1,0.1,2,0.4,2.6c-0.2,0.1-0.4,0.2-0.7,0.2c-0.2,0-0.3-0.1-0.4-0.2s-0.1-0.4-0.1-0.8
					l0-4c0.1-0.1,0.3-0.1,0.4-0.1c0.1,0,0.2,0,0.2,0.1s0.1,0.1,0.1,0.2v0.4c0.4,0,1.5,0,3.3,0c1,0,1.6,0,2.1,0v-0.6
					c0.1-0.1,0.3-0.1,0.4-0.1c0.1,0,0.2,0,0.2,0.1s0.1,0.1,0.1,0.2v2.6c-0.1,0.1-0.2,0.1-0.4,0.1c-0.1,0-0.2,0-0.2-0.1
					s-0.1-0.1-0.1-0.2v-0.5c-0.4,0-1.1,0-2.1,0C212.6,150.2,211.5,150.2,211.2,150.2z"/>
				<path class="st5" d="M209.2,156.8l-0.6-0.2c0-0.2,0.1-0.5,0.2-0.9c0-0.1,0.1-0.2,0.2-0.2s0.2,0,0.3,0l8.7,3.2
					c0,0.2-0.1,0.5-0.2,0.9c-0.1,0.2-0.1,0.3-0.2,0.3s-0.2,0-0.2,0L209.2,156.8z"/>
				<path class="st5" d="M211.2,166c0,0.6,0.1,1.1,0.4,1.5c-0.2,0.2-0.5,0.3-0.7,0.3c-0.2,0-0.4-0.2-0.5-0.7s-0.2-1-0.2-1.6
					c0-1,0.2-1.7,0.6-2.2s1.2-0.7,2.4-0.7c1.3,0,2.3,0.3,2.9,0.9s0.9,1.4,0.9,2.5c0,0.7,0,1.2-0.1,1.4s-0.3,0.4-0.5,0.4
					c-0.2,0-0.4-0.1-0.7-0.3c0.3-0.6,0.4-1.2,0.4-1.8c0-0.5-0.2-0.8-0.5-1.1s-0.9-0.3-1.8-0.3c-1,0-1.7,0.1-2.1,0.4
					S211.2,165.4,211.2,166z"/>
				<path class="st5" d="M217.1,171.5c0,0.8,0,1.4-0.1,1.7s-0.3,0.4-0.6,0.4c-0.3,0-0.5-0.1-0.7-0.3c0.3-0.8,0.5-1.4,0.5-2
					c0-0.4-0.1-0.6-0.2-0.8s-0.3-0.2-0.6-0.2c-0.3,0-0.5,0.1-0.6,0.3s-0.3,0.5-0.4,1.1c-0.2,0.7-0.4,1.2-0.7,1.6s-0.7,0.6-1.3,0.6
					c-0.7,0-1.2-0.3-1.6-0.8s-0.5-1.2-0.5-2.2c0-0.7,0.1-1.2,0.2-1.6s0.3-0.5,0.6-0.5c0.3,0,0.5,0.1,0.7,0.3
					c-0.4,0.7-0.6,1.4-0.6,2.1c0,0.4,0.1,0.7,0.2,0.9s0.3,0.3,0.6,0.3c0.3,0,0.5-0.1,0.7-0.4s0.3-0.7,0.5-1.3
					c0.2-0.6,0.4-1.1,0.7-1.4s0.7-0.4,1.2-0.4c0.7,0,1.2,0.2,1.5,0.7S217.1,170.6,217.1,171.5z"/>
				<path class="st5" d="M217.1,177.4c0,0.8,0,1.4-0.1,1.7s-0.3,0.4-0.6,0.4c-0.3,0-0.5-0.1-0.7-0.3c0.3-0.8,0.5-1.4,0.5-2
					c0-0.4-0.1-0.6-0.2-0.8s-0.3-0.2-0.6-0.2c-0.3,0-0.5,0.1-0.6,0.3s-0.3,0.5-0.4,1.1c-0.2,0.7-0.4,1.2-0.7,1.6s-0.7,0.6-1.3,0.6
					c-0.7,0-1.2-0.3-1.6-0.8s-0.5-1.2-0.5-2.2c0-0.7,0.1-1.2,0.2-1.6s0.3-0.5,0.6-0.5c0.3,0,0.5,0.1,0.7,0.3
					c-0.4,0.7-0.6,1.4-0.6,2.1c0,0.4,0.1,0.7,0.2,0.9s0.3,0.3,0.6,0.3c0.3,0,0.5-0.1,0.7-0.4s0.3-0.7,0.5-1.3
					c0.2-0.6,0.4-1.1,0.7-1.4s0.7-0.4,1.2-0.4c0.7,0,1.2,0.2,1.5,0.7S217.1,176.6,217.1,177.4z"/>
			</g>
		</g>
		<g id="Layer_16">
			<line class="st43" x1="163.9" y1="224.2" x2="178.6" y2="224.2"/>
			<line class="st43" x1="178.6" y1="215.9" x2="199.4" y2="215.9"/>
			<line class="st43" x1="228.5" y1="220.9" x2="199.4" y2="220.9"/>
			<line class="st43" x1="228.5" y1="213.9" x2="249.4" y2="213.9"/>
		</g>
	</g>
</g>
<g id="Layer_2">
	<g id="XMLID_1_">
		<g>
			<path class="st44" d="M923.5,291.4c-20.2-1.3-160.6-10-166.6-10c-7.2,0-7.5-2.9-7.1-5.7c0.3-1.9,1-4.1,1.3-5.2
				c3.4-11.7,26.4-91.5,27.3-96.6c1-5.5,5-6,5-6h189c9,0,5.5,8.5,5.5,8.5s-33.8,93.8-36.3,102.8c-1.8,6.3-8.7,9.8-12.7,11.4
				C927.1,291.3,925.3,291.5,923.5,291.4z"/>
			<path class="st45" d="M778.4,173.9c-0.9,5.1-24,84.9-27.3,96.6c-0.3,1.1-1,3.3-1.3,5.2c-0.4,2.8-0.1,5.7,7.1,5.7
				c6,0,146.5,8.8,166.6,10c1.8,0.1,3.6-0.2,5.3-0.8c4-1.6,11-5.1,12.7-11.4c2.5-9,36.3-102.8,36.3-102.8s3.5-8.5-5.5-8.5h-189
				C783.4,167.9,779.4,168.4,778.4,173.9z M739.3,288c-0.3,0-0.6,0-0.8,0v0c0,0,27.8-90.1,34.3-120.8c1.6-7.8,1.6-7.8,17.7-7.8
				c15.9,0,138.4,0,184.4,0c11.5,0,15.5,1.4,11.5,14.5c-3.4,11.3-29.3,93.6-43.5,123.9c-1,2.1-4,3.7-5.5,3.6
				c-2.1-0.1-3.9-0.5-4.9-0.8c-0.4-0.1-0.6-0.2-0.6-0.2L739.3,288z"/>
			<path class="st46" d="M477.5,274.1c1.3,6.1,1.1,12.3,0.1,18c0,0,0,0,0,0c0,0,0,0,0,0s0,0,0,0c-0.1,0.5-0.2,1-0.3,1.5
				c-8-4.5-14.9-5.2-20.5-4.3c-10,1.6-15.6,8.5-15.6,8.5c6.5,5,12.3,6.8,17.2,6.7c11.9-0.1,18.9-10.9,18.9-10.9c-2.4,12.4-8,22-8,22
				c-3.4,1.7-6.7,2.7-9.9,3.1c-17.5,2.4-31.1-11.6-31.1-11.6s-36.9,32.8-88.9,2.2c0.4-20.5,7.9-36.5,7.9-36.5
				c10.1-1.2,18.9-4.3,26.4-8.4c0,0,71.3,12.7,95.6-4.3l2.6,1.8c1.2,1.5,2.2,3.1,3.1,4.7C476.2,269.2,477,271.6,477.5,274.1z
				 M410.4,297.9c0,0-8.3-8.2-22.2-9.6c-7.3-0.7-16.1,0.4-26.1,5.6c0,0,9.5,12.6,24.1,13.5c0.1,0,0.1,0,0.2,0c0.3,0,0.5,0,0.8,0
				c0.1,0,0.2,0,0.4,0C394.3,307.5,402,305.1,410.4,297.9z"/>
			<path class="st5" d="M388.2,288.3c13.9,1.4,22.2,9.6,22.2,9.6c-8.4,7.2-16.1,9.6-22.9,9.6c2.6-0.1,4.9-1.2,6.5-3c0,0,0,0,0,0
				c1.5-1.2,2.4-3.1,2.5-5.1c0.1-0.4,0.1-0.9,0.1-1.3c0-4.9-3.7-8.9-8.5-9.4L388.2,288.3z"/>
			<path class="st47" d="M355.1,401.6c0.2-9.4-0.6-22-5.7-31.2c-0.4-2.4-1.1-4.8-2-7.1c0,0,21.4,13,39.9,22.2l-0.1,0.1
				c0,0,2.4,11.5,6.5,20.9c2,4.5,4.3,8.6,7,10.7c0,0-8.9,6-6.8,11c0,0-32.9-16.7-39.9-14C354.1,414.2,354.9,408.9,355.1,401.6z"/>
			<path class="st48" d="M454.4,418.4c-34.1-6.8-60.7-11.9-60.7-11.9h0c-4.1-9.5-6.5-20.9-6.5-20.9l0.1-0.1c8.1,4,15.7,7.3,20.6,8.4
				c16.2,3.7,52.9-59.3,52.9-59.3s6.2-10.8-1.2-15.7c3.2-0.4,6.5-1.4,9.9-3.1c0,0,5.6-9.6,8-22c0.1-0.5,0.2-1,0.3-1.5
				c0.2,0.8,11.3,44.4-4.2,59.8c-3.6,3.6-6.3,7.4-8.3,11.2c0,0,2.6,26.3,16.6,38.3s5.2,23.4,5.2,23.4
				C475.7,422.6,464.7,420.4,454.4,418.4z"/>
			<path class="st49" d="M396.6,299.2c0-3.8-3-6.8-6.8-6.8c-3.8,0-6.8,3-6.8,6.8c0,3.8,3,6.8,6.8,6.8c1.6,0,3.1-0.6,4.3-1.5
				c-1.6,1.8-4,2.9-6.5,3c-0.4,0-0.8,0-1.2,0c-0.1,0-0.1,0-0.2,0c-4.8-0.5-8.5-4.5-8.5-9.4c0-5.2,4.2-9.4,9.5-9.4c0.3,0,0.6,0,1,0
				c4.8,0.5,8.5,4.5,8.5,9.4c0,0.5,0,0.9-0.1,1.3C396.6,299.3,396.6,299.3,396.6,299.2z"/>
			<path class="st50" d="M739.3,288l192.6,12.4c0,0,0.2,0.1,0.6,0.2l-0.1,0.4l-0.7-0.1c-0.4,0-0.8,0.1-1.1,0.3l-93.7,54.5l-1,0.1
				c-0.2-0.1-0.4-0.1-0.7-0.1l-181.9-13.5c-0.4,0-0.9,0.1-1.2,0.2l84.7-53.8c0.5-0.3,1.1-0.5,1.8-0.6C738.7,288,739,288,739.3,288z
				 M750.6,290.4c0,0-10.2-0.7-14.4,2c-14.2,9-22.3,15.1-31.9,22.8c-7.9,6.3-3.4,4.5,14,6.2c0.1,0,0.2,0,0.3,0
				c4.7,0.4,117,9.6,131.8,11.5c15.2,1.9,14.2,2.1,18.5-0.5c10.4-6.4,37.5-22.2,43-25.6c11.2-7-2.1-6.3-4-6.4
				C868.2,298.2,750.6,290.4,750.6,290.4z"/>
			<path class="st48" d="M257.1,279.2c-8.4-18,28.7-121.7,101.3-114.3c0,0,9.1-1.2,20.7,2.7c12.4,4.2,27.7,14.4,37.3,38.6
				c0,0-9.3,39.9-42.6,58.3c-7.5,4.1-16.3,7.2-26.4,8.4c0,0-7.5,16-7.9,36.5c-0.1,7.2,0.6,15,2.9,22.8c3.5,12.2,5,22.4,4.6,31l0.4,0
				c0.9,2.4,1.6,4.8,2,7.1c3.3,18.6-8,36.1-8,36.1l1.3,2.2l-72.3,42.1c0,0-3,1-8,2.7c-8.9,3-24,8.1-39.4,13.6l-0.6-1.6
				c0.7-1.3,13.3-36.8,8-59.1c-5.1-21.1,5.4-37.5,6.6-39.1C229,331.7,234.1,296.5,257.1,279.2z"/>
			<path class="st45" d="M931.7,300.9l0.7,0.1l0.7,0.4c4.3,0,4.2,5.3,1,7.2l-97,60.3c0.8-0.6,1.3-1.5,1.3-2.5v-7.2
				c0-1.6-1.1-3-2.6-3.4l1-0.1l93.7-54.5C930.9,301,931.3,300.9,931.7,300.9z"/>
			<path class="st51" d="M840.2,909.9c15-9.8,28.2,0.9,28.2,0.9l48.7,46c0,0,12.7,15.3-12,12c-24.7-3.3-173.3-76-173.3-76
				c37.3-4.7,26.2-45.7,26.2-45.7l0.8-1.2C806.8,881.1,840.2,909.9,840.2,909.9z"/>
			<path class="st52" d="M907.9,300.4c1.9,0.1,15.2-0.6,4,6.4c-5.5,3.4-32.6,19.2-43,25.6c-4.3,2.6-3.3,2.4-18.5,0.5
				c-14.8-1.9-127.2-11.1-131.8-11.5c-0.1,0-0.2,0-0.3,0c-17.4-1.7-21.8,0.1-14-6.2c9.6-7.7,17.8-13.8,31.9-22.8
				c4.3-2.7,14.4-2,14.4-2S868.2,298.2,907.9,300.4z"/>
			<path class="st45" d="M838.4,359.2v7.2c0,1-0.5,1.9-1.3,2.5c0,0,0,0,0,0l-0.3,0.2c-0.5,0.3-1.1,0.5-1.8,0.4l-56.6-4.7l-76-6.3
				c5.7-9.2-7-10.2-13.8,0l-28.7-2.7c-2.2-0.2-4.2-1.5-5.2-3.5l-3.6-6.7c-0.6-1.2-0.1-2.5,0.9-3.1c0.4-0.2,0.8-0.3,1.2-0.2
				l181.9,13.5c0.2,0,0.5,0,0.7,0.1C837.3,356.2,838.4,357.5,838.4,359.2z"/>
			<path class="st50" d="M836.8,369.1l0.3-0.2C837,369,836.9,369,836.8,369.1z"/>
			<path class="st46" d="M702.4,358.4l76,6.3l0,0.1c-13.9,16.7-36.4,21-48,22l0,0.3c0,0-48.3,62.2-81.8,94.4
				c4.7-26.8-26.5-41.1-26.5-41.1l6.2-2.9l74-49.2c0,0-21.3-6.8-16.7-23.5c0.7-2.5,1.7-4.6,2.9-6.4
				C695.4,348.2,708.1,349.2,702.4,358.4z"/>
			<path class="st46" d="M758.8,846.1l-0.8,1.2c0,0,11.1,41-26.2,45.7c-50-38.7-242.4-102.4-242.4-102.4c5-4.5,10.5-9.1,16.4-13.6
				c28.5-21.6,46.9-34.4,59.5-42C629.9,757.7,703.9,806,758.8,846.1z"/>
			<path class="st53" d="M242.5,506.5c-11.3,2.1-23.2,4.6-34.6,7.1c-26.1,5.7-49.4,11.7-56.4,14.3c-16.9,6.3-15.7-12.3-21.1-21
				c-1.2-2-2.1-11.9-2.6-26c0,0,15.2,14.9,35.2-14c3,9,6,15.6,8.4,20.1c6.6-3.7,29.4-12.1,51.5-19.9c15.5-5.5,30.6-10.6,39.4-13.6
				c5-1.7,8-2.7,8-2.7l72.3-42.1l12.4-7.2c-0.2,7.3-1,12.7-1,12.7c7-2.7,39.9,14,39.9,14c-2.1-5,6.8-11,6.8-11
				c-2.7-2.2-5-6.2-7-10.7h0c0,0,26.5,5.1,60.7,11.9c10.3,2.1,21.4,4.3,32.6,6.6c47.4,9.7,98,20.7,111.9,25.9l0.1,0.3l23.1-10.8
				c0,0,31.1,14.4,26.5,41.1c-10.7,10.3-19.9,17.5-25.5,18.6c-18.1,3.6-98.5-16.1-133.4-25c-9.7-2.5-15.8-4.1-16.2-4.2
				c17.7,13,12.9,34,12.9,34c-3.4,17.4-12.5,25.4-23.1,28.4l0.2,0.6c-0.7,3.1-5.9,25.9-10.6,49.2c-3.3,16.5-6.3,33.3-7.3,43.7v0
				c0,0-43.8,20.6-104.1,0l-1.7,0.5c-3.8-14-13.2-40.7-23.2-67.6c-8.2-22-16.6-44.1-22.5-59.3c-2.1-0.4-5.2-0.4-9-0.2
				C274.8,500.9,259.4,503.3,242.5,506.5z"/>
			<path class="st53" d="M333,656.9L333,656.9c1.6-4,3-7.6,4.2-10.6c0,0,62.1,25.9,108.3-0.7c13.1,29.3,149.5,70.7,149.5,70.7
				s20.7,6,6,7.3c-9.5,0.9-13.1-2.4-35.9,11.3c-12.6,7.6-31,20.4-59.5,42c-5.9,4.5-11.4,9-16.4,13.6
				c-62.4,56.6-54.9,113.8-54.9,113.8c-4-10.7-48.7-38-89.3-72.7c-7.5-6.4-12.7-16.5-16.1-28.6C314.2,750.3,332.6,659,333,656.9z"/>
			<path class="st48" d="M496.3,554.4L496.3,554.4c-2.8,17.5-33.2,17.3-33.2,17.3l0,0c-3.8,7.9-10,11.3-10.3,11.5
				c4.7-23.4,9.9-46.1,10.6-49.2l-0.2-0.6c10.6-3,19.7-11,23.1-28.4c0,0,4.8-21-12.9-34c0.4,0.1,6.6,1.8,16.2,4.2
				c-3.7,21.6,7,15.1,27.1,58.4c20,43.3-18.9,51-18.9,51s23.6-17.7,6.2-24.6C500.9,558.7,498.3,556.7,496.3,554.4z"/>
			<path class="st48" d="M477.9,274.3c-0.6-2.5-1.5-5-2.8-7.5c-0.7-1.4-1.4-2.8-2.3-4.2L472,262c-3.1-3.9-7.4-7.5-13.5-10.5
				c-27.5-13.3-42.1-45.3-42.1-45.3c-9.7-24.2-24.9-34.4-37.3-38.6c0,0,62-24.7,102.7,36.6c40.3,60.8-3.2,87.4-4,88c0,0,0,0,0,0
				s0,0,0,0C477.9,291.4,480.1,283.5,477.9,274.3z"/>
			<path class="st47" d="M472,262l-2.6-1.8c-24.3,17-95.6,4.3-95.6,4.3c33.3-18.3,42.6-58.3,42.6-58.3s14.7,32,42.1,45.3
				C464.6,254.5,468.9,258.2,472,262z"/>
			<circle cx="460.7" cy="297.2" r="5"/>
			<path class="st5" d="M465.8,296.9c0-4-3.2-7.3-7.3-7.3c-0.5,0-1,0-1.5,0.1l-0.1-0.5c5.5-0.9,12.4-0.1,20.5,4.3
				c0,0-7,10.7-18.9,10.9l0-0.3C462.5,304.2,465.8,301,465.8,296.9z"/>
			<path class="st49" d="M458.5,289.7c4,0,7.3,3.3,7.3,7.3c0,4-3.2,7.3-7.3,7.3c-4,0-7.3-3.2-7.3-7.3c0-3.5,2.5-6.4,5.8-7.1
				C457.5,289.7,458,289.7,458.5,289.7z M465.7,297.2c0-2.8-2.2-5-5-5c-2.8,0-5,2.2-5,5c0,2.8,2.2,5,5,5
				C463.5,302.2,465.7,300,465.7,297.2z"/>
			<path class="st47" d="M459.5,318.8c7.4,4.9,1.2,15.7,1.2,15.7s-36.7,63-52.9,59.3c-4.9-1.1-12.5-4.4-20.6-8.4
				c-18.5-9.2-39.9-22.2-39.9-22.2l-0.4,0c0.4-8.6-1.1-18.8-4.6-31c-2.2-7.9-3-15.6-2.9-22.8c52,30.7,88.9-2.2,88.9-2.2
				S442,321.2,459.5,318.8z M436,354.3c4.6-0.6,6.7-1.8,4.4-4.1c-10.3-10-16-5-16-5c-3-6-50,5-50,5s6.4,0.8,15.4,1.8
				C424.4,379.5,436,354.3,436,354.3z"/>
			<path class="st5" d="M458.5,304.2l0,0.3c-4.9,0.1-10.7-1.7-17.2-6.7c0,0,5.6-6.9,15.6-8.5l0.1,0.5c-3.3,0.7-5.8,3.6-5.8,7.1
				C451.2,301,454.5,304.2,458.5,304.2z"/>
			<path class="st46" d="M445.5,626.9v18.7c-46.2,26.7-108.3,0.7-108.3,0.7c2.6-6.6,4.1-10.7,4.1-10.7c-0.1-1.7-0.7-4.5-1.7-8.2
				l1.7-0.5C401.8,647.5,445.5,626.9,445.5,626.9z"/>
			<path class="st54" d="M440.4,350.2c2.3,2.3,0.2,3.5-4.4,4.1c-9.9,1.2-31.5-0.7-46.2-2.3c-8.9-1-15.4-1.8-15.4-1.8s47-11,50-5
				C424.4,345.2,430.1,340.2,440.4,350.2z"/>
			<path class="st54" d="M389.7,352c14.8,1.6,36.3,3.5,46.2,2.3C436,354.3,424.4,379.5,389.7,352z"/>
			<path class="st51" d="M370.4,929.4c-49.2-1.1-84.9-2.8-110.6-4.6c29.3-4.8,25.4-41,25.4-41v0c32.5,11.8,97.6,27.2,97.6,27.2
				c30.3,2.7,24.4,18.7,24.4,18.7c-12,34-43.3,67.3-43.3,67.3C348.4,976.9,370.4,929.4,370.4,929.4L370.4,929.4z"/>
			<path d="M396.6,299.2c0,0,0,0.1,0,0.1c-0.3,2-1.2,3.8-2.5,5.1c0,0,0,0,0,0c-1.2,1-2.7,1.5-4.3,1.5c-3.8,0-6.8-3-6.8-6.8
				c0-3.8,3-6.8,6.8-6.8C393.5,292.4,396.6,295.5,396.6,299.2z"/>
			<path class="st5" d="M388.2,288.3l0,0.3c-0.3,0-0.6,0-1,0c-5.2,0-9.5,4.2-9.5,9.4c0,4.9,3.7,8.9,8.5,9.4
				c-14.7-0.9-24.1-13.5-24.1-13.5C372,288.7,380.9,287.6,388.2,288.3z"/>
			<path class="st55" d="M349.4,370.4c5.1,9.2,5.9,21.8,5.7,31.2l-12.4,7.2l-1.3-2.2C341.4,406.5,352.7,389,349.4,370.4z"/>
			<path class="st46" d="M267.8,875.4c2.1,2.3,8.5,5.2,17.3,8.4v0c0,0,4,36.1-25.4,41c-69.4-5-67.3-11.2-67.3-11.2
				c-13.3-29.3,80-154,100.7-178.7c13.6-16.2,30.2-54,40-78h0c-0.4,2-18.8,93.4-4.1,146C300.5,818.8,278.8,854.2,267.8,875.4z"/>
			<path class="st48" d="M238.8,565.4c-21,22.5-47.1,21.3-60.2,9.5c-17.1-15.3,0-33.1,0-33.1c16.9,22.9,29.3-28.2,29.3-28.2
				c11.4-2.5,23.3-5,34.6-7.1c16.9-3.2,32.4-5.6,42.5-6.2c3.9-0.2,6.9-0.2,9,0.2c5.9,15.2,14.3,37.3,22.5,59.3
				c-15.2,15.5-28.9-5.3-28.9-5.3C264.1,591.1,239.5,566,238.8,565.4z"/>
			<path class="st46" d="M183,328.2c11,11.6-1.5,19.4-1.5,19.4l-0.7,0.2c2.9,7.2-4.4,8.6-4.4,8.6s-16,9.5-24.7,10.5l0,0.3
				c-1.7,47.4,4.6,79.5,11.3,99.6c-20,28.9-35.2,14-35.2,14c-1.7-46.3-0.1-137.5-0.1-137.5s18-53.9,42-41.2
				C193.7,314.9,183,328.2,183,328.2z"/>
		</g>
		<g>
			<path class="st56" d="M428.4,311.6c0,0,10.7,10.7,14,12c3.3,1.3,0,12-14,14"/>
			<path class="st56" d="M389.7,352c-8.9-1-15.4-1.8-15.4-1.8s47-11,50-5c0,0,5.7-5,16,5c2.3,2.3,0.2,3.5-4.4,4.1
				C426.1,355.5,404.5,353.6,389.7,352z"/>
			<path class="st56" d="M436,354.3c0,0-11.6,25.2-46.2-2.3"/>
			<path class="st56" d="M477.7,292.1c1-5.7,1.2-11.9-0.1-18c-0.5-2.5-1.4-5-2.5-7.4c-0.7-1.4-1.4-2.8-2.3-4.2L472,262l-2.6-1.8
				c-24.3,17-95.6,4.3-95.6,4.3"/>
			<path class="st56" d="M477.7,292.2C477.7,292.2,477.7,292.2,477.7,292.2"/>
			<path class="st56" d="M339.5,309.4c52,30.7,88.9-2.2,88.9-2.2s13.6,14,31.1,11.6c3.2-0.4,6.5-1.4,9.9-3.1c0,0,5.6-9.6,8-22
				c0.1-0.5,0.2-1,0.3-1.5"/>
			<path class="st56" d="M386.4,307.4c0.4,0,0.8,0,1.2,0c6.7,0.1,14.5-2.4,22.9-9.6c0,0-8.3-8.2-22.2-9.6
				c-7.3-0.7-16.1,0.4-26.1,5.6c0,0,9.5,12.6,24.1,13.5"/>
			<path class="st56" d="M458.5,304.5c-4.9,0.1-10.7-1.7-17.2-6.7c0,0,5.6-6.9,15.6-8.5c5.5-0.9,12.4-0.1,20.5,4.3
				C477.4,293.6,470.5,304.4,458.5,304.5z"/>
			<path class="st56" d="M394.1,304.5c-1.2,1-2.7,1.5-4.3,1.5c-3.8,0-6.8-3-6.8-6.8c0-3.8,3-6.8,6.8-6.8c3.8,0,6.8,3,6.8,6.8
				c0,0,0,0.1,0,0.1C396.5,301.4,395.6,303.3,394.1,304.5"/>
			<path class="st56" d="M388.2,288.6c4.8,0.5,8.5,4.5,8.5,9.4c0,0.5,0,0.9-0.1,1.3c-0.3,2-1.2,3.8-2.5,5.1c0,0,0,0,0,0
				c-1.6,1.8-4,2.9-6.5,3c-0.1,0-0.2,0-0.4,0c-0.3,0-0.6,0-0.8,0c-0.1,0-0.1,0-0.2,0c-4.8-0.5-8.5-4.5-8.5-9.4
				c0-5.2,4.2-9.4,9.5-9.4C387.5,288.6,387.8,288.6,388.2,288.6z"/>
			<path class="st56" d="M457,289.8c0.5-0.1,1-0.1,1.5-0.1c4,0,7.3,3.3,7.3,7.3c0,4-3.2,7.3-7.3,7.3c-4,0-7.3-3.2-7.3-7.3
				C451.2,293.4,453.7,290.5,457,289.8z"/>
			<circle class="st56" cx="460.7" cy="297.2" r="5"/>
			<path class="st56" d="M405.7,285.6c-1.7-1-18.7-22-43.7-7.7"/>
			<path class="st56" d="M445.4,285.6c0,0,18.5-17.4,32.1-11.4c0.1,0,0.2,0.1,0.3,0.1c1.3,0.6,2.6,1.5,3.8,2.6"/>
			<path class="st56" d="M387.2,385.6c0,0,2.4,11.5,6.5,20.9c2,4.5,4.3,8.6,7,10.7c0,0-8.9,6-6.8,11c0,0-32.9-16.7-39.9-14
				c0,0,0.8-5.3,1-12.7c0.2-9.4-0.6-22-5.7-31.2c-0.6-1.1-1.3-2.1-2-3.1"/>
			<path class="st56" d="M347.4,363.2c0,0,21.4,13,39.9,22.2c8.1,4,15.7,7.3,20.6,8.4c16.2,3.7,52.9-59.3,52.9-59.3
				s6.2-10.8-1.2-15.7"/>
			<path class="st56" d="M335.1,401.6c0,0,15.4-14.6,12.3-34.3"/>
			<path class="st56" d="M341.4,406.5c0,0,11.2-17.5,8-36.1c-0.4-2.4-1.1-4.8-2-7.1"/>
			<path class="st56" d="M355.1,401.6L355.1,401.6l-12.4,7.2l-72.3,42.1c0,0-3,1-8,2.7c-8.9,3-24,8.1-39.4,13.6
				c-22.1,7.8-44.9,16.1-51.5,19.9c-0.9,0.5-1.5,0.9-1.7,1.2"/>
			<path class="st56" d="M176.4,494.9c0,0-2-2.5-4.9-7.9c-2.4-4.5-5.5-11.2-8.4-20.1c-6.7-20.2-13-52.3-11.3-99.6"/>
			<path class="st56" d="M160.4,354.7c0,0-3.3-16.7-12.7,3.8c-3.3,7.2-0.7,9.1,4,8.5c8.7-1,24.7-10.5,24.7-10.5s7.3-1.4,4.4-8.6
				c-1.7-4.2-7-10.5-19.5-19.6"/>
			<path class="st56" d="M181.5,347.6c0,0,12.5-7.8,1.5-19.4c-2.8-2.9-7-6.1-13.3-9.4"/>
			<path class="st56" d="M183,328.2c0,0,10.7-13.3-13.3-26c-24-12.7-42,41.2-42,41.2s-1.6,91.1,0.1,137.5c0.5,14.1,1.3,24,2.6,26
				c5.3,8.7,4.1,27.3,21.1,21c7-2.6,30.4-8.6,56.4-14.3c11.4-2.5,23.3-5,34.6-7.1c16.9-3.2,32.4-5.6,42.5-6.2c3.9-0.2,6.9-0.2,9,0.2
				c0.7,0.1,1.2,0.2,1.7,0.4"/>
			<path class="st56" d="M286.4,480.9c0,0,3,7.6,7.6,19.6c5.9,15.2,14.3,37.3,22.5,59.3c10,26.8,19.4,53.6,23.2,67.6
				c1,3.7,1.6,6.5,1.7,8.2c0,0-1.5,4.1-4.1,10.7c-1.2,3.1-2.6,6.7-4.3,10.6c-9.8,24-26.4,61.8-40,78
				c-20.7,24.7-114,149.3-100.7,178.7c0,0-2.1,6.2,67.3,11.2c25.8,1.8,61.4,3.5,110.6,4.6c2.9,0.1,5.8,0.1,8.7,0.2"/>
			<path class="st56" d="M452.9,583.1c4.7-23.4,9.9-46.1,10.6-49.2c0-0.2,0.1-0.4,0.1-0.4"/>
			<path class="st56" d="M445.4,635.6c-0.3-1.7-0.2-4.8,0.2-8.7"/>
			<path class="st56" d="M473.4,470.9c-2.7-2-6-3.8-9.9-5.3"/>
			<path class="st56" d="M416.4,525.9c0,0,26.2,13.3,46.9,7.4c10.6-3,19.7-11,23.1-28.4c0,0,4.8-21-12.9-34"/>
			<path class="st56" d="M389.7,529.2c0,0-30,28.3-62,0c-32-28.3,0-63.6,0-63.6"/>
			<path class="st56" d="M473.4,470.9C473.4,470.9,473.4,470.9,473.4,470.9c0.4,0.1,6.6,1.8,16.2,4.2c34.9,8.9,115.2,28.6,133.4,25
				c5.7-1.1,14.8-8.3,25.5-18.6c33.5-32.1,81.8-94.4,81.8-94.4"/>
			<path class="st56" d="M393.7,406.5c0,0,26.5,5.1,60.7,11.9c10.3,2.1,21.4,4.3,32.6,6.6c47.4,9.7,98,20.7,111.9,25.9"/>
			<polyline class="st56" points="589.7,455.6 599.1,451.2 622.1,440.5 628.4,437.6 702.4,388.4 			"/>
			<path class="st56" d="M709.7,367.2c0,0-14,2.1-7.3-8.8c5.7-9.2-7-10.2-13.8,0c-1.2,1.8-2.2,3.9-2.9,6.4
				c-4.7,16.7,16.7,23.5,16.7,23.5"/>
			<path class="st56" d="M722.9,387.2c0,0,2.9,0.1,7.5-0.3c11.6-1.1,34.2-5.3,48-22"/>
			<path class="st56" d="M370.4,929.4c0,0-22,47.5-6.6,67.5c0,0,31.3-33.3,43.3-67.3c0,0,5.9-16-24.4-18.7c0,0-65.1-15.4-97.6-27.2
				c-8.8-3.2-15.2-6.1-17.3-8.4c-0.4-0.4-0.6-0.8-0.7-1.2"/>
			<path class="st56" d="M259.7,892.2c0,0,2.8-6.8,8.1-16.8c11-21.2,32.7-56.6,61.2-72.4c0,0,0.1,0,0.1-0.1"/>
			<path class="st56" d="M285.1,883.7c0,0,4,36.1-25.4,41"/>
			<path class="st56" d="M445.5,626.9c0,0-43.8,20.6-104.1,0"/>
			<path class="st56" d="M333,656.9C333,656.9,333,656.9,333,656.9c-0.4,2.1-18.8,93.5-4.1,146.1c3.4,12.1,8.5,22.2,16.1,28.6
				c40.7,34.7,85.3,62,89.3,72.7c0,0-7.4-57.1,54.9-113.8c5-4.5,10.5-9.1,16.4-13.6c28.5-21.6,46.9-34.4,59.5-42
				c22.8-13.8,26.4-10.5,35.9-11.3c14.7-1.3-6-7.3-6-7.3s-136.4-41.3-149.5-70.7v-18.7v0c1-10.4,4-27.2,7.3-43.7"/>
			<path class="st56" d="M337.3,646.3c0,0,62.1,25.9,108.3-0.7"/>
			<path class="st56" d="M489.3,790.5c0,0,192.4,63.8,242.4,102.4c0,0,148.7,72.7,173.3,76c24.7,3.3,12-12,12-12l-48.7-46
				c0,0-13.1-10.7-28.2-0.9c-2.6,1.7-5.2,3.9-7.8,6.9"/>
			<path class="st56" d="M840.2,909.9c0,0-33.4-28.8-81.4-63.9c-54.9-40.1-128.9-88.4-193.6-111.2"/>
			<path class="st56" d="M757.9,847.2c0,0,11.1,41-26.2,45.7"/>
			<path class="st56" d="M256.4,337.6c8.9-26,8.4-41.6,0.6-58.3c-8.4-18,28.7-121.7,101.3-114.3c0,0,9.1-1.2,20.7,2.7
				c12.4,4.2,27.7,14.4,37.3,38.6c0,0-9.3,39.9-42.6,58.3c-7.5,4.1-16.3,7.2-26.4,8.4c0,0-7.5,16-7.9,36.5c-0.1,7.2,0.6,15,2.9,22.8
				c3.5,12.2,5,22.4,4.6,31c-0.7,15.9-7.6,26.4-19.3,34.5"/>
			<path class="st56" d="M379.1,167.6c0,0,62-24.7,102.7,36.6c40.3,60.8-3.2,87.4-4,88c0,0,0,0,0,0s0,0,0,0c0,0,0,0,0,0
				c0.2-0.7,2.4-8.7,0.2-17.9c-0.6-2.5-1.5-5-2.8-7.5c-0.8-1.6-1.8-3.2-3.1-4.7c-3.1-3.9-7.4-7.5-13.5-10.5
				c-27.5-13.3-42.1-45.3-42.1-45.3"/>
			<path class="st56" d="M477.7,292.2C477.7,292.2,477.7,292.2,477.7,292.2c0.2,0.8,11.3,44.4-4.2,59.8c-3.6,3.6-6.3,7.4-8.3,11.2
				c-6.7,12.8-5.6,25.2-5.6,25.2"/>
			<path class="st56" d="M465.2,363.2c0,0,2.6,26.3,16.6,38.3s5.2,23.4,5.2,23.4"/>
			<path class="st56" d="M441.3,377.6c0,0-0.6,18,9.9,24c10.5,6,3.1,16.8,3.1,16.8"/>
			<path class="st56" d="M419.1,394.1c0,0-1.1,5.7,4,12.4"/>
			<path class="st56" d="M285.1,377.6c0,0-10,16.7-8.7,32.7c1.3,16-8.4,41.5-14,43.3"/>
			<path class="st56" d="M222.4,465.6c0.7-1.3,13.3-36.8,8-59.1c-5.1-21.1,5.4-37.5,6.6-39.1c0.1-0.1,0.1-0.1,0.1-0.1"/>
			<path class="st56" d="M257.1,279.2c-23,17.2-28,52.5-20.1,88.1c1.3,5.7,2.9,11.4,4.8,17c0,0,5.3,10.5,3.3,29.2"/>
			<path class="st56" d="M345.7,193.6c0,0-24.7,7.3-26.7,29.3s-23.3,25.3-23.3,25.3"/>
			<path class="st56" d="M365.7,210.9c0,0-46.7,29.3-45,58c1.7,28.7-6.3,62-16.3,59.3"/>
			<path class="st56" d="M292.4,279.2c0,0-18.6,32.4-7.3,49c11.3,16.7-15.4,39-15.4,39"/>
			<path class="st56" d="M207.9,513.6c0,0-12.4,51-29.3,28.2c0,0-17.1,17.8,0,33.1c13.1,11.7,39.2,12.9,60.2-9.5
				c6.4-6.9,12.4-16,17.3-27.8"/>
			<path class="st56" d="M238.8,565.3C238.8,565.3,238.8,565.3,238.8,565.3c0.7,0.7,25.3,25.8,48.8-10.9c4.1-6.4,8.2-14.6,12.1-25.2
				"/>
			<path class="st56" d="M287.6,554.4c0,0,13.7,20.9,28.9,5.3"/>
			<path class="st56" d="M281.1,533.6c0,0,9.4-15.3,4-20c-4.9-4.3-0.8-12.1-0.1-13.3c0.1-0.1,0.1-0.1,0.1-0.1"/>
			<path class="st56" d="M243.4,506.3c-0.3-1.1-0.6-1-0.9,0.2c-0.8,2.9-1.9,11.8-3.7,22.7c-3.1,19.2-25.2,25.2-25.2,25.2"/>
			<path class="st56" d="M452.9,583.1C452.9,583.1,452.9,583.1,452.9,583.1c0.3-0.2,6.5-3.5,10.3-11.5c2.1-4.3,3.4-10,2.6-17.2"/>
			<path class="st56" d="M463.2,571.7c0,0,30.4,0.3,33.1-17.3"/>
			<path class="st56" d="M488.7,525.9c0,0-1.3,18.1,7.7,28.5c2,2.3,4.5,4.3,7.7,5.6c17.3,6.9-6.2,24.6-6.2,24.6s38.9-7.7,18.9-51
				c-20-43.3-30.8-36.9-27.1-58.4"/>
			<path class="st56" d="M127.8,480.9c0,0,15.2,14.9,35.2-14c0.3-0.4,0.6-0.9,0.9-1.3"/>
			<path class="st56" d="M622.1,440.5c0,0,31.1,14.4,26.5,41.1"/>
			<path class="st56" d="M837.1,368.9c-0.1,0.1-0.2,0.1-0.3,0.2c-0.5,0.3-1.1,0.5-1.8,0.4l-56.6-4.7l-76-6.3"/>
			<path class="st56" d="M688.6,358.4l-28.7-2.7c-2.2-0.2-4.2-1.5-5.2-3.5l-3.6-6.7c-0.6-1.2-0.1-2.5,0.9-3.1
				c0.4-0.2,0.8-0.3,1.2-0.2l181.9,13.5c0.2,0,0.5,0,0.7,0.1c1.5,0.4,2.6,1.8,2.6,3.4v7.2c0,1-0.5,1.9-1.3,2.5"/>
			<path class="st56" d="M836.8,369.1l0.3-0.2c0,0,0,0,0,0l97-60.3c3.2-2,3.3-7.2-1-7.2l-0.7-0.4l-0.7-0.1c-0.4,0-0.8,0.1-1.1,0.3
				l-93.7,54.5"/>
			<path class="st56" d="M931.9,300.4L739.3,288c-0.3,0-0.6,0-0.8,0c-0.6,0.1-1.2,0.3-1.8,0.6L652,342.4"/>
			<path class="st56" d="M738.4,288c0,0,27.8-90.1,34.3-120.8c1.6-7.8,1.6-7.8,17.7-7.8c15.9,0,138.4,0,184.4,0
				c11.5,0,15.5,1.4,11.5,14.5c-3.4,11.3-29.3,93.6-43.5,123.9c-1,2.1-4,3.7-5.5,3.6c-2.1-0.1-3.9-0.5-4.9-0.8
				c-0.4-0.1-0.6-0.2-0.6-0.2"/>
			<path class="st56" d="M972.4,167.9h-189c0,0-4,0.5-5,6c-0.9,5.1-24,84.9-27.3,96.6c-0.3,1.1-1,3.3-1.3,5.2
				c-0.4,2.8-0.1,5.7,7.1,5.7c6,0,146.5,8.8,166.6,10c1.8,0.1,3.6-0.2,5.3-0.8c4-1.6,11-5.1,12.7-11.4c2.5-9,36.3-102.8,36.3-102.8
				S981.4,167.9,972.4,167.9z"/>
			<path class="st56" d="M750.6,290.4c0,0,117.6,7.8,157.2,10c1.9,0.1,15.2-0.6,4,6.4c-5.5,3.4-32.6,19.2-43,25.6
				c-4.3,2.6-3.3,2.4-18.5,0.5c-14.8-1.9-127.2-11.1-131.8-11.5c-0.1,0-0.2,0-0.3,0c-17.4-1.7-21.8,0.1-14-6.2
				c9.6-7.7,17.8-13.8,31.9-22.8C740.5,289.7,750.6,290.4,750.6,290.4z"/>
			<path class="st57" d="M749.6,325.9c0,0-4.3-2.3-7.8,2.9c-2.4,3.5-8,9.5-9.6,13.7c-0.6,1.5,0.5,2.8,3.5,2.8"/>
			<path class="st57" d="M799.6,330.1c0,0,6.3,0,3.8,4.3s-8.8,11.7-8.8,11.7s-3.1,3.8-7.7,2.3"/>
		</g>
	</g>
	<g id="Layer_3">
		<circle class="st58" cx="461.7" cy="296.1" r="1.1"/>
		<circle class="st58" cx="392.9" cy="296.9" r="1.3"/>
		<circle class="st58" cx="389.7" cy="300.7" r="1.5"/>
		<circle class="st58" cx="460.1" cy="299" r="1.2"/>
	</g>
	<path class="st59" d="M878.6,165.1L878.6,165.1c-1,0-1.8-0.8-1.8-1.8v0c0-1,0.8-1.7,1.8-1.7l0,0c1,0,1.8,0.8,1.8,1.7v0
		C880.4,164.3,879.6,165.1,878.6,165.1z"/>
</g>
</svg>
