<?xml version="1.0" encoding="utf-8"?>
<!-- Generator: Adobe Illustrator 18.1.1, SVG Export Plug-In . SVG Version: 6.00 Build 0)  -->
<svg version="1.1" xmlns="http://www.w3.org/2000/svg" xmlns:xlink="http://www.w3.org/1999/xlink" x="0px" y="0px"
	 viewBox="290 237.6 414.3 441" enable-background="new 290 237.6 414.3 441" xml:space="preserve">
<g id="svg2" xmlns:svg="http://www.w3.org/2000/svg">
	<g id="layer1">
		<path id="path1996" fill="#515151" d="M443.9,661.1c0,0,0.5-2.7-0.1-3.4c-0.6-0.7-2-3.9-1.7-5c0.2-1.1-3.6-3.8-3.6-3.8
			s-7.4-3.2-10.8-3.3c-3.4-0.1-9.4-3.8-9.9-4.9c-0.5-1.1-4-6.6-3.3-9.6c0.7-2.9-2.2-5-2.2-5s-2.6-12.9-2.3-14.7
			c0.2-1.8-0.7-5.3-0.7-5.3s1.1-5.6,2.1-6.9s3.4-3.8,3.4-3.8l1.7-3.9c0,0-0.4-6.6-3.9-7.1c-3.6-0.5-4.7-8.3-4.7-8.3l0.2-5.3
			l-1.7-2.6l0.1-6.4c0,0-1.6-8.1-0.7-8.9c0.9-0.9,0.5-2.9,0.5-2.9s-2.3-11.1-2.6-11.7c-0.4-0.6,0.6-3.1,0.6-3.1
			c0-2.4-1.9-1.8-3.4-1.8c0,0-9.4-9.6-10.3-9.8c-0.9-0.2-7.5-1.8-7.5-1.8l-5.5-5.6c0,0-0.2-3.9-3.3-2.6S369,509,369,509
			s-3.9-6.1-3.8-6.7c0.1-0.6-1.6-3.6-1.6-3.6l0.1-2.9l-2.2-1.3c0,0-0.1-3.8-2.8-2.7s-6.3-3.8-6.3-3.8l-7-2.5c0,0-5.9-5.5-6.3-8.3
			c-0.4-2.8-8.9-4-8.9-4l-5.5-0.7c0,0-0.4-2.5-2.3-2.5c-2,0-2.7-3.2-2.7-3.2l-2.7-1.8l-5.3-6.6l-2.8-0.5c0,0-2.8-1.7-0.7-4.9
			c2.1-3.2,2.1-4.9,2.1-4.9l1.5-0.7c0,0-1.6-1.7-1.3-3.3s2.3-5,2.3-5l-0.9-2.1l-1.1,0.5l0.4-5.9c0,0-2.2-2.7-2-4.2s3.1-2.9,3.1-3.8
			c0-0.9,0-4.2,0-4.2s-1.8-2.9-1.1-4.7s0-7.6,0-7.6l5.4-4.3c0,0-2.5-1.7-0.2-3.4c2.2-1.7,4.5-3.2,4.2-4.4c-0.4-1.2-1.6-2.6-2-3.1
			s-2.1-1.1-1.8-2.7s-1-4-1-4l-2.3-2.2c0,0-0.9-1.8-2.5-0.7s-3.9-2-3.9-2s-1.7-4.7-1-6.5s1.5-2.6,1.2-3.1c-0.2-0.5-0.9-1.8-0.1-2.8
			s3.8-2.5,3.8-2.5s2-4.4,2.9-4c1,0.4-1-2.7-1-2.7s2.3-1.3,2.6-2.1c0.2-0.7,0.5-2.9,1.5-2.9c1,0,3.6-2.9,4.5-2.6s0.4-1.8,0.4-1.8
			l6.1-2.3c0,0,0.1-2.1,2-1.6s3.1-0.7,3.1-0.7s2.7-3.8,3.9-3.7c1.2,0.1,2.3,1,2.3,1l2.8-0.2c0,0-1.5-3.9,0.2-4.3
			c1.7-0.4,1.2-0.9,1.2-0.9l2.1-52l1.2-0.6l0.9,1.8l4.5,0.5c0,0,0.7-1.7,1.8-1.7c1.1,0,3.1-2,2.5-2.7c-0.6-0.7,3.1-4.7,3.8-3.8
			c0.7,0.9,6.9,7,7.8,7c1,0,3.4-1.5,4.2-1.2c0.7,0.2,3.1-1.1,4.4-0.7s4.2-1.8,5.4-1.3c1.2,0.5,4-1.8,5.8-1.6
			c1.7,0.2,1.8-1.6,1.8-1.6s0.9-0.2,3.6-0.1c2.7,0.1,5.9-2.1,7.1-1.7c1.2,0.4,1.8-1.8,1.8-1.8l1,1.3l1.7-0.2c0,0,0.9-2.6,2.6-2.7
			c1.7-0.1,3.6-1.3,4.5-1.3c1,0,2.9-4.4,3.7-3.9c0.7,0.5,0.4,2.5,0.4,2.5s1.6-0.6,2.8-0.6c1.2,0,3.9,0.4,3.9,0.4l-0.5-2.8
			c0,0,1-1.1,1.6-0.5c0.6,0.6,1.7,0.5,1.7,0.5l0.7-2.2c0,0,3.4-0.7,3.6-2c0.1-1.2,1.3-0.4,1.3-0.4l0.7,1c0,0-0.4-1.8,0.6-1.5
			c1.2,0.4,3.4-2,3.4-2l2.2-0.7c0,0-0.4,2.5,0.7,2.6c1.1,0.1,2.3,0.4,2.3,0.4s1,1.3,0.9,2.3c-0.1,1,1.3,1.3,1.3,1.3
			s-0.7,0.2-0.7,1.1s-0.7,2.3-0.9,3.6c-0.1,1.2-1.8,1.8-2.5,1.8c-0.6,0,1.2,1.3,0.4,2.6c-0.9,1.2-2.8,1.3-2.8,2c0,0.6-0.5,1.3-1.3,2
			c-0.9,0.6,2.3,4.8,1.2,5.8c-1.1,1-3.6,2.5-3.4,3.1c0.1,0.6-1,3.8-1.6,3.7c-0.6-0.1-0.7,2.8-0.7,2.8s2.6-0.2,3.4-0.9
			c0.9-0.6,2.6-2.6,4.7-2.5c2.1,0.1,3.9-3.1,5-2.6c1.1,0.5,2.6,0.2,2.6,0.2l-2.7-3.2c0,0,1.2-1.3,2.3,0.1c1.1,1.5,2,3.4,2.7,4.2
			c0.7,0.7,0.5,1.1,1.6,2c1.1,0.9,5,2.3,5,2.3l3.1-0.1l3.3,2l2.2,0.4c0,0-0.1,2.6,1.6,2.2c1.7-0.4,2-1.2,3.1-1
			c1.1,0.2,2.6,2.7,2.6,2.7s1.6-0.6,1.6,0.9c0,1.5,3.2,0.1,3.6,2c0.4,1.8,2,2.6,1.3,3.6c-0.6,1,2.2,4.3,2.2,4.3s2,2.1,1.6,2.9
			c-0.4,0.9,0.1,2.8,0.1,2.8l65.5,18.3l13.7,7.6l1.8-0.6l1.6,1.5l2,0.1l0.9,0.5l0.6,0.7l2.9-0.2c0,0,3.9,1.8,5,1.8s3.9-1,4-1.5
			c0.1-0.5,3.6,0,3.6,0s2.8,0.5,2.6,1.5c-0.2,1,2.6-0.1,3.3,1.3c0.7,1.5,3.6,1,3.6,1s1.5-1.5,2.5-0.5c1,1,5.5,2.6,5.5,2.6
			s1.5-0.1,2.2,1c0.7,1.1,1.8-0.7,1.8-0.7s2.7-0.5,3.2,0.5c0.5,1,2.1,0.2,2.2,1.6c0.1,1.3,0,2.5,0,2.5l1.8,2.7c0,0-1.7,2.2-2.7,2.2
			c-1,0-1.6,2.9-0.2,3.1c1.3,0.1,3.8,2,3.8,2s2.2-0.5,2.8-1.2c0.6-0.7,2.5,0.5,2.1,1.7c-0.4,1.2,2.3,3.3,3.7,2.3
			c1.3-1,3.6-0.5,3.7,0.5c0.1,1-0.7,0.9,0.5,2.1c1.2,1.2,4.4,4.9,4.4,4.9s-0.7,1-1.6,0.5s-0.1,3.7-0.1,3.7l2.1,1.2l0.6,3.8
			c0,0-0.9,1.6-1.6,0.7c-0.7-0.9-2.1-0.1-1.3,1.5c0.7,1.6,1.6,2.1,1.6,2.1s-0.5,2,0,2.9c0.5,1-0.6,3.1-2.2,3.9c-1.6,0.9-1.1,4-1.1,4
			l-1.1,1.6c0,0,0.7,1.7,1.2,2.6c0.5,0.9,3.2-1.7,4.3-0.5c1.1,1.2,2.9,1,2.9,1s0.7-0.4,1.1-1.3c0.4-1,1.3-0.9,1.8-0.7
			c0.5,0.1,0.9-1.7,1.7-0.6c0.9,1.1,0.4,1,0.9,1.6c0.5,0.6,0.6,2.7-0.4,3.6c-1,0.9-1,2.6-1.6,3.3c-0.6,0.7-1.5,0.5-1.3,2.3
			c0.1,1.8,0.7,1.3-0.4,2.2c-1.1,0.9-0.5,2.9-0.5,2.9s-1.3,0-1.1,1.1c0.2,1.1,2.3,2.2,2.6,3.3c0.2,1.1,3.8,4.4,3.8,4.4l3.4-0.2
			c0,0,1,1.3-1,2.8c-2,1.5-1.2,7.5-1.2,7.5s-4,2.5-6.5,2.3c-2.5-0.1-7.4,3.3-7.1,4.3c0.2,1,1.5,2.8,0.5,3.6c-1,0.7-1.7,2.9-1.6,3.7
			c0.1,0.7-1.7,0.5-1.7,0.5s-3.7,8.6-4.8,8.8c-1.1,0.2-1.8,8.9-2.6,9.1s2.1,2.8,2.1,2.8s0.1,2.3-0.7,1.5s-2.2-0.6-2.1,0.1
			c0.1,0.7-1.8-0.2-1.3,1.2c0.5,1.5,1,4,1,4s1.8-1.1,3.4-0.4c1.6,0.7,3.8-2.7,4.2-5c0.4-2.3,6-4.5,6-4.5s1.8,0.6,2.3,0.4
			c0.5-0.2,3.7-7.2,3.6-8.7c-0.1-1.5,4.5-4.7,4.5-5.9c0-1.2,3.3-5.1,4.3-4.5c1,0.6,1.7-1,1.7-1s-0.4,1.6,0.4,1.8s0.2-0.5,1.1-1.7
			c0.9-1.2,1.8-1.6,3.1-0.7c1.2,0.9,2.8-3.2,2.8-3.2s0.5,1.1,0.5,2.8c0,1.7,2.2,3.2,2.2,3.2s1.7,0.2,2.6,1.1c0.9,0.9,2,0.2,1.8,1.7
			c-0.1,1.5-2.7,12.1-5.4,15.4c-2.7,3.3-3.2,9.8-3.2,9.8s-1.3,2.3-1.3,4.3s-1.6,4.8-1.6,6.5c0,1.7-2.2,6.1-1.8,8
			c0.4,1.8,1.8,6.9,2.3,7.6c0.5,0.7-1,6-2,6.7c-1,0.7-7,4.3-7.1,6.9c-0.1,2.6-1.1,4.9-1.6,5.5c-0.5,0.6-0.5,2.2-0.4,3.2
			c0.1,1-0.7,1.8-1.1,2.8c-0.4,1-0.7,1.2-0.7,2.9c0,1.7-0.7,8.6-0.2,10.2c0.5,1.6,2.2,3.4,1.6,4.9c-0.6,1.5-0.9,7.1-0.9,7.1
			s-1.3,2.3-1.6,3.7s-3.2,4.5-3.3,5.3s-0.2,11.2-2.2,13.5c-2,2.3-3.1,3.8-3.1,6.1c0,2.3-1.5,6.1-2.2,6.5s1,8.6,1,8.6
			s1.3,0.7,0.6,2.5c-0.7,1.7,0.5,6,0.9,6.6c0.4,0.6,0.2,2.9-0.5,3.2c-0.7,0.2-0.2,4.3,0.4,4.4c0.6,0.1,2.5,2.3,2.1,3.1
			c-0.4,0.7,1,2.3,1,2.3s0.2,4.5-0.6,5c-0.9,0.5,1,4.8,2.6,6.5c1.6,1.7,2.7,3.2,1.6,4.8c-1.1,1.6,0.4,2.5,0.4,2.5s-0.7,5.1-1.8,5.9
			c-1.1,0.7,0.7,16.9,0.7,16.9l-0.6,0.1C570.2,664,507,662.1,443.9,661.1z"/>
		<path id="path2886" fill="#515151" d="M662,453.3l-5.2-4.6c0,0,1.2-3.6,0-4.6c-1.2-1,3.6-9.1,3.6-9.1s1.2-4.4,2.8-4.9
			c1.6-0.5,2.1-7.2,2.1-7.2s1.9-2.4,1.4-3c-0.5-0.6,2.8,1,2.6,1.9c-0.2,0.8,0.5,1.4,0.8,1c0.4-0.4-1.1-3.2,0.5-3.9s3-1.9,3-1.9
			s0.1-3.8,0.4-4.2c0.3-0.5,1.4,0,1.8-0.4c0.4-0.4,0.7-5,1.3-4.4c0.7,0.6,2.3,2.2,2.3,2.2l3.4-0.6c0,0-0.7,2.2-0.3,3.1
			c0.4,0.9,0,2.4,0,2.4s0.1,2.3-0.5,2.1c-0.6-0.2-1.7-2.4-1.7-2.4s-1.4-2.3-1.7-1.9c-0.3,0.5-0.2,1.8,0.4,2.3c0.6,0.6,0.3,6-0.2,6
			c-0.5,0,0.7,2.2,0.7,2.2s-1.4-2.3-1.8-2c-0.4,0.3,0.2,3,0.6,3.5c0.4,0.5,0,3.8-0.5,3.2c-0.5-0.7-1.7-1.7-1.8-1.1
			c-0.1,0.6,0.6,2.8,0.6,2.8s-1.4,0.8-1.8,0.1s-1.1,2.5-1.1,2.5s-3.7,2.9-3.2,4.9s0.5,4.2,0.5,4.2s-0.6,0.8-1.2,1.5
			s-1.9,1.1-1.6,1.9c0.3,0.8,1.5,2.1,0.4,2.6c-1.1,0.6-1.9-0.3-2.2,1.1c-0.3,1.4-1.2,2-1.9,1.4s-1-0.2-0.8,0.6
			C664,451.3,662.8,453.9,662,453.3z"/>
		<path id="path3773" fill="#515151" d="M659.3,417.2c0,0-1.2,1.3-1.9,1.3c-0.7,0,1.2,3.1,1.2,3.1s2.3,0.3,2.3-0.6
			c0.1-0.8-0.8-0.5-0.8-1.5C660,418.5,659.6,417.4,659.3,417.2z"/>
		<path id="path4662" fill="#515151" d="M684.1,402.8c0,0,0-1.6-0.5-2.1c-0.5-0.5,0.9-0.8,0.9-0.8l0.3-2.6c0,0,0.6,2.3,1.4,2.1
			c0.8-0.3,3.1-1.1,3.6,0.4s1.1,1.3,1.1,1.3s-1.3,0.5-1.3,1.3c0,0.8,0.5,1.4,0.5,1.4s-1.6-0.7-1.4,0.5c0.2,1.1,0.8,1.4,0.8,1.4
			s-2.1-0.6-2.6-0.5c-0.6,0.1-1-2.3-1.6-1.5c-0.6,0.8-1.2,1.4-1.2,1.4S683.4,403.1,684.1,402.8z"/>
		<path id="path5549" fill="#515151" d="M693,397.6c0,0-3-0.5-1.6,1.1c1.4,1.6,2.3,0.7,2.3,0.7L693,397.6z"/>
		<path id="path6436" fill="#515151" d="M429.3,259.1c0,0,0.1-1.6,1-1.5s1.7-1.5,1.9-0.8c0.2,0.7-0.2,2.1,0.1,2.4
			c0.3,0.4-1.7-0.6-2.1-0.1C429.8,259.6,429.2,259.1,429.3,259.1z"/>
		<path id="path6438" fill="#515151" d="M444.5,259.6c0,0-1,2.3-1.6,2.3c-0.6,0,1.3,1.7,2.2,2.1c0.8,0.4,3,0.4,2.9-0.7
			c-0.1-1-0.6-2.3-1.2-2.1C446.1,261.3,444.9,259.3,444.5,259.6z"/>
		<path id="path6440" fill="#515151" d="M443.5,256.3l1-0.7c0,0-1.5-3.5-1.6-2.4S443.6,256.4,443.5,256.3z"/>
		<path id="path6442" fill="#515151" d="M446.6,256.9c0-0.7-0.1-2.1,0.8-1.5c0.9,0.6,1.1,0.9,0.5,1.5c-0.7,0.6-0.9,1.3-1.2,0.8
			C446.5,257.3,446.4,256.7,446.6,256.9z"/>
		<path id="path6444" fill="#515151" d="M446,268.6l-0.5-1.4c0,0-2.7,2.5-1.8,3.5C444.7,271.6,446.1,268.7,446,268.6z"/>
		<path id="path6446" fill="#515151" d="M448.3,270.8c1.1-0.2,2.8-0.9,2.8-1.7c0-0.8,0.6-0.9,1.1-0.5c0.6,0.5,3.2,0.9,2.3,1.5
			c-0.8,0.6-1.2,1.1-1.7,0.8c-0.5-0.4-2.3,1.4-2.3,1.4s-0.5,0.3-1.6,0.2C448,272.4,447.4,271.3,448.3,270.8z"/>
		<path id="path6448" fill="#515151" d="M447.3,272.5c1.4,1.9,1.8,1.8,2.5,1.8c0.8,0,0.8,0.9,0.1,1.6c-0.8,0.7-1.3,0.8-3.2,0.9
			c-1.9,0.1-2.2,0.3-2.4,1.2c-0.3,0.9-1.9,2.6-2.2,1.4c-0.3-1.2-0.5-2.3,0.1-2.9s1.2-0.9,0.3-0.9s-1.2-0.7,0.5-1
			c1.7-0.4,2.3-1.1,2.8-1.7C446.3,272.3,446.9,272,447.3,272.5z"/>
		<path id="path6450" fill="#515151" d="M459.4,267.8c0.5,0.7,0.4,1.2,0.4,1.2s3-2.3,3-3c0-0.7-0.1-1.3-0.1-1.3s-0.8,0.7-1.4,1.4
			c-0.7,0.8-2.3,1.7-2.3,1.7H459.4z"/>
		<path id="path6452" fill="#515151" d="M461.8,256.5c0,0,0.8-3.1,0.4-3.9c-0.5-0.8,2.3-3.5,2.3-3.5l0.8,0.3c0,0,0.9-1,1.1-0.4
			c0.2,0.7,0,1.7-0.5,2.2c-0.5,0.5-0.2,2,0.2,2.5C466.4,254.3,462.3,257,461.8,256.5z"/>
		<path id="path7339" fill="#515151" d="M449.8,263.7c0,0,0.8-2.8,1.8-2.6s2-1.2,2.7-0.8c0.8,0.4,0.9-0.9,1.6-0.5
			c0.7,0.5,2.3-0.9,2.3-0.2c0.1,0.8-0.4,2.6-1,2.9c-0.7,0.3-0.7,2.7-1.1,1.7c-0.5-1-1.8-1.1-2-0.4c-0.2,0.8-0.9-0.1-2.4,0.2
			c-1.5,0.3-0.8,1.5-1.3,1.2C449.9,264.9,449,263.9,449.8,263.7z"/>
		<path id="path7341" fill="#515151" d="M450.4,257.9c0,0-1.7,1-1.5,1.8c0.2,0.8,2,0.2,2.2-0.2C451.2,259.1,450.3,257.6,450.4,257.9
			z"/>
		<path id="path7343" fill="#515151" d="M452.6,255.5c0,0-1.3,0.1-0.9,0.8c0.4,0.8,1.2,0.9,1.2,0.9S453.8,256.1,452.6,255.5z"/>
		<path id="path7345" fill="#515151" d="M455.2,253.5c-0.7,0.7-0.8,0.1-0.3,1.1c0.6,1,0.8,1.1,0.6,2c-0.3,0.8,1.2,0.9,1.4,0.4
			c0.2-0.6,0.4-1.3-0.1-2C456.3,254.4,455.8,253,455.2,253.5z"/>
		<path id="path7347" fill="#515151" d="M448.6,251.5c-1.2,1.3-2.3,2.4-1.3,2.8c0.9,0.4,1.7-0.4,1.9-1
			C449.4,252.6,448.9,251.6,448.6,251.5z"/>
	</g>
</g>
<g id="Layer_3">
	<path fill="#A5ECCF" d="M625.7,604.8c0-5.9-4.8-10.6-10.6-10.6c-5.9,0-10.6,4.8-10.6,10.6c0,1.9,0.5,3.7,1.4,5.3h0l9.2,19.1
		l9.2-19.1h0C625.2,608.5,625.7,606.7,625.7,604.8z M615.1,610.3c-3.1,0-5.6-2.5-5.6-5.6c0-3.1,2.5-5.6,5.6-5.6
		c3.1,0,5.6,2.5,5.6,5.6C620.7,607.8,618.2,610.3,615.1,610.3z"/>
</g>
</svg>
