<?xml version="1.0" encoding="utf-8"?>
<!-- Generator: Adobe Illustrator 18.1.1, SVG Export Plug-In . SVG Version: 6.00 Build 0)  -->
<svg version="1.1" id="Layer_1" xmlns="http://www.w3.org/2000/svg" xmlns:xlink="http://www.w3.org/1999/xlink" x="0px" y="0px"
	 viewBox="358 245 83 83" enable-background="new 358 245 83 83" xml:space="preserve">
<g>
	<path d="M433.7,282.6l-30.4-30.4c-1.7-1.7-4.6-1.7-6.4,0l-6.3,6.3l8,8c1.9-0.6,4-0.2,5.5,1.3c1.5,1.5,1.9,3.6,1.3,5.5l7.7,7.7
		c1.9-0.6,4-0.2,5.5,1.3c2.1,2,2.1,5.5,0,7.6c-2.1,2.1-5.5,2.1-7.6,0c-1.6-1.6-2-3.9-1.1-5.8l-7.2-7.2v18.9c0.5,0.2,1,0.6,1.4,1
		c2.1,2,2.1,5.5,0,7.6c-2.1,2-5.5,2-7.6,0c-2.1-2.1-2.1-5.5,0-7.6c0.5-0.5,1.1-0.9,1.7-1.1v-19.2c-0.6-0.2-1.2-0.7-1.7-1.1
		c-1.6-1.6-2-3.9-1.1-5.8l-7.9-7.9l-20.8,20.8c-1.7,1.7-1.7,4.6,0,6.4l30.4,30.4c1.7,1.7,4.6,1.7,6.4,0l30.2-30.2
		C435.5,287.2,435.5,284.3,433.7,282.6z"/>
</g>
</svg>
