<?xml version="1.0" encoding="utf-8"?>
<!-- Generator: Adobe Illustrator 18.1.1, SVG Export Plug-In . SVG Version: 6.00 Build 0)  -->
<svg version="1.1" id="Layer_1" xmlns="http://www.w3.org/2000/svg" xmlns:xlink="http://www.w3.org/1999/xlink" x="0px" y="0px"
	 viewBox="68 217 177 153.6" enable-background="new 68 217 177 153.6" xml:space="preserve">
<g>
	<g>
		<path fill="#5E64B2" d="M160.9,331c2.5,3.2,5,4.6,8,4.6c5.2,0,9.8-4.5,9.8-11.2v-18c0-8-4-12.4-9.8-12.4c-3.2,0-6.7,1.8-9.1,5.8
			v-4.7h-10v60.6H97.4V331c2.5,3.2,5,4.6,8,4.6c5.2,0,9.8-4.5,9.8-11.2v-18c0-8-4-12.4-9.8-12.4c-3.2,0-6.7,1.8-9.1,5.8v-4.7h-10
			v60.6h-8.1v-88.8H118v67.7h11.1v-27.8c0-2.3,0.9-3.7,3.1-3.7c1.9,0,2.9,1.2,2.9,3.7v27.8h11.2v-31.6c0-6.2-4.1-8.9-8.9-8.9
			c-2.9,0-6.1,0.9-8.3,3.7v-30.9h42.9c0,0.2,0,0.3,0,0.4l0.1,3.8c0,5.5,2.7,12.3,4,15.3c0,0,3.8,7.8,6.7,10.8c2.9,3,5.1,5.3,7.6,7.7
			c2.3,2.2,4.5,4.3,5.6,5.7c1.9,2.4,2.1,4.4,2.2,7.4c0.3,5.8-1.8,9.1-5.1,13.6c-3.3,4.6-5.2,6.5-7.3,8.8c-1.1,1.2-2.2,2.3-3.5,3.9
			l-1.1,1.2c-2.1,2.5-3.9,4.6-5.5,6.5l-3.4,3.7H161L160.9,331L160.9,331z M167.5,322.1v-14.2c0-3.2-1.1-4.8-3.3-4.8
			c-2.2,0-3.3,1.7-3.3,4.8v14.2c0,3.2,1.1,4.6,3.3,4.6C166.4,326.7,167.5,325.3,167.5,322.1z M104,322.1v-14.2
			c0-3.2-1.1-4.8-3.3-4.8c-2.2,0-3.3,1.7-3.3,4.8v14.2c0,3.2,1.1,4.6,3.3,4.6C102.9,326.7,104,325.3,104,322.1z"/>
		<path fill="#FA930D" d="M226.8,236.9c2.6-3,4.7-5.4,6.4-7.5h-38.8c-2.3,3-7,8.6-9.7,13.7c-3.5,6.7-6.5,11.7-6.7,24l0.1,4
			c0,5.9,4.2,14.5,4.2,14.5c0.7,1.5,2.9,4.8,4.3,6.7h0c0.5,0.6,0.8,1,0.8,1c4.2,4.8,10.5,10.2,13.3,13.6c3.3,4,3.4,7.8,3.5,10.8
			c0.5,8-2.7,12.8-6.2,17.5c-5.2,7.1-7.1,8.4-11.1,13.1c-2.6,3-4.7,5.4-6.4,7.5h40.1c2.4-3,5.7-8.6,8.4-13.7
			c3.5-6.7,6.5-11.7,6.7-24l-0.1-4c0-5.9-4.2-14.5-4.2-14.5c-0.7-1.5-2.9-4.7-4.3-6.7h0c-0.5-0.6-0.8-1-0.8-1
			c-4.2-4.8-10.5-10.2-13.3-13.6c-3.3-4-3.4-7.8-3.5-10.8c-0.5-8,2.7-12.8,6.2-17.5C220.9,242.9,222.8,241.6,226.8,236.9z"/>
	</g>
</g>
</svg>
