<?xml version="1.0" encoding="utf-8"?>
<!-- Generator: Adobe Illustrator 19.1.0, SVG Export Plug-In . SVG Version: 6.00 Build 0)  -->
<svg version="1.1" id="Layer_1" xmlns="http://www.w3.org/2000/svg" xmlns:xlink="http://www.w3.org/1999/xlink" x="0px" y="0px"
	 viewBox="0 0 305 87" style="enable-background:new 0 0 305 87;" xml:space="preserve">
<style type="text/css">
	.st0{fill:none;}
	.st1{fill:#FFFFFF;}
	.st2{fill:#F15A29;}
</style>
<path class="st0" d="M121.8,38.6c-0.6,2.8-1.4,6.1-2.2,9.4c1.3,0.2,2.7,0.4,4.1,0.5c1-3.7,2.2-7,3.5-10c-1,0.1-2.1,0.2-3.1,0.2
	C123.3,38.7,122.5,38.7,121.8,38.6z"/>
<path class="st0" d="M102.4,31.2c0,0.4-0.1,0.8-0.1,1.2c0,4.8,3,10.8,11.2,14c0.7-2.9,1.4-5.9,2-8.5
	C109.3,36.7,105.1,34.2,102.4,31.2z"/>
<path class="st0" d="M133.1,56.3c-1.3,0-3.7,1.1-5.6,3.4c-2.1,9.6-3.8,16.4-3.8,17.9c0,2.5,1.3,3.6,3.2,3.6c3.1,0,9.6-6,9.6-18.8
	C136.5,58.4,134.9,56.3,133.1,56.3z"/>
<path class="st0" d="M117.3,66c0.9,0,2.1-0.9,3-2.3c0.7-3.1,1.6-7.1,2.8-12.4c0.1-0.8,0.3-1.5,0.5-2.3c-1.5-0.1-2.8-0.3-4.1-0.5
	c-1.8,7.2-3.6,14.3-3.6,15.5C115.8,65.8,116.4,66,117.3,66z"/>
<path class="st0" d="M132.8,37.5c-1,2.8-1.9,5.8-2.6,9.3l-0.3,1.7c18.8-1.2,28.6-14.2,28.6-22c0-2.6-1.3-4.7-3.3-5.9
	C151.2,27.6,143,34.7,132.8,37.5z"/>
<path class="st0" d="M183,55.6c-5.6,0-9.3,8.7-9.1,15.6c9.1-0.8,13.7-6.9,13.7-11.2C187.6,57.5,186.1,55.6,183,55.6z"/>
<path class="st0" d="M147.1,19.1c0-0.3,0-0.6,0-0.9c0-5.5-3.3-8.4-7.4-8.4c-6.5,0-14.5,7.3-16.9,22.5c0,1-0.4,3.1-1,5.7
	c0.7,0,1.4,0,2.2,0c1.1,0,2.2-0.1,3.4-0.3C132.9,26.2,140.7,20.5,147.1,19.1z"/>
<path class="st0" d="M133.2,36.2c6.6-2.7,12.9-8.1,13.8-16C142.3,21.8,137,26.7,133.2,36.2z"/>
<path class="st0" d="M258,55.7c-4,0-7.5,9-7.5,16.2c0,4.5,1.4,7.9,4.8,7.9c1.3,0,2.6-0.6,4-2.3c-0.1-2,2.1-10.5,3.6-16.9
	C262,57.4,260.3,55.7,258,55.7z"/>
<path class="st0" d="M49.8,40.7c-4,0-7.5,9-7.5,16.2c0,4.5,1.4,7.9,4.8,7.9c1.3,0,2.6-0.6,4-2.3c-0.1-2,2.1-10.5,3.6-16.9
	C53.8,42.4,52.1,40.7,49.8,40.7z"/>
<path class="st1" d="M31.7,65.2c-3.2,0-2.5-15.3-9-15.3c-1.2,0-3,0.7-4.3,1.4c4.8-2.7,4.8-9.6,9.7-9.6c1.6,0,4.4,0.6,5.1,3.7
	c-0.6-0.9-1.3-1.3-2-1.3c-1.5,0-2.9,1.7-2.9,3.5c0,1.4,0.8,2.7,2.5,2.7c1.8,0,3-1.7,3-3.4c0-3.5-2.7-5.7-5.8-5.7
	c-5.1,0-5.6,7.3-10.4,10.1c1.7-8,3.5-16.5,3.5-17.9c0-4.1-2.6-5.1-4.9-5.1c-2.7,0-5.3,1-6.7,3.1l0.4,0.1c1.2-1.5,2.4-2.2,3.3-2.2
	c1.1,0,1.9,0.5,1.9,1.7c0,2.3-3,16.4-5.3,26.5c-0.8,3.3-1.3,5.7-1.3,6c0,2,0.7,2.4,1.6,2.4c0.6,0,2.8-0.2,3.3-0.2s1.3,0,2.9,1.9H17
	c-1.4-1.7-1.9-1.7-1.9-3.5c0-0.4,0.3-1.8,1.3-6.7c0.3-1.7,0.8-3.6,1.2-5.5c0.4-0.2,0.8-0.4,1.2-0.4c4.9,0,1.9,15.6,9.5,15.6
	c2.8,0,5.7-2.2,6.1-5.8h-0.4C33.7,64.2,32.3,65.2,31.7,65.2z"/>
<path class="st1" d="M62.5,59c-0.3,4-2.8,6.7-4.3,6.7c-1.1,0-1.4-0.5-1.4-1.7c0-1.3,4.6-19.8,5.5-24.5H62l-0.4,1.8
	c-1.5,0.6-2.3,0.7-3.1,0.7c-1.1,0-1.9-0.3-2.9-0.9c-0.2,0.9-0.4,2.2-0.8,3.7c-0.9-3.2-2.8-4.8-5.7-4.8c-8.2,0-13.5,9.6-13.5,17.2
	c0,5,2.4,9.2,8.3,9.2c3,0,5.4-1.3,7.2-3.5c0.3,2.7,2.5,3.7,4.8,3.7c3.9,0,6.5-2.9,7-7.7H62.5z M51.1,62.5c-1.3,1.7-2.6,2.3-4,2.3
	c-3.4,0-4.8-3.4-4.8-7.9c0-7.2,3.6-16.2,7.5-16.2c2.3,0,4,1.7,4.8,4.8C53.2,52,50.9,60.4,51.1,62.5z"/>
<path class="st1" d="M80.3,41.1c-2.2,0-4.7,1.8-6.6,4.7v-0.3c0-3.2-2.5-4.6-5.2-4.6c-2.5,0-5.2,1.2-6.5,3.3l0.4,0.1
	c0.9-1.2,2.3-2.2,3.7-2.2c0.9,0,1.5,0.7,1.5,1.7c0,3.3-4,19.1-4.9,23.8h0.4l0.4-1.9c1.1-0.4,2.3-0.6,3.1-0.6c1.1,0,1.9,0.3,2.9,0.9
	c0.8-3.5,3.4-14.6,4-19c1.9-3.3,4.5-5.4,6.8-5.4c0.5,0,1.3,0.2,1.7,0.5c-1,0.1-3.6,0.9-3.6,4.1c0,2.1,1.5,3.5,3.3,3.5
	c2.3,0,3.7-2.1,3.7-4.3C85.5,42.5,83.1,41.1,80.3,41.1z"/>
<path class="st1" d="M104.1,44.6c-2.6,0-3.9,2.3-3.9,4.4c0,2.1,1.5,3.5,3.3,3.5c2,0,3.4-1.7,3.7-3.6v0.6c0,6.5-4.3,15-9.2,15
	c-4.1,0-5.9-3.8-5.9-8.7c0-6.5,3.5-14.9,8.5-14.9c0.9,0,3,0.3,4.6,2.1l0-0.4c-1.6-1.9-4.1-2.2-5.3-2.2c-8.3,0-14,7.9-14,16.8
	c0,5.2,2.8,9.6,8.8,9.6c7.5,0,13-9.7,13-17.1C107.6,47.2,106.6,44.6,104.1,44.6z"/>
<path class="st1" d="M117.3,66c-0.9,0-1.5-0.1-1.5-1.9c0-1.2,1.8-8.3,3.6-15.5c-2.2-0.4-4.2-0.9-5.9-1.6c-1.7,7-3.4,13.9-3.4,15.7
	c0,3.4,2.5,4.3,5.1,4.3c1.7,0,3.4-0.7,4.8-2.3c0.1-0.3,0.1-0.7,0.2-1C119.3,65.1,118.1,66,117.3,66z"/>
<path class="st2" d="M110.7,27c0,1.3-0.6,2.8-1.3,3.3l0.4,0.1c0.8-0.6,1.4-2.4,1.4-3.4c0-5-7.7-4.4-9.1,3c0.1,0.2,0.3,0.4,0.4,0.5
	C103.6,23.3,110.7,22.5,110.7,27z"/>
<path class="st2" d="M121.7,59.3c-0.1,1.7-0.7,3.2-1.5,4.3c-0.1,0.4-0.1,0.7-0.2,1c1.1-1.2,1.9-3,2.1-5.3H121.7z"/>
<path class="st1" d="M155.4,20c1.4-2.6,2.1-5.2,2.1-7.5c0-4.8-3.3-8.3-10.9-8.3c-6.2,0-20.1,5.6-24,26.5c-0.6-2.3-2.6-3.2-4.8-3.2
	c-2.7,0-5.5,1.2-6.6,2.7l0.2,0.2c1.1-1.2,2.6-2,4-2c0.9,0,1.4,0.6,1.4,1.9c0,1.2-0.5,3.7-1.2,7c-6.4-1.2-10.6-3.9-13.1-6.9
	c-0.1-0.2-0.3-0.4-0.4-0.5c-1.9-2.5-2.7-5.3-2.7-7.8c0-4.1,1.7-6.6,3.7-7.6c-1,0.9-1.5,2.3-1.5,3.5c0,2.1,1.5,3.5,3.3,3.5
	c2.3,0,3.7-2.1,3.7-4.3c0-2-1.5-3.6-3.5-3.6c-4.4,0-6.2,4.8-6.2,8.5c0,2.8,1,5.8,3.1,8.6c0.2,0.2,0.3,0.4,0.5,0.6
	c2.7,3,6.9,5.5,13.1,6.7c-0.6,2.6-1.3,5.5-2,8.5c1.7,0.7,3.7,1.2,5.9,1.6c0.8-3.3,1.6-6.6,2.2-9.4c0.8,0,1.5,0,2.3,0
	c1.1,0,2.1-0.1,3.1-0.2c1.9-0.2,3.8-0.5,5.6-1c10.2-2.7,18.5-9.9,22.4-16.9c-2.1-1.2-5-1.5-8.1-0.4c-0.9,8-7.2,13.4-13.8,16
	c-1.9,0.8-3.9,1.3-5.7,1.6c-1.2,0.2-2.3,0.3-3.4,0.3c-0.8,0-1.5,0-2.2,0c0.6-2.6,1-4.7,1-5.7c2.4-15.2,10.4-22.5,16.9-22.5
	c4.1,0,7.4,2.9,7.4,8.4c0,0.3,0,0.6,0,0.9C150.4,18.4,153.3,18.8,155.4,20z"/>
<g>
	<path class="st2" d="M159,26.5c0-2.9-1.4-5.2-3.6-6.4c-2.1-1.2-5-1.6-8.3-0.9c-6.5,1.4-14.2,7.1-19.6,18.7c1.9-0.3,3.8-0.9,5.7-1.6
		c3.8-9.5,9-14.4,13.8-16c3.1-1.1,6-0.8,8.1,0.4c2,1.2,3.3,3.3,3.3,5.9c0,7.8-9.8,20.9-28.6,22l0.3-1.7c0.7-3.5,1.6-6.6,2.6-9.3
		c-1.8,0.5-3.7,0.8-5.6,1c-1.3,3-2.5,6.3-3.5,10c-1.5-0.1-2.9-0.3-4.1-0.5c-2.2-0.4-4.2-0.9-5.9-1.6c-8.2-3.2-11.2-9.2-11.2-14
		c0-0.4,0-0.8,0.1-1.2c-0.2-0.2-0.3-0.4-0.5-0.6c-0.1,0.6-0.1,1.1-0.1,1.8c0,5.2,3.3,11.3,11.6,14.5c1.7,0.7,3.7,1.2,5.9,1.6
		c1.3,0.2,2.7,0.4,4.1,0.5c-0.2,0.8-0.4,1.5-0.5,2.3c-1.2,5.3-2.1,9.3-2.8,12.4c0.8-1.2,1.4-2.7,1.5-4.3h0.4c-0.2,2.3-1,4.1-2.1,5.3
		c-0.8,3.7-1.2,6-1.2,7.7c0,6.5,3.8,9.4,8.4,9.4c6.8,0,15.3-6.3,15.3-16.6c0-5-2.4-9.7-8-9.7c-2.9,0-5,1.2-7,3.4l2-9.9
		C148.2,47.9,159,35.1,159,26.5z M133.1,56.3c1.8,0,3.3,2.1,3.3,6c0,12.8-6.4,18.8-9.6,18.8c-1.8,0-3.2-1.1-3.2-3.6
		c0-1.4,1.7-8.3,3.8-17.9C129.4,57.4,131.8,56.3,133.1,56.3z"/>
</g>
<path class="st2" d="M161.9,56.1c-2.2,0-4.7,1.8-6.6,4.7v-0.3c0-3.2-2.5-4.6-5.2-4.6c-2.5,0-5.2,1.2-6.5,3.3l0.4,0.1
	c0.9-1.2,2.3-2.2,3.7-2.2c0.9,0,1.5,0.7,1.5,1.7c0,3.3-4,19.1-4.9,23.8h0.4l0.4-1.9c1.1-0.4,2.3-0.6,3.1-0.6c1.1,0,1.9,0.3,2.9,0.9
	c0.8-3.5,3.4-14.6,4-19c1.9-3.3,4.5-5.4,6.8-5.4c0.5,0,1.3,0.2,1.7,0.5c-1,0.1-3.6,0.9-3.6,4.1c0,2.1,1.5,3.5,3.3,3.5
	c2.3,0,3.7-2.1,3.7-4.3C167.1,57.5,164.8,56.1,161.9,56.1z"/>
<path class="st2" d="M188.1,60.1c0-2.8-1.8-5.1-5.6-5.1c-16.8,0-20.5,26.5-6.5,26.5c5.3,0,9.3-2.3,11.7-8.3h-0.4
	c-2.2,4.9-4.5,6.4-7.2,6.4c-4,0-5.8-3.6-6-7.9C183.2,70.9,188.1,64.7,188.1,60.1z M173.9,71.3c-0.2-6.9,3.5-15.6,9.1-15.6
	c3.1,0,4.6,1.9,4.6,4.4C187.6,64.4,183,70.5,173.9,71.3z"/>
<path class="st2" d="M211.1,80.6c-0.9,0-1.7-0.5-1.7-2.1c0-3.4,4.2-15.4,4.2-18.6c0-3.4-2.3-4.7-5.1-4.7c-3.3,0-7.1,1.7-9,3.9
	c-0.3-3.1-2.8-3.9-5.2-3.9c-2.4,0-5.1,1-6.5,3.1l0.4,0.1c0.9-1.2,2.4-2.2,3.7-2.2c0.9,0,1.5,0.7,1.5,1.7c0,3.3-4.1,20.1-5,24.7h0.4
	l0.4-1.9c1.1-0.4,2.3-0.6,3.1-0.6c1.1,0,1.9,0.3,2.9,0.9c0.9-4,4.3-18.7,4.3-21.2v-0.2c1.3-1.4,3.6-3,5.3-3c1.3,0,2.3,0.8,2.3,2.9
	c0,4.6-3.1,12.1-3.1,17.1c0,3.4,2.4,5,5,5c3.3,0,6.2-2.6,6.7-7.8h-0.4C214.9,78.7,212.2,80.6,211.1,80.6z"/>
<path class="st2" d="M238.4,80.6c-0.9,0-1.7-0.5-1.7-2.1c0-3.4,4.2-15.4,4.2-18.6c0-3.4-2.3-4.7-5.1-4.7c-3.3,0-7.1,1.7-9,3.9
	c-0.3-3.1-2.8-3.9-5.2-3.9c-2.4,0-5.1,1-6.5,3.1l0.4,0.1c0.9-1.2,2.4-2.2,3.7-2.2c0.9,0,1.5,0.7,1.5,1.7c0,3.3-4.1,20.1-5,24.7h0.4
	l0.4-1.9c1.1-0.4,2.3-0.6,3.1-0.6c1.1,0,1.9,0.3,2.9,0.9c0.9-4,4.3-18.7,4.3-21.2v-0.2c1.3-1.4,3.6-3,5.3-3c1.3,0,2.3,0.8,2.3,2.9
	c0,4.6-3.1,12.1-3.1,17.1c0,3.4,2.4,5,5,5c3.3,0,6.2-2.6,6.7-7.8h-0.4C242.2,78.7,239.5,80.6,238.4,80.6z"/>
<path class="st2" d="M270.7,74c-0.3,4-2.8,6.7-4.3,6.7c-1.1,0-1.4-0.5-1.4-1.7c0-1.3,4.6-19.8,5.5-24.5h-0.4l-0.4,1.8
	c-1.5,0.6-2.3,0.7-3.1,0.7c-1.1,0-1.9-0.3-2.9-0.9c-0.2,0.9-0.4,2.2-0.8,3.7c-0.9-3.2-2.8-4.8-5.7-4.8c-8.2,0-13.5,9.6-13.5,17.2
	c0,5,2.4,9.2,8.3,9.2c3,0,5.4-1.3,7.2-3.5c0.3,2.7,2.5,3.7,4.8,3.7c3.9,0,6.5-2.9,7-7.7H270.7z M259.2,77.5c-1.3,1.7-2.6,2.3-4,2.3
	c-3.4,0-4.8-3.4-4.8-7.9c0-7.2,3.6-16.2,7.5-16.2c2.3,0,4,1.7,4.8,4.8C261.3,67,259.1,75.4,259.2,77.5z"/>
<path class="st2" d="M297.7,73.8c-0.4,4.9-3.1,6.8-4.2,6.8c-0.9,0-1.7-0.5-1.7-2.1c0-3.4,4.2-15.4,4.2-18.6c0-3.4-2.3-4.7-5.1-4.7
	c-3.3,0-7.1,1.7-9,3.9c-0.3-3.1-2.8-3.9-5.2-3.9c-2.4,0-5.1,1-6.5,3.1l0.4,0.1c0.9-1.2,2.4-2.2,3.7-2.2c0.9,0,1.5,0.7,1.5,1.7
	c0,3.3-4.1,20.1-5,24.7h0.4l0.4-1.9c1.1-0.4,2.3-0.6,3.1-0.6c1.1,0,1.9,0.3,2.9,0.9c0.9-4,4.3-18.7,4.3-21.2v-0.2
	c1.3-1.4,3.6-3,5.3-3c1.3,0,2.3,0.8,2.3,2.9c0,4.6-3.1,12.1-3.1,17.1c0,3.4,2.4,5,5,5c3.3,0,6.2-2.6,6.7-7.8H297.7z"/>
</svg>
